<?xml version="1.0" encoding="UTF-8" standalone="no"?>
<svg
   xmlns:dc="http://purl.org/dc/elements/1.1/"
   xmlns:cc="http://creativecommons.org/ns#"
   xmlns:rdf="http://www.w3.org/1999/02/22-rdf-syntax-ns#"
   xmlns:svg="http://www.w3.org/2000/svg"
   xmlns="http://www.w3.org/2000/svg"
   xmlns:sodipodi="http://sodipodi.sourceforge.net/DTD/sodipodi-0.dtd"
   xmlns:inkscape="http://www.inkscape.org/namespaces/inkscape"
   version="1.1"
   viewBox="0.0 0.0 463.5196850393701 671.3044619422573"
   fill="none"
   stroke="none"
   stroke-linecap="square"
   stroke-miterlimit="10"
   id="svg2"
   inkscape:version="0.48.4 r9939"
   width="100%"
   height="100%"
   sodipodi:docname="Formula-Notation.svg">
  <metadata
     id="metadata387">
    <rdf:RDF>
      <cc:Work
         rdf:about="">
        <dc:format>image/svg+xml</dc:format>
        <dc:type
           rdf:resource="http://purl.org/dc/dcmitype/StillImage" />
      </cc:Work>
    </rdf:RDF>
  </metadata>
  <defs
     id="defs385" />
  <sodipodi:namedview
     pagecolor="#ffffff"
     bordercolor="#666666"
     borderopacity="1"
     objecttolerance="10"
     gridtolerance="10"
     guidetolerance="10"
     inkscape:pageopacity="0"
     inkscape:pageshadow="2"
     inkscape:window-width="1920"
     inkscape:window-height="1014"
     id="namedview383"
     showgrid="false"
     inkscape:zoom="0.70310869"
     inkscape:cx="147.00207"
     inkscape:cy="464.74128"
     inkscape:window-x="0"
     inkscape:window-y="37"
     inkscape:window-maximized="1"
     inkscape:current-layer="text3376" />
  <clipPath
     id="p.0">
    <path
       d="m0 0l463.51968 0l0 671.30444l-463.51968 0l0 -671.30444z"
       clip-rule="nonzero"
       id="path5" />
  </clipPath>
  <g
     clip-path="url(#p.0)"
     id="g7">
    <path
       fill="#000000"
       fill-opacity="0.0"
       d="m0 0l463.51968 0l0 671.30444l-463.51968 0z"
       fill-rule="nonzero"
       id="path9" />
    <path
       fill="#93c47d"
       d="m206.26772 541.7091l0 0c0 -12.069336 9.784134 -21.853455 21.853455 -21.853455l87.41121 0l0 0c5.7958984 0 11.354401 2.3024292 15.452728 6.400696c4.098297 4.0983276 6.4007263 9.65686 6.4007263 15.452759l0 88.07263c0 12.069275 -9.784119 21.853455 -21.853455 21.853455l-87.41121 0l0 0c-12.069321 0 -21.853455 -9.78418 -21.853455 -21.853455z"
       fill-rule="nonzero"
       id="path11" />
    <path
       stroke="#38761d"
       stroke-width="3.0"
       stroke-linejoin="round"
       stroke-linecap="butt"
       d="m206.26772 541.7091l0 0c0 -12.069336 9.784134 -21.853455 21.853455 -21.853455l87.41121 0l0 0c5.7958984 0 11.354401 2.3024292 15.452728 6.400696c4.098297 4.0983276 6.4007263 9.65686 6.4007263 15.452759l0 88.07263c0 12.069275 -9.784119 21.853455 -21.853455 21.853455l-87.41121 0l0 0c-12.069321 0 -21.853455 -9.78418 -21.853455 -21.853455z"
       fill-rule="nonzero"
       id="path13" />
    <path
       fill="#76a5af"
       d="m377.45407 528.58545l0 0c0 -4.82135 3.9084778 -8.729797 8.729828 -8.729797l34.918274 0l0 0c2.3153076 0 4.5357666 0.91973877 6.172943 2.5568848c1.637146 1.637207 2.5569153 3.857666 2.5569153 6.1729126l0 114.319885c0 4.82135 -3.9084778 8.729858 -8.729858 8.729858l-34.918274 0c-4.82135 0 -8.729828 -3.9085083 -8.729828 -8.729858z"
       fill-rule="nonzero"
       id="path15" />
    <path
       stroke="#134f5c"
       stroke-width="3.0"
       stroke-linejoin="round"
       stroke-linecap="butt"
       d="m377.45407 528.58545l0 0c0 -4.82135 3.9084778 -8.729797 8.729828 -8.729797l34.918274 0l0 0c2.3153076 0 4.5357666 0.91973877 6.172943 2.5568848c1.637146 1.637207 2.5569153 3.857666 2.5569153 6.1729126l0 114.319885c0 4.82135 -3.9084778 8.729858 -8.729858 8.729858l-34.918274 0c-4.82135 0 -8.729828 -3.9085083 -8.729828 -8.729858z"
       fill-rule="nonzero"
       id="path17" />
    <path
       fill="#76a5af"
       d="m30.267717 541.7091l0 0c0 -12.069336 9.784124 -21.853455 21.853453 -21.853455l87.411194 0l0 0c5.7958984 0 11.354416 2.3024292 15.452728 6.400696c4.0983276 4.0983276 6.4007416 9.65686 6.4007416 15.452759l0 88.07263c0 12.069275 -9.784134 21.853455 -21.85347 21.853455l-87.411194 0l0 0c-12.069328 0 -21.853453 -9.78418 -21.853453 -21.853455z"
       fill-rule="nonzero"
       id="path19" />
    <path
       stroke="#134f5c"
       stroke-width="3.0"
       stroke-linejoin="round"
       stroke-linecap="butt"
       d="m30.267717 541.7091l0 0c0 -12.069336 9.784124 -21.853455 21.853453 -21.853455l87.411194 0l0 0c5.7958984 0 11.354416 2.3024292 15.452728 6.400696c4.0983276 4.0983276 6.4007416 9.65686 6.4007416 15.452759l0 88.07263c0 12.069275 -9.784134 21.853455 -21.85347 21.853455l-87.411194 0l0 0c-12.069328 0 -21.853453 -9.78418 -21.853453 -21.853455z"
       fill-rule="nonzero"
       id="path21" />
    <path
       fill="#76a5af"
       d="m289.7139 367.36002l0 0c0 -12.069336 9.784149 -21.853455 21.853455 -21.853455l87.411224 0l0 0c5.7958984 0 11.354401 2.3023987 15.452728 6.4007263c4.098297 4.0983276 6.4007263 9.65683 6.4007263 15.452728l0 88.0726c0 12.069336 -9.784149 21.853455 -21.853455 21.853455l-87.411224 0l0 0c-12.069305 0 -21.853455 -9.784119 -21.853455 -21.853455z"
       fill-rule="nonzero"
       id="path23" />
    <path
       stroke="#134f5c"
       stroke-width="3.0"
       stroke-linejoin="round"
       stroke-linecap="butt"
       d="m289.7139 367.36002l0 0c0 -12.069336 9.784149 -21.853455 21.853455 -21.853455l87.411224 0l0 0c5.7958984 0 11.354401 2.3023987 15.452728 6.4007263c4.098297 4.0983276 6.4007263 9.65683 6.4007263 15.452728l0 88.0726c0 12.069336 -9.784149 21.853455 -21.853455 21.853455l-87.411224 0l0 0c-12.069305 0 -21.853455 -9.784119 -21.853455 -21.853455z"
       fill-rule="nonzero"
       id="path25" />
    <path
       fill="#93c47d"
       d="m26.328083 373.81934l0 0c0 -12.1302185 9.833481 -21.963684 21.963696 -21.963684l171.12773 0c5.8251343 0 11.411682 2.3140259 15.53067 6.433014c4.118988 4.118988 6.433014 9.705536 6.433014 15.53067l0 87.85214c0 12.1302185 -9.833481 21.963684 -21.963684 21.963684l-171.12773 0c-12.130215 0 -21.963696 -9.833466 -21.963696 -21.963684z"
       fill-rule="nonzero"
       id="path27" />
    <path
       stroke="#38761d"
       stroke-width="3.0"
       stroke-linejoin="round"
       stroke-linecap="butt"
       d="m26.328083 373.81934l0 0c0 -12.1302185 9.833481 -21.963684 21.963696 -21.963684l171.12773 0c5.8251343 0 11.411682 2.3140259 15.53067 6.433014c4.118988 4.118988 6.433014 9.705536 6.433014 15.53067l0 87.85214c0 12.1302185 -9.833481 21.963684 -21.963684 21.963684l-171.12773 0c-12.130215 0 -21.963696 -9.833466 -21.963696 -21.963684z"
       fill-rule="nonzero"
       id="path29" />
    <path
       fill="#93c47d"
       d="m289.7139 183.36002l0 0c0 -12.069336 9.784149 -21.853455 21.853455 -21.853455l87.411224 0l0 0c5.7958984 0 11.354401 2.302414 15.452728 6.4007263c4.098297 4.0983276 6.4007263 9.65683 6.4007263 15.452728l0 88.0726c0 12.069336 -9.784149 21.853455 -21.853455 21.853455l-87.411224 0l0 0c-12.069305 0 -21.853455 -9.784119 -21.853455 -21.853455z"
       fill-rule="nonzero"
       id="path31" />
    <path
       stroke="#38761d"
       stroke-width="3.0"
       stroke-linejoin="round"
       stroke-linecap="butt"
       d="m289.7139 183.36002l0 0c0 -12.069336 9.784149 -21.853455 21.853455 -21.853455l87.411224 0l0 0c5.7958984 0 11.354401 2.302414 15.452728 6.4007263c4.098297 4.0983276 6.4007263 9.65683 6.4007263 15.452728l0 88.0726c0 12.069336 -9.784149 21.853455 -21.853455 21.853455l-87.411224 0l0 0c-12.069305 0 -21.853455 -9.784119 -21.853455 -21.853455z"
       fill-rule="nonzero"
       id="path33" />
    <path
       fill="#000000"
       fill-opacity="0.0"
       d="m316.83597 386.27298l85.51181 48.0"
       fill-rule="nonzero"
       id="path35" />
    <path
       stroke="#000000"
       stroke-width="3.0"
       stroke-linejoin="round"
       stroke-linecap="butt"
       d="m316.83597 386.27298l85.51181 48.0"
       fill-rule="nonzero"
       id="path37" />
    <path
       fill="#000000"
       fill-opacity="0.0"
       d="m147.63518 410.47244l86.70865 23.811035"
       fill-rule="nonzero"
       id="path39" />
    <path
       stroke="#000000"
       stroke-width="3.0"
       stroke-linejoin="round"
       stroke-linecap="butt"
       d="m147.63518 410.47244l86.70865 23.811035"
       fill-rule="nonzero"
       id="path41" />
    <path
       fill="#76a5af"
       d="m26.328083 189.81934l0 0c0 -12.1302185 9.833481 -21.9637 21.963696 -21.9637l171.12773 0c5.8251343 0 11.411682 2.3140259 15.53067 6.433029c4.118988 4.118988 6.433014 9.705536 6.433014 15.53067l0 87.85214c0 12.1302185 -9.833481 21.963684 -21.963684 21.963684l-171.12773 0c-12.130215 0 -21.963696 -9.833466 -21.963696 -21.963684z"
       fill-rule="nonzero"
       id="path43" />
    <path
       stroke="#134f5c"
       stroke-width="3.0"
       stroke-linejoin="round"
       stroke-linecap="butt"
       d="m26.328083 189.81934l0 0c0 -12.1302185 9.833481 -21.9637 21.963696 -21.9637l171.12773 0c5.8251343 0 11.411682 2.3140259 15.53067 6.433029c4.118988 4.118988 6.433014 9.705536 6.433014 15.53067l0 87.85214c0 12.1302185 -9.833481 21.963684 -21.963684 21.963684l-171.12773 0c-12.130215 0 -21.963696 -9.833466 -21.963696 -21.963684z"
       fill-rule="nonzero"
       id="path45" />
    <path
       fill="#3b3b3b"
       fill-opacity="0.6846"
       d="m292.0735 52.18635l0 0c0 -15.00301 12.775757 -27.165354 28.53543 -27.165354l0 0c7.5680847 0 14.826172 2.8620548 20.177612 7.9565487c5.35141 5.09449 8.357819 12.004105 8.357819 19.208805l0 0c0 15.00301 -12.775726 27.165356 -28.53543 27.165356l0 0c-15.759674 0 -28.53543 -12.162346 -28.53543 -27.165356z"
       fill-rule="nonzero"
       id="path47" />
    <path
       fill="#000000"
       fill-opacity="0.0"
       d="m48.150917 85.8294l85.5118 -48.000004"
       fill-rule="nonzero"
       id="path49" />
    <path
       stroke="#000000"
       stroke-width="3.0"
       stroke-linejoin="round"
       stroke-linecap="butt"
       d="m48.150917 85.8294l85.5118 -48.000004"
       fill-rule="nonzero"
       id="path51" />
    <path
       fill="#3b3b3b"
       fill-opacity="0.6846"
       d="m28.07349 92.18635l0 0c0 -15.003006 12.775749 -27.165352 28.535435 -27.165352l0 0c7.5680695 0 14.826164 2.8620605 20.177597 7.9565506c5.351433 5.09449 8.357834 12.004105 8.357834 19.208801l0 0c0 15.003014 -12.775749 27.16536 -28.53543 27.16536l0 0c-15.7596855 0 -28.535435 -12.162346 -28.535435 -27.16536z"
       fill-rule="nonzero"
       id="path53" />
    <path
       fill="#ffd966"
       d="m21.44357 84.47507l0 0c0 -15.003014 12.775749 -27.165356 28.535435 -27.165356l0 0c7.5680656 0 14.826164 2.8620567 20.177597 7.956547c5.351433 5.09449 8.357834 12.004105 8.357834 19.208809l0 0c0 15.003006 -12.775749 27.165352 -28.53543 27.165352l0 0c-15.7596855 0 -28.535435 -12.162346 -28.535435 -27.165352z"
       fill-rule="nonzero"
       id="path55" />
    <path
       stroke="#000000"
       stroke-width="2.0"
       stroke-linejoin="round"
       stroke-linecap="butt"
       d="m21.44357 84.47507l0 0c0 -15.003014 12.775749 -27.165356 28.535435 -27.165356l0 0c7.5680656 0 14.826164 2.8620567 20.177597 7.956547c5.351433 5.09449 8.357834 12.004105 8.357834 19.208809l0 0c0 15.003006 -12.775749 27.165352 -28.53543 27.165352l0 0c-15.7596855 0 -28.535435 -12.162346 -28.535435 -27.165352z"
       fill-rule="nonzero"
       id="path57" />
    <path
       fill="#000000"
       d="m49.192028 77.801315l1.796875 0l0 7.84375q0 2.0625 -0.46875 3.265625q-0.453125 1.203125 -1.671875 1.96875q-1.203125 0.75 -3.171875 0.75q-1.90625 0 -3.125 -0.65625q-1.21875 -0.65625 -1.734375 -1.90625q-0.515625 -1.25 -0.515625 -3.421875l0 -7.84375l1.796875 0l0 7.84375q0 1.765625 0.328125 2.609375q0.328125 0.84375 1.125 1.296875q0.8125 0.453125 1.96875 0.453125q1.984375 0 2.828125 -0.890625q0.84375 -0.90625 0.84375 -3.46875l0 -7.84375z"
       fill-rule="nonzero"
       id="path59" />
    <path
       fill="#000000"
       d="m52.602474 88.56694q0 -1.015625 0.203125 -1.625q0.21875 -0.625 0.625 -0.953125q0.421875 -0.34375 1.046875 -0.34375q0.453125 0 0.796875 0.1875q0.359375 0.1875 0.578125 0.53125q0.234375 0.34375 0.359375 0.859375q0.125 0.5 0.125 1.34375q0 1.015625 -0.203125 1.640625q-0.203125 0.609375 -0.625 0.953125q-0.40625 0.328125 -1.03125 0.328125q-0.828125 0 -1.296875 -0.59375q-0.578125 -0.71875 -0.578125 -2.328125zm0.734375 0q0 1.40625 0.328125 1.875q0.328125 0.46875 0.8125 0.46875q0.484375 0 0.8125 -0.46875q0.328125 -0.46875 0.328125 -1.875q0 -1.40625 -0.328125 -1.875q-0.328125 -0.46875 -0.828125 -0.46875q-0.484375 0 -0.765625 0.40625q-0.359375 0.53125 -0.359375 1.9375z"
       fill-rule="nonzero"
       id="path61" />
    <path
       fill="#000000"
       fill-opacity="0.0"
       d="m68.70288 21.393702l35.08661 0l0 35.11811l-35.08661 0z"
       fill-rule="nonzero"
       id="path63" />
    <path
       fill="#000000"
       d="m85.23413 52.094948l0 -4.828125q-0.390625 0.546875 -1.09375 0.90625q-0.6875 0.359375 -1.484375 0.359375q-1.75 0 -3.015625 -1.390625q-1.265625 -1.40625 -1.265625 -3.84375q0 -1.484375 0.515625 -2.65625q0.515625 -1.1875 1.484375 -1.796875q0.984375 -0.609375 2.15625 -0.609375q1.828125 0 2.875 1.546875l0 -1.328125l1.5 0l0 13.640625l-1.671875 0zm-5.140625 -8.734375q0 1.90625 0.796875 2.859375q0.796875 0.9375 1.90625 0.9375q1.0625 0 1.828125 -0.890625q0.78125 -0.90625 0.78125 -2.765625q0 -1.953125 -0.8125 -2.953125q-0.8125 -1.0 -1.90625 -1.0q-1.09375 0 -1.84375 0.9375q-0.75 0.921875 -0.75 2.875z"
       fill-rule="nonzero"
       id="path65" />
    <path
       fill="#000000"
       d="m88.40672 45.485573q0 -1.015625 0.203125 -1.625q0.21875 -0.625 0.625 -0.953125q0.421875 -0.34375 1.046875 -0.34375q0.453125 0 0.796875 0.1875q0.359375 0.1875 0.578125 0.53125q0.234375 0.34375 0.359375 0.859375q0.125 0.5 0.125 1.34375q0 1.015625 -0.203125 1.640625q-0.203125 0.609375 -0.625 0.953125q-0.40625 0.328125 -1.03125 0.328125q-0.828125 0 -1.296875 -0.59375q-0.578125 -0.71875 -0.578125 -2.328125zm0.734375 0q0 1.40625 0.328125 1.875q0.328125 0.46875 0.8125 0.46875q0.484375 0 0.8125 -0.46875q0.328125 -0.46875 0.328125 -1.875q0 -1.40625 -0.328125 -1.875q-0.328125 -0.46875 -0.828125 -0.46875q-0.484375 0 -0.765625 0.40625q-0.359375 0.53125 -0.359375 1.9375z"
       fill-rule="nonzero"
       id="path67" />
    <path
       fill="#3b3b3b"
       fill-opacity="0.6846"
       d="m116.073494 52.18635l0 0c0 -15.00301 12.775749 -27.165354 28.535423 -27.165354l0 0c7.5680695 0 14.826172 2.8620548 20.177597 7.9565487c5.3514404 5.09449 8.357849 12.004105 8.357849 19.208805l0 0c0 15.00301 -12.775757 27.165356 -28.535446 27.165356l0 0c-15.759674 0 -28.535423 -12.162346 -28.535423 -27.165356z"
       fill-rule="nonzero"
       id="path69" />
    <path
       fill="#000000"
       fill-opacity="0.0"
       d="m144.15092 37.829395l85.511795 48.000004"
       fill-rule="nonzero"
       id="path71" />
    <path
       stroke="#000000"
       stroke-width="3.0"
       stroke-linejoin="round"
       stroke-linecap="butt"
       d="m144.15092 37.829395l85.511795 48.000004"
       fill-rule="nonzero"
       id="path73" />
    <path
       fill="#ffd966"
       d="m109.44357 44.475067l0 0c0 -15.003012 12.775742 -27.165356 28.53543 -27.165356l0 0c7.5680695 0 14.826172 2.8620548 20.177597 7.9565487c5.351425 5.094492 8.357834 12.0041065 8.357834 19.208807l0 0c0 15.00301 -12.775742 27.165352 -28.53543 27.165352l0 0c-15.759689 0 -28.53543 -12.162342 -28.53543 -27.165352z"
       fill-rule="nonzero"
       id="path75" />
    <path
       stroke="#000000"
       stroke-width="2.0"
       stroke-linejoin="round"
       stroke-linecap="butt"
       d="m109.44357 44.475067l0 0c0 -15.003012 12.775742 -27.165356 28.53543 -27.165356l0 0c7.5680695 0 14.826172 2.8620548 20.177597 7.9565487c5.351425 5.094492 8.357834 12.0041065 8.357834 19.208807l0 0c0 15.00301 -12.775742 27.165352 -28.53543 27.165352l0 0c-15.759689 0 -28.53543 -12.162342 -28.53543 -27.165352z"
       fill-rule="nonzero"
       id="path77" />
    <path
       fill="#000000"
       d="m137.19203 37.80131l1.796875 0l0 7.84375q0 2.0625 -0.46875 3.265625q-0.453125 1.203125 -1.671875 1.96875q-1.203125 0.75 -3.171875 0.75q-1.90625 0 -3.125 -0.65625q-1.21875 -0.65625 -1.734375 -1.90625q-0.515625 -1.25 -0.515625 -3.421875l0 -7.84375l1.796875 0l0 7.84375q0 1.765625 0.328125 2.609375q0.328125 0.84375 1.125 1.296875q0.8125 0.453125 1.96875 0.453125q1.984375 0 2.828125 -0.890625q0.84375 -0.90625 0.84375 -3.46875l0 -7.84375z"
       fill-rule="nonzero"
       id="path79" />
    <path
       fill="#000000"
       d="m143.25873 51.39506l-0.703125 0l0 -4.484375q-0.25 0.25 -0.671875 0.5q-0.40625 0.234375 -0.734375 0.34375l0 -0.671875q0.59375 -0.28125 1.03125 -0.671875q0.4375 -0.390625 0.625 -0.765625l0.453125 0l0 5.75z"
       fill-rule="nonzero"
       id="path81" />
    <path
       fill="#000000"
       fill-opacity="0.0"
       d="m224.15092 85.8294l85.511795 -48.000004"
       fill-rule="nonzero"
       id="path83" />
    <path
       stroke="#000000"
       stroke-width="3.0"
       stroke-linejoin="round"
       stroke-linecap="butt"
       d="m224.15092 85.8294l85.511795 -48.000004"
       fill-rule="nonzero"
       id="path85" />
    <path
       fill="#3b3b3b"
       fill-opacity="0.6846"
       d="m204.07349 92.18635l0 0c0 -15.003006 12.775757 -27.165352 28.53543 -27.165352l0 0c7.5680695 0 14.826172 2.8620605 20.177597 7.9565506c5.351425 5.09449 8.357834 12.004105 8.357834 19.208801l0 0c0 15.003014 -12.775742 27.16536 -28.53543 27.16536l0 0c-15.759674 0 -28.53543 -12.162346 -28.53543 -27.16536z"
       fill-rule="nonzero"
       id="path87" />
    <path
       fill="#ffd966"
       d="m197.44357 84.47507l0 0c0 -15.003014 12.775742 -27.165356 28.53543 -27.165356l0 0c7.5680695 0 14.826172 2.8620567 20.177597 7.956547c5.351425 5.09449 8.357834 12.004105 8.357834 19.208809l0 0c0 15.003006 -12.775742 27.165352 -28.53543 27.165352l0 0c-15.759689 0 -28.53543 -12.162346 -28.53543 -27.165352z"
       fill-rule="nonzero"
       id="path89" />
    <path
       stroke="#000000"
       stroke-width="2.0"
       stroke-linejoin="round"
       stroke-linecap="butt"
       d="m197.44357 84.47507l0 0c0 -15.003014 12.775742 -27.165356 28.53543 -27.165356l0 0c7.5680695 0 14.826172 2.8620567 20.177597 7.956547c5.351425 5.09449 8.357834 12.004105 8.357834 19.208809l0 0c0 15.003006 -12.775742 27.165352 -28.53543 27.165352l0 0c-15.759689 0 -28.53543 -12.162346 -28.53543 -27.165352z"
       fill-rule="nonzero"
       id="path91" />
    <path
       fill="#000000"
       d="m225.19203 77.801315l1.796875 0l0 7.84375q0 2.0625 -0.46875 3.265625q-0.453125 1.203125 -1.671875 1.96875q-1.203125 0.75 -3.171875 0.75q-1.90625 0 -3.125 -0.65625q-1.21875 -0.65625 -1.734375 -1.90625q-0.515625 -1.25 -0.515625 -3.421875l0 -7.84375l1.796875 0l0 7.84375q0 1.765625 0.328125 2.609375q0.328125 0.84375 1.125 1.296875q0.8125 0.453125 1.96875 0.453125q1.984375 0 2.828125 -0.890625q0.84375 -0.90625 0.84375 -3.46875l0 -7.84375z"
       fill-rule="nonzero"
       id="path93" />
    <path
       fill="#000000"
       d="m232.3056 90.72319l0 0.671875l-3.78125 0q-0.015625 -0.25 0.078125 -0.484375q0.140625 -0.390625 0.453125 -0.765625q0.328125 -0.375 0.921875 -0.875q0.9375 -0.765625 1.265625 -1.203125q0.328125 -0.453125 0.328125 -0.84375q0 -0.421875 -0.296875 -0.703125q-0.296875 -0.296875 -0.78125 -0.296875q-0.5 0 -0.8125 0.3125q-0.296875 0.296875 -0.3125 0.84375l-0.71875 -0.078125q0.078125 -0.8125 0.5625 -1.234375q0.484375 -0.421875 1.296875 -0.421875q0.828125 0 1.296875 0.453125q0.484375 0.453125 0.484375 1.140625q0 0.34375 -0.140625 0.671875q-0.140625 0.328125 -0.46875 0.703125q-0.3125 0.359375 -1.078125 1.0q-0.625 0.53125 -0.8125 0.71875q-0.171875 0.1875 -0.296875 0.390625l2.8125 0z"
       fill-rule="nonzero"
       id="path95" />
    <path
       fill="#000000"
       fill-opacity="0.0"
       d="m312.1509 37.829395l85.51181 48.000004"
       fill-rule="nonzero"
       id="path97" />
    <path
       stroke="#000000"
       stroke-width="3.0"
       stroke-linejoin="round"
       stroke-linecap="butt"
       d="m312.1509 37.829395l85.51181 48.000004"
       fill-rule="nonzero"
       id="path99" />
    <path
       fill="#ffd966"
       d="m285.44357 44.475067l0 0c0 -15.003012 12.775757 -27.165356 28.53543 -27.165356l0 0c7.568054 0 14.826172 2.8620548 20.177582 7.9565487c5.3514404 5.094492 8.357849 12.0041065 8.357849 19.208807l0 0c0 15.00301 -12.775757 27.165352 -28.53543 27.165352l0 0c-15.759674 0 -28.53543 -12.162342 -28.53543 -27.165352z"
       fill-rule="nonzero"
       id="path101" />
    <path
       stroke="#000000"
       stroke-width="2.0"
       stroke-linejoin="round"
       stroke-linecap="butt"
       d="m285.44357 44.475067l0 0c0 -15.003012 12.775757 -27.165356 28.53543 -27.165356l0 0c7.568054 0 14.826172 2.8620548 20.177582 7.9565487c5.3514404 5.094492 8.357849 12.0041065 8.357849 19.208807l0 0c0 15.00301 -12.775757 27.165352 -28.53543 27.165352l0 0c-15.759674 0 -28.53543 -12.162342 -28.53543 -27.165352z"
       fill-rule="nonzero"
       id="path103" />
    <path
       fill="#000000"
       d="m313.19202 37.80131l1.796875 0l0 7.84375q0 2.0625 -0.46875 3.265625q-0.453125 1.203125 -1.671875 1.96875q-1.203125 0.75 -3.171875 0.75q-1.90625 0 -3.125 -0.65625q-1.21875 -0.65625 -1.734375 -1.90625q-0.515625 -1.25 -0.515625 -3.421875l0 -7.84375l1.796875 0l0 7.84375q0 1.765625 0.328125 2.609375q0.328125 0.84375 1.125 1.296875q0.8125 0.453125 1.96875 0.453125q1.984375 0 2.828125 -0.890625q0.84375 -0.90625 0.84375 -3.46875l0 -7.84375z"
       fill-rule="nonzero"
       id="path105" />
    <path
       fill="#000000"
       d="m316.6181 49.879436l0.703125 -0.09375q0.109375 0.59375 0.40625 0.859375q0.296875 0.265625 0.703125 0.265625q0.5 0 0.84375 -0.34375q0.34375 -0.34375 0.34375 -0.84375q0 -0.484375 -0.328125 -0.796875q-0.3125 -0.328125 -0.796875 -0.328125q-0.203125 0 -0.5 0.078125l0.078125 -0.609375q0.078125 0 0.125 0q0.4375 0 0.796875 -0.234375q0.359375 -0.234375 0.359375 -0.71875q0 -0.390625 -0.265625 -0.640625q-0.25 -0.25 -0.671875 -0.25q-0.40625 0 -0.6875 0.265625q-0.265625 0.25 -0.34375 0.765625l-0.703125 -0.125q0.125 -0.703125 0.578125 -1.09375q0.46875 -0.390625 1.140625 -0.390625q0.46875 0 0.859375 0.203125q0.40625 0.203125 0.609375 0.546875q0.21875 0.34375 0.21875 0.734375q0 0.375 -0.203125 0.6875q-0.203125 0.296875 -0.59375 0.46875q0.515625 0.125 0.796875 0.5q0.28125 0.359375 0.28125 0.921875q0 0.75 -0.546875 1.28125q-0.546875 0.515625 -1.390625 0.515625q-0.75 0 -1.25 -0.453125q-0.5 -0.453125 -0.5625 -1.171875z"
       fill-rule="nonzero"
       id="path107" />
    <path
       fill="#3b3b3b"
       fill-opacity="0.6846"
       d="m380.0735 92.18635l0 0c0 -15.003006 12.775757 -27.165352 28.53543 -27.165352l0 0c7.5680847 0 14.826172 2.8620605 20.177612 7.9565506c5.35141 5.09449 8.357819 12.004105 8.357819 19.208801l0 0c0 15.003014 -12.775726 27.16536 -28.53543 27.16536l0 0c-15.759674 0 -28.53543 -12.162346 -28.53543 -27.16536z"
       fill-rule="nonzero"
       id="path109" />
    <path
       fill="#ffd966"
       d="m373.44357 84.47507l0 0c0 -15.003014 12.775757 -27.165356 28.53543 -27.165356l0 0c7.568054 0 14.826172 2.8620567 20.177582 7.956547c5.3514404 5.09449 8.357849 12.004105 8.357849 19.208809l0 0c0 15.003006 -12.775757 27.165352 -28.53543 27.165352l0 0c-15.759674 0 -28.53543 -12.162346 -28.53543 -27.165352z"
       fill-rule="nonzero"
       id="path111" />
    <path
       stroke="#000000"
       stroke-width="2.0"
       stroke-linejoin="round"
       stroke-linecap="butt"
       d="m373.44357 84.47507l0 0c0 -15.003014 12.775757 -27.165356 28.53543 -27.165356l0 0c7.568054 0 14.826172 2.8620567 20.177582 7.956547c5.3514404 5.09449 8.357849 12.004105 8.357849 19.208809l0 0c0 15.003006 -12.775757 27.165352 -28.53543 27.165352l0 0c-15.759674 0 -28.53543 -12.162346 -28.53543 -27.165352z"
       fill-rule="nonzero"
       id="path113" />
    <path
       fill="#000000"
       d="m401.19202 77.801315l1.796875 0l0 7.84375q0 2.0625 -0.46875 3.265625q-0.453125 1.203125 -1.671875 1.96875q-1.203125 0.75 -3.171875 0.75q-1.90625 0 -3.125 -0.65625q-1.21875 -0.65625 -1.734375 -1.90625q-0.515625 -1.25 -0.515625 -3.421875l0 -7.84375l1.796875 0l0 7.84375q0 1.765625 0.328125 2.609375q0.328125 0.84375 1.125 1.296875q0.8125 0.453125 1.96875 0.453125q1.984375 0 2.828125 -0.890625q0.84375 -0.90625 0.84375 -3.46875l0 -7.84375z"
       fill-rule="nonzero"
       id="path115" />
    <path
       fill="#000000"
       d="m406.8681 91.395065l0 -1.375l-2.484375 0l0 -0.640625l2.609375 -3.71875l0.578125 0l0 3.71875l0.765625 0l0 0.640625l-0.765625 0l0 1.375l-0.703125 0zm0 -2.015625l0 -2.578125l-1.796875 2.578125l1.796875 0z"
       fill-rule="nonzero"
       id="path117" />
    <path
       fill="#000000"
       fill-opacity="0.0"
       d="m167.75012 50.711285l35.08661 0l0 35.118114l-35.08661 0z"
       fill-rule="nonzero"
       id="path119" />
    <path
       fill="#000000"
       d="m184.28137 81.41254l0 -4.828125q-0.390625 0.546875 -1.09375 0.90625q-0.6875 0.359375 -1.484375 0.359375q-1.75 0 -3.015625 -1.390625q-1.265625 -1.40625 -1.265625 -3.84375q0 -1.484375 0.515625 -2.65625q0.515625 -1.1875 1.484375 -1.796875q0.984375 -0.609375 2.15625 -0.609375q1.828125 0 2.875 1.546875l0 -1.328125l1.5 0l0 13.640625l-1.671875 0zm-5.140625 -8.734375q0 1.90625 0.796875 2.859375q0.796875 0.9375 1.90625 0.9375q1.0625 0 1.828125 -0.890625q0.78125 -0.90625 0.78125 -2.765625q0 -1.953125 -0.8125 -2.953125q-0.8125 -1.0 -1.90625 -1.0q-1.09375 0 -1.84375 0.9375q-0.75 0.921875 -0.75 2.875z"
       fill-rule="nonzero"
       id="path121" />
    <path
       fill="#000000"
       d="m190.11021 77.63129l-0.703125 0l0 -4.484375q-0.25 0.25 -0.671875 0.5q-0.40625 0.234375 -0.734375 0.34375l0 -0.671875q0.59375 -0.28125 1.03125 -0.671875q0.4375 -0.390625 0.625 -0.765625l0.453125 0l0 5.75z"
       fill-rule="nonzero"
       id="path123" />
    <path
       fill="#000000"
       fill-opacity="0.0"
       d="m244.70288 21.393702l35.08661 0l0 35.11811l-35.08661 0z"
       fill-rule="nonzero"
       id="path125" />
    <path
       fill="#000000"
       d="m261.23413 52.094948l0 -4.828125q-0.390625 0.546875 -1.09375 0.90625q-0.6875 0.359375 -1.484375 0.359375q-1.75 0 -3.015625 -1.390625q-1.265625 -1.40625 -1.265625 -3.84375q0 -1.484375 0.515625 -2.65625q0.515625 -1.1875 1.484375 -1.796875q0.984375 -0.609375 2.15625 -0.609375q1.828125 0 2.875 1.546875l0 -1.328125l1.5 0l0 13.640625l-1.671875 0zm-5.140625 -8.734375q0 1.90625 0.796875 2.859375q0.796875 0.9375 1.90625 0.9375q1.0625 0 1.828125 -0.890625q0.78125 -0.90625 0.78125 -2.765625q0 -1.953125 -0.8125 -2.953125q-0.8125 -1.0 -1.90625 -1.0q-1.09375 0 -1.84375 0.9375q-0.75 0.921875 -0.75 2.875z"
       fill-rule="nonzero"
       id="path127" />
    <path
       fill="#000000"
       d="m268.10983 47.641823l0 0.671875l-3.78125 0q-0.015625 -0.25 0.078125 -0.484375q0.140625 -0.390625 0.453125 -0.765625q0.328125 -0.375 0.921875 -0.875q0.9375 -0.765625 1.265625 -1.203125q0.328125 -0.453125 0.328125 -0.84375q0 -0.421875 -0.296875 -0.703125q-0.296875 -0.296875 -0.78125 -0.296875q-0.5 0 -0.8125 0.3125q-0.296875 0.296875 -0.3125 0.84375l-0.71875 -0.078125q0.078125 -0.8125 0.5625 -1.234375q0.484375 -0.421875 1.296875 -0.421875q0.828125 0 1.296875 0.453125q0.484375 0.453125 0.484375 1.140625q0 0.34375 -0.140625 0.671875q-0.140625 0.328125 -0.46875 0.703125q-0.3125 0.359375 -1.078125 1.0q-0.625 0.53125 -0.8125 0.71875q-0.171875 0.1875 -0.296875 0.390625l2.8125 0z"
       fill-rule="nonzero"
       id="path129" />
    <path
       fill="#000000"
       fill-opacity="0.0"
       d="m340.70288 53.3937l35.08661 0l0 35.11811l-35.08661 0z"
       fill-rule="nonzero"
       id="path131" />
    <path
       fill="#000000"
       d="m357.23413 84.09495l0 -4.828125q-0.390625 0.546875 -1.09375 0.90625q-0.6875 0.359375 -1.484375 0.359375q-1.75 0 -3.015625 -1.390625q-1.265625 -1.40625 -1.265625 -3.84375q0 -1.484375 0.515625 -2.65625q0.515625 -1.1875 1.484375 -1.796875q0.984375 -0.609375 2.15625 -0.609375q1.828125 0 2.875 1.546875l0 -1.328125l1.5 0l0 13.640625l-1.671875 0zm-5.140625 -8.734375q0 1.90625 0.796875 2.859375q0.796875 0.9375 1.90625 0.9375q1.0625 0 1.828125 -0.890625q0.78125 -0.90625 0.78125 -2.765625q0 -1.953125 -0.8125 -2.953125q-0.8125 -1.0 -1.90625 -1.0q-1.09375 0 -1.84375 0.9375q-0.75 0.921875 -0.75 2.875z"
       fill-rule="nonzero"
       id="path133" />
    <path
       fill="#000000"
       d="m360.42233 78.79807l0.703125 -0.09375q0.109375 0.59375 0.40625 0.859375q0.296875 0.265625 0.703125 0.265625q0.5 0 0.84375 -0.34375q0.34375 -0.34375 0.34375 -0.84375q0 -0.484375 -0.328125 -0.796875q-0.3125 -0.328125 -0.796875 -0.328125q-0.203125 0 -0.5 0.078125l0.078125 -0.609375q0.078125 0 0.125 0q0.4375 0 0.796875 -0.234375q0.359375 -0.234375 0.359375 -0.71875q0 -0.390625 -0.265625 -0.640625q-0.25 -0.25 -0.671875 -0.25q-0.40625 0 -0.6875 0.265625q-0.265625 0.25 -0.34375 0.765625l-0.703125 -0.125q0.125 -0.703125 0.578125 -1.09375q0.46875 -0.390625 1.140625 -0.390625q0.46875 0 0.859375 0.203125q0.40625 0.203125 0.609375 0.546875q0.21875 0.34375 0.21875 0.734375q0 0.375 -0.203125 0.6875q-0.203125 0.296875 -0.59375 0.46875q0.515625 0.125 0.796875 0.5q0.28125 0.359375 0.28125 0.921875q0 0.75 -0.546875 1.28125q-0.546875 0.515625 -1.390625 0.515625q-0.75 0 -1.25 -0.453125q-0.5 -0.453125 -0.5625 -1.171875z"
       fill-rule="nonzero"
       id="path135" />
    <path
       fill="#3b3b3b"
       fill-opacity="0.6846"
       d="m288.75854 208.62993l0 0c0 -15.003021 12.775726 -27.16536 28.53543 -27.16536l0 0c7.568054 0 14.826141 2.8620605 20.177582 7.956543c5.3514404 5.0944977 8.357849 12.004105 8.357849 19.208817l0 0c0 15.003006 -12.775757 27.165344 -28.53543 27.165344l0 0c-15.759705 0 -28.53543 -12.162338 -28.53543 -27.165344z"
       fill-rule="nonzero"
       id="path137" />
    <path
       fill="#000000"
       fill-opacity="0.0"
       d="m44.835957 242.27296l85.51181 -48.0"
       fill-rule="nonzero"
       id="path139" />
    <path
       stroke="#000000"
       stroke-width="3.0"
       stroke-linejoin="round"
       stroke-linecap="butt"
       d="m44.835957 242.27296l85.51181 -48.0"
       fill-rule="nonzero"
       id="path141" />
    <path
       fill="#3b3b3b"
       fill-opacity="0.6846"
       d="m24.75853 248.62993l0 0c0 -15.003021 12.775749 -27.16536 28.535435 -27.16536l0 0c7.5680656 0 14.826168 2.8620605 20.177593 7.956543c5.351433 5.0944977 8.3578415 12.004105 8.3578415 19.208817l0 0c0 15.003006 -12.775749 27.16536 -28.535435 27.16536l0 0c-15.7596855 0 -28.535435 -12.1623535 -28.535435 -27.16536z"
       fill-rule="nonzero"
       id="path143" />
    <path
       fill="#ffd966"
       d="m18.128609 240.91864l0 0c0 -15.003021 12.775749 -27.16536 28.535435 -27.16536l0 0c7.5680656 0 14.826164 2.8620605 20.177593 7.956543c5.351433 5.0944977 8.357834 12.004105 8.357834 19.208817l0 0c0 15.003006 -12.775745 27.165344 -28.535427 27.165344l0 0c-15.7596855 0 -28.535435 -12.162338 -28.535435 -27.165344z"
       fill-rule="nonzero"
       id="path145" />
    <path
       stroke="#000000"
       stroke-width="2.0"
       stroke-linejoin="round"
       stroke-linecap="butt"
       d="m18.128609 240.91864l0 0c0 -15.003021 12.775749 -27.16536 28.535435 -27.16536l0 0c7.5680656 0 14.826164 2.8620605 20.177593 7.956543c5.351433 5.0944977 8.357834 12.004105 8.357834 19.208817l0 0c0 15.003006 -12.775745 27.165344 -28.535427 27.165344l0 0c-15.7596855 0 -28.535435 -12.162338 -28.535435 -27.165344z"
       fill-rule="nonzero"
       id="path147" />
    <path
       fill="#000000"
       d="m45.877068 234.24489l1.796875 0l0 7.84375q0 2.0625 -0.46875 3.265625q-0.453125 1.203125 -1.671875 1.96875q-1.203125 0.75 -3.171875 0.75q-1.90625 0 -3.125 -0.65625q-1.21875 -0.65625 -1.734375 -1.90625q-0.515625 -1.25 -0.515625 -3.421875l0 -7.84375l1.796875 0l0 7.84375q0 1.765625 0.328125 2.609375q0.328125 0.84375 1.125 1.296875q0.8125 0.453125 1.96875 0.453125q1.984375 0 2.828125 -0.890625q0.84375 -0.90625 0.84375 -3.46875l0 -7.84375z"
       fill-rule="nonzero"
       id="path149" />
    <path
       fill="#000000"
       d="m49.287514 245.01051q0 -1.015625 0.203125 -1.625q0.21875 -0.625 0.625 -0.953125q0.421875 -0.34375 1.046875 -0.34375q0.453125 0 0.796875 0.1875q0.359375 0.1875 0.578125 0.53125q0.234375 0.34375 0.359375 0.859375q0.125 0.5 0.125 1.34375q0 1.015625 -0.203125 1.640625q-0.203125 0.609375 -0.625 0.953125q-0.40625 0.328125 -1.03125 0.328125q-0.828125 0 -1.296875 -0.59375q-0.578125 -0.71875 -0.578125 -2.328125zm0.734375 0q0 1.40625 0.328125 1.875q0.328125 0.46875 0.8125 0.46875q0.484375 0 0.8125 -0.46875q0.328125 -0.46875 0.328125 -1.875q0 -1.40625 -0.328125 -1.875q-0.328125 -0.46875 -0.828125 -0.46875q-0.484375 0 -0.765625 0.40625q-0.359375 0.53125 -0.359375 1.9375z"
       fill-rule="nonzero"
       id="path151" />
    <path
       fill="#3b3b3b"
       fill-opacity="0.6846"
       d="m112.75853 208.62993l0 0c0 -15.003021 12.775749 -27.16536 28.53543 -27.16536l0 0c7.5680695 0 14.826172 2.8620605 20.177597 7.956543c5.3514404 5.0944977 8.357834 12.004105 8.357834 19.208817l0 0c0 15.003006 -12.775742 27.165344 -28.53543 27.165344l0 0c-15.759682 0 -28.53543 -12.162338 -28.53543 -27.165344z"
       fill-rule="nonzero"
       id="path153" />
    <path
       fill="#000000"
       fill-opacity="0.0"
       d="m140.83595 194.27296l85.51181 48.0"
       fill-rule="nonzero"
       id="path155" />
    <path
       stroke="#000000"
       stroke-width="3.0"
       stroke-linejoin="round"
       stroke-linecap="butt"
       d="m140.83595 194.27296l85.51181 48.0"
       fill-rule="nonzero"
       id="path157" />
    <path
       fill="#ffd966"
       d="m106.12861 200.91864l0 0c0 -15.003021 12.775749 -27.16536 28.535439 -27.16536l0 0c7.568054 0 14.826157 2.8620605 20.177597 7.956543c5.351425 5.0944977 8.357834 12.004105 8.357834 19.208817l0 0c0 15.003006 -12.775757 27.165344 -28.53543 27.165344l0 0c-15.759689 0 -28.535439 -12.162338 -28.535439 -27.165344z"
       fill-rule="nonzero"
       id="path159" />
    <path
       stroke="#000000"
       stroke-width="2.0"
       stroke-linejoin="round"
       stroke-linecap="butt"
       d="m106.12861 200.91864l0 0c0 -15.003021 12.775749 -27.16536 28.535439 -27.16536l0 0c7.568054 0 14.826157 2.8620605 20.177597 7.956543c5.351425 5.0944977 8.357834 12.004105 8.357834 19.208817l0 0c0 15.003006 -12.775757 27.165344 -28.53543 27.165344l0 0c-15.759689 0 -28.535439 -12.162338 -28.535439 -27.165344z"
       fill-rule="nonzero"
       id="path161" />
    <path
       fill="#000000"
       d="m133.87708 194.24489l1.796875 0l0 7.84375q0 2.0625 -0.46875 3.265625q-0.453125 1.203125 -1.671875 1.96875q-1.203125 0.75 -3.171875 0.75q-1.90625 0 -3.1250076 -0.65625q-1.21875 -0.65625 -1.734375 -1.90625q-0.515625 -1.25 -0.515625 -3.421875l0 -7.84375l1.796875 0l0 7.84375q0 1.765625 0.328125 2.609375q0.328125 0.84375 1.1250076 1.296875q0.8125 0.453125 1.96875 0.453125q1.984375 0 2.828125 -0.890625q0.84375 -0.90625 0.84375 -3.46875l0 -7.84375z"
       fill-rule="nonzero"
       id="path163" />
    <path
       fill="#000000"
       d="m139.94377 207.83864l-0.703125 0l0 -4.484375q-0.25 0.25 -0.671875 0.5q-0.40625 0.234375 -0.734375 0.34375l0 -0.671875q0.59375 -0.28125 1.03125 -0.671875q0.4375 -0.390625 0.625 -0.765625l0.453125 0l0 5.75z"
       fill-rule="nonzero"
       id="path165" />
    <path
       fill="#000000"
       fill-opacity="0.0"
       d="m220.83595 242.27296l85.511826 -48.0"
       fill-rule="nonzero"
       id="path167" />
    <path
       stroke="#000000"
       stroke-width="3.0"
       stroke-linejoin="round"
       stroke-linecap="butt"
       d="m220.83595 242.27296l85.511826 -48.0"
       fill-rule="nonzero"
       id="path169" />
    <path
       fill="#3b3b3b"
       fill-opacity="0.6846"
       d="m200.75853 248.62993l0 0c0 -15.003021 12.775742 -27.16536 28.53543 -27.16536l0 0c7.5680695 0 14.826172 2.8620605 20.177597 7.956543c5.3514404 5.0944977 8.357849 12.004105 8.357849 19.208817l0 0c0 15.003006 -12.775757 27.16536 -28.535446 27.16536l0 0c-15.759689 0 -28.53543 -12.1623535 -28.53543 -27.16536z"
       fill-rule="nonzero"
       id="path171" />
    <path
       fill="#ffd966"
       d="m194.12862 240.91864l0 0c0 -15.003021 12.775742 -27.16536 28.53543 -27.16536l0 0c7.568054 0 14.826157 2.8620605 20.177597 7.956543c5.351425 5.0944977 8.357834 12.004105 8.357834 19.208817l0 0c0 15.003006 -12.775757 27.165344 -28.53543 27.165344l0 0c-15.759689 0 -28.53543 -12.162338 -28.53543 -27.165344z"
       fill-rule="nonzero"
       id="path173" />
    <path
       stroke="#000000"
       stroke-width="2.0"
       stroke-linejoin="round"
       stroke-linecap="butt"
       d="m194.12862 240.91864l0 0c0 -15.003021 12.775742 -27.16536 28.53543 -27.16536l0 0c7.568054 0 14.826157 2.8620605 20.177597 7.956543c5.351425 5.0944977 8.357834 12.004105 8.357834 19.208817l0 0c0 15.003006 -12.775757 27.165344 -28.53543 27.165344l0 0c-15.759689 0 -28.53543 -12.162338 -28.53543 -27.165344z"
       fill-rule="nonzero"
       id="path175" />
    <path
       fill="#000000"
       d="m221.87708 234.24489l1.796875 0l0 7.84375q0 2.0625 -0.46875 3.265625q-0.453125 1.203125 -1.671875 1.96875q-1.203125 0.75 -3.171875 0.75q-1.90625 0 -3.125 -0.65625q-1.21875 -0.65625 -1.734375 -1.90625q-0.515625 -1.25 -0.515625 -3.421875l0 -7.84375l1.796875 0l0 7.84375q0 1.765625 0.328125 2.609375q0.328125 0.84375 1.125 1.296875q0.8125 0.453125 1.96875 0.453125q1.984375 0 2.828125 -0.890625q0.84375 -0.90625 0.84375 -3.46875l0 -7.84375z"
       fill-rule="nonzero"
       id="path177" />
    <path
       fill="#000000"
       d="m228.99065 247.16676l0 0.671875l-3.78125 0q-0.015625 -0.25 0.078125 -0.484375q0.140625 -0.390625 0.453125 -0.765625q0.328125 -0.375 0.921875 -0.875q0.9375 -0.765625 1.265625 -1.203125q0.328125 -0.453125 0.328125 -0.84375q0 -0.421875 -0.296875 -0.703125q-0.296875 -0.296875 -0.78125 -0.296875q-0.5 0 -0.8125 0.3125q-0.296875 0.296875 -0.3125 0.84375l-0.71875 -0.078125q0.078125 -0.8125 0.5625 -1.234375q0.484375 -0.421875 1.296875 -0.421875q0.828125 0 1.296875 0.453125q0.484375 0.453125 0.484375 1.140625q0 0.34375 -0.140625 0.671875q-0.140625 0.328125 -0.46875 0.703125q-0.3125 0.359375 -1.078125 1.0q-0.625 0.53125 -0.8125 0.71875q-0.171875 0.1875 -0.296875 0.390625l2.8125 0z"
       fill-rule="nonzero"
       id="path179" />
    <path
       fill="#000000"
       fill-opacity="0.0"
       d="m308.83597 194.27296l68.724396 49.826767"
       fill-rule="nonzero"
       id="path181" />
    <path
       stroke="#000000"
       stroke-width="3.0"
       stroke-linejoin="round"
       stroke-linecap="butt"
       d="m308.83597 194.27296l68.724396 49.826767"
       fill-rule="nonzero"
       id="path183" />
    <path
       fill="#ffd966"
       d="m282.1286 200.91864l0 0c0 -15.003021 12.775757 -27.16536 28.53543 -27.16536l0 0c7.5680847 0 14.826172 2.8620605 20.177612 7.956543c5.3514404 5.0944977 8.357819 12.004105 8.357819 19.208817l0 0c0 15.003006 -12.775726 27.165344 -28.53543 27.165344l0 0c-15.759674 0 -28.53543 -12.162338 -28.53543 -27.165344z"
       fill-rule="nonzero"
       id="path185" />
    <path
       stroke="#000000"
       stroke-width="2.0"
       stroke-linejoin="round"
       stroke-linecap="butt"
       d="m282.1286 200.91864l0 0c0 -15.003021 12.775757 -27.16536 28.53543 -27.16536l0 0c7.5680847 0 14.826172 2.8620605 20.177612 7.956543c5.3514404 5.0944977 8.357819 12.004105 8.357819 19.208817l0 0c0 15.003006 -12.775726 27.165344 -28.53543 27.165344l0 0c-15.759674 0 -28.53543 -12.162338 -28.53543 -27.165344z"
       fill-rule="nonzero"
       id="path187" />
    <path
       fill="#000000"
       d="m309.87708 194.24489l1.796875 0l0 7.84375q0 2.0625 -0.46875 3.265625q-0.453125 1.203125 -1.671875 1.96875q-1.203125 0.75 -3.171875 0.75q-1.90625 0 -3.125 -0.65625q-1.21875 -0.65625 -1.734375 -1.90625q-0.515625 -1.25 -0.515625 -3.421875l0 -7.84375l1.796875 0l0 7.84375q0 1.765625 0.328125 2.609375q0.328125 0.84375 1.125 1.296875q0.8125 0.453125 1.96875 0.453125q1.984375 0 2.828125 -0.890625q0.84375 -0.90625 0.84375 -3.46875l0 -7.84375z"
       fill-rule="nonzero"
       id="path189" />
    <path
       fill="#000000"
       d="m313.30313 206.32301l0.703125 -0.09375q0.109375 0.59375 0.40625 0.859375q0.296875 0.265625 0.703125 0.265625q0.5 0 0.84375 -0.34375q0.34375 -0.34375 0.34375 -0.84375q0 -0.484375 -0.328125 -0.796875q-0.3125 -0.328125 -0.796875 -0.328125q-0.203125 0 -0.5 0.078125l0.078125 -0.609375q0.078125 0 0.125 0q0.4375 0 0.796875 -0.234375q0.359375 -0.234375 0.359375 -0.71875q0 -0.390625 -0.265625 -0.640625q-0.25 -0.25 -0.671875 -0.25q-0.40625 0 -0.6875 0.265625q-0.265625 0.25 -0.34375 0.765625l-0.703125 -0.125q0.125 -0.703125 0.578125 -1.09375q0.46875 -0.390625 1.140625 -0.390625q0.46875 0 0.859375 0.203125q0.40625 0.203125 0.609375 0.546875q0.21875 0.34375 0.21875 0.734375q0 0.375 -0.203125 0.6875q-0.203125 0.296875 -0.59375 0.46875q0.515625 0.125 0.796875 0.5q0.28125 0.359375 0.28125 0.921875q0 0.75 -0.546875 1.28125q-0.546875 0.515625 -1.390625 0.515625q-0.75 0 -1.25 -0.453125q-0.5 -0.453125 -0.5625 -1.171875z"
       fill-rule="nonzero"
       id="path191" />
    <path
       fill="#3b3b3b"
       fill-opacity="0.6846"
       d="m351.0278 251.70068l0 0c0 -20.412796 17.386871 -36.960632 38.834656 -36.960632l0 0c10.299591 0 20.177338 3.8940582 27.460236 10.825516c7.282898 6.931473 11.37439 16.33255 11.37439 26.135117l0 0c0 20.41278 -17.38684 36.960632 -38.834625 36.960632l0 0c-21.447784 0 -38.834656 -16.547852 -38.834656 -36.960632z"
       fill-rule="nonzero"
       id="path193" />
    <path
       fill="#ffe599"
       d="m340.46982 235.06816l0 0c0 -18.925537 16.117737 -34.267715 36.0 -34.267715l0 0c9.547791 0 18.704529 3.6103363 25.455841 10.036774c6.7513123 6.4264526 10.544159 15.142578 10.544159 24.230942l0 0c0 18.925537 -16.117737 34.267715 -36.0 34.267715l0 0c-19.882263 0 -36.0 -15.342178 -36.0 -34.267715z"
       fill-rule="nonzero"
       id="path195" />
    <path
       stroke="#000000"
       stroke-width="2.0"
       stroke-linejoin="round"
       stroke-linecap="butt"
       d="m340.46982 235.06816l0 0c0 -18.925537 16.117737 -34.267715 36.0 -34.267715l0 0c9.547791 0 18.704529 3.6103363 25.455841 10.036774c6.7513123 6.4264526 10.544159 15.142578 10.544159 24.230942l0 0c0 18.925537 -16.117737 34.267715 -36.0 34.267715l0 0c-19.882263 0 -36.0 -15.342178 -36.0 -34.267715z"
       fill-rule="nonzero"
       id="path197" />
    <path
       fill="#000000"
       d="m373.13898 226.42065l2.28125 0l0 9.9375q0 2.578125 -0.59375 4.109375q-0.578125 1.515625 -2.109375 2.484375q-1.53125 0.953125 -4.015625 0.953125q-2.421875 0 -3.953125 -0.828125q-1.53125 -0.84375 -2.1875 -2.421875q-0.65625 -1.578125 -0.65625 -4.296875l0 -9.9375l2.265625 0l0 9.921875q0 2.234375 0.421875 3.296875q0.421875 1.0625 1.421875 1.640625q1.015625 0.5625 2.484375 0.5625q2.515625 0 3.578125 -1.125q1.0625 -1.140625 1.0625 -4.375l0 -9.921875z"
       fill-rule="nonzero"
       id="path199" />
    <path
       fill="#000000"
       d="m380.9085 243.60815l0 -1.890625l-3.421875 0l0 -0.875l3.59375 -5.109375l0.78125 0l0 5.109375l1.078125 0l0 0.875l-1.078125 0l0 1.890625l-0.953125 0zm0 -2.765625l0 -3.5625l-2.46875 3.5625l2.46875 0z"
       fill-rule="nonzero"
       id="path201" />
    <path
       fill="#000000"
       fill-opacity="0.0"
       d="m249.38792 225.83727l35.086594 0l0 35.11812l-35.086594 0z"
       fill-rule="nonzero"
       id="path203" />
    <path
       fill="#000000"
       d="m265.91916 256.5385l0 -4.828125q-0.390625 0.546875 -1.09375 0.90625q-0.6875 0.359375 -1.484375 0.359375q-1.75 0 -3.015625 -1.390625q-1.265625 -1.40625 -1.265625 -3.84375q0 -1.484375 0.515625 -2.65625q0.515625 -1.1875 1.484375 -1.796875q0.984375 -0.609375 2.15625 -0.609375q1.828125 0 2.875 1.546875l0 -1.328125l1.5 0l0 13.640625l-1.671875 0zm-5.140625 -8.734375q0 1.90625 0.796875 2.859375q0.796875 0.9375 1.90625 0.9375q1.0625 0 1.828125 -0.890625q0.78125 -0.90625 0.78125 -2.765625q0 -1.953125 -0.8125 -2.953125q-0.8125 -1.0 -1.90625 -1.0q-1.09375 0 -1.84375 0.9375q-0.75 0.921875 -0.75 2.875z"
       fill-rule="nonzero"
       id="path205" />
    <path
       fill="#000000"
       d="m272.7949 252.08539l0 0.671875l-3.78125 0q-0.015625 -0.25 0.078125 -0.484375q0.140625 -0.390625 0.453125 -0.765625q0.328125 -0.375 0.921875 -0.875q0.9375 -0.765625 1.265625 -1.203125q0.328125 -0.453125 0.328125 -0.84375q0 -0.421875 -0.296875 -0.703125q-0.296875 -0.296875 -0.78125 -0.296875q-0.5 0 -0.8125 0.3125q-0.296875 0.296875 -0.3125 0.84375l-0.71875 -0.078125q0.078125 -0.8125 0.5625 -1.234375q0.484375 -0.421875 1.296875 -0.421875q0.828125 0 1.296875 0.453125q0.484375 0.453125 0.484375 1.140625q0 0.34375 -0.140625 0.671875q-0.140625 0.328125 -0.46875 0.703125q-0.3125 0.359375 -1.078125 1.0q-0.625 0.53125 -0.8125 0.71875q-0.171875 0.1875 -0.296875 0.390625l2.8125 0z"
       fill-rule="nonzero"
       id="path207" />
    <path
       fill="#3b3b3b"
       fill-opacity="0.6846"
       d="m289.45532 392.69547l0 0c0 -15.003021 12.775757 -27.165375 28.53543 -27.165375l0 0c7.568054 0 14.826172 2.8620605 20.177582 7.9565735c5.3514404 5.0944824 8.357849 12.004089 8.357849 19.208801l0 0c0 15.002991 -12.775757 27.165344 -28.53543 27.165344l0 0c-15.759674 0 -28.53543 -12.1623535 -28.53543 -27.165344z"
       fill-rule="nonzero"
       id="path209" />
    <path
       fill="#000000"
       fill-opacity="0.0"
       d="m45.532738 426.3385l78.55118 -16.724396"
       fill-rule="nonzero"
       id="path211" />
    <path
       stroke="#000000"
       stroke-width="3.0"
       stroke-linejoin="round"
       stroke-linecap="butt"
       d="m45.532738 426.3385l78.55118 -16.724396"
       fill-rule="nonzero"
       id="path213" />
    <path
       fill="#3b3b3b"
       fill-opacity="0.6846"
       d="m25.455309 432.69547l0 0c0 -15.003021 12.775747 -27.165375 28.535433 -27.165375l0 0c7.5680656 0 14.826168 2.8620605 20.1776 7.9565735c5.351425 5.0944824 8.357834 12.004089 8.357834 19.208801l0 0c0 15.002991 -12.775749 27.165344 -28.535435 27.165344l0 0c-15.7596855 0 -28.535433 -12.1623535 -28.535433 -27.165344z"
       fill-rule="nonzero"
       id="path215" />
    <path
       fill="#ffd966"
       d="m18.825388 424.98416l0 0c0 -15.002991 12.775747 -27.165344 28.535433 -27.165344l0 0c7.5680656 0 14.826164 2.8620605 20.1776 7.956543c5.351425 5.0944824 8.357834 12.00412 8.357834 19.208801l0 0c0 15.003021 -12.775749 27.165375 -28.535435 27.165375l0 0c-15.7596855 0 -28.535433 -12.1623535 -28.535433 -27.165375z"
       fill-rule="nonzero"
       id="path217" />
    <path
       stroke="#000000"
       stroke-width="2.0"
       stroke-linejoin="round"
       stroke-linecap="butt"
       d="m18.825388 424.98416l0 0c0 -15.002991 12.775747 -27.165344 28.535433 -27.165344l0 0c7.5680656 0 14.826164 2.8620605 20.1776 7.956543c5.351425 5.0944824 8.357834 12.00412 8.357834 19.208801l0 0c0 15.003021 -12.775749 27.165375 -28.535435 27.165375l0 0c-15.7596855 0 -28.535433 -12.1623535 -28.535433 -27.165375z"
       fill-rule="nonzero"
       id="path219" />
    <path
       fill="#000000"
       d="m46.57385 418.31042l1.796875 0l0 7.84375q0 2.0625 -0.46875 3.265625q-0.453125 1.203125 -1.671875 1.96875q-1.203125 0.75 -3.171875 0.75q-1.90625 0 -3.125 -0.65625q-1.21875 -0.65625 -1.734375 -1.90625q-0.515625 -1.25 -0.515625 -3.421875l0 -7.84375l1.796875 0l0 7.84375q0 1.765625 0.328125 2.609375q0.328125 0.84375 1.125 1.296875q0.8125 0.453125 1.96875 0.453125q1.984375 0 2.828125 -0.890625q0.84375 -0.90625 0.84375 -3.46875l0 -7.84375z"
       fill-rule="nonzero"
       id="path221" />
    <path
       fill="#000000"
       d="m49.984295 429.07605q0 -1.015625 0.203125 -1.625q0.21875 -0.625 0.625 -0.953125q0.421875 -0.34375 1.046875 -0.34375q0.453125 0 0.796875 0.1875q0.359375 0.1875 0.578125 0.53125q0.234375 0.34375 0.359375 0.859375q0.125 0.5 0.125 1.34375q0 1.015625 -0.203125 1.640625q-0.203125 0.609375 -0.625 0.953125q-0.40625 0.328125 -1.03125 0.328125q-0.828125 0 -1.296875 -0.59375q-0.578125 -0.71875 -0.578125 -2.328125zm0.734375 0q0 1.40625 0.328125 1.875q0.328125 0.46875 0.8125 0.46875q0.484375 0 0.8125 -0.46875q0.328125 -0.46875 0.328125 -1.875q0 -1.40625 -0.328125 -1.875q-0.328125 -0.46875 -0.828125 -0.46875q-0.484375 0 -0.765625 0.40625q-0.359375 0.53125 -0.359375 1.9375z"
       fill-rule="nonzero"
       id="path223" />
    <path
       fill="#3b3b3b"
       fill-opacity="0.6846"
       d="m113.10819 426.57065l0 0c0 -20.647614 17.584282 -37.385803 39.275597 -37.385803l0 0c10.416534 0 20.406433 3.9388428 27.772034 10.950043c7.3656006 7.0112 11.503555 16.520447 11.503555 26.43576l0 0c0 20.647644 -17.584274 37.385834 -39.27559 37.385834l0 0c-21.691315 0 -39.275597 -16.73819 -39.275597 -37.385834z"
       fill-rule="nonzero"
       id="path225" />
    <path
       fill="#ffe599"
       d="m102.37129 408.08667l0 0c0 -18.925537 16.117744 -34.26773 36.0 -34.26773l0 0c9.547791 0 18.704529 3.6103516 25.455841 10.036774c6.7513123 6.4264526 10.544159 15.142578 10.544159 24.230957l0 0c0 18.925537 -16.117752 34.2677 -36.0 34.2677l0 0c-19.882256 0 -36.0 -15.342163 -36.0 -34.2677z"
       fill-rule="nonzero"
       id="path227" />
    <path
       stroke="#000000"
       stroke-width="2.0"
       stroke-linejoin="round"
       stroke-linecap="butt"
       d="m102.37129 408.08667l0 0c0 -18.925537 16.117744 -34.26773 36.0 -34.26773l0 0c9.547791 0 18.704529 3.6103516 25.455841 10.036774c6.7513123 6.4264526 10.544159 15.142578 10.544159 24.230957l0 0c0 18.925537 -16.117752 34.2677 -36.0 34.2677l0 0c-19.882256 0 -36.0 -15.342163 -36.0 -34.2677z"
       fill-rule="nonzero"
       id="path229" />
    <path
       fill="#000000"
       d="m135.04045 399.43915l2.28125 0l0 9.9375q0 2.578125 -0.59375 4.109375q-0.578125 1.515625 -2.109375 2.484375q-1.53125 0.953125 -4.015625 0.953125q-2.421875 0 -3.9531326 -0.828125q-1.53125 -0.84375 -2.1875 -2.421875q-0.65625 -1.578125 -0.65625 -4.296875l0 -9.9375l2.265625 0l0 9.921875q0 2.234375 0.421875 3.296875q0.421875 1.0625 1.421875 1.640625q1.0156326 0.5625 2.4843826 0.5625q2.515625 0 3.578125 -1.125q1.0625 -1.140625 1.0625 -4.375l0 -9.921875z"
       fill-rule="nonzero"
       id="path231" />
    <path
       fill="#000000"
       d="m143.34123 416.62665l-0.96875 0l0 -6.15625q-0.34375 0.328125 -0.90625 0.671875q-0.5625 0.328125 -1.015625 0.484375l0 -0.9375q0.8125 -0.375 1.40625 -0.90625q0.609375 -0.546875 0.859375 -1.0625l0.625 0l0 7.90625z"
       fill-rule="nonzero"
       id="path233" />
    <path
       fill="#000000"
       fill-opacity="0.0"
       d="m221.53275 426.3385l85.51181 -48.0"
       fill-rule="nonzero"
       id="path235" />
    <path
       stroke="#000000"
       stroke-width="3.0"
       stroke-linejoin="round"
       stroke-linecap="butt"
       d="m221.53275 426.3385l85.51181 -48.0"
       fill-rule="nonzero"
       id="path237" />
    <path
       fill="#3b3b3b"
       fill-opacity="0.6846"
       d="m201.45532 432.69547l0 0c0 -15.003021 12.775742 -27.165375 28.53543 -27.165375l0 0c7.5680695 0 14.826172 2.8620605 20.177597 7.9565735c5.351425 5.0944824 8.357834 12.004089 8.357834 19.208801l0 0c0 15.002991 -12.775742 27.165344 -28.53543 27.165344l0 0c-15.759689 0 -28.53543 -12.1623535 -28.53543 -27.165344z"
       fill-rule="nonzero"
       id="path239" />
    <path
       fill="#ffd966"
       d="m194.8254 424.98416l0 0c0 -15.002991 12.775757 -27.165344 28.53543 -27.165344l0 0c7.5680695 0 14.826172 2.8620605 20.177597 7.956543c5.3514404 5.0944824 8.357849 12.00412 8.357849 19.208801l0 0c0 15.003021 -12.775757 27.165375 -28.535446 27.165375l0 0c-15.759674 0 -28.53543 -12.1623535 -28.53543 -27.165375z"
       fill-rule="nonzero"
       id="path241" />
    <path
       stroke="#000000"
       stroke-width="2.0"
       stroke-linejoin="round"
       stroke-linecap="butt"
       d="m194.8254 424.98416l0 0c0 -15.002991 12.775757 -27.165344 28.53543 -27.165344l0 0c7.5680695 0 14.826172 2.8620605 20.177597 7.956543c5.3514404 5.0944824 8.357849 12.00412 8.357849 19.208801l0 0c0 15.003021 -12.775757 27.165375 -28.535446 27.165375l0 0c-15.759674 0 -28.53543 -12.1623535 -28.53543 -27.165375z"
       fill-rule="nonzero"
       id="path243" />
    <path
       fill="#000000"
       d="m222.57385 418.31042l1.796875 0l0 7.84375q0 2.0625 -0.46875 3.265625q-0.453125 1.203125 -1.671875 1.96875q-1.203125 0.75 -3.171875 0.75q-1.90625 0 -3.125 -0.65625q-1.21875 -0.65625 -1.734375 -1.90625q-0.515625 -1.25 -0.515625 -3.421875l0 -7.84375l1.796875 0l0 7.84375q0 1.765625 0.328125 2.609375q0.328125 0.84375 1.125 1.296875q0.8125 0.453125 1.96875 0.453125q1.984375 0 2.828125 -0.890625q0.84375 -0.90625 0.84375 -3.46875l0 -7.84375z"
       fill-rule="nonzero"
       id="path245" />
    <path
       fill="#000000"
       d="m229.68742 431.2323l0 0.671875l-3.78125 0q-0.015625 -0.25 0.078125 -0.484375q0.140625 -0.390625 0.453125 -0.765625q0.328125 -0.375 0.921875 -0.875q0.9375 -0.765625 1.265625 -1.203125q0.328125 -0.453125 0.328125 -0.84375q0 -0.421875 -0.296875 -0.703125q-0.296875 -0.296875 -0.78125 -0.296875q-0.5 0 -0.8125 0.3125q-0.296875 0.296875 -0.3125 0.84375l-0.71875 -0.078125q0.078125 -0.8125 0.5625 -1.234375q0.484375 -0.421875 1.296875 -0.421875q0.828125 0 1.296875 0.453125q0.484375 0.453125 0.484375 1.140625q0 0.34375 -0.140625 0.671875q-0.140625 0.328125 -0.46875 0.703125q-0.3125 0.359375 -1.078125 1.0q-0.625 0.53125 -0.8125 0.71875q-0.171875 0.1875 -0.296875 0.390625l2.8125 0z"
       fill-rule="nonzero"
       id="path247" />
    <path
       fill="#ffd966"
       d="m282.8254 384.98416l0 0c0 -15.002991 12.775726 -27.165344 28.53543 -27.165344l0 0c7.568054 0 14.826172 2.8620605 20.177582 7.956543c5.3514404 5.0944824 8.357849 12.00412 8.357849 19.208801l0 0c0 15.003021 -12.775757 27.165375 -28.53543 27.165375l0 0c-15.759705 0 -28.53543 -12.1623535 -28.53543 -27.165375z"
       fill-rule="nonzero"
       id="path249" />
    <path
       stroke="#000000"
       stroke-width="2.0"
       stroke-linejoin="round"
       stroke-linecap="butt"
       d="m282.8254 384.98416l0 0c0 -15.002991 12.775726 -27.165344 28.53543 -27.165344l0 0c7.568054 0 14.826172 2.8620605 20.177582 7.956543c5.3514404 5.0944824 8.357849 12.00412 8.357849 19.208801l0 0c0 15.003021 -12.775757 27.165375 -28.53543 27.165375l0 0c-15.759705 0 -28.53543 -12.1623535 -28.53543 -27.165375z"
       fill-rule="nonzero"
       id="path251" />
    <path
       fill="#000000"
       d="m310.57385 378.31042l1.796875 0l0 7.84375q0 2.0625 -0.46875 3.265625q-0.453125 1.203125 -1.671875 1.96875q-1.203125 0.75 -3.171875 0.75q-1.90625 0 -3.125 -0.65625q-1.21875 -0.65625 -1.734375 -1.90625q-0.515625 -1.25 -0.515625 -3.421875l0 -7.84375l1.796875 0l0 7.84375q0 1.765625 0.328125 2.609375q0.328125 0.84375 1.125 1.296875q0.8125 0.453125 1.96875 0.453125q1.984375 0 2.828125 -0.890625q0.84375 -0.90625 0.84375 -3.46875l0 -7.84375z"
       fill-rule="nonzero"
       id="path253" />
    <path
       fill="#000000"
       d="m313.99994 390.38855l0.703125 -0.09375q0.109375 0.59375 0.40625 0.859375q0.296875 0.265625 0.703125 0.265625q0.5 0 0.84375 -0.34375q0.34375 -0.34375 0.34375 -0.84375q0 -0.484375 -0.328125 -0.796875q-0.3125 -0.328125 -0.796875 -0.328125q-0.203125 0 -0.5 0.078125l0.078125 -0.609375q0.078125 0 0.125 0q0.4375 0 0.796875 -0.234375q0.359375 -0.234375 0.359375 -0.71875q0 -0.390625 -0.265625 -0.640625q-0.25 -0.25 -0.671875 -0.25q-0.40625 0 -0.6875 0.265625q-0.265625 0.25 -0.34375 0.765625l-0.703125 -0.125q0.125 -0.703125 0.578125 -1.09375q0.46875 -0.390625 1.140625 -0.390625q0.46875 0 0.859375 0.203125q0.40625 0.203125 0.609375 0.546875q0.21875 0.34375 0.21875 0.734375q0 0.375 -0.203125 0.6875q-0.203125 0.296875 -0.59375 0.46875q0.515625 0.125 0.796875 0.5q0.28125 0.359375 0.28125 0.921875q0 0.75 -0.546875 1.28125q-0.546875 0.515625 -1.390625 0.515625q-0.75 0 -1.25 -0.453125q-0.5 -0.453125 -0.5625 -1.171875z"
       fill-rule="nonzero"
       id="path255" />
    <path
       fill="#3b3b3b"
       fill-opacity="0.6846"
       d="m377.4553 432.69547l0 0c0 -15.003021 12.775757 -27.165375 28.53543 -27.165375l0 0c7.5680847 0 14.826172 2.8620605 20.177612 7.9565735c5.3514404 5.0944824 8.357819 12.004089 8.357819 19.208801l0 0c0 15.002991 -12.775726 27.165344 -28.53543 27.165344l0 0c-15.759674 0 -28.53543 -12.1623535 -28.53543 -27.165344z"
       fill-rule="nonzero"
       id="path257" />
    <path
       fill="#ffd966"
       d="m370.82538 424.98416l0 0c0 -15.002991 12.775757 -27.165344 28.53543 -27.165344l0 0c7.568054 0 14.826172 2.8620605 20.177612 7.956543c5.35141 5.0944824 8.357819 12.00412 8.357819 19.208801l0 0c0 15.003021 -12.775757 27.165375 -28.53543 27.165375l0 0c-15.759674 0 -28.53543 -12.1623535 -28.53543 -27.165375z"
       fill-rule="nonzero"
       id="path259" />
    <path
       stroke="#000000"
       stroke-width="2.0"
       stroke-linejoin="round"
       stroke-linecap="butt"
       d="m370.82538 424.98416l0 0c0 -15.002991 12.775757 -27.165344 28.53543 -27.165344l0 0c7.568054 0 14.826172 2.8620605 20.177612 7.956543c5.35141 5.0944824 8.357819 12.00412 8.357819 19.208801l0 0c0 15.003021 -12.775757 27.165375 -28.53543 27.165375l0 0c-15.759674 0 -28.53543 -12.1623535 -28.53543 -27.165375z"
       fill-rule="nonzero"
       id="path261" />
    <path
       fill="#000000"
       d="m398.57382 418.31042l1.796875 0l0 7.84375q0 2.0625 -0.46875 3.265625q-0.453125 1.203125 -1.671875 1.96875q-1.203125 0.75 -3.171875 0.75q-1.90625 0 -3.125 -0.65625q-1.21875 -0.65625 -1.734375 -1.90625q-0.515625 -1.25 -0.515625 -3.421875l0 -7.84375l1.796875 0l0 7.84375q0 1.765625 0.328125 2.609375q0.328125 0.84375 1.125 1.296875q0.8125 0.453125 1.96875 0.453125q1.984375 0 2.828125 -0.890625q0.84375 -0.90625 0.84375 -3.46875l0 -7.84375z"
       fill-rule="nonzero"
       id="path263" />
    <path
       fill="#000000"
       d="m404.2499 431.90417l0 -1.375l-2.484375 0l0 -0.640625l2.609375 -3.71875l0.578125 0l0 3.71875l0.765625 0l0 0.640625l-0.765625 0l0 1.375l-0.703125 0zm0 -2.015625l0 -2.578125l-1.796875 2.578125l1.796875 0z"
       fill-rule="nonzero"
       id="path265" />
    <path
       fill="#000000"
       fill-opacity="0.0"
       d="m262.24673 199.94226l0 0c11.1996155 0 20.417572 7.7108917 20.923492 17.50267c0.5059204 9.791763 -7.879242 18.199295 -19.033173 19.083939l-1.8903198 -18.255905z"
       fill-rule="nonzero"
       id="path267" />
    <path
       fill="#000000"
       fill-opacity="0.0"
       d="m262.24673 199.94226l0 0c11.1996155 0 20.417572 7.7108917 20.923492 17.50267c0.5059204 9.791763 -7.879242 18.199295 -19.033173 19.083939"
       fill-rule="nonzero"
       id="path269" />
    <path
       stroke="#000000"
       stroke-width="2.0"
       stroke-linejoin="round"
       stroke-linecap="butt"
       d="m271.08328 201.6497l0.43804932 0.18403625c0.14733887 0.063797 0.29370117 0.12904358 0.4390869 0.19573975c0.58148193 0.26686096 1.1470032 0.5569458 1.6949463 0.86891174c1.0958557 0.6239319 2.121338 1.3353729 3.063263 2.1232758c3.7676697 3.151703 6.198639 7.5273743 6.451599 12.423248c0.5059204 9.791779 -7.8792725 18.199326 -19.033173 19.083954"
       fill-rule="evenodd"
       id="path271" />
    <path
       fill="#000000"
       stroke="#000000"
       stroke-width="2.0"
       stroke-linecap="butt"
       d="m271.50284 199.47832l-6.3854065 1.018631l5.5462646 3.3241577z"
       fill-rule="evenodd"
       id="path273" />
    <path
       fill="#000000"
       fill-opacity="0.0"
       d="m258.5866 384.00787l0 0c11.199646 0 20.417603 7.7108765 20.923492 17.502655c0.5059204 9.791779 -7.879242 18.19931 -19.033142 19.083954l-1.8903503 -18.25589z"
       fill-rule="nonzero"
       id="path275" />
    <path
       fill="#000000"
       fill-opacity="0.0"
       d="m258.5866 384.00787l0 0c11.199646 0 20.417603 7.7108765 20.923492 17.502655c0.5059204 9.791779 -7.879242 18.19931 -19.033142 19.083954"
       fill-rule="nonzero"
       id="path277" />
    <path
       stroke="#000000"
       stroke-width="2.0"
       stroke-linejoin="round"
       stroke-linecap="butt"
       d="m258.5866 384.00787l0 0c11.199646 0 20.417603 7.7108765 20.923492 17.502655c0.25299072 4.895874 -1.7168274 9.44574 -5.1441345 12.882202c-0.8568115 0.8590698 -1.8047485 1.6486206 -2.831787 2.3565369c-0.5135193 0.35394287 -1.0468445 0.6875305 -1.5984192 0.9992676c-0.13790894 0.07791138 -0.27694702 0.15441895 -0.41711426 0.22961426l-0.37353516 0.19500732"
       fill-rule="evenodd"
       id="path279" />
    <path
       fill="#000000"
       stroke="#000000"
       stroke-width="2.0"
       stroke-linecap="butt"
       d="m268.55014 416.04315l-5.2571716 3.76474l6.4471436 0.4953003z"
       fill-rule="evenodd"
       id="path281" />
    <path
       fill="#000000"
       fill-opacity="0.0"
       d="m249.38792 345.83728l35.086594 0l0 35.118103l-35.086594 0z"
       fill-rule="nonzero"
       id="path283" />
    <path
       fill="#000000"
       d="m265.91916 376.5385l0 -4.828125q-0.390625 0.546875 -1.09375 0.90625q-0.6875 0.359375 -1.484375 0.359375q-1.75 0 -3.015625 -1.390625q-1.265625 -1.40625 -1.265625 -3.84375q0 -1.484375 0.515625 -2.65625q0.515625 -1.1875 1.484375 -1.796875q0.984375 -0.609375 2.15625 -0.609375q1.828125 0 2.875 1.546875l0 -1.328125l1.5 0l0 13.640625l-1.671875 0zm-5.140625 -8.734375q0 1.90625 0.796875 2.859375q0.796875 0.9375 1.90625 0.9375q1.0625 0 1.828125 -0.890625q0.78125 -0.90625 0.78125 -2.765625q0 -1.953125 -0.8125 -2.953125q-0.8125 -1.0 -1.90625 -1.0q-1.09375 0 -1.84375 0.9375q-0.75 0.921875 -0.75 2.875z"
       fill-rule="nonzero"
       id="path285" />
    <path
       fill="#000000"
       d="m272.7949 372.0854l0 0.671875l-3.78125 0q-0.015625 -0.25 0.078125 -0.484375q0.140625 -0.390625 0.453125 -0.765625q0.328125 -0.375 0.921875 -0.875q0.9375 -0.765625 1.265625 -1.203125q0.328125 -0.453125 0.328125 -0.84375q0 -0.421875 -0.296875 -0.703125q-0.296875 -0.296875 -0.78125 -0.296875q-0.5 0 -0.8125 0.3125q-0.296875 0.296875 -0.3125 0.84375l-0.71875 -0.078125q0.078125 -0.8125 0.5625 -1.234375q0.484375 -0.421875 1.296875 -0.421875q0.828125 0 1.296875 0.453125q0.484375 0.453125 0.484375 1.140625q0 0.34375 -0.140625 0.671875q-0.140625 0.328125 -0.46875 0.703125q-0.3125 0.359375 -1.078125 1.0q-0.625 0.53125 -0.8125 0.71875q-0.171875 0.1875 -0.296875 0.390625l2.8125 0z"
       fill-rule="nonzero"
       id="path287" />
    <path
       fill="#3b3b3b"
       fill-opacity="0.6846"
       d="m292.0735 572.18634l0 0c0 -15.002991 12.775757 -27.165344 28.53543 -27.165344l0 0c7.5680847 0 14.826172 2.8620605 20.177612 7.956543c5.35141 5.0944824 8.357819 12.004089 8.357819 19.208801l0 0c0 15.003052 -12.775726 27.165344 -28.53543 27.165344l0 0c-15.759674 0 -28.53543 -12.1622925 -28.53543 -27.165344z"
       fill-rule="nonzero"
       id="path289" />
    <path
       fill="#000000"
       fill-opacity="0.0"
       d="m74.04724 589.9344l61.826767 -21.984253"
       fill-rule="nonzero"
       id="path291" />
    <path
       stroke="#000000"
       stroke-width="3.0"
       stroke-linejoin="round"
       stroke-linecap="butt"
       d="m74.04724 589.9344l61.826767 -21.984253"
       fill-rule="nonzero"
       id="path293" />
    <path
       fill="#3b3b3b"
       fill-opacity="0.6846"
       d="m116.073494 572.18634l0 0c0 -15.002991 12.775749 -27.165344 28.535423 -27.165344l0 0c7.5680695 0 14.826172 2.8620605 20.177597 7.956543c5.3514404 5.0944824 8.357849 12.004089 8.357849 19.208801l0 0c0 15.003052 -12.775757 27.165344 -28.535446 27.165344l0 0c-15.759674 0 -28.535423 -12.1622925 -28.535423 -27.165344z"
       fill-rule="nonzero"
       id="path295" />
    <path
       fill="#000000"
       fill-opacity="0.0"
       d="m144.15092 557.8294l85.511795 48.0"
       fill-rule="nonzero"
       id="path297" />
    <path
       stroke="#000000"
       stroke-width="3.0"
       stroke-linejoin="round"
       stroke-linecap="butt"
       d="m144.15092 557.8294l85.511795 48.0"
       fill-rule="nonzero"
       id="path299" />
    <path
       fill="#ffd966"
       d="m109.44357 564.47504l0 0c0 -15.002991 12.775742 -27.165344 28.53543 -27.165344l0 0c7.5680695 0 14.826172 2.8620605 20.177597 7.956543c5.351425 5.0945435 8.357834 12.00415 8.357834 19.208801l0 0c0 15.003052 -12.775742 27.165405 -28.53543 27.165405l0 0c-15.759689 0 -28.53543 -12.1623535 -28.53543 -27.165405z"
       fill-rule="nonzero"
       id="path301" />
    <path
       stroke="#000000"
       stroke-width="2.0"
       stroke-linejoin="round"
       stroke-linecap="butt"
       d="m109.44357 564.47504l0 0c0 -15.002991 12.775742 -27.165344 28.53543 -27.165344l0 0c7.5680695 0 14.826172 2.8620605 20.177597 7.956543c5.351425 5.0945435 8.357834 12.00415 8.357834 19.208801l0 0c0 15.003052 -12.775742 27.165405 -28.53543 27.165405l0 0c-15.759689 0 -28.53543 -12.1623535 -28.53543 -27.165405z"
       fill-rule="nonzero"
       id="path303" />
    <path
       fill="#000000"
       d="m137.19203 557.80133l1.796875 0l0 7.84375q0 2.0625 -0.46875 3.265625q-0.453125 1.203125 -1.671875 1.96875q-1.203125 0.75 -3.171875 0.75q-1.90625 0 -3.125 -0.65625q-1.21875 -0.65625 -1.734375 -1.90625q-0.515625 -1.25 -0.515625 -3.421875l0 -7.84375l1.796875 0l0 7.84375q0 1.765625 0.328125 2.609375q0.328125 0.84375 1.125 1.296875q0.8125 0.453125 1.96875 0.453125q1.984375 0 2.828125 -0.890625q0.84375 -0.90625 0.84375 -3.46875l0 -7.84375z"
       fill-rule="nonzero"
       id="path305" />
    <path
       fill="#000000"
       d="m143.25873 571.3951l-0.703125 0l0 -4.484375q-0.25 0.25 -0.671875 0.5q-0.40625 0.234375 -0.734375 0.34375l0 -0.671875q0.59375 -0.28125 1.03125 -0.671875q0.4375 -0.390625 0.625 -0.765625l0.453125 0l0 5.75z"
       fill-rule="nonzero"
       id="path307" />
    <path
       fill="#000000"
       fill-opacity="0.0"
       d="m224.15092 605.8294l85.511795 -48.0"
       fill-rule="nonzero"
       id="path309" />
    <path
       stroke="#000000"
       stroke-width="3.0"
       stroke-linejoin="round"
       stroke-linecap="butt"
       d="m224.15092 605.8294l85.511795 -48.0"
       fill-rule="nonzero"
       id="path311" />
    <path
       fill="#3b3b3b"
       fill-opacity="0.6846"
       d="m204.07349 612.18634l0 0c0 -15.002991 12.775757 -27.165344 28.53543 -27.165344l0 0c7.5680695 0 14.826172 2.8620605 20.177597 7.956543c5.351425 5.0944824 8.357834 12.004089 8.357834 19.208801l0 0c0 15.003052 -12.775742 27.165344 -28.53543 27.165344l0 0c-15.759674 0 -28.53543 -12.1622925 -28.53543 -27.165344z"
       fill-rule="nonzero"
       id="path313" />
    <path
       fill="#ffd966"
       d="m197.44357 604.47504l0 0c0 -15.002991 12.775742 -27.165344 28.53543 -27.165344l0 0c7.5680695 0 14.826172 2.8620605 20.177597 7.956543c5.351425 5.0945435 8.357834 12.00415 8.357834 19.208801l0 0c0 15.003052 -12.775742 27.165405 -28.53543 27.165405l0 0c-15.759689 0 -28.53543 -12.1623535 -28.53543 -27.165405z"
       fill-rule="nonzero"
       id="path315" />
    <path
       stroke="#000000"
       stroke-width="2.0"
       stroke-linejoin="round"
       stroke-linecap="butt"
       d="m197.44357 604.47504l0 0c0 -15.002991 12.775742 -27.165344 28.53543 -27.165344l0 0c7.5680695 0 14.826172 2.8620605 20.177597 7.956543c5.351425 5.0945435 8.357834 12.00415 8.357834 19.208801l0 0c0 15.003052 -12.775742 27.165405 -28.53543 27.165405l0 0c-15.759689 0 -28.53543 -12.1623535 -28.53543 -27.165405z"
       fill-rule="nonzero"
       id="path317" />
    <path
       fill="#000000"
       d="m225.19203 597.80133l1.796875 0l0 7.84375q0 2.0625 -0.46875 3.265625q-0.453125 1.203125 -1.671875 1.96875q-1.203125 0.75 -3.171875 0.75q-1.90625 0 -3.125 -0.65625q-1.21875 -0.65625 -1.734375 -1.90625q-0.515625 -1.25 -0.515625 -3.421875l0 -7.84375l1.796875 0l0 7.84375q0 1.765625 0.328125 2.609375q0.328125 0.84375 1.125 1.296875q0.8125 0.453125 1.96875 0.453125q1.984375 0 2.828125 -0.890625q0.84375 -0.90625 0.84375 -3.46875l0 -7.84375z"
       fill-rule="nonzero"
       id="path319" />
    <path
       fill="#000000"
       d="m232.3056 610.7232l0 0.671875l-3.78125 0q-0.015625 -0.25 0.078125 -0.484375q0.140625 -0.390625 0.453125 -0.765625q0.328125 -0.375 0.921875 -0.875q0.9375 -0.765625 1.265625 -1.203125q0.328125 -0.453125 0.328125 -0.84375q0 -0.421875 -0.296875 -0.703125q-0.296875 -0.296875 -0.78125 -0.296875q-0.5 0 -0.8125 0.3125q-0.296875 0.296875 -0.3125 0.84375l-0.71875 -0.078125q0.078125 -0.8125 0.5625 -1.234375q0.484375 -0.421875 1.296875 -0.421875q0.828125 0 1.296875 0.453125q0.484375 0.453125 0.484375 1.140625q0 0.34375 -0.140625 0.671875q-0.140625 0.328125 -0.46875 0.703125q-0.3125 0.359375 -1.078125 1.0q-0.625 0.53125 -0.8125 0.71875q-0.171875 0.1875 -0.296875 0.390625l2.8125 0z"
       fill-rule="nonzero"
       id="path321" />
    <path
       fill="#000000"
       fill-opacity="0.0"
       d="m312.1509 557.8294l85.51181 48.0"
       fill-rule="nonzero"
       id="path323" />
    <path
       stroke="#000000"
       stroke-width="3.0"
       stroke-linejoin="round"
       stroke-linecap="butt"
       d="m312.1509 557.8294l85.51181 48.0"
       fill-rule="nonzero"
       id="path325" />
    <path
       fill="#3b3b3b"
       fill-opacity="0.6846"
       d="m51.944622 591.4072l0 0c0 -13.254822 11.288063 -24.0 25.212597 -24.0l0 0c6.686798 0 13.099716 2.5285645 17.827995 7.029419c4.728279 4.5009155 7.3846054 10.605408 7.3846054 16.970581l0 0c0 13.254822 -11.288071 24.0 -25.2126 24.0l0 0c-13.924534 0 -25.212597 -10.745178 -25.212597 -24.0z"
       fill-rule="nonzero"
       id="path327" />
    <path
       fill="#ffd966"
       d="m285.44357 564.47504l0 0c0 -15.002991 12.775757 -27.165344 28.53543 -27.165344l0 0c7.568054 0 14.826172 2.8620605 20.177582 7.956543c5.3514404 5.0945435 8.357849 12.00415 8.357849 19.208801l0 0c0 15.003052 -12.775757 27.165405 -28.53543 27.165405l0 0c-15.759674 0 -28.53543 -12.1623535 -28.53543 -27.165405z"
       fill-rule="nonzero"
       id="path329" />
    <path
       stroke="#000000"
       stroke-width="2.0"
       stroke-linejoin="round"
       stroke-linecap="butt"
       d="m285.44357 564.47504l0 0c0 -15.002991 12.775757 -27.165344 28.53543 -27.165344l0 0c7.568054 0 14.826172 2.8620605 20.177582 7.956543c5.3514404 5.0945435 8.357849 12.00415 8.357849 19.208801l0 0c0 15.003052 -12.775757 27.165405 -28.53543 27.165405l0 0c-15.759674 0 -28.53543 -12.1623535 -28.53543 -27.165405z"
       fill-rule="nonzero"
       id="path331" />
    <path
       fill="#000000"
       d="m313.19202 557.80133l1.796875 0l0 7.84375q0 2.0625 -0.46875 3.265625q-0.453125 1.203125 -1.671875 1.96875q-1.203125 0.75 -3.171875 0.75q-1.90625 0 -3.125 -0.65625q-1.21875 -0.65625 -1.734375 -1.90625q-0.515625 -1.25 -0.515625 -3.421875l0 -7.84375l1.796875 0l0 7.84375q0 1.765625 0.328125 2.609375q0.328125 0.84375 1.125 1.296875q0.8125 0.453125 1.96875 0.453125q1.984375 0 2.828125 -0.890625q0.84375 -0.90625 0.84375 -3.46875l0 -7.84375z"
       fill-rule="nonzero"
       id="path333" />
    <path
       fill="#000000"
       d="m316.6181 569.87946l0.703125 -0.09375q0.109375 0.59375 0.40625 0.859375q0.296875 0.265625 0.703125 0.265625q0.5 0 0.84375 -0.34375q0.34375 -0.34375 0.34375 -0.84375q0 -0.484375 -0.328125 -0.796875q-0.3125 -0.328125 -0.796875 -0.328125q-0.203125 0 -0.5 0.078125l0.078125 -0.609375q0.078125 0 0.125 0q0.4375 0 0.796875 -0.234375q0.359375 -0.234375 0.359375 -0.71875q0 -0.390625 -0.265625 -0.640625q-0.25 -0.25 -0.671875 -0.25q-0.40625 0 -0.6875 0.265625q-0.265625 0.25 -0.34375 0.765625l-0.703125 -0.125q0.125 -0.703125 0.578125 -1.09375q0.46875 -0.390625 1.140625 -0.390625q0.46875 0 0.859375 0.203125q0.40625 0.203125 0.609375 0.546875q0.21875 0.34375 0.21875 0.734375q0 0.375 -0.203125 0.6875q-0.203125 0.296875 -0.59375 0.46875q0.515625 0.125 0.796875 0.5q0.28125 0.359375 0.28125 0.921875q0 0.75 -0.546875 1.28125q-0.546875 0.515625 -1.390625 0.515625q-0.75 0 -1.25 -0.453125q-0.5 -0.453125 -0.5625 -1.171875z"
       fill-rule="nonzero"
       id="path335" />
    <path
       fill="#3b3b3b"
       fill-opacity="0.6846"
       d="m380.0735 612.18634l0 0c0 -15.002991 12.775757 -27.165344 28.53543 -27.165344l0 0c7.5680847 0 14.826172 2.8620605 20.177612 7.956543c5.35141 5.0944824 8.357819 12.004089 8.357819 19.208801l0 0c0 15.003052 -12.775726 27.165344 -28.53543 27.165344l0 0c-15.759674 0 -28.53543 -12.1622925 -28.53543 -27.165344z"
       fill-rule="nonzero"
       id="path337" />
    <path
       fill="#ffd966"
       d="m373.44357 604.47504l0 0c0 -15.002991 12.775757 -27.165344 28.53543 -27.165344l0 0c7.568054 0 14.826172 2.8620605 20.177582 7.956543c5.3514404 5.0945435 8.357849 12.00415 8.357849 19.208801l0 0c0 15.003052 -12.775757 27.165405 -28.53543 27.165405l0 0c-15.759674 0 -28.53543 -12.1623535 -28.53543 -27.165405z"
       fill-rule="nonzero"
       id="path339" />
    <path
       stroke="#000000"
       stroke-width="2.0"
       stroke-linejoin="round"
       stroke-linecap="butt"
       d="m373.44357 604.47504l0 0c0 -15.002991 12.775757 -27.165344 28.53543 -27.165344l0 0c7.568054 0 14.826172 2.8620605 20.177582 7.956543c5.3514404 5.0945435 8.357849 12.00415 8.357849 19.208801l0 0c0 15.003052 -12.775757 27.165405 -28.53543 27.165405l0 0c-15.759674 0 -28.53543 -12.1623535 -28.53543 -27.165405z"
       fill-rule="nonzero"
       id="path341" />
    <path
       fill="#000000"
       d="m401.19202 597.80133l1.796875 0l0 7.84375q0 2.0625 -0.46875 3.265625q-0.453125 1.203125 -1.671875 1.96875q-1.203125 0.75 -3.171875 0.75q-1.90625 0 -3.125 -0.65625q-1.21875 -0.65625 -1.734375 -1.90625q-0.515625 -1.25 -0.515625 -3.421875l0 -7.84375l1.796875 0l0 7.84375q0 1.765625 0.328125 2.609375q0.328125 0.84375 1.125 1.296875q0.8125 0.453125 1.96875 0.453125q1.984375 0 2.828125 -0.890625q0.84375 -0.90625 0.84375 -3.46875l0 -7.84375z"
       fill-rule="nonzero"
       id="path343" />
    <path
       fill="#000000"
       d="m406.8681 611.3951l0 -1.375l-2.484375 0l0 -0.640625l2.609375 -3.71875l0.578125 0l0 3.71875l0.765625 0l0 0.640625l-0.765625 0l0 1.375l-0.703125 0zm0 -2.015625l0 -2.578125l-1.796875 2.578125l1.796875 0z"
       fill-rule="nonzero"
       id="path345" />
    <path
       fill="#000000"
       fill-opacity="0.0"
       d="m167.75012 578.7113l35.08661 0l0 35.118103l-35.08661 0z"
       fill-rule="nonzero"
       id="path347" />
    <path
       fill="#000000"
       d="m184.28137 609.41254l0 -4.828125q-0.390625 0.546875 -1.09375 0.90625q-0.6875 0.359375 -1.484375 0.359375q-1.75 0 -3.015625 -1.390625q-1.265625 -1.40625 -1.265625 -3.84375q0 -1.484375 0.515625 -2.65625q0.515625 -1.1875 1.484375 -1.796875q0.984375 -0.609375 2.15625 -0.609375q1.828125 0 2.875 1.546875l0 -1.328125l1.5 0l0 13.640625l-1.671875 0zm-5.140625 -8.734375q0 1.90625 0.796875 2.859375q0.796875 0.9375 1.90625 0.9375q1.0625 0 1.828125 -0.890625q0.78125 -0.90625 0.78125 -2.765625q0 -1.953125 -0.8125 -2.953125q-0.8125 -1.0 -1.90625 -1.0q-1.09375 0 -1.84375 0.9375q-0.75 0.921875 -0.75 2.875z"
       fill-rule="nonzero"
       id="path349" />
    <path
       fill="#000000"
       d="m190.11021 605.6313l-0.703125 0l0 -4.484375q-0.25 0.25 -0.671875 0.5q-0.40625 0.234375 -0.734375 0.34375l0 -0.671875q0.59375 -0.28125 1.03125 -0.671875q0.4375 -0.390625 0.625 -0.765625l0.453125 0l0 5.75z"
       fill-rule="nonzero"
       id="path351" />
    <path
       fill="#000000"
       fill-opacity="0.0"
       d="m340.70288 586.84216l35.08661 0l0 35.118103l-35.08661 0z"
       fill-rule="nonzero"
       id="path353" />
    <path
       fill="#000000"
       d="m357.23413 617.5434l0 -4.828125q-0.390625 0.546875 -1.09375 0.90625q-0.6875 0.359375 -1.484375 0.359375q-1.75 0 -3.015625 -1.390625q-1.265625 -1.40625 -1.265625 -3.84375q0 -1.484375 0.515625 -2.65625q0.515625 -1.1875 1.484375 -1.796875q0.984375 -0.609375 2.15625 -0.609375q1.828125 0 2.875 1.546875l0 -1.328125l1.5 0l0 13.640625l-1.671875 0zm-5.140625 -8.734375q0 1.90625 0.796875 2.859375q0.796875 0.9375 1.90625 0.9375q1.0625 0 1.828125 -0.890625q0.78125 -0.90625 0.78125 -2.765625q0 -1.953125 -0.8125 -2.953125q-0.8125 -1.0 -1.90625 -1.0q-1.09375 0 -1.84375 0.9375q-0.75 0.921875 -0.75 2.875z"
       fill-rule="nonzero"
       id="path355" />
    <path
       fill="#000000"
       d="m360.42233 612.2465l0.703125 -0.09375q0.109375 0.59375 0.40625 0.859375q0.296875 0.265625 0.703125 0.265625q0.5 0 0.84375 -0.34375q0.34375 -0.34375 0.34375 -0.84375q0 -0.484375 -0.328125 -0.796875q-0.3125 -0.328125 -0.796875 -0.328125q-0.203125 0 -0.5 0.078125l0.078125 -0.609375q0.078125 0 0.125 0q0.4375 0 0.796875 -0.234375q0.359375 -0.234375 0.359375 -0.71875q0 -0.390625 -0.265625 -0.640625q-0.25 -0.25 -0.671875 -0.25q-0.40625 0 -0.6875 0.265625q-0.265625 0.25 -0.34375 0.765625l-0.703125 -0.125q0.125 -0.703125 0.578125 -1.09375q0.46875 -0.390625 1.140625 -0.390625q0.46875 0 0.859375 0.203125q0.40625 0.203125 0.609375 0.546875q0.21875 0.34375 0.21875 0.734375q0 0.375 -0.203125 0.6875q-0.203125 0.296875 -0.59375 0.46875q0.515625 0.125 0.796875 0.5q0.28125 0.359375 0.28125 0.921875q0 0.75 -0.546875 1.28125q-0.546875 0.515625 -1.390625 0.515625q-0.75 0 -1.25 -0.453125q-0.5 -0.453125 -0.5625 -1.171875z"
       fill-rule="nonzero"
       id="path357" />
    <path
       fill="#000000"
       fill-opacity="0.0"
       d="m169.96457 556.40717l0 0c11.199631 0 20.417587 7.7109375 20.923492 17.502686c0.5059204 9.791809 -7.879242 18.19934 -19.033157 19.083923l-1.8903351 -18.25586z"
       fill-rule="nonzero"
       id="path359" />
    <path
       fill="#000000"
       fill-opacity="0.0"
       d="m169.96457 556.40717l0 0c11.199631 0 20.417587 7.7109375 20.923492 17.502686c0.5059204 9.791809 -7.879242 18.19934 -19.033157 19.083923"
       fill-rule="nonzero"
       id="path361" />
    <path
       stroke="#000000"
       stroke-width="2.0"
       stroke-linejoin="round"
       stroke-linecap="butt"
       d="m169.96457 556.40717l0 0c11.199631 0 20.417587 7.7108765 20.923492 17.502686c0.25297546 4.895935 -1.7168427 9.44574 -5.1441345 12.882141c-0.8568268 0.85913086 -1.8047485 1.6486816 -2.831787 2.3565674c-0.51353455 0.3540039 -1.0468445 0.68756104 -1.5984344 0.9992676c-0.13790894 0.077941895 -0.27694702 0.15447998 -0.41711426 0.22961426l-0.3735199 0.19506836"
       fill-rule="evenodd"
       id="path363" />
    <path
       fill="#000000"
       stroke="#000000"
       stroke-width="2.0"
       stroke-linecap="butt"
       d="m179.92809 588.44244l-5.257187 3.7647705l6.447159 0.4953003z"
       fill-rule="evenodd"
       id="path365" />
    <path
       fill="#000000"
       fill-opacity="0.0"
       d="m351.92258 563.49866l0 0c11.1996155 0 20.417572 7.7109375 20.923492 17.502686c0.5059204 9.791809 -7.879242 18.19934 -19.033173 19.083923l-1.8903198 -18.25586z"
       fill-rule="nonzero"
       id="path367" />
    <path
       fill="#000000"
       fill-opacity="0.0"
       d="m351.92258 563.49866l0 0c11.1996155 0 20.417572 7.7109375 20.923492 17.502686c0.5059204 9.791809 -7.879242 18.19934 -19.033173 19.083923"
       fill-rule="nonzero"
       id="path369" />
    <path
       stroke="#000000"
       stroke-width="2.0"
       stroke-linejoin="round"
       stroke-linecap="butt"
       d="m360.7591 565.2062l0.43807983 0.184021c0.14736938 0.0637207 0.2937317 0.12896729 0.43911743 0.19573975c0.58148193 0.2668457 1.1470032 0.55688477 1.6949158 0.8688965c1.0958862 0.62390137 2.121338 1.3353271 3.063263 2.12323c3.7677002 3.1517334 6.1986084 7.527405 6.4516296 12.423279c0.5058899 9.791809 -7.8792725 18.19934 -19.033203 19.083984"
       fill-rule="evenodd"
       id="path371" />
    <path
       fill="#000000"
       stroke="#000000"
       stroke-width="2.0"
       stroke-linecap="butt"
       d="m361.17868 563.0347l-6.3854065 1.0186768l5.5462646 3.3240967z"
       fill-rule="evenodd"
       id="path373" />
    <path
       fill="#f1c232"
       d="m48.152195 591.4068l0 0c0 -13.254822 11.288063 -24.0 25.212597 -24.0l0 0c6.686798 0 13.099724 2.5285645 17.828003 7.02948c4.728279 4.5008545 7.384598 10.605347 7.384598 16.97052l0 0c0 13.254883 -11.288063 24.0 -25.2126 24.0l0 0c-13.924534 0 -25.212597 -10.745117 -25.212597 -24.0z"
       fill-rule="nonzero"
       id="path375" />
    <path
       stroke="#000000"
       stroke-width="2.0"
       stroke-linejoin="round"
       stroke-linecap="butt"
       d="m48.152195 591.4068l0 0c0 -13.254822 11.288063 -24.0 25.212597 -24.0l0 0c6.686798 0 13.099724 2.5285645 17.828003 7.02948c4.728279 4.5008545 7.384598 10.605347 7.384598 16.97052l0 0c0 13.254883 -11.288063 24.0 -25.2126 24.0l0 0c-13.924534 0 -25.212597 -10.745117 -25.212597 -24.0z"
       fill-rule="nonzero"
       id="path377" />
    <path
       fill="#000000"
       d="m71.64617 586.89435l1.234375 0l0 5.390625q0 1.390625 -0.328125 2.21875q-0.3125 0.828125 -1.140625 1.34375q-0.828125 0.515625 -2.171875 0.515625q-1.3125 0 -2.140625 -0.453125q-0.828125 -0.453125 -1.1875 -1.296875q-0.359375 -0.859375 -0.359375 -2.328125l0 -5.390625l1.234375 0l0 5.375q0 1.21875 0.21875 1.796875q0.234375 0.5625 0.78125 0.875q0.546875 0.3125 1.34375 0.3125q1.359375 0 1.9375 -0.609375q0.578125 -0.625 0.578125 -2.375l0 -5.375z"
       fill-rule="nonzero"
       id="path379" />
    <path
       fill="#000000"
       d="m74.490074 593.3787q0 -1.015625 0.203125 -1.625q0.21875 -0.625 0.625 -0.953125q0.421875 -0.34375 1.046875 -0.34375q0.453125 0 0.796875 0.1875q0.359375 0.1875 0.578125 0.53125q0.234375 0.34375 0.359375 0.859375q0.125 0.5 0.125 1.34375q0 1.015625 -0.203125 1.640625q-0.203125 0.609375 -0.625 0.953125q-0.40625 0.328125 -1.03125 0.328125q-0.828125 0 -1.296875 -0.59375q-0.578125 -0.71875 -0.578125 -2.328125zm0.734375 0q0 1.40625 0.328125 1.875q0.328125 0.46875 0.8125 0.46875q0.484375 0 0.8125 -0.46875q0.328125 -0.46875 0.328125 -1.875q0 -1.40625 -0.328125 -1.875q-0.328125 -0.46875 -0.828125 -0.46875q-0.484375 0 -0.765625 0.40625q-0.359375 0.53125 -0.359375 1.9375z"
       fill-rule="nonzero"
       id="path381" />
  </g>
  <g
     style="font-size:32px;font-style:normal;font-weight:normal;line-height:125%;letter-spacing:0px;word-spacing:0px;fill:#000000;fill-opacity:1;font-family:Sans"
     id="text3364">
    <path
       d="m 8.4933221,33.225491 c -1.742194,6e-6 -2.9492241,0.199225 -3.6210938,0.597656 -0.6718789,0.398443 -1.0078161,1.07813 -1.0078125,2.039062 -3.6e-6,0.765629 0.2499962,1.375003 0.75,1.828125 0.5078077,0.445315 1.195307,0.667971 2.0625,0.667969 1.1953049,2e-6 2.1523352,-0.421873 2.8710938,-1.265625 0.7265524,-0.851559 1.0898334,-1.980464 1.0898434,-3.386719 l 0,-0.480468 -2.1445309,0 m 4.3007809,-0.890625 0,7.488281 -2.15625,0 0,-1.992188 c -0.492197,0.796877 -1.1054777,1.38672 -1.8398434,1.769532 -0.7343828,0.374999 -1.6328194,0.562499 -2.6953125,0.5625 -1.3437545,-10e-7 -2.4140659,-0.375 -3.2109375,-1.125 -0.7890644,-0.757811 -1.1835952,-1.769529 -1.1835938,-3.035157 -1.4e-6,-1.476557 0.4921856,-2.589837 1.4765625,-3.339843 0.9921836,-0.749993 2.4687446,-1.124992 4.4296875,-1.125 l 3.0234372,0 0,-0.210938 c -10e-6,-0.992178 -0.328135,-1.757802 -0.9843747,-2.296875 -0.6484462,-0.546864 -1.5625078,-0.820301 -2.7421875,-0.820312 -0.7500059,1.1e-5 -1.4804739,0.08986 -2.1914062,0.269531 -0.7109413,0.179698 -1.3945343,0.449229 -2.0507813,0.808594 l 0,-1.992188 c 0.7890593,-0.304675 1.5546836,-0.531237 2.296875,-0.679687 0.7421821,-0.156237 1.4648376,-0.234362 2.1679688,-0.234375 1.8984287,1.3e-5 3.3163959,0.4922 4.2539059,1.476562 0.937488,0.984386 1.406238,2.476572 1.40625,4.476563"
       style="font-size:24px"
       id="path3396" />
    <path
       d="m 16.907385,21.612209 1.875,0 c 1.17187,1.843767 2.046869,3.648452 2.625,5.414063 0.58593,1.765636 0.878899,3.51954 0.878906,5.261719 -7e-6,1.750005 -0.292976,3.511722 -0.878906,5.285156 -0.578131,1.773438 -1.45313,3.578123 -2.625,5.414062 l -1.875,0 c 1.039059,-1.789064 1.812496,-3.566406 2.320312,-5.332031 0.51562,-1.773433 0.773433,-3.562494 0.773438,-5.367187 -5e-6,-1.804679 -0.257818,-3.585927 -0.773438,-5.34375 -0.507816,-1.757798 -1.281253,-3.53514 -2.320312,-5.332032"
       style="font-size:24px"
       id="path3398" />
  </g>
  <g
     style="font-size:24px;font-style:normal;font-weight:normal;line-height:125%;letter-spacing:0px;word-spacing:0px;fill:#000000;fill-opacity:1;font-family:Sans"
     id="text3368">
    <path
       d="m 11.372609,145.98572 c -1.2e-5,-1.58593 -0.328137,-2.82812 -0.984375,-3.72656 -0.6484477,-0.90624 -1.5429781,-1.35937 -2.6835939,-1.35938 -1.1406319,1e-5 -2.0390685,0.45314 -2.6953125,1.35938 -0.6484422,0.89844 -0.9726606,2.14063 -0.9726563,3.72656 -4.3e-6,1.58594 0.3242141,2.83203 0.9726563,3.73828 0.656244,0.89844 1.5546806,1.34766 2.6953125,1.34766 1.1406158,0 2.0351462,-0.44922 2.6835939,-1.34766 0.656238,-0.90625 0.984363,-2.15234 0.984375,-3.73828 m -7.3359377,-4.58203 c 0.4531202,-0.78124 1.0234322,-1.35937 1.7109375,-1.73438 0.6953058,-0.3828 1.52343,-0.5742 2.484375,-0.57422 1.5937399,2e-5 2.8867072,0.63283 3.8789062,1.89844 0.999987,1.26564 1.499986,2.9297 1.5,4.99219 -1.4e-5,2.0625 -0.500013,3.72656 -1.5,4.99219 -0.992199,1.26562 -2.2851663,1.89843 -3.8789062,1.89843 -0.960945,0 -1.7890692,-0.1875 -2.484375,-0.5625 -0.6875053,-0.38281 -1.2578173,-0.96484 -1.7109375,-1.74609 l 0,1.96875 -2.1679687,0 0,-18.23438 2.1679687,0 0,7.10157"
       style=""
       id="path3391" />
    <path
       d="m 16.845265,134.32556 1.875,0 c 1.17187,1.84377 2.046869,3.64845 2.625,5.41406 0.585931,1.76564 0.878899,3.51954 0.878906,5.26172 -7e-6,1.75001 -0.292975,3.51173 -0.878906,5.28516 -0.578131,1.77344 -1.45313,3.57812 -2.625,5.41406 l -1.875,0 c 1.03906,-1.78906 1.812496,-3.5664 2.320313,-5.33203 0.51562,-1.77343 0.773432,-3.56249 0.773437,-5.36719 -5e-6,-1.80468 -0.257817,-3.58592 -0.773437,-5.34375 -0.507817,-1.7578 -1.281253,-3.53514 -2.320313,-5.33203"
       style=""
       id="path3393" />
  </g>
  <g
     style="font-size:24px;font-style:normal;font-weight:normal;line-height:125%;letter-spacing:0px;word-spacing:0px;fill:#000000;fill-opacity:1;font-family:Sans"
     id="text3372">
    <path
       d="m 11.929578,323.03113 0,2.01562 c -0.609386,-0.33592 -1.222667,-0.58592 -1.839844,-0.75 -0.6093842,-0.17186 -1.2265711,-0.2578 -1.8515625,-0.25781 -1.3984441,10e-6 -2.4843805,0.44532 -3.2578125,1.33594 -0.7734415,0.88282 -1.1601598,2.12501 -1.1601562,3.72656 -3.6e-6,1.60157 0.3867147,2.84766 1.1601562,3.73828 0.773432,0.88282 1.8593684,1.32422 3.2578125,1.32422 0.6249914,0 1.2421783,-0.082 1.8515625,-0.24609 0.617177,-0.17188 1.230458,-0.42578 1.839844,-0.76172 l 0,1.99219 c -0.601574,0.28125 -1.226573,0.49218 -1.875,0.63281 -0.6406344,0.14062 -1.3242275,0.21094 -2.0507815,0.21094 -1.9765683,0 -3.5468792,-0.6211 -4.7109375,-1.86329 -1.1640644,-1.24218 -1.7460951,-2.91796 -1.7460937,-5.02734 -1.4e-6,-2.14062 0.5859356,-3.82421 1.7578125,-5.05078 1.1796832,-1.22655 2.7929628,-1.83983 4.8398437,-1.83984 0.6640539,10e-6 1.3124908,0.0703 1.9453125,0.21093 0.632802,0.13283 1.246083,0.33595 1.839844,0.60938"
       style=""
       id="path3386" />
    <path
       d="m 15.363172,317.44128 1.875,0 c 1.17187,1.84377 2.046869,3.64846 2.625,5.41407 0.58593,1.76563 0.878898,3.51954 0.878906,5.26172 -8e-6,1.75 -0.292976,3.51172 -0.878906,5.28515 -0.578131,1.77344 -1.45313,3.57813 -2.625,5.41406 l -1.875,0 c 1.039059,-1.78906 1.812496,-3.5664 2.320312,-5.33203 0.51562,-1.77343 0.773433,-3.56249 0.773438,-5.36718 -5e-6,-1.80468 -0.257818,-3.58593 -0.773438,-5.34375 -0.507816,-1.7578 -1.281253,-3.53514 -2.320312,-5.33204"
       style=""
       id="path3388" />
  </g>
  <g
     style="font-size:24px;font-style:normal;font-weight:normal;line-height:125%;letter-spacing:0px;word-spacing:0px;fill:#000000;fill-opacity:1;font-family:Sans"
     id="text3376">
    <path
       d="m 11.698729,493.76779 0,-7.10156 2.15625,0 0,18.23437 -2.15625,0 0,-1.96875 c -0.453136,0.78126 -1.027354,1.36329 -1.7226567,1.7461 -0.6875085,0.375 -1.5156327,0.5625 -2.484375,0.5625 -1.5859427,0 -2.8789101,-0.63281 -3.8789063,-1.89844 -0.9921893,-1.26562 -1.4882826,-2.92968 -1.4882812,-4.99219 -1.4e-6,-2.06249 0.4960919,-3.72655 1.4882812,-4.99218 0.9999962,-1.26562 2.2929636,-1.89843 3.8789063,-1.89844 0.9687423,10e-6 1.7968665,0.19142 2.484375,0.57422 0.6953027,0.37501 1.2695207,0.95313 1.7226567,1.73437 m -7.3476567,4.58203 c -3.6e-6,1.58595 0.3242148,2.83204 0.9726562,3.73828 0.6562448,0.89844 1.5546814,1.34766 2.6953125,1.34766 1.1406166,0 2.039053,-0.44922 2.695313,-1.34766 0.656239,-0.90624 0.984364,-2.15233 0.984375,-3.73828 -1.1e-5,-1.58593 -0.328136,-2.82811 -0.984375,-3.72656 -0.65626,-0.90624 -1.5546964,-1.35936 -2.695313,-1.35937 -1.1406311,10e-6 -2.0390677,0.45313 -2.6953125,1.35937 -0.6484414,0.89845 -0.9726598,2.14063 -0.9726562,3.72656"
       style=""
       id="path3381" />
    <path
       d="m 17.956541,486.68967 1.875,0 c 1.17187,1.84376 2.046869,3.64845 2.625,5.41406 0.58593,1.76564 0.878899,3.51954 0.878906,5.26172 -7e-6,1.75 -0.292976,3.51172 -0.878906,5.28515 -0.578131,1.77344 -1.45313,3.57813 -2.625,5.41407 l -1.875,0 c 1.03906,-1.78907 1.812496,-3.56641 2.320313,-5.33203 0.51562,-1.77344 0.773432,-3.5625 0.773437,-5.36719 -5e-6,-1.80468 -0.257817,-3.58593 -0.773437,-5.34375 -0.507817,-1.7578 -1.281253,-3.53514 -2.320313,-5.33203"
       style=""
       id="path3383" />
  </g>
</svg>
