<?xml version="1.0" encoding="UTF-8" standalone="no"?>
<svg
   xmlns:dc="http://purl.org/dc/elements/1.1/"
   xmlns:cc="http://creativecommons.org/ns#"
   xmlns:rdf="http://www.w3.org/1999/02/22-rdf-syntax-ns#"
   xmlns:svg="http://www.w3.org/2000/svg"
   xmlns="http://www.w3.org/2000/svg"
   xmlns:sodipodi="http://sodipodi.sourceforge.net/DTD/sodipodi-0.dtd"
   xmlns:inkscape="http://www.inkscape.org/namespaces/inkscape"
   version="1.1"
   viewBox="0.0 0.0 894.4488188976378 799.0997375328084"
   fill="none"
   stroke="none"
   stroke-linecap="square"
   stroke-miterlimit="10"
   id="svg2"
   inkscape:version="0.48.4 r9939"
   width="100%"
   height="100%"
   sodipodi:docname="NMApplication.svg">
  <metadata
     id="metadata281">
    <rdf:RDF>
      <cc:Work
         rdf:about="">
        <dc:format>image/svg+xml</dc:format>
        <dc:type
           rdf:resource="http://purl.org/dc/dcmitype/StillImage" />
      </cc:Work>
    </rdf:RDF>
  </metadata>
  <defs
     id="defs279" />
  <sodipodi:namedview
     pagecolor="#ffffff"
     bordercolor="#666666"
     borderopacity="1"
     objecttolerance="10"
     gridtolerance="10"
     guidetolerance="10"
     inkscape:pageopacity="0"
     inkscape:pageshadow="2"
     inkscape:window-width="1920"
     inkscape:window-height="1014"
     id="namedview277"
     showgrid="false"
     inkscape:zoom="1.1813294"
     inkscape:cx="141.98455"
     inkscape:cy="447.21716"
     inkscape:window-x="0"
     inkscape:window-y="37"
     inkscape:window-maximized="1"
     inkscape:current-layer="g7" />
  <clipPath
     id="p.0">
    <path
       d="m0 0l894.4488 0l0 799.09973l-894.4488 0l0 -799.09973z"
       clip-rule="nonzero"
       id="path5" />
  </clipPath>
  <g
     clip-path="url(#p.0)"
     id="g7">
    <path
       fill="#000000"
       fill-opacity="0.0"
       d="m0 0l894.4488 0l0 799.09973l-894.4488 0z"
       fill-rule="nonzero"
       id="path9" />
    <path
       fill="#000000"
       fill-opacity="0.0"
       d="m154.61679 159.27559l0 0c0 -13.498352 10.942596 -24.440948 24.440948 -24.440948l0 0c6.482147 0 12.6987915 2.5750275 17.282364 7.1586c4.5835724 4.583557 7.1585846 10.800217 7.1585846 17.282349l0 0c0 13.498367 -10.942581 24.440948 -24.440948 24.440948l0 0c-13.498352 0 -24.440948 -10.942581 -24.440948 -24.440948z"
       fill-rule="nonzero"
       id="path11" />
    <path
       stroke="#000000"
       stroke-width="4.0"
       stroke-linejoin="round"
       stroke-linecap="butt"
       d="m154.61679 159.27559l0 0c0 -13.498352 10.942596 -24.440948 24.440948 -24.440948l0 0c6.482147 0 12.6987915 2.5750275 17.282364 7.1586c4.5835724 4.583557 7.1585846 10.800217 7.1585846 17.282349l0 0c0 13.498367 -10.942581 24.440948 -24.440948 24.440948l0 0c-13.498352 0 -24.440948 -10.942581 -24.440948 -24.440948z"
       fill-rule="nonzero"
       id="path13" />
    <path
       fill="#000000"
       fill-opacity="0.0"
       d="m262.83466 159.27559l0 0c0 -13.498352 10.942566 -24.440948 24.440948 -24.440948l0 0c6.4821167 0 12.6987915 2.5750275 17.282349 7.1586c4.583557 4.583557 7.1585693 10.800217 7.1585693 17.282349l0 0c0 13.498367 -10.942566 24.440948 -24.440918 24.440948l0 0c-13.498383 0 -24.440948 -10.942581 -24.440948 -24.440948z"
       fill-rule="nonzero"
       id="path15" />
    <path
       stroke="#000000"
       stroke-width="4.0"
       stroke-linejoin="round"
       stroke-linecap="butt"
       d="m262.83466 159.27559l0 0c0 -13.498352 10.942566 -24.440948 24.440948 -24.440948l0 0c6.4821167 0 12.6987915 2.5750275 17.282349 7.1586c4.583557 4.583557 7.1585693 10.800217 7.1585693 17.282349l0 0c0 13.498367 -10.942566 24.440948 -24.440918 24.440948l0 0c-13.498383 0 -24.440948 -10.942581 -24.440948 -24.440948z"
       fill-rule="nonzero"
       id="path17" />
    <path
       fill="#000000"
       fill-opacity="0.0"
       d="m371.0525 159.27559l0 0c0 -13.498352 10.942596 -24.440948 24.440948 -24.440948l0 0c6.482147 0 12.6987915 2.5750275 17.282349 7.1586c4.5835876 4.583557 7.1586 10.800217 7.1586 17.282349l0 0c0 13.498367 -10.942596 24.440948 -24.440948 24.440948l0 0c-13.498352 0 -24.440948 -10.942581 -24.440948 -24.440948z"
       fill-rule="nonzero"
       id="path19" />
    <path
       stroke="#000000"
       stroke-width="4.0"
       stroke-linejoin="round"
       stroke-linecap="butt"
       d="m371.0525 159.27559l0 0c0 -13.498352 10.942596 -24.440948 24.440948 -24.440948l0 0c6.482147 0 12.6987915 2.5750275 17.282349 7.1586c4.5835876 4.583557 7.1586 10.800217 7.1586 17.282349l0 0c0 13.498367 -10.942596 24.440948 -24.440948 24.440948l0 0c-13.498352 0 -24.440948 -10.942581 -24.440948 -24.440948z"
       fill-rule="nonzero"
       id="path21" />
    <path
       fill="#000000"
       fill-opacity="0.0"
       d="m203.49869 159.27559l59.338593 0"
       fill-rule="nonzero"
       id="path23" />
    <path
       stroke="#000000"
       stroke-width="4.0"
       stroke-linejoin="round"
       stroke-linecap="butt"
       d="m203.49869 159.27559l59.338593 0"
       fill-rule="nonzero"
       id="path25" />
    <path
       fill="#000000"
       fill-opacity="0.0"
       d="m311.71652 159.27559l59.338593 0"
       fill-rule="nonzero"
       id="path27" />
    <path
       stroke="#000000"
       stroke-width="4.0"
       stroke-linejoin="round"
       stroke-linecap="butt"
       d="m311.71652 159.27559l59.338593 0"
       fill-rule="nonzero"
       id="path29" />
    <path
       fill="#000000"
       fill-opacity="0.0"
       d="m101.38058 159.27296l78.11024 0"
       fill-rule="nonzero"
       id="path31" />
    <path
       stroke="#000000"
       stroke-width="3.0"
       stroke-linejoin="round"
       stroke-linecap="butt"
       d="m119.38058 159.27296l60.110237 0"
       fill-rule="evenodd"
       id="path33" />
    <path
       fill="#000000"
       stroke="#000000"
       stroke-width="3.0"
       stroke-linecap="butt"
       d="m119.38058 154.31776l-13.614296 4.9552l13.614296 4.9552z"
       fill-rule="evenodd"
       id="path35" />
    <path
       fill="#000000"
       fill-opacity="0.0"
       d="m134.24442 435.2298l0 0c0 -11.206329 9.084534 -20.290863 20.290863 -20.290863l0 0c5.381485 0 10.5425415 2.1377869 14.347824 5.943054c3.8052673 3.8052673 5.943054 8.966339 5.943054 14.347809l0 0c0 11.20636 -9.084534 20.290894 -20.290878 20.290894l0 0c-11.206329 0 -20.290863 -9.084534 -20.290863 -20.290894z"
       fill-rule="nonzero"
       id="path37" />
    <path
       stroke="#000000"
       stroke-width="4.0"
       stroke-linejoin="round"
       stroke-linecap="butt"
       d="m134.24442 435.2298l0 0c0 -11.206329 9.084534 -20.290863 20.290863 -20.290863l0 0c5.381485 0 10.5425415 2.1377869 14.347824 5.943054c3.8052673 3.8052673 5.943054 8.966339 5.943054 14.347809l0 0c0 11.20636 -9.084534 20.290894 -20.290878 20.290894l0 0c-11.206329 0 -20.290863 -9.084534 -20.290863 -20.290894z"
       fill-rule="nonzero"
       id="path39" />
    <path
       fill="#000000"
       fill-opacity="0.0"
       d="m224.08687 435.2298l0 0c0 -11.206329 9.084534 -20.290863 20.290878 -20.290863l0 0c5.3814697 0 10.542526 2.1377869 14.347809 5.943054c3.8052673 3.8052673 5.943054 8.966339 5.943054 14.347809l0 0c0 11.20636 -9.084534 20.290894 -20.290863 20.290894l0 0c-11.206345 0 -20.290878 -9.084534 -20.290878 -20.290894z"
       fill-rule="nonzero"
       id="path41" />
    <path
       stroke="#000000"
       stroke-width="4.0"
       stroke-linejoin="round"
       stroke-linecap="butt"
       d="m224.08687 435.2298l0 0c0 -11.206329 9.084534 -20.290863 20.290878 -20.290863l0 0c5.3814697 0 10.542526 2.1377869 14.347809 5.943054c3.8052673 3.8052673 5.943054 8.966339 5.943054 14.347809l0 0c0 11.20636 -9.084534 20.290894 -20.290863 20.290894l0 0c-11.206345 0 -20.290878 -9.084534 -20.290878 -20.290894z"
       fill-rule="nonzero"
       id="path43" />
    <path
       fill="#000000"
       fill-opacity="0.0"
       d="m313.92932 435.2298l0 0c0 -11.206329 9.084534 -20.290863 20.290894 -20.290863l0 0c5.3814697 0 10.542511 2.1377869 14.347809 5.943054c3.8052673 3.8052673 5.943054 8.966339 5.943054 14.347809l0 0c0 11.20636 -9.084534 20.290894 -20.290863 20.290894l0 0c-11.20636 0 -20.290894 -9.084534 -20.290894 -20.290894z"
       fill-rule="nonzero"
       id="path45" />
    <path
       stroke="#000000"
       stroke-width="4.0"
       stroke-linejoin="round"
       stroke-linecap="butt"
       d="m313.92932 435.2298l0 0c0 -11.206329 9.084534 -20.290863 20.290894 -20.290863l0 0c5.3814697 0 10.542511 2.1377869 14.347809 5.943054c3.8052673 3.8052673 5.943054 8.966339 5.943054 14.347809l0 0c0 11.20636 -9.084534 20.290894 -20.290863 20.290894l0 0c-11.20636 0 -20.290894 -9.084534 -20.290894 -20.290894z"
       fill-rule="nonzero"
       id="path47" />
    <path
       fill="#000000"
       fill-opacity="0.0"
       d="m174.82616 435.2298l49.262894 0"
       fill-rule="nonzero"
       id="path49" />
    <path
       stroke="#000000"
       stroke-width="4.0"
       stroke-linejoin="round"
       stroke-linecap="butt"
       d="m174.82616 435.2298l49.262894 0"
       fill-rule="nonzero"
       id="path51" />
    <path
       fill="#000000"
       fill-opacity="0.0"
       d="m264.6686 435.2298l49.26291 0"
       fill-rule="nonzero"
       id="path53" />
    <path
       stroke="#000000"
       stroke-width="4.0"
       stroke-linejoin="round"
       stroke-linecap="butt"
       d="m264.6686 435.2298l49.26291 0"
       fill-rule="nonzero"
       id="path55" />
    <path
       fill="#000000"
       fill-opacity="0.0"
       d="m111.001976 391.32837l43.90551 43.905518"
       fill-rule="nonzero"
       id="path57" />
    <path
       stroke="#000000"
       stroke-width="3.0"
       stroke-linejoin="round"
       stroke-linecap="butt"
       d="m123.729904 404.0563l31.177582 31.177582"
       fill-rule="evenodd"
       id="path59" />
    <path
       fill="#000000"
       stroke="#000000"
       stroke-width="3.0"
       stroke-linecap="butt"
       d="m127.23376 400.55243l-13.130615 -6.1228943l6.122902 13.130615z"
       fill-rule="evenodd"
       id="path61" />
    <path
       fill="#000000"
       fill-opacity="0.0"
       d="m577.81604 453.44147l0 0c0 -11.20636 9.084534 -20.290894 20.290894 -20.290894l0 0c5.3814697 0 10.5425415 2.1377869 14.347778 5.9430847c3.8052979 3.8052673 5.943054 8.966339 5.943054 14.347809l0 0c0 11.206329 -9.084534 20.290863 -20.290833 20.290863l0 0c-11.20636 0 -20.290894 -9.084534 -20.290894 -20.290863z"
       fill-rule="nonzero"
       id="path63" />
    <path
       stroke="#000000"
       stroke-width="4.0"
       stroke-linejoin="round"
       stroke-linecap="butt"
       d="m577.81604 453.44147l0 0c0 -11.20636 9.084534 -20.290894 20.290894 -20.290894l0 0c5.3814697 0 10.5425415 2.1377869 14.347778 5.9430847c3.8052979 3.8052673 5.943054 8.966339 5.943054 14.347809l0 0c0 11.206329 -9.084534 20.290863 -20.290833 20.290863l0 0c-11.20636 0 -20.290894 -9.084534 -20.290894 -20.290863z"
       fill-rule="nonzero"
       id="path65" />
    <path
       fill="#000000"
       fill-opacity="0.0"
       d="m667.6585 453.44147l0 0c0 -11.20636 9.084534 -20.290894 20.290894 -20.290894l0 0c5.3814697 0 10.54248 2.1377869 14.347778 5.9430847c3.8052979 3.8052673 5.943054 8.966339 5.943054 14.347809l0 0c0 11.206329 -9.084534 20.290863 -20.290833 20.290863l0 0c-11.20636 0 -20.290894 -9.084534 -20.290894 -20.290863z"
       fill-rule="nonzero"
       id="path67" />
    <path
       stroke="#000000"
       stroke-width="4.0"
       stroke-linejoin="round"
       stroke-linecap="butt"
       d="m667.6585 453.44147l0 0c0 -11.20636 9.084534 -20.290894 20.290894 -20.290894l0 0c5.3814697 0 10.54248 2.1377869 14.347778 5.9430847c3.8052979 3.8052673 5.943054 8.966339 5.943054 14.347809l0 0c0 11.206329 -9.084534 20.290863 -20.290833 20.290863l0 0c-11.20636 0 -20.290894 -9.084534 -20.290894 -20.290863z"
       fill-rule="nonzero"
       id="path69" />
    <path
       fill="#000000"
       fill-opacity="0.0"
       d="m757.501 453.44147l0 0c0 -11.20636 9.084534 -20.290894 20.290833 -20.290894l0 0c5.3814697 0 10.5425415 2.1377869 14.347839 5.9430847c3.8052979 3.8052673 5.943054 8.966339 5.943054 14.347809l0 0c0 11.206329 -9.084534 20.290863 -20.290894 20.290863l0 0c-11.206299 0 -20.290833 -9.084534 -20.290833 -20.290863z"
       fill-rule="nonzero"
       id="path71" />
    <path
       stroke="#000000"
       stroke-width="4.0"
       stroke-linejoin="round"
       stroke-linecap="butt"
       d="m757.501 453.44147l0 0c0 -11.20636 9.084534 -20.290894 20.290833 -20.290894l0 0c5.3814697 0 10.5425415 2.1377869 14.347839 5.9430847c3.8052979 3.8052673 5.943054 8.966339 5.943054 14.347809l0 0c0 11.206329 -9.084534 20.290863 -20.290894 20.290863l0 0c-11.206299 0 -20.290833 -9.084534 -20.290833 -20.290863z"
       fill-rule="nonzero"
       id="path73" />
    <path
       fill="#000000"
       fill-opacity="0.0"
       d="m618.39777 453.44147l49.26294 0"
       fill-rule="nonzero"
       id="path75" />
    <path
       stroke="#000000"
       stroke-width="4.0"
       stroke-linejoin="round"
       stroke-linecap="butt"
       d="m618.39777 453.44147l49.26294 0"
       fill-rule="nonzero"
       id="path77" />
    <path
       fill="#000000"
       fill-opacity="0.0"
       d="m708.24023 453.44147l49.26288 0"
       fill-rule="nonzero"
       id="path79" />
    <path
       stroke="#000000"
       stroke-width="4.0"
       stroke-linejoin="round"
       stroke-linecap="butt"
       d="m708.24023 453.44147l49.26288 0"
       fill-rule="nonzero"
       id="path81" />
    <path
       fill="#000000"
       fill-opacity="0.0"
       d="m685.93115 454.82513l0 70.6142"
       fill-rule="nonzero"
       id="path83" />
    <path
       stroke="#000000"
       stroke-width="3.0"
       stroke-linejoin="round"
       stroke-linecap="butt"
       d="m685.93115 454.82513l0 52.614166"
       fill-rule="evenodd"
       id="path85" />
    <path
       fill="#000000"
       stroke="#000000"
       stroke-width="3.0"
       stroke-linecap="butt"
       d="m680.97595 507.4393l4.9552 13.614288l4.9552 -13.614288z"
       fill-rule="evenodd"
       id="path87" />
    <path
       fill="#000000"
       fill-opacity="0.0"
       d="m532.0913 387.05322l66.39368 66.39371"
       fill-rule="nonzero"
       id="path89" />
    <path
       stroke="#000000"
       stroke-width="3.0"
       stroke-linejoin="round"
       stroke-linecap="butt"
       d="m544.8192 399.78116l53.66577 53.66577"
       fill-rule="evenodd"
       id="path91" />
    <path
       fill="#000000"
       stroke="#000000"
       stroke-width="3.0"
       stroke-linecap="butt"
       d="m548.32306 396.2773l-13.130615 -6.122925l6.122925 13.130615z"
       fill-rule="evenodd"
       id="path93" />
    <path
       fill="#000000"
       fill-opacity="0.0"
       d="m515.82983 391.28876l0 0c0 -11.20224 9.081238 -20.283478 20.283508 -20.283478l0 0c5.3794556 0 10.538635 2.137024 14.342529 5.9408875c3.803894 3.803894 5.940918 8.963074 5.940918 14.34259l0 0c0 11.20224 -9.081238 20.283478 -20.283447 20.283478l0 0c-11.2022705 0 -20.283508 -9.081238 -20.283508 -20.283478z"
       fill-rule="nonzero"
       id="path95" />
    <path
       stroke="#000000"
       stroke-width="4.0"
       stroke-linejoin="round"
       stroke-linecap="butt"
       stroke-dasharray="16.0,12.0"
       d="m515.82983 391.28876l0 0c0 -11.20224 9.081238 -20.283478 20.283508 -20.283478l0 0c5.3794556 0 10.538635 2.137024 14.342529 5.9408875c3.803894 3.803894 5.940918 8.963074 5.940918 14.34259l0 0c0 11.20224 -9.081238 20.283478 -20.283447 20.283478l0 0c-11.2022705 0 -20.283508 -9.081238 -20.283508 -20.283478z"
       fill-rule="nonzero"
       id="path97" />
    <path
       fill="#000000"
       fill-opacity="0.0"
       d="m665.8612 518.13965l0 0c0 -11.2022705 9.081177 -20.283478 20.283447 -20.283478l0 0c5.3795166 0 10.538696 2.1369934 14.34259 5.9408875c3.803894 3.803894 5.940857 8.963074 5.940857 14.34259l0 0c0 11.2022705 -9.081177 20.283447 -20.283447 20.283447l0 0c-11.2022705 0 -20.283447 -9.081177 -20.283447 -20.283447z"
       fill-rule="nonzero"
       id="path99" />
    <path
       stroke="#000000"
       stroke-width="4.0"
       stroke-linejoin="round"
       stroke-linecap="butt"
       stroke-dasharray="16.0,12.0"
       d="m665.8612 518.13965l0 0c0 -11.2022705 9.081177 -20.283478 20.283447 -20.283478l0 0c5.3795166 0 10.538696 2.1369934 14.34259 5.9408875c3.803894 3.803894 5.940857 8.963074 5.940857 14.34259l0 0c0 11.2022705 -9.081177 20.283447 -20.283447 20.283447l0 0c-11.2022705 0 -20.283447 -9.081177 -20.283447 -20.283447z"
       fill-rule="nonzero"
       id="path101" />
    <path
       fill="#000000"
       fill-opacity="0.0"
       d="m244.37285 483.1515l0 -44.661407"
       fill-rule="nonzero"
       id="path103" />
    <path
       stroke="#000000"
       stroke-width="3.0"
       stroke-linejoin="round"
       stroke-linecap="butt"
       d="m244.37285 465.1515l0 -26.661407"
       fill-rule="evenodd"
       id="path105" />
    <path
       fill="#000000"
       stroke="#000000"
       stroke-width="3.0"
       stroke-linecap="butt"
       d="m239.41765 465.1515l4.9552 13.614288l4.9552 -13.614288z"
       fill-rule="evenodd"
       id="path107" />
    <path
       fill="#000000"
       fill-opacity="0.0"
       d="m377.1598 392.2827l-42.960632 42.960632"
       fill-rule="nonzero"
       id="path109" />
    <path
       stroke="#000000"
       stroke-width="3.0"
       stroke-linejoin="round"
       stroke-linecap="butt"
       d="m364.43185 405.01065l-30.232697 30.232697"
       fill-rule="evenodd"
       id="path111" />
    <path
       fill="#000000"
       stroke="#000000"
       stroke-width="3.0"
       stroke-linecap="butt"
       d="m367.9357 408.5145l6.122925 -13.130615l-13.130615 6.122925z"
       fill-rule="evenodd"
       id="path113" />
    <path
       fill="#000000"
       fill-opacity="0.0"
       d="m843.81726 388.4358l-66.39368 66.39368"
       fill-rule="nonzero"
       id="path115" />
    <path
       stroke="#000000"
       stroke-width="3.0"
       stroke-linejoin="round"
       stroke-linecap="butt"
       d="m831.0893 401.16373l-53.66571 53.66574"
       fill-rule="evenodd"
       id="path117" />
    <path
       fill="#000000"
       stroke="#000000"
       stroke-width="3.0"
       stroke-linecap="butt"
       d="m834.5932 404.66754l6.122864 -13.130615l-13.130554 6.122925z"
       fill-rule="evenodd"
       id="path119" />
    <path
       fill="#000000"
       fill-opacity="0.0"
       d="m860.07874 392.6713l0 0c0 -11.20224 -9.081238 -20.283447 -20.283447 -20.283447l0 0c-5.3795166 0 -10.538696 2.1369934 -14.34259 5.9408875c-3.803894 3.8038635 -5.940918 8.963043 -5.940918 14.34256l0 0c0 11.20224 9.081238 20.283478 20.283508 20.283478l0 0c11.202209 0 20.283447 -9.081238 20.283447 -20.283478z"
       fill-rule="nonzero"
       id="path121" />
    <path
       stroke="#000000"
       stroke-width="4.0"
       stroke-linejoin="round"
       stroke-linecap="butt"
       stroke-dasharray="16.0,12.0"
       d="m860.07874 392.6713l0 0c0 -11.20224 -9.081238 -20.283447 -20.283447 -20.283447l0 0c-5.3795166 0 -10.538696 2.1369934 -14.34259 5.9408875c-3.803894 3.8038635 -5.940918 8.963043 -5.940918 14.34256l0 0c0 11.20224 9.081238 20.283478 20.283508 20.283478l0 0c11.202209 0 20.283447 -9.081238 20.283447 -20.283478z"
       fill-rule="nonzero"
       id="path123" />
    <path
       fill="#000000"
       fill-opacity="0.0"
       d="m36.923885 12.666667l48.881893 0l0 60.94488l-48.881893 0z"
       fill-rule="nonzero"
       id="path125" />
    <path
       fill="#000000"
       fill-opacity="0.0"
       d="m37.380577 282.10498l48.88189 0l0 60.944885l-48.88189 0z"
       fill-rule="nonzero"
       id="path129" />
    <path
       fill="#000000"
       fill-opacity="0.0"
       d="m488.0693 344.72482l40.566925 0l0 50.582672l-40.566925 0z"
       fill-rule="nonzero"
       id="path133" />
    <path
       fill="#000000"
       d="m509.14743 374.73358l0 2.03125l-11.34375 0q-0.03125 -0.765625 0.234375 -1.46875q0.4375 -1.15625 1.390625 -2.28125q0.953125 -1.125 2.765625 -2.609375q2.796875 -2.296875 3.78125 -3.625q0.984375 -1.34375 0.984375 -2.546875q0 -1.25 -0.90625 -2.109375q-0.890625 -0.859375 -2.328125 -0.859375q-1.515625 0 -2.4375 0.921875q-0.90625 0.90625 -0.921875 2.515625l-2.171875 -0.21875q0.21875 -2.421875 1.671875 -3.6875q1.453125 -1.28125 3.90625 -1.28125q2.46875 0 3.90625 1.375q1.453125 1.359375 1.453125 3.390625q0 1.03125 -0.421875 2.03125q-0.421875 1.0 -1.40625 2.109375q-0.96875 1.09375 -3.25 3.015625q-1.890625 1.59375 -2.4375 2.15625q-0.53125 0.5625 -0.890625 1.140625l8.421875 0zm4.238312 7.078125l-1.5156555 0q3.5000305 -5.625 3.5000305 -11.265625q0 -2.203125 -0.5 -4.359375q-0.390625 -1.765625 -1.109375 -3.375q-0.453125 -1.0625 -1.8906555 -3.515625l1.5156555 0q2.203125 2.9375 3.25 5.90625q0.90625 2.546875 0.90625 5.34375q0 3.15625 -1.21875 6.109375q-1.203125 2.953125 -2.9375 5.15625z"
       fill-rule="nonzero"
       id="path135" />
    <path
       fill="#000000"
       fill-opacity="0.0"
       d="m488.60257 526.69507l40.566925 0l0 50.582703l-40.566925 0z"
       fill-rule="nonzero"
       id="path137" />
    <path
       fill="#000000"
       d="m505.3682 558.7351l0 -4.109375l-7.453125 0l0 -1.9375l7.828125 -11.140625l1.734375 0l0 11.140625l2.3125 0l0 1.9375l-2.3125 0l0 4.109375l-2.109375 0zm0 -6.046875l0 -7.75l-5.390625 7.75l5.390625 0zm8.550751 11.09375l-1.515625 0q3.5 -5.625 3.5 -11.265625q0 -2.203125 -0.5 -4.359375q-0.390625 -1.765625 -1.109375 -3.375q-0.453125 -1.0625 -1.890625 -3.515625l1.515625 0q2.203125 2.9375 3.25 5.90625q0.90625 2.546875 0.90625 5.34375q0 3.15625 -1.21875 6.109375q-1.203125 2.953125 -2.9375 5.15625z"
       fill-rule="nonzero"
       id="path139" />
    <path
       fill="#000000"
       fill-opacity="0.0"
       d="m183.38477 658.8732l0 0c0 -11.20636 9.084534 -20.290894 20.290878 -20.290894l0 0c5.3814697 0 10.5425415 2.1378174 14.347809 5.943054c3.8052826 3.8052979 5.9430695 8.96637 5.9430695 14.347839l0 0c0 11.206299 -9.084534 20.290833 -20.290878 20.290833l0 0c-11.206345 0 -20.290878 -9.084534 -20.290878 -20.290833z"
       fill-rule="nonzero"
       id="path141" />
    <path
       stroke="#000000"
       stroke-width="4.0"
       stroke-linejoin="round"
       stroke-linecap="butt"
       d="m183.38477 658.8732l0 0c0 -11.20636 9.084534 -20.290894 20.290878 -20.290894l0 0c5.3814697 0 10.5425415 2.1378174 14.347809 5.943054c3.8052826 3.8052979 5.9430695 8.96637 5.9430695 14.347839l0 0c0 11.206299 -9.084534 20.290833 -20.290878 20.290833l0 0c-11.206345 0 -20.290878 -9.084534 -20.290878 -20.290833z"
       fill-rule="nonzero"
       id="path143" />
    <path
       fill="#000000"
       fill-opacity="0.0"
       d="m273.22723 658.8732l0 0c0 -11.20636 9.084534 -20.290894 20.290863 -20.290894l0 0c5.3814697 0 10.5425415 2.1378174 14.347809 5.943054c3.8052979 3.8052979 5.9430847 8.96637 5.9430847 14.347839l0 0c0 11.206299 -9.084534 20.290833 -20.290894 20.290833l0 0c-11.206329 0 -20.290863 -9.084534 -20.290863 -20.290833z"
       fill-rule="nonzero"
       id="path145" />
    <path
       stroke="#000000"
       stroke-width="4.0"
       stroke-linejoin="round"
       stroke-linecap="butt"
       d="m273.22723 658.8732l0 0c0 -11.20636 9.084534 -20.290894 20.290863 -20.290894l0 0c5.3814697 0 10.5425415 2.1378174 14.347809 5.943054c3.8052979 3.8052979 5.9430847 8.96637 5.9430847 14.347839l0 0c0 11.206299 -9.084534 20.290833 -20.290894 20.290833l0 0c-11.206329 0 -20.290863 -9.084534 -20.290863 -20.290833z"
       fill-rule="nonzero"
       id="path147" />
    <path
       fill="#000000"
       fill-opacity="0.0"
       d="m363.0697 658.8732l0 0c0 -11.20636 9.084534 -20.290894 20.290863 -20.290894l0 0c5.3814697 0 10.5425415 2.1378174 14.347809 5.943054c3.8052673 3.8052979 5.943054 8.96637 5.943054 14.347839l0 0c0 11.206299 -9.084534 20.290833 -20.290863 20.290833l0 0c-11.206329 0 -20.290863 -9.084534 -20.290863 -20.290833z"
       fill-rule="nonzero"
       id="path149" />
    <path
       stroke="#000000"
       stroke-width="4.0"
       stroke-linejoin="round"
       stroke-linecap="butt"
       d="m363.0697 658.8732l0 0c0 -11.20636 9.084534 -20.290894 20.290863 -20.290894l0 0c5.3814697 0 10.5425415 2.1378174 14.347809 5.943054c3.8052673 3.8052979 5.943054 8.96637 5.943054 14.347839l0 0c0 11.206299 -9.084534 20.290833 -20.290863 20.290833l0 0c-11.206329 0 -20.290863 -9.084534 -20.290863 -20.290833z"
       fill-rule="nonzero"
       id="path151" />
    <path
       fill="#000000"
       fill-opacity="0.0"
       d="m223.96652 658.8732l49.26288 0"
       fill-rule="nonzero"
       id="path153" />
    <path
       stroke="#000000"
       stroke-width="4.0"
       stroke-linejoin="round"
       stroke-linecap="butt"
       d="m223.96652 658.8732l49.26288 0"
       fill-rule="nonzero"
       id="path155" />
    <path
       fill="#000000"
       fill-opacity="0.0"
       d="m313.809 658.8732l49.26288 0"
       fill-rule="nonzero"
       id="path157" />
    <path
       stroke="#000000"
       stroke-width="4.0"
       stroke-linejoin="round"
       stroke-linecap="butt"
       d="m313.809 658.8732l49.26288 0"
       fill-rule="nonzero"
       id="path159" />
    <path
       fill="#000000"
       fill-opacity="0.0"
       d="m121.39868 596.7207l0 0c0 -11.2022705 9.081223 -20.283508 20.283463 -20.283508l0 0c5.3795166 0 10.538696 2.137024 14.342575 5.940918c3.803894 3.803894 5.9408875 8.963074 5.9408875 14.34259l0 0c0 11.202209 -9.081207 20.283447 -20.283463 20.283447l0 0c-11.20224 0 -20.283463 -9.081238 -20.283463 -20.283447z"
       fill-rule="nonzero"
       id="path161" />
    <path
       stroke="#000000"
       stroke-width="4.0"
       stroke-linejoin="round"
       stroke-linecap="butt"
       stroke-dasharray="16.0,12.0"
       d="m121.39868 596.7207l0 0c0 -11.2022705 9.081223 -20.283508 20.283463 -20.283508l0 0c5.3795166 0 10.538696 2.137024 14.342575 5.940918c3.803894 3.803894 5.9408875 8.963074 5.9408875 14.34259l0 0c0 11.202209 -9.081207 20.283447 -20.283463 20.283447l0 0c-11.20224 0 -20.283463 -9.081238 -20.283463 -20.283447z"
       fill-rule="nonzero"
       id="path163" />
    <path
       fill="#000000"
       fill-opacity="0.0"
       d="m138.18883 595.9737l5.988846 5.871338l13.006439 -4.9052734l-9.653809 27.210938l27.028625 -10.1935425l-9.341782 26.328308l26.388077 -9.952393l-9.423813 26.560303l15.141144 -5.7109985l7.631714 7.4819336"
       fill-rule="nonzero"
       id="path165" />
    <path
       stroke="#000000"
       stroke-width="2.0"
       stroke-linejoin="round"
       stroke-linecap="butt"
       d="m138.18883 595.9737l5.988846 5.871338l13.006439 -4.9052734l-9.653809 27.210938l27.028625 -10.1935425l-9.341782 26.328308l26.388077 -9.952393l-9.423813 26.560303l15.141144 -5.7109985l7.631714 7.4819336"
       fill-rule="nonzero"
       id="path167" />
    <path
       fill="#000000"
       fill-opacity="0.0"
       d="m272.65613 745.5999l0 0c0 -11.2022705 9.081207 -20.283447 20.283478 -20.283447l0 0c5.379486 0 10.538666 2.136963 14.34256 5.940857c3.803894 3.803894 5.9408875 8.963074 5.9408875 14.34259l0 0c0 11.202209 -9.081207 20.283447 -20.283447 20.283447l0 0c-11.2022705 0 -20.283478 -9.081238 -20.283478 -20.283447z"
       fill-rule="nonzero"
       id="path169" />
    <path
       stroke="#000000"
       stroke-width="4.0"
       stroke-linejoin="round"
       stroke-linecap="butt"
       stroke-dasharray="16.0,12.0"
       d="m272.65613 745.5999l0 0c0 -11.2022705 9.081207 -20.283447 20.283478 -20.283447l0 0c5.379486 0 10.538666 2.136963 14.34256 5.940857c3.803894 3.803894 5.9408875 8.963074 5.9408875 14.34259l0 0c0 11.202209 -9.081207 20.283447 -20.283447 20.283447l0 0c-11.2022705 0 -20.283478 -9.081238 -20.283478 -20.283447z"
       fill-rule="nonzero"
       id="path171" />
    <path
       fill="#000000"
       fill-opacity="0.0"
       d="m293.12665 655.327l0.0032653809 8.974304l10.545807 6.2628174l-21.895874 13.009033l21.91513 13.014832l-21.186249 12.586243l21.396027 12.705994l-21.372772 12.697327l12.277008 7.290283l0.004180908 11.436096"
       fill-rule="nonzero"
       id="path173" />
    <path
       stroke="#000000"
       stroke-width="2.0"
       stroke-linejoin="round"
       stroke-linecap="butt"
       d="m293.12665 655.327l0.0032653809 8.974304l10.545807 6.2628174l-21.895874 13.009033l21.91513 13.014832l-21.186249 12.586243l21.396027 12.705994l-21.372772 12.697327l12.277008 7.290283l0.004180908 11.436096"
       fill-rule="nonzero"
       id="path175" />
    <path
       fill="#000000"
       fill-opacity="0.0"
       d="m463.71338 597.4736l0 0c0 -11.202209 -9.081207 -20.283447 -20.283478 -20.283447l0 0c-5.379486 0 -10.538666 2.137024 -14.34256 5.940918c-3.803894 3.803833 -5.9408875 8.963013 -5.9408875 14.342529l0 0c0 11.2022705 9.081207 20.283508 20.283447 20.283508l0 0c11.2022705 0 20.283478 -9.081238 20.283478 -20.283508z"
       fill-rule="nonzero"
       id="path177" />
    <path
       stroke="#000000"
       stroke-width="4.0"
       stroke-linejoin="round"
       stroke-linecap="butt"
       stroke-dasharray="16.0,12.0"
       d="m463.71338 597.4736l0 0c0 -11.202209 -9.081207 -20.283447 -20.283478 -20.283447l0 0c-5.379486 0 -10.538666 2.137024 -14.34256 5.940918c-3.803894 3.803833 -5.9408875 8.963013 -5.9408875 14.342529l0 0c0 11.2022705 9.081207 20.283508 20.283447 20.283508l0 0c11.2022705 0 20.283478 -9.081238 20.283478 -20.283508z"
       fill-rule="nonzero"
       id="path179" />
    <path
       fill="#000000"
       fill-opacity="0.0"
       d="m446.92325 596.7267l-5.9888306 5.871277l-13.006439 -4.9052734l9.653809 27.210938l-27.028625 -10.193481l9.341766 26.328308l-26.388062 -9.952454l9.423828 26.560303l-15.141144 -5.7109985l-7.631714 7.4819946"
       fill-rule="nonzero"
       id="path181" />
    <path
       stroke="#000000"
       stroke-width="2.0"
       stroke-linejoin="round"
       stroke-linecap="butt"
       d="m446.92325 596.7267l-5.9888306 5.871277l-13.006439 -4.9052734l9.653809 27.210938l-27.028625 -10.193481l9.341766 26.328308l-26.388062 -9.952454l9.423828 26.560303l-15.141144 -5.7109985l-7.631714 7.4819946"
       fill-rule="nonzero"
       id="path183" />
    <path
       fill="#000000"
       fill-opacity="0.0"
       d="m97.0453 526.7037l40.58174 0l0 50.596436l-40.58174 0z"
       fill-rule="nonzero"
       id="path185" />
    <path
       fill="#000000"
       d="m107.06093 554.2124l2.109375 -0.28125q0.359375 1.78125 1.234375 2.578125q0.875 0.796875 2.125 0.796875q1.484375 0 2.5 -1.03125q1.03125 -1.03125 1.03125 -2.5625q0 -1.453125 -0.953125 -2.390625q-0.9375 -0.953125 -2.40625 -0.953125q-0.59375 0 -1.484375 0.234375l0.234375 -1.84375q0.203125 0.015625 0.34375 0.015625q1.34375 0 2.421875 -0.703125q1.078125 -0.703125 1.078125 -2.15625q0 -1.171875 -0.796875 -1.921875q-0.78125 -0.765625 -2.015625 -0.765625q-1.234375 0 -2.0625 0.78125q-0.8125 0.765625 -1.046875 2.3125l-2.109375 -0.375q0.390625 -2.125 1.75 -3.28125q1.375 -1.171875 3.421875 -1.171875q1.40625 0 2.578125 0.609375q1.1875 0.59375 1.8125 1.640625q0.640625 1.046875 0.640625 2.21875q0 1.109375 -0.609375 2.03125q-0.59375 0.90625 -1.765625 1.4375q1.53125 0.359375 2.375 1.46875q0.84375 1.109375 0.84375 2.765625q0 2.25 -1.640625 3.828125q-1.640625 1.5625 -4.15625 1.5625q-2.265625 0 -3.765625 -1.34375q-1.484375 -1.359375 -1.6875 -3.5zm15.300781 9.578125l-1.515625 0q3.5 -5.625 3.5 -11.265625q0 -2.203125 -0.5 -4.359375q-0.390625 -1.765625 -1.109375 -3.375q-0.453125 -1.0625 -1.890625 -3.515625l1.515625 0q2.203125 2.9375 3.25 5.90625q0.90625 2.546875 0.90625 5.34375q0 3.15625 -1.21875 6.109375q-1.203125 2.953125 -2.9375 5.15625z"
       fill-rule="nonzero"
       id="path187" />
    <path
       fill="#000000"
       fill-opacity="0.0"
       d="m201.80742 46.84646l174.11024 0l0 27.685036l-174.11024 0z"
       fill-rule="nonzero"
       id="path189" />
    <path
       fill="#000000"
       d="m221.79694 69.39146l1.6875 -0.140625q0.125 1.015625 0.5625 1.671875q0.4375 0.65625 1.359375 1.0625q0.9375 0.40625 2.09375 0.40625q1.03125 0 1.8125 -0.3125q0.796875 -0.3125 1.1875 -0.84375q0.390625 -0.53125 0.390625 -1.15625q0 -0.640625 -0.375 -1.109375q-0.375 -0.484375 -1.234375 -0.8125q-0.546875 -0.21875 -2.421875 -0.65625q-1.875 -0.453125 -2.625 -0.859375q-0.96875 -0.515625 -1.453125 -1.265625q-0.46875 -0.75 -0.46875 -1.6875q0 -1.03125 0.578125 -1.921875q0.59375 -0.90625 1.703125 -1.359375q1.125 -0.46875 2.5 -0.46875q1.515625 0 2.671875 0.484375q1.15625 0.484375 1.765625 1.4375q0.625 0.9375 0.671875 2.140625l-1.71875 0.125q-0.140625 -1.28125 -0.953125 -1.9375q-0.796875 -0.671875 -2.359375 -0.671875q-1.625 0 -2.375 0.609375q-0.75 0.59375 -0.75 1.4375q0 0.734375 0.53125 1.203125q0.515625 0.46875 2.703125 0.96875q2.203125 0.5 3.015625 0.875q1.1875 0.546875 1.75 1.390625q0.578125 0.828125 0.578125 1.921875q0 1.09375 -0.625 2.0625q-0.625 0.953125 -1.796875 1.484375q-1.15625 0.53125 -2.609375 0.53125q-1.84375 0 -3.09375 -0.53125q-1.25 -0.546875 -1.96875 -1.625q-0.703125 -1.078125 -0.734375 -2.453125zm16.490448 2.875l0.234375 1.484375q-0.703125 0.140625 -1.265625 0.140625q-0.90625 0 -1.40625 -0.28125q-0.5 -0.296875 -0.703125 -0.75q-0.203125 -0.46875 -0.203125 -1.984375l0 -5.65625l-1.234375 0l0 -1.3125l1.234375 0l0 -2.4375l1.65625 -1.0l0 3.4375l1.6875 0l0 1.3125l-1.6875 0l0 5.75q0 0.71875 0.078125 0.921875q0.09375 0.203125 0.296875 0.328125q0.203125 0.125 0.578125 0.125q0.265625 0 0.734375 -0.078125zm1.5114288 1.5l0 -9.859375l1.5 0l0 1.5q0.578125 -1.046875 1.0625 -1.375q0.484375 -0.34375 1.078125 -0.34375q0.84375 0 1.71875 0.546875l-0.578125 1.546875q-0.609375 -0.359375 -1.234375 -0.359375q-0.546875 0 -0.984375 0.328125q-0.421875 0.328125 -0.609375 0.90625q-0.28125 0.890625 -0.28125 1.953125l0 5.15625l-1.671875 0zm12.978302 -3.171875l1.71875 0.21875q-0.40625 1.5 -1.515625 2.34375q-1.09375 0.828125 -2.8125 0.828125q-2.15625 0 -3.421875 -1.328125q-1.265625 -1.328125 -1.265625 -3.734375q0 -2.484375 1.265625 -3.859375q1.28125 -1.375 3.328125 -1.375q1.984375 0 3.234375 1.34375q1.25 1.34375 1.25 3.796875q0 0.140625 -0.015625 0.4375l-7.34375 0q0.09375 1.625 0.921875 2.484375q0.828125 0.859375 2.0625 0.859375q0.90625 0 1.546875 -0.46875q0.65625 -0.484375 1.046875 -1.546875zm-5.484375 -2.703125l5.5 0q-0.109375 -1.234375 -0.625 -1.859375q-0.796875 -0.96875 -2.078125 -0.96875q-1.140625 0 -1.9375 0.78125q-0.78125 0.765625 -0.859375 2.046875zm12.766342 4.375l0.234375 1.484375q-0.703125 0.140625 -1.265625 0.140625q-0.90625 0 -1.40625 -0.28125q-0.5 -0.296875 -0.703125 -0.75q-0.203125 -0.46875 -0.203125 -1.984375l0 -5.65625l-1.234375 0l0 -1.3125l1.234375 0l0 -2.4375l1.65625 -1.0l0 3.4375l1.6875 0l0 1.3125l-1.6875 0l0 5.75q0 0.71875 0.078125 0.921875q0.09375 0.203125 0.296875 0.328125q0.203125 0.125 0.578125 0.125q0.265625 0 0.734375 -0.078125zm7.964569 -2.109375l1.640625 0.21875q-0.265625 1.6875 -1.375 2.65625q-1.109375 0.953125 -2.734375 0.953125q-2.015625 0 -3.25 -1.3125q-1.21875 -1.328125 -1.21875 -3.796875q0 -1.59375 0.515625 -2.78125q0.53125 -1.203125 1.609375 -1.796875q1.09375 -0.609375 2.359375 -0.609375q1.609375 0 2.625 0.8125q1.015625 0.8125 1.3125 2.3125l-1.625 0.25q-0.234375 -1.0 -0.828125 -1.5q-0.59375 -0.5 -1.421875 -0.5q-1.265625 0 -2.0625 0.90625q-0.78125 0.90625 -0.78125 2.859375q0 1.984375 0.765625 2.890625q0.765625 0.890625 1.984375 0.890625q0.984375 0 1.640625 -0.59375q0.65625 -0.609375 0.84375 -1.859375zm2.890625 3.609375l0 -13.59375l1.671875 0l0 4.875q1.171875 -1.359375 2.953125 -1.359375q1.09375 0 1.890625 0.4375q0.8125 0.421875 1.15625 1.1875q0.359375 0.765625 0.359375 2.203125l0 6.25l-1.671875 0l0 -6.25q0 -1.25 -0.546875 -1.8125q-0.546875 -0.578125 -1.53125 -0.578125q-0.75 0 -1.40625 0.390625q-0.640625 0.375 -0.921875 1.046875q-0.28125 0.65625 -0.28125 1.8125l0 5.390625l-1.671875 0zm10.391327 -11.6875l0 -1.90625l1.671875 0l0 1.90625l-1.671875 0zm0 11.6875l0 -9.859375l1.671875 0l0 9.859375l-1.671875 0zm4.1292114 0l0 -9.859375l1.5 0l0 1.40625q1.09375 -1.625 3.140625 -1.625q0.890625 0 1.640625 0.328125q0.75 0.3125 1.109375 0.84375q0.375 0.515625 0.53125 1.21875q0.09375 0.46875 0.09375 1.625l0 6.0625l-1.671875 0l0 -6.0q0 -1.015625 -0.203125 -1.515625q-0.1875 -0.515625 -0.6875 -0.8125q-0.5 -0.296875 -1.171875 -0.296875q-1.0625 0 -1.84375 0.671875q-0.765625 0.671875 -0.765625 2.578125l0 5.375l-1.671875 0zm10.078827 0.8125l1.609375 0.25q0.109375 0.75 0.578125 1.09375q0.609375 0.453125 1.6875 0.453125q1.171875 0 1.796875 -0.46875q0.625 -0.453125 0.859375 -1.28125q0.125 -0.515625 0.109375 -2.15625q-1.09375 1.296875 -2.71875 1.296875q-2.03125 0 -3.15625 -1.46875q-1.109375 -1.46875 -1.109375 -3.515625q0 -1.40625 0.515625 -2.59375q0.515625 -1.203125 1.484375 -1.84375q0.96875 -0.65625 2.265625 -0.65625q1.75 0 2.875 1.40625l0 -1.1875l1.546875 0l0 8.515625q0 2.3125 -0.46875 3.265625q-0.46875 0.96875 -1.484375 1.515625q-1.015625 0.5625 -2.5 0.5625q-1.765625 0 -2.859375 -0.796875q-1.078125 -0.796875 -1.03125 -2.390625zm1.375 -5.921875q0 1.953125 0.765625 2.84375q0.78125 0.890625 1.9375 0.890625q1.140625 0 1.921875 -0.890625q0.78125 -0.890625 0.78125 -2.78125q0 -1.8125 -0.8125 -2.71875q-0.796875 -0.921875 -1.921875 -0.921875q-1.109375 0 -1.890625 0.90625q-0.78125 0.890625 -0.78125 2.671875zm14.480896 5.109375l0 -9.859375l1.5 0l0 1.390625q0.453125 -0.71875 1.21875 -1.15625q0.78125 -0.453125 1.765625 -0.453125q1.09375 0 1.796875 0.453125q0.703125 0.453125 0.984375 1.28125q1.171875 -1.734375 3.046875 -1.734375q1.46875 0 2.25 0.8125q0.796875 0.8125 0.796875 2.5l0 6.765625l-1.671875 0l0 -6.203125q0 -1.0 -0.15625 -1.4375q-0.15625 -0.453125 -0.59375 -0.71875q-0.421875 -0.265625 -1.0 -0.265625q-1.03125 0 -1.71875 0.6875q-0.6875 0.6875 -0.6875 2.21875l0 5.71875l-1.671875 0l0 -6.40625q0 -1.109375 -0.40625 -1.65625q-0.40625 -0.5625 -1.34375 -0.5625q-0.703125 0 -1.3125 0.375q-0.59375 0.359375 -0.859375 1.078125q-0.265625 0.71875 -0.265625 2.0625l0 5.109375l-1.671875 0zm14.915802 -4.921875q0 -2.734375 1.53125 -4.0625q1.265625 -1.09375 3.09375 -1.09375q2.03125 0 3.3125 1.34375q1.296875 1.328125 1.296875 3.671875q0 1.90625 -0.578125 3.0q-0.5625 1.078125 -1.65625 1.6875q-1.078125 0.59375 -2.375 0.59375q-2.0625 0 -3.34375 -1.328125q-1.28125 -1.328125 -1.28125 -3.8125zm1.71875 0q0 1.890625 0.828125 2.828125q0.828125 0.9375 2.078125 0.9375q1.25 0 2.0625 -0.9375q0.828125 -0.953125 0.828125 -2.890625q0 -1.828125 -0.828125 -2.765625q-0.828125 -0.9375 -2.0625 -0.9375q-1.25 0 -2.078125 0.9375q-0.828125 0.9375 -0.828125 2.828125zm15.672577 4.921875l0 -1.25q-0.9375 1.46875 -2.75 1.46875q-1.171875 0 -2.171875 -0.640625q-0.984375 -0.65625 -1.53125 -1.8125q-0.53125 -1.171875 -0.53125 -2.6875q0 -1.46875 0.484375 -2.671875q0.5 -1.203125 1.46875 -1.84375q0.984375 -0.640625 2.203125 -0.640625q0.890625 0 1.578125 0.375q0.703125 0.375 1.140625 0.984375l0 -4.875l1.65625 0l0 13.59375l-1.546875 0zm-5.28125 -4.921875q0 1.890625 0.796875 2.828125q0.8125 0.9375 1.890625 0.9375q1.09375 0 1.859375 -0.890625q0.765625 -0.890625 0.765625 -2.734375q0 -2.015625 -0.78125 -2.953125q-0.78125 -0.953125 -1.921875 -0.953125q-1.109375 0 -1.859375 0.90625q-0.75 0.90625 -0.75 2.859375zm16.016357 1.75l1.71875 0.21875q-0.40625 1.5 -1.515625 2.34375q-1.09375 0.828125 -2.8125 0.828125q-2.15625 0 -3.421875 -1.328125q-1.265625 -1.328125 -1.265625 -3.734375q0 -2.484375 1.265625 -3.859375q1.28125 -1.375 3.328125 -1.375q1.984375 0 3.234375 1.34375q1.25 1.34375 1.25 3.796875q0 0.140625 -0.015625 0.4375l-7.34375 0q0.09375 1.625 0.921875 2.484375q0.828125 0.859375 2.0625 0.859375q0.90625 0 1.546875 -0.46875q0.65625 -0.484375 1.046875 -1.546875zm-5.484375 -2.703125l5.5 0q-0.109375 -1.234375 -0.625 -1.859375q-0.796875 -0.96875 -2.078125 -0.96875q-1.140625 0 -1.9375 0.78125q-0.78125 0.765625 -0.859375 2.046875z"
       fill-rule="nonzero"
       id="path191" />
    <path
       fill="#000000"
       fill-opacity="0.0"
       d="m555.94617 160.15158l0 0c0 -13.498367 10.942627 -24.440948 24.440979 -24.440948l0 0c6.4821167 0 12.6987915 2.5750275 17.282349 7.1585846c4.583557 4.5835724 7.1585693 10.800217 7.1585693 17.282364l0 0c0 13.498367 -10.942566 24.440948 -24.440918 24.440948l0 0c-13.498352 0 -24.440979 -10.942581 -24.440979 -24.440948z"
       fill-rule="nonzero"
       id="path193" />
    <path
       stroke="#000000"
       stroke-width="4.0"
       stroke-linejoin="round"
       stroke-linecap="butt"
       d="m555.94617 160.15158l0 0c0 -13.498367 10.942627 -24.440948 24.440979 -24.440948l0 0c6.4821167 0 12.6987915 2.5750275 17.282349 7.1585846c4.583557 4.5835724 7.1585693 10.800217 7.1585693 17.282364l0 0c0 13.498367 -10.942566 24.440948 -24.440918 24.440948l0 0c-13.498352 0 -24.440979 -10.942581 -24.440979 -24.440948z"
       fill-rule="nonzero"
       id="path195" />
    <path
       fill="#000000"
       fill-opacity="0.0"
       d="m664.16406 160.15158l0 0c0 -13.498367 10.942566 -24.440948 24.440918 -24.440948l0 0c6.4821777 0 12.6987915 2.5750275 17.282349 7.1585846c4.583557 4.5835724 7.1586304 10.800217 7.1586304 17.282364l0 0c0 13.498367 -10.942627 24.440948 -24.440979 24.440948l0 0c-13.498352 0 -24.440918 -10.942581 -24.440918 -24.440948z"
       fill-rule="nonzero"
       id="path197" />
    <path
       stroke="#000000"
       stroke-width="4.0"
       stroke-linejoin="round"
       stroke-linecap="butt"
       d="m664.16406 160.15158l0 0c0 -13.498367 10.942566 -24.440948 24.440918 -24.440948l0 0c6.4821777 0 12.6987915 2.5750275 17.282349 7.1585846c4.583557 4.5835724 7.1586304 10.800217 7.1586304 17.282364l0 0c0 13.498367 -10.942627 24.440948 -24.440979 24.440948l0 0c-13.498352 0 -24.440918 -10.942581 -24.440918 -24.440948z"
       fill-rule="nonzero"
       id="path199" />
    <path
       fill="#000000"
       fill-opacity="0.0"
       d="m772.3819 160.15158l0 0c0 -13.498367 10.942566 -24.440948 24.440918 -24.440948l0 0c6.4821777 0 12.6987915 2.5750275 17.282349 7.1585846c4.583618 4.5835724 7.1586304 10.800217 7.1586304 17.282364l0 0c0 13.498367 -10.942627 24.440948 -24.440979 24.440948l0 0c-13.498352 0 -24.440918 -10.942581 -24.440918 -24.440948z"
       fill-rule="nonzero"
       id="path201" />
    <path
       stroke="#000000"
       stroke-width="4.0"
       stroke-linejoin="round"
       stroke-linecap="butt"
       d="m772.3819 160.15158l0 0c0 -13.498367 10.942566 -24.440948 24.440918 -24.440948l0 0c6.4821777 0 12.6987915 2.5750275 17.282349 7.1585846c4.583618 4.5835724 7.1586304 10.800217 7.1586304 17.282364l0 0c0 13.498367 -10.942627 24.440948 -24.440979 24.440948l0 0c-13.498352 0 -24.440918 -10.942581 -24.440918 -24.440948z"
       fill-rule="nonzero"
       id="path203" />
    <path
       fill="#000000"
       fill-opacity="0.0"
       d="m604.82806 160.15158l59.338623 0"
       fill-rule="nonzero"
       id="path205" />
    <path
       stroke="#000000"
       stroke-width="4.0"
       stroke-linejoin="round"
       stroke-linecap="butt"
       d="m604.82806 160.15158l59.338623 0"
       fill-rule="nonzero"
       id="path207" />
    <path
       fill="#000000"
       fill-opacity="0.0"
       d="m713.04596 160.15158l59.338562 0"
       fill-rule="nonzero"
       id="path209" />
    <path
       stroke="#000000"
       stroke-width="4.0"
       stroke-linejoin="round"
       stroke-linecap="butt"
       d="m713.04596 160.15158l59.338562 0"
       fill-rule="nonzero"
       id="path211" />
    <path
       fill="#000000"
       fill-opacity="0.0"
       d="m580.82806 82.54545l0 76.8189"
       fill-rule="nonzero"
       id="path213" />
    <path
       stroke="#000000"
       stroke-width="3.0"
       stroke-linejoin="round"
       stroke-linecap="butt"
       d="m580.82806 100.54544l0 58.81891"
       fill-rule="evenodd"
       id="path215" />
    <path
       fill="#000000"
       stroke="#000000"
       stroke-width="3.0"
       stroke-linecap="butt"
       d="m585.78326 100.54544l-4.9552 -13.614288l-4.9552 13.614288z"
       fill-rule="evenodd"
       id="path217" />
    <path
       fill="#000000"
       fill-opacity="0.0"
       d="m796.8202 82.589905l0 76.81889"
       fill-rule="nonzero"
       id="path219" />
    <path
       stroke="#000000"
       stroke-width="3.0"
       stroke-linejoin="round"
       stroke-linecap="butt"
       d="m796.8202 100.5899l0 58.8189"
       fill-rule="evenodd"
       id="path221" />
    <path
       fill="#000000"
       stroke="#000000"
       stroke-width="3.0"
       stroke-linecap="butt"
       d="m801.7754 100.5899l-4.9552 -13.614288l-4.9552 13.614288z"
       fill-rule="evenodd"
       id="path223" />
    <path
       fill="#000000"
       fill-opacity="0.0"
       d="m688.605 215.57416l0 -53.795273"
       fill-rule="nonzero"
       id="path225" />
    <path
       stroke="#000000"
       stroke-width="3.0"
       stroke-linejoin="round"
       stroke-linecap="butt"
       d="m688.605 197.57414l0 -35.795258"
       fill-rule="evenodd"
       id="path227" />
    <path
       fill="#000000"
       stroke="#000000"
       stroke-width="3.0"
       stroke-linecap="butt"
       d="m683.6498 197.57414l4.9552 13.614304l4.9552 -13.614304z"
       fill-rule="evenodd"
       id="path229" />
    <path
       fill="#000000"
       fill-opacity="0.0"
       d="m601.62335 49.524452l174.11023 0l0 27.685043l-174.11023 0z"
       fill-rule="nonzero"
       id="path231" />
    <path
       fill="#000000"
       d="m629.91 76.44445l0 -13.59375l5.109375 0q1.546875 0 2.484375 0.40625q0.953125 0.40625 1.484375 1.265625q0.53125 0.859375 0.53125 1.796875q0 0.875 -0.46875 1.65625q-0.46875 0.765625 -1.4375 1.234375q1.234375 0.359375 1.890625 1.234375q0.671875 0.875 0.671875 2.0625q0 0.953125 -0.40625 1.78125q-0.390625 0.8125 -0.984375 1.265625q-0.59375 0.4375 -1.5 0.671875q-0.890625 0.21875 -2.1875 0.21875l-5.1875 0zm1.796875 -7.890625l2.9375 0q1.203125 0 1.71875 -0.15625q0.6875 -0.203125 1.03125 -0.671875q0.359375 -0.46875 0.359375 -1.1875q0 -0.671875 -0.328125 -1.1875q-0.328125 -0.515625 -0.9375 -0.703125q-0.59375 -0.203125 -2.0625 -0.203125l-2.71875 0l0 4.109375zm0 6.28125l3.390625 0q0.875 0 1.21875 -0.0625q0.625 -0.109375 1.046875 -0.359375q0.421875 -0.265625 0.6875 -0.765625q0.265625 -0.5 0.265625 -1.140625q0 -0.765625 -0.390625 -1.328125q-0.390625 -0.5625 -1.078125 -0.78125q-0.6875 -0.234375 -1.984375 -0.234375l-3.15625 0l0 4.671875zm17.256104 -1.5625l1.71875 0.21875q-0.40625 1.5 -1.515625 2.34375q-1.09375 0.828125 -2.8125 0.828125q-2.15625 0 -3.421875 -1.328125q-1.265625 -1.328125 -1.265625 -3.734375q0 -2.484375 1.265625 -3.859375q1.28125 -1.375 3.328125 -1.375q1.984375 0 3.234375 1.34375q1.25 1.34375 1.25 3.796875q0 0.140625 -0.015625 0.4375l-7.34375 0q0.09375 1.625 0.921875 2.484375q0.828125 0.859375 2.0625 0.859375q0.90625 0 1.546875 -0.46875q0.65625 -0.484375 1.046875 -1.546875zm-5.484375 -2.703125l5.5 0q-0.109375 -1.234375 -0.625 -1.859375q-0.796875 -0.96875 -2.078125 -0.96875q-1.140625 0 -1.9375 0.78125q-0.78125 0.765625 -0.859375 2.046875zm9.110046 5.875l0 -9.859375l1.5 0l0 1.40625q1.09375 -1.625 3.140625 -1.625q0.890625 0 1.640625 0.328125q0.75 0.3125 1.109375 0.84375q0.375 0.515625 0.53125 1.21875q0.09375 0.46875 0.09375 1.625l0 6.0625l-1.671875 0l0 -6.0q0 -1.015625 -0.203125 -1.515625q-0.1875 -0.515625 -0.6875 -0.8125q-0.5 -0.296875 -1.171875 -0.296875q-1.0625 0 -1.84375 0.671875q-0.765625 0.671875 -0.765625 2.578125l0 5.375l-1.671875 0zm16.766357 0l0 -1.25q-0.9375 1.46875 -2.75 1.46875q-1.171875 0 -2.171875 -0.640625q-0.984375 -0.65625 -1.53125 -1.8125q-0.53125 -1.171875 -0.53125 -2.6875q0 -1.46875 0.484375 -2.671875q0.5 -1.203125 1.46875 -1.84375q0.984375 -0.640625 2.203125 -0.640625q0.890625 0 1.578125 0.375q0.703125 0.375 1.140625 0.984375l0 -4.875l1.65625 0l0 13.59375l-1.546875 0zm-5.28125 -4.921875q0 1.890625 0.796875 2.828125q0.8125 0.9375 1.890625 0.9375q1.09375 0 1.859375 -0.890625q0.765625 -0.890625 0.765625 -2.734375q0 -2.015625 -0.78125 -2.953125q-0.78125 -0.953125 -1.921875 -0.953125q-1.109375 0 -1.859375 0.90625q-0.75 0.90625 -0.75 2.859375zm9.281982 -6.765625l0 -1.90625l1.671875 0l0 1.90625l-1.671875 0zm0 11.6875l0 -9.859375l1.671875 0l0 9.859375l-1.671875 0zm4.1292114 0l0 -9.859375l1.5 0l0 1.40625q1.09375 -1.625 3.140625 -1.625q0.890625 0 1.640625 0.328125q0.75 0.3125 1.109375 0.84375q0.375 0.515625 0.53125 1.21875q0.09375 0.46875 0.09375 1.625l0 6.0625l-1.671875 0l0 -6.0q0 -1.015625 -0.203125 -1.515625q-0.1875 -0.515625 -0.6875 -0.8125q-0.5 -0.296875 -1.171875 -0.296875q-1.0625 0 -1.84375 0.671875q-0.765625 0.671875 -0.765625 2.578125l0 5.375l-1.671875 0zm10.078796 0.8125l1.609375 0.25q0.109375 0.75 0.578125 1.09375q0.609375 0.453125 1.6875 0.453125q1.171875 0 1.796875 -0.46875q0.625 -0.453125 0.859375 -1.28125q0.125 -0.515625 0.109375 -2.15625q-1.09375 1.296875 -2.71875 1.296875q-2.03125 0 -3.15625 -1.46875q-1.109375 -1.46875 -1.109375 -3.515625q0 -1.40625 0.515625 -2.59375q0.515625 -1.203125 1.484375 -1.84375q0.96875 -0.65625 2.265625 -0.65625q1.75 0 2.875 1.40625l0 -1.1875l1.546875 0l0 8.515625q0 2.3125 -0.46875 3.265625q-0.46875 0.96875 -1.484375 1.515625q-1.015625 0.5625 -2.5 0.5625q-1.765625 0 -2.859375 -0.796875q-1.078125 -0.796875 -1.03125 -2.390625zm1.375 -5.921875q0 1.953125 0.765625 2.84375q0.78125 0.890625 1.9375 0.890625q1.140625 0 1.921875 -0.890625q0.78125 -0.890625 0.78125 -2.78125q0 -1.8125 -0.8125 -2.71875q-0.796875 -0.921875 -1.921875 -0.921875q-1.109375 0 -1.890625 0.90625q-0.78125 0.890625 -0.78125 2.671875zm14.480896 5.109375l0 -9.859375l1.5 0l0 1.390625q0.453125 -0.71875 1.21875 -1.15625q0.78125 -0.453125 1.765625 -0.453125q1.09375 0 1.796875 0.453125q0.703125 0.453125 0.984375 1.28125q1.171875 -1.734375 3.046875 -1.734375q1.46875 0 2.25 0.8125q0.796875 0.8125 0.796875 2.5l0 6.765625l-1.671875 0l0 -6.203125q0 -1.0 -0.15625 -1.4375q-0.15625 -0.453125 -0.59375 -0.71875q-0.421875 -0.265625 -1.0 -0.265625q-1.03125 0 -1.71875 0.6875q-0.6875 0.6875 -0.6875 2.21875l0 5.71875l-1.671875 0l0 -6.40625q0 -1.109375 -0.40625 -1.65625q-0.40625 -0.5625 -1.34375 -0.5625q-0.703125 0 -1.3125 0.375q-0.59375 0.359375 -0.859375 1.078125q-0.265625 0.71875 -0.265625 2.0625l0 5.109375l-1.671875 0zm14.9158325 -4.921875q0 -2.734375 1.53125 -4.0625q1.265625 -1.09375 3.09375 -1.09375q2.03125 0 3.3125 1.34375q1.296875 1.328125 1.296875 3.671875q0 1.90625 -0.578125 3.0q-0.5625 1.078125 -1.65625 1.6875q-1.078125 0.59375 -2.375 0.59375q-2.0625 0 -3.34375 -1.328125q-1.28125 -1.328125 -1.28125 -3.8125zm1.71875 0q0 1.890625 0.828125 2.828125q0.828125 0.9375 2.078125 0.9375q1.25 0 2.0625 -0.9375q0.828125 -0.953125 0.828125 -2.890625q0 -1.828125 -0.828125 -2.765625q-0.828125 -0.9375 -2.0625 -0.9375q-1.25 0 -2.078125 0.9375q-0.828125 0.9375 -0.828125 2.828125zm15.672607 4.921875l0 -1.25q-0.9375 1.46875 -2.75 1.46875q-1.171875 0 -2.171875 -0.640625q-0.984375 -0.65625 -1.53125 -1.8125q-0.53125 -1.171875 -0.53125 -2.6875q0 -1.46875 0.484375 -2.671875q0.5 -1.203125 1.46875 -1.84375q0.984375 -0.640625 2.203125 -0.640625q0.890625 0 1.578125 0.375q0.703125 0.375 1.140625 0.984375l0 -4.875l1.65625 0l0 13.59375l-1.546875 0zm-5.28125 -4.921875q0 1.890625 0.796875 2.828125q0.8125 0.9375 1.890625 0.9375q1.09375 0 1.859375 -0.890625q0.765625 -0.890625 0.765625 -2.734375q0 -2.015625 -0.78125 -2.953125q-0.78125 -0.953125 -1.921875 -0.953125q-1.109375 0 -1.859375 0.90625q-0.75 0.90625 -0.75 2.859375zm16.016296 1.75l1.71875 0.21875q-0.40625 1.5 -1.515625 2.34375q-1.09375 0.828125 -2.8125 0.828125q-2.15625 0 -3.421875 -1.328125q-1.265625 -1.328125 -1.265625 -3.734375q0 -2.484375 1.265625 -3.859375q1.28125 -1.375 3.328125 -1.375q1.984375 0 3.234375 1.34375q1.25 1.34375 1.25 3.796875q0 0.140625 -0.015625 0.4375l-7.34375 0q0.09375 1.625 0.921875 2.484375q0.828125 0.859375 2.0625 0.859375q0.90625 0 1.546875 -0.46875q0.65625 -0.484375 1.046875 -1.546875zm-5.484375 -2.703125l5.5 0q-0.109375 -1.234375 -0.625 -1.859375q-0.796875 -0.96875 -2.078125 -0.96875q-1.140625 0 -1.9375 0.78125q-0.78125 0.765625 -0.859375 2.046875z"
       fill-rule="nonzero"
       id="path233" />
    <path
       fill="#000000"
       fill-opacity="0.0"
       d="m395.4908 159.27559l78.11023 0"
       fill-rule="nonzero"
       id="path235" />
    <path
       stroke="#000000"
       stroke-width="3.0"
       stroke-linejoin="round"
       stroke-linecap="butt"
       d="m395.4908 159.27559l60.11023 0"
       fill-rule="evenodd"
       id="path237" />
    <path
       fill="#000000"
       stroke="#000000"
       stroke-width="3.0"
       stroke-linecap="butt"
       d="m455.60104 164.23079l13.614288 -4.9552l-13.614288 -4.9552z"
       fill-rule="evenodd"
       id="path239" />
    <path
       fill="#000000"
       fill-opacity="0.0"
       d="m591.3363 609.64746l0 0c7.9210205 -7.9210205 20.763428 -7.9210205 28.684448 0l0 0c3.803772 3.803772 5.940674 8.96283 5.940674 14.342163c0 5.3793945 -2.1369019 10.538452 -5.940674 14.342224l0 0c-7.9210205 7.9209595 -20.763428 7.9209595 -28.684448 0l0 0c-7.9209595 -7.9209595 -7.9209595 -20.763428 0 -28.684387z"
       fill-rule="nonzero"
       id="path241" />
    <path
       stroke="#000000"
       stroke-width="4.0"
       stroke-linejoin="round"
       stroke-linecap="butt"
       d="m591.3363 609.64746l0 0c7.9210205 -7.9210205 20.763428 -7.9210205 28.684448 0l0 0c3.803772 3.803772 5.940674 8.96283 5.940674 14.342163c0 5.3793945 -2.1369019 10.538452 -5.940674 14.342224l0 0c-7.9210205 7.9209595 -20.763428 7.9209595 -28.684448 0l0 0c-7.9209595 -7.9209595 -7.9209595 -20.763428 0 -28.684387z"
       fill-rule="nonzero"
       id="path243" />
    <path
       fill="#000000"
       fill-opacity="0.0"
       d="m667.0926 696.3061l0 0c0 -11.206299 9.084534 -20.290833 20.290894 -20.290833l0 0c5.3814697 0 10.5425415 2.1377563 14.347778 5.943054c3.8052979 3.8052368 5.943054 8.966309 5.943054 14.347778l0 0c0 11.20636 -9.084534 20.290894 -20.290833 20.290894l0 0c-11.20636 0 -20.290894 -9.084534 -20.290894 -20.290894z"
       fill-rule="nonzero"
       id="path245" />
    <path
       stroke="#000000"
       stroke-width="4.0"
       stroke-linejoin="round"
       stroke-linecap="butt"
       d="m667.0926 696.3061l0 0c0 -11.206299 9.084534 -20.290833 20.290894 -20.290833l0 0c5.3814697 0 10.5425415 2.1377563 14.347778 5.943054c3.8052979 3.8052368 5.943054 8.966309 5.943054 14.347778l0 0c0 11.20636 -9.084534 20.290894 -20.290833 20.290894l0 0c-11.20636 0 -20.290894 -9.084534 -20.290894 -20.290894z"
       fill-rule="nonzero"
       id="path247" />
    <path
       fill="#000000"
       fill-opacity="0.0"
       d="m756.15045 639.01154l0 0c-7.9209595 -7.9209595 -7.9209595 -20.763367 0 -28.684387l0 0c3.803833 -3.803772 8.96283 -5.940735 14.342224 -5.940735c5.3793335 0 10.538391 2.136963 14.342163 5.940735l0 0c7.9210205 7.9210205 7.9210205 20.763428 0 28.684387l0 0c-7.9209595 7.9210205 -20.763367 7.9210205 -28.684387 0z"
       fill-rule="nonzero"
       id="path249" />
    <path
       stroke="#000000"
       stroke-width="4.0"
       stroke-linejoin="round"
       stroke-linecap="butt"
       d="m756.15045 639.01154l0 0c-7.9209595 -7.9209595 -7.9209595 -20.763367 0 -28.684387l0 0c3.803833 -3.803772 8.96283 -5.940735 14.342224 -5.940735c5.3793335 0 10.538391 2.136963 14.342163 5.940735l0 0c7.9210205 7.9210205 7.9210205 20.763428 0 28.684387l0 0c-7.9209595 7.9210205 -20.763367 7.9210205 -28.684387 0z"
       fill-rule="nonzero"
       id="path251" />
    <path
       fill="#000000"
       fill-opacity="0.0"
       d="m620.02075 638.33185l47.09259 57.996338"
       fill-rule="nonzero"
       id="path253" />
    <path
       stroke="#000000"
       stroke-width="4.0"
       stroke-linejoin="round"
       stroke-linecap="butt"
       d="m620.02075 638.33185l47.09259 57.996338"
       fill-rule="nonzero"
       id="path255" />
    <path
       fill="#000000"
       fill-opacity="0.0"
       d="m707.6743 696.3061l48.478455 -57.290344"
       fill-rule="nonzero"
       id="path257" />
    <path
       stroke="#000000"
       stroke-width="4.0"
       stroke-linejoin="round"
       stroke-linecap="butt"
       d="m707.6743 696.3061l48.478455 -57.290344"
       fill-rule="nonzero"
       id="path259" />
    <path
       fill="#000000"
       fill-opacity="0.0"
       d="m605.0436 607.73755l0.0013427734 3.0612183l6.6395874 2.1362915l-13.787537 4.4375l13.797668 4.439514l-13.340698 4.293274l13.470825 4.3341675l-13.458191 4.3311768l7.729553 2.4867554l0.0017089844 3.901001"
       fill-rule="nonzero"
       id="path261" />
    <path
       stroke="#000000"
       stroke-width="2.0"
       stroke-linejoin="round"
       stroke-linecap="butt"
       d="m605.0436 607.73755l0.0013427734 3.0612183l6.6395874 2.1362915l-13.787537 4.4375l13.797668 4.439514l-13.340698 4.293274l13.470825 4.3341675l-13.458191 4.3311768l7.729553 2.4867554l0.0017089844 3.901001"
       fill-rule="nonzero"
       id="path263" />
    <path
       fill="#000000"
       fill-opacity="0.0"
       d="m686.5224 678.30597l0.0014038086 3.0612183l6.6395874 2.1362915l-13.787537 4.437561l13.797607 4.439453l-13.340698 4.293274l13.470825 4.3341675l-13.458191 4.3311768l7.729553 2.4868164l0.0017089844 3.90094"
       fill-rule="nonzero"
       id="path265" />
    <path
       stroke="#000000"
       stroke-width="2.0"
       stroke-linejoin="round"
       stroke-linecap="butt"
       d="m686.5224 678.30597l0.0014038086 3.0612183l6.6395874 2.1362915l-13.787537 4.437561l13.797607 4.439453l-13.340698 4.293274l13.470825 4.3341675l-13.458191 4.3311768l7.729553 2.4868164l0.0017089844 3.90094"
       fill-rule="nonzero"
       id="path267" />
    <path
       fill="#000000"
       fill-opacity="0.0"
       d="m770.4904 607.5048l0.0013427734 3.0612183l6.6395874 2.1362915l-13.787537 4.437561l13.797668 4.439453l-13.340698 4.293274l13.470825 4.3341675l-13.458191 4.3311768l7.729553 2.4868164l0.0017089844 3.90094"
       fill-rule="nonzero"
       id="path269" />
    <path
       stroke="#000000"
       stroke-width="2.0"
       stroke-linejoin="round"
       stroke-linecap="butt"
       d="m770.4904 607.5048l0.0013427734 3.0612183l6.6395874 2.1362915l-13.787537 4.437561l13.797668 4.439453l-13.340698 4.293274l13.470825 4.3341675l-13.458191 4.3311768l7.729553 2.4868164l0.0017089844 3.90094"
       fill-rule="nonzero"
       id="path271" />
    <path
       fill="#000000"
       fill-opacity="0.0"
       d="m97.29426 344.1993l40.566933 0l0 50.582672l-40.566933 0z"
       fill-rule="nonzero"
       id="path273" />
    <path
       fill="#000000"
       d="m115.23176 376.23932l-2.109375 0l0 -13.4375q-0.75 0.71875 -2.0 1.453125q-1.234375 0.71875 -2.21875 1.078125l0 -2.03125q1.78125 -0.828125 3.09375 -2.015625q1.328125 -1.1875 1.875 -2.296875l1.359375 0l0 17.25zm7.3789062 5.046875l-1.515625 0q3.5 -5.625 3.5 -11.265625q0 -2.203125 -0.5 -4.359375q-0.390625 -1.765625 -1.109375 -3.375q-0.453125 -1.0625 -1.890625 -3.515625l1.515625 0q2.203125 2.9375 3.25 5.90625q0.90625 2.546875 0.90625 5.34375q0 3.15625 -1.21875 6.109375q-1.203125 2.953125 -2.9375 5.15625z"
       fill-rule="nonzero"
       id="path275" />
    <g
       style="font-size:24px;font-style:normal;font-weight:normal;line-height:125%;letter-spacing:0px;word-spacing:0px;fill:#000000;fill-opacity:1;stroke:none;font-family:Sans"
       id="text3258">
      <path
         d="m 52.238739,33.662956 -4.28125,11.609375 8.578125,0 -4.296875,-11.609375 m -1.78125,-3.109375 3.578125,0 8.890625,23.328125 -3.28125,0 -2.125,-5.984375 -10.515625,0 -2.125,5.984375 -3.328125,0 8.90625,-23.328125"
         style="font-size:32px"
         id="path3289" />
      <path
         d="m 65.738739,29.600456 2.5,0 c 1.562493,2.458355 2.729159,4.864603 3.5,7.21875 0.781241,2.354182 1.171865,4.692721 1.171875,7.015625 -10e-6,2.333341 -0.390634,4.682297 -1.171875,7.046875 -0.770841,2.364584 -1.937507,4.770832 -3.5,7.21875 l -2.5,0 c 1.385413,-2.385418 2.416662,-4.755208 3.09375,-7.109375 0.687494,-2.364578 1.031243,-4.749992 1.03125,-7.15625 -7e-6,-2.406237 -0.343756,-4.781235 -1.03125,-7.125 -0.677088,-2.34373 -1.708337,-4.71352 -3.09375,-7.109375"
         style="font-size:32px"
         id="path3291" />
    </g>
    <g
       style="font-size:24px;font-style:normal;font-weight:normal;line-height:125%;letter-spacing:0px;word-spacing:0px;fill:#000000;fill-opacity:1;stroke:none;font-family:Sans"
       id="text3258-3">
      <path
         d="m 48.428352,311.95261 0,8.54687 5.0625,0 c 1.697904,0 2.953111,-0.34895 3.765625,-1.04687 0.822901,-0.70833 1.234359,-1.78646 1.234375,-3.23438 -1.6e-5,-1.45832 -0.411474,-2.53124 -1.234375,-3.21875 -0.812514,-0.6979 -2.067721,-1.04686 -3.765625,-1.04687 l -5.0625,0 m 0,-9.59375 0,7.03125 4.671875,0 c 1.541655,1e-5 2.687487,-0.28645 3.4375,-0.85938 0.760402,-0.58332 1.14061,-1.46873 1.140625,-2.65625 -1.5e-5,-1.17706 -0.380223,-2.05727 -1.140625,-2.64062 -0.750013,-0.58332 -1.895845,-0.87498 -3.4375,-0.875 l -4.671875,0 m -3.15625,-2.59375 8.0625,0 c 2.406237,2e-5 4.260402,0.50002 5.5625,1.5 1.302066,1.00002 1.953107,2.42189 1.953125,4.26562 -1.8e-5,1.4271 -0.333351,2.56252 -1,3.40625 -0.666683,0.84376 -1.645849,1.36981 -2.9375,1.57813 1.552067,0.33334 2.755191,1.03126 3.609375,2.09375 0.864564,1.05209 1.296856,2.3698 1.296875,3.95312 -1.9e-5,2.08334 -0.708352,3.69271 -2.125,4.82813 -1.416682,1.13541 -3.432305,1.70312 -6.046875,1.70312 l -8.375,0 0,-23.32812"
         style="font-size:32px"
         id="path3284" />
      <path
         d="m 66.631477,298.81198 2.5,0 c 1.562494,2.45836 2.729159,4.8646 3.5,7.21875 0.781241,2.35418 1.171866,4.69272 1.171875,7.01563 -9e-6,2.33334 -0.390634,4.68229 -1.171875,7.04687 -0.770841,2.36459 -1.937506,4.77083 -3.5,7.21875 l -2.5,0 c 1.385413,-2.38542 2.416662,-4.75521 3.09375,-7.10937 0.687494,-2.36458 1.031244,-4.75 1.03125,-7.15625 -6e-6,-2.40624 -0.343756,-4.78124 -1.03125,-7.125 -0.677088,-2.34373 -1.708337,-4.71352 -3.09375,-7.10938"
         style="font-size:32px"
         id="path3286" />
    </g>
  </g>
</svg>
