<?xml version="1.0" encoding="UTF-8" standalone="no"?>
<!-- Created with matplotlib (http://matplotlib.org/) -->

<svg
   xmlns:dc="http://purl.org/dc/elements/1.1/"
   xmlns:cc="http://creativecommons.org/ns#"
   xmlns:rdf="http://www.w3.org/1999/02/22-rdf-syntax-ns#"
   xmlns:svg="http://www.w3.org/2000/svg"
   xmlns="http://www.w3.org/2000/svg"
   xmlns:xlink="http://www.w3.org/1999/xlink"
   xmlns:sodipodi="http://sodipodi.sourceforge.net/DTD/sodipodi-0.dtd"
   xmlns:inkscape="http://www.inkscape.org/namespaces/inkscape"
   height="405pt"
   version="1.1"
   viewBox="0 0 585 405"
   width="585pt"
   id="svg2"
   inkscape:version="0.48.4 r9939"
   sodipodi:docname="NMECost.svg">
  <metadata
     id="metadata724">
    <rdf:RDF>
      <cc:Work
         rdf:about="">
        <dc:format>image/svg+xml</dc:format>
        <dc:type
           rdf:resource="http://purl.org/dc/dcmitype/StillImage" />
      </cc:Work>
    </rdf:RDF>
  </metadata>
  <sodipodi:namedview
     pagecolor="#ffffff"
     bordercolor="#666666"
     borderopacity="1"
     objecttolerance="10"
     gridtolerance="10"
     guidetolerance="10"
     inkscape:pageopacity="0"
     inkscape:pageshadow="2"
     inkscape:window-width="1920"
     inkscape:window-height="1014"
     id="namedview722"
     showgrid="false"
     inkscape:zoom="1.5097436"
     inkscape:cx="522.84507"
     inkscape:cy="262.10101"
     inkscape:window-x="0"
     inkscape:window-y="37"
     inkscape:window-maximized="1"
     inkscape:current-layer="layer2" />
  <defs
     id="defs4">
    <style
       type="text/css"
       id="style6">
*{stroke-linecap:butt;stroke-linejoin:round;}
  </style>
    <defs
       id="defs690">
      <path
         id="m599e0ba7cb"
         d=" M0 3.5 C0.928211 3.5 1.81853 3.13122 2.47487 2.47487 C3.13122 1.81853 3.5 0.928211 3.5 0 C3.5 -0.928211 3.13122 -1.81853 2.47487 -2.47487 C1.81853 -3.13122 0.928211 -3.5 0 -3.5 C-0.928211 -3.5 -1.81853 -3.13122 -2.47487 -2.47487 C-3.13122 -1.81853 -3.5 -0.928211 -3.5 0 C-3.5 0.928211 -3.13122 1.81853 -2.47487 2.47487 C-1.81853 3.13122 -0.928211 3.5 0 3.5 z " />
    </defs>
    <defs
       id="defs639">
      <path
         id="LiberationSans-62"
         d=" M51.4219 26.6562 Q51.4219 -0.984375 31.9844 -0.984375 Q25.9844 -0.984375 22 1.1875 Q18.0156 3.375 15.5312 8.20312 L15.4375 8.20312 Q15.4375 6.9375 15.3594 5.5625 Q15.2812 4.20312 15.2031 3.03125 Q15.1406 1.85938 15.0625 1.03125 Q14.9844 0.203125 14.9375 0 L6.45312 0 Q6.5 0.4375 6.54688 1.48438 Q6.59375 2.54688 6.64062 4 Q6.6875 5.46875 6.70312 7.21875 Q6.73438 8.98438 6.73438 10.8906 L6.73438 72.4688 L15.5312 72.4688 L15.5312 51.8125 Q15.5312 50.3438 15.5 49 Q15.4844 47.6562 15.4375 46.625 Q15.375 45.4062 15.3281 44.3438 L15.5312 44.3438 Q17.9688 49.4219 22 51.6094 Q26.0312 53.8125 31.9844 53.8125 Q42 53.8125 46.7031 47.0625 Q51.4219 40.3281 51.4219 26.6562 M42.1875 26.375 Q42.1875 31.8438 41.5 35.75 Q40.8281 39.6562 39.3125 42.1562 Q37.7969 44.6719 35.4531 45.8438 Q33.1094 47.0156 29.7344 47.0156 Q26.2656 47.0156 23.6094 45.8906 Q20.9531 44.7812 19.1719 42.2812 Q17.3906 39.7969 16.4531 35.7344 Q15.5312 31.6875 15.5312 25.8281 Q15.5312 20.1719 16.4531 16.3125 Q17.3906 12.4531 19.1719 10.0312 Q20.9531 7.625 23.5781 6.5625 Q26.2188 5.51562 29.6406 5.51562 Q32.8594 5.51562 35.2031 6.64062 Q37.5469 7.76562 39.1094 10.25 Q40.6719 12.75 41.4219 16.7188 Q42.1875 20.7031 42.1875 26.375" />
      <path
         id="LiberationSans-74"
         d=" M27.0469 0.390625 Q25.0469 -0.140625 22.9688 -0.453125 Q20.9062 -0.78125 18.1719 -0.78125 Q7.625 -0.78125 7.625 11.1875 L7.625 46.4375 L1.51562 46.4375 L1.51562 52.8281 L7.95312 52.8281 L10.5469 64.6562 L16.4062 64.6562 L16.4062 52.8281 L26.1719 52.8281 L26.1719 46.4375 L16.4062 46.4375 L16.4062 13.0938 Q16.4062 9.28125 17.6406 7.73438 Q18.8906 6.20312 21.9688 6.20312 Q23.25 6.20312 24.4375 6.39062 Q25.6406 6.59375 27.0469 6.89062 z " />
      <path
         id="LiberationSans-6e"
         d=" M40.2812 0 L40.2812 33.5 Q40.2812 37.3594 39.7188 39.9375 Q39.1562 42.5312 37.8906 44.1094 Q36.625 45.7031 34.5469 46.3594 Q32.4688 47.0156 29.3906 47.0156 Q26.2656 47.0156 23.75 45.9219 Q21.2344 44.8281 19.4531 42.75 Q17.6719 40.6719 16.6875 37.625 Q15.7188 34.5781 15.7188 30.6094 L15.7188 0 L6.9375 0 L6.9375 41.5469 Q6.9375 43.2188 6.90625 45.0469 Q6.89062 46.875 6.82812 48.5 Q6.78125 50.1406 6.73438 51.3125 Q6.6875 52.4844 6.64062 52.8281 L14.9375 52.8281 Q14.9844 52.5938 15.0312 51.5156 Q15.0938 50.4375 15.1562 49.0469 Q15.2344 47.6562 15.2812 46.2188 Q15.3281 44.7812 15.3281 43.7969 L15.4844 43.7969 Q16.75 46.0938 18.2656 47.9531 Q19.7812 49.8125 21.7812 51.0938 Q23.7812 52.3906 26.3594 53.0938 Q28.9531 53.8125 32.375 53.8125 Q36.7656 53.8125 39.9375 52.7344 Q43.1094 51.6562 45.1562 49.4062 Q47.2188 47.1719 48.1719 43.625 Q49.125 40.0938 49.125 35.2031 L49.125 0 z " />
      <path
         id="LiberationSans-6f"
         d=" M51.4219 26.4688 Q51.4219 12.5938 45.3125 5.79688 Q39.2031 -0.984375 27.5938 -0.984375 Q22.0781 -0.984375 17.7188 0.671875 Q13.375 2.34375 10.375 5.76562 Q7.375 9.1875 5.78125 14.3281 Q4.20312 19.4844 4.20312 26.4688 Q4.20312 53.8125 27.875 53.8125 Q34.0312 53.8125 38.5 52.0938 Q42.9688 50.3906 45.8281 46.9688 Q48.6875 43.5625 50.0469 38.4219 Q51.4219 33.2969 51.4219 26.4688 M42.1875 26.4688 Q42.1875 32.625 41.2344 36.625 Q40.2812 40.625 38.4531 43.0156 Q36.625 45.4062 33.9844 46.3594 Q31.3438 47.3125 28.0312 47.3125 Q24.6562 47.3125 21.9375 46.3125 Q19.2344 45.3125 17.3281 42.8906 Q15.4375 40.4844 14.4219 36.4688 Q13.4219 32.4688 13.4219 26.4688 Q13.4219 20.3125 14.5 16.2812 Q15.5781 12.25 17.4531 9.85938 Q19.3438 7.46875 21.9062 6.48438 Q24.4688 5.51562 27.4844 5.51562 Q30.8594 5.51562 33.5938 6.46875 Q36.3281 7.42188 38.2344 9.8125 Q40.1406 12.2031 41.1562 16.25 Q42.1875 20.3125 42.1875 26.4688" />
      <path
         id="LiberationSans-6c"
         d=" M6.73438 0 L6.73438 72.4688 L15.5312 72.4688 L15.5312 0 z " />
      <path
         id="LiberationSans-24"
         d=" M25.2969 0.984375 Q14.7031 1.42188 8.71875 5.9375 Q2.73438 10.4531 1.07812 18.5 L9.375 20.3125 Q9.90625 17.7188 11.0312 15.5938 Q12.1562 13.4844 14.0625 11.9219 Q15.9688 10.3594 18.7188 9.40625 Q21.4844 8.45312 25.2969 8.20312 L25.2969 32.4219 L24.3125 32.6719 Q20.5625 33.5469 16.9375 34.7656 Q13.3281 35.9844 10.5 38.0156 Q7.67188 40.0469 5.9375 43.1719 Q4.20312 46.2969 4.20312 51.0781 Q4.20312 55.1719 5.76562 58.2031 Q7.32812 61.2344 10.125 63.25 Q12.9375 65.2812 16.7969 66.3594 Q20.6562 67.4375 25.2969 67.625 L25.2969 74.0312 L31.3438 74.0312 L31.3438 67.625 Q36.2344 67.3906 39.7656 66.2812 Q43.3125 65.1875 45.7969 63.2344 Q48.2969 61.2812 49.9062 58.4688 Q51.5156 55.6719 52.4844 52 L44 50.3906 Q43.0156 54.9844 40.0312 57.5469 Q37.0625 60.1094 31.3438 60.6406 L31.3438 38.9219 Q34.2344 38.2344 37.0156 37.5 Q39.7969 36.7656 42.3125 35.7656 Q44.8281 34.7656 46.9688 33.3906 Q49.125 32.0312 50.6875 30.0938 Q52.25 28.1719 53.125 25.5156 Q54 22.8594 54 19.3438 Q54 15.5781 52.625 12.375 Q51.2656 9.1875 48.4844 6.73438 Q45.7031 4.29688 41.4219 2.78125 Q37.1562 1.26562 31.3438 0.984375 L31.3438 -6.9375 L25.2969 -6.9375 z  M45.6094 19.2344 Q45.6094 22.3125 44.4531 24.2656 Q43.3125 26.2188 41.3281 27.4688 Q39.3594 28.7188 36.7656 29.5 Q34.1875 30.2812 31.3438 31 L31.3438 8.15625 Q34.5156 8.34375 37.1562 9.09375 Q39.7969 9.85938 41.6719 11.2188 Q43.5625 12.5938 44.5781 14.5625 Q45.6094 16.5469 45.6094 19.2344 M12.5938 51.1719 Q12.5938 48.5312 13.5625 46.7188 Q14.5469 44.9219 16.25 43.7031 Q17.9688 42.4844 20.2812 41.6719 Q22.6094 40.875 25.2969 40.1875 L25.2969 60.75 Q21.7812 60.5469 19.3281 59.7344 Q16.8906 58.9375 15.4062 57.6562 Q13.9219 56.3906 13.25 54.7344 Q12.5938 53.0781 12.5938 51.1719" />
      <path
         id="LiberationSans-43"
         d=" M38.6719 62.2031 Q32.8125 62.2031 28.2969 60.25 Q23.7812 58.2969 20.7188 54.6875 Q17.6719 51.0781 16.1094 46 Q14.5469 40.9219 14.5469 34.7188 Q14.5469 28.5156 16.2344 23.3594 Q17.9219 18.2188 21.0625 14.5 Q24.2188 10.7969 28.7812 8.73438 Q33.3438 6.6875 39.0625 6.6875 Q43.0625 6.6875 46.3594 7.73438 Q49.6562 8.79688 52.3125 10.6875 Q54.9844 12.5938 57.0781 15.2031 Q59.1875 17.8281 60.7969 21 L68.4062 17.1875 Q66.5469 13.3281 63.8125 10 Q61.0781 6.6875 57.3906 4.25 Q53.7188 1.8125 49.0469 0.40625 Q44.3906 -0.984375 38.625 -0.984375 Q30.2812 -0.984375 24 1.67188 Q17.7188 4.34375 13.5 9.10938 Q9.28125 13.875 7.17188 20.4062 Q5.07812 26.9531 5.07812 34.7188 Q5.07812 42.7812 7.29688 49.2656 Q9.51562 55.7656 13.7812 60.3281 Q18.0625 64.8906 24.3125 67.3594 Q30.5625 69.8281 38.5781 69.8281 Q49.5625 69.8281 56.9375 65.5312 Q64.3125 61.2344 67.7812 52.7812 L58.9375 49.8594 Q57.9531 52.2969 56.2969 54.5156 Q54.6406 56.7344 52.1406 58.4375 Q49.6562 60.1562 46.3125 61.1719 Q42.9688 62.2031 38.6719 62.2031" />
    </defs>
    <defs
       id="defs444">
      <path
         style="stroke-linecap:butt;stroke-linejoin:round"
         inkscape:connector-curvature="0"
         id="LiberationSans-73"
         d="m 46.3906,14.5938 q 0,-3.7032 -1.4531,-6.60942 Q 43.5,5.07812 40.7656,3.09375 38.0312,1.125 34.0469,0.0625 q -3.9688,-1.046875 -9.0938,-1.046875 -4.5937,0 -8.2812,0.71875 Q 12.9844,0.4375 10.2031,2 7.42188,3.5625 5.53125,6.125 q -1.875,2.5625 -2.75,6.2812 l 7.76565,1.5157 q 1.125,-4.25002 4.6406,-6.2344 3.5156,-1.96875 9.7656,-1.96875 2.8281,0 5.1875,0.39063 2.375,0.39062 4.0782,1.34374 1.7187,0.95313 2.6718,2.53126 0.9532,1.59372 0.9532,3.93752 0,2.3906 -1.125,3.9219 -1.125,1.5468 -3.125,2.5624 -2,1.0313 -4.8594,1.7813 -2.8594,0.7656 -6.2656,1.6875 -3.1876,0.8281 -6.3126,1.8594 -3.125,1.0312 -5.6406,2.7031 -2.49998,1.6875 -4.06248,4.1719 -1.5625,2.5 -1.5625,6.2656 0,7.2188 5.14058,11 5.1563,3.7812 15.0157,3.7812 8.75,0 13.8906,-3.0781 5.1563,-3.0625 6.5156,-9.8593 L 37.5469,39.75 q -0.4375,2.0469 -1.6094,3.4375 -1.1719,1.3906 -2.8281,2.25 -1.6563,0.8594 -3.7344,1.2187 -2.0781,0.3594 -4.3281,0.3594 -5.9531,0 -8.7969,-1.8125 -2.8281,-1.7969 -2.8281,-5.4531 0,-2.1562 1.0469,-3.5469 1.0624,-1.3906 2.9374,-2.3437 1.875,-0.9532 4.5157,-1.6563 2.6406,-0.7031 5.8125,-1.4843 2.0937,-0.5469 4.2968,-1.1563 2.2032,-0.6094 4.2657,-1.4687 2.0781,-0.8438 3.9062,-2 1.8438,-1.1407 3.2031,-2.75 1.375,-1.6094 2.1719,-3.7657 0.8125,-2.1406 0.8125,-4.9843" />
      <path
         style="stroke-linecap:butt;stroke-linejoin:round"
         inkscape:connector-curvature="0"
         id="LiberationSans-28"
         d="m 6.20312,25.9844 q 0,6.7812 1.01563,12.9844 1.03125,6.2031 3.21875,11.9062 2.2031,5.7188 5.625,11.0781 3.4219,5.375 8.1563,10.5157 l 8.5,0 Q 28.125,67.3281 24.7812,61.9375 21.4375,56.5469 19.2812,50.7969 17.1406,45.0625 16.0938,38.8594 15.0469,32.6719 15.0469,25.875 q 0,-6.7812 1.0469,-12.9844 1.0468,-6.2031 3.1874,-11.968725 2.1563,-5.749995 5.5,-11.124975 3.3438,-5.375 7.9376,-10.5 l -8.5,0 q -4.7344,5.125 -8.1563,10.5 Q 12.6406,-4.82812 10.4375,0.875 8.25,6.59375 7.21875,12.7656 6.20312,18.9531 6.20312,25.7812 z" />
      <path
         style="stroke-linecap:butt;stroke-linejoin:round"
         inkscape:connector-curvature="0"
         id="LiberationSans-79"
         d="M 29.5,0 Q 27.6406,-4.78125 25.7031,-8.60938 23.7812,-12.4531 21.3906,-15.1562 19,-17.875 16.0625,-19.3125 13.1406,-20.75 9.32812,-20.75 q -1.65624,0 -3.07812,0.0938 -1.42188,0.0937 -2.98438,0.4374 l 0,6.5938 q 0.9375,-0.1406 2.10938,-0.2188 1.17188,-0.0781 2,-0.0781 3.8594,0 7.1719,2.8907 3.3281,2.87495 5.8125,9.17182 L 21.1875,0.25 0.25,52.8281 l 9.375,0 11.125,-29.1875 q 0.4844,-1.3281 1.2344,-3.5312 0.7656,-2.1875 1.5156,-4.3906 0.7656,-2.1876 1.3438,-3.9532 0.5937,-1.75 0.6874,-2.18748 0.1563,0.53128 0.7188,2.10938 0.5625,1.5937 1.2656,3.5469 0.7032,1.9531 1.4375,3.9531 0.7344,2 1.2188,3.4687 l 10.3593,30.1719 9.2813,0 z" />
      <path
         style="stroke-linecap:butt;stroke-linejoin:round"
         inkscape:connector-curvature="0"
         id="LiberationSans-69"
         d="m 6.6875,64.0625 0,8.4063 8.7969,0 0,-8.4063 z m 0,-64.0625 0,52.8281 8.7969,0 0,-52.8281 z" />
      <path
         style="stroke-linecap:butt;stroke-linejoin:round"
         inkscape:connector-curvature="0"
         id="LiberationSans-6d"
         d="m 37.5,0 0,33.5 q 0,3.8594 -0.4844,6.4375 -0.4844,2.5937 -1.6406,4.1719 -1.1406,1.5937 -3,2.25 -1.8594,0.6562 -4.5469,0.6562 -2.7812,0 -5.0312,-1.0937 -2.2344,-1.0938 -3.8281,-3.1719 -1.5782,-2.0781 -2.4376,-5.125 -0.8593,-3.0469 -0.8593,-7.0156 l 0,-30.6094 -8.7344,0 0,41.5469 q 0,1.6719 -0.03125,3.5 Q 6.89062,46.875 6.82812,48.5 6.78125,50.1406 6.73438,51.3125 6.6875,52.4844 6.64062,52.8281 l 8.29688,0 q 0.0469,-0.2343 0.0937,-1.3125 0.0626,-1.0781 0.125,-2.4687 0.0782,-1.3907 0.125,-2.8281 0.0469,-1.4376 0.0469,-2.4219 l 0.1563,0 q 1.1718,2.2969 2.5312,4.1562 1.375,1.8594 3.2032,3.1407 1.8281,1.2968 4.1874,2 2.375,0.7187 5.5,0.7187 6.0157,0 9.5,-2.3906 3.4844,-2.3907 4.8594,-7.625 l 0.1406,0 q 1.1719,2.2969 2.6407,4.1562 1.4687,1.8594 3.4219,3.1407 1.9531,1.2968 4.3906,2 2.4375,0.7187 5.5625,0.7187 4.0156,0 6.9062,-1.0781 2.9063,-1.0782 4.7657,-3.3282 1.8593,-2.2343 2.7343,-5.7812 0.875,-3.5312 0.875,-8.4219 l 0,-35.2031 -8.6875,0 0,33.5 q 0,3.8594 -0.4844,6.4375 -0.4843,2.5937 -1.6406,4.1719 -1.1406,1.5937 -3,2.25 -1.8594,0.6562 -4.5468,0.6562 -2.7813,0 -5.0313,-1.0468 Q 51.0781,44.9219 49.4844,42.875 47.9062,40.8281 47.0469,37.75 46.1875,34.6719 46.1875,30.6094 L 46.1875,0 z" />
      <path
         style="stroke-linecap:butt;stroke-linejoin:round"
         inkscape:connector-curvature="0"
         id="LiberationSans-29"
         d="m 27.0938,25.7812 q 0,-6.8281 -1.0313,-13.0156 -1.0156,-6.17185 -3.2187,-11.8906 -2.1876,-5.70312 -5.6094,-11.0781 -3.4219,-5.375 -8.15628,-10.5 l -8.48437,0 q 4.57813,5.125 7.92187,10.5 Q 11.8594,-4.82812 14,0.921875 16.1562,6.6875 17.2031,12.8906 q 1.0625,6.2032 1.0625,12.9844 0,6.7969 -1.0625,12.9844 Q 16.1562,45.0625 14,50.7969 11.8594,56.5469 8.51562,61.9375 5.17188,67.3281 0.59375,72.4688 l 8.48437,0 q 4.73438,-5.1407 8.15628,-10.5157 3.4218,-5.3593 5.6094,-11.0781 2.2031,-5.7031 3.2187,-11.9062 1.0313,-6.2032 1.0313,-12.9844 z" />
      <path
         style="stroke-linecap:butt;stroke-linejoin:round"
         inkscape:connector-curvature="0"
         d=""
         id="LiberationSans-20" />
      <path
         style="stroke-linecap:butt;stroke-linejoin:round"
         inkscape:connector-curvature="0"
         id="LiberationSans-54"
         d="m 35.1562,61.1875 0,-61.1875 -9.2812,0 0,61.1875 -23.625,0 0,7.6094 56.5469,0 0,-7.6094 z" />
    </defs>
    <defs
       id="defs286">
      <path
         style="stroke-linecap:butt;stroke-linejoin:round"
         inkscape:connector-curvature="0"
         id="LiberationSans-65"
         d="m 13.4844,24.5625 q 0,-4.1563 0.8437,-7.6563 0.8594,-3.4843 2.6407,-6 Q 18.75,8.40625 21.5312,7 q 2.7813,-1.39062 6.6876,-1.39062 5.7187,0 9.1562,2.29687 3.4531,2.29685 4.6719,5.81255 L 49.75,11.5312 Q 48.9219,9.32812 47.4375,7.10938 45.9531,4.89062 43.4531,3.09375 40.9688,1.3125 37.2344,0.15625 33.5,-0.984375 28.2188,-0.984375 16.5,-0.984375 10.375,6 4.25,12.9844 4.25,26.7656 q 0,7.4219 1.84375,12.5625 1.85937,5.1563 5.07815,8.375 3.2343,3.2188 7.5312,4.6563 4.2969,1.4531 9.1719,1.4531 6.6406,0 11.1094,-2.1563 4.4687,-2.1406 7.1718,-5.9374 2.7188,-3.7813 3.8594,-8.9063 1.1563,-5.125 1.1563,-11.0781 l 0,-1.1719 z m 28.6094,6.7344 q -0.7344,8.3593 -4.25,12.1875 -3.5157,3.8281 -10.1094,3.8281 -2.2032,0 -4.625,-0.7031 -2.4063,-0.7032 -4.4532,-2.5156 -2.0468,-1.8126 -3.4687,-4.9219 -1.4219,-3.0938 -1.6094,-7.875 z" />
      <path
         style="stroke-linecap:butt;stroke-linejoin:round"
         inkscape:connector-curvature="0"
         id="LiberationSans-59"
         d="m 37.9375,28.5156 0,-28.5156 -9.2813,0 0,28.5156 -26.45308,40.2813 10.24998,0 20.9531,-32.7657 20.8438,32.7657 10.25,0 z" />
      <path
         style="stroke-linecap:butt;stroke-linejoin:round"
         inkscape:connector-curvature="0"
         id="LiberationSans-61"
         d="m 20.2188,-0.984375 q -7.9688,0 -11.9688,4.203125 -4,4.20313 -4,11.53125 0,5.2188 1.96875,8.5625 1.98437,3.3437 5.17185,5.25 3.2032,1.9063 7.2969,2.6406 4.1094,0.7344 8.3594,0.8281 l 11.875,0.2032 0,2.875 q 0,3.2656 -0.6875,5.5625 -0.6875,2.2969 -2.1094,3.7031 -1.4062,1.4219 -3.5312,2.0781 -2.125,0.6719 -5,0.6719 -2.5469,0 -4.5938,-0.375 -2.0469,-0.3594 -3.5625,-1.3125 -1.5156,-0.9531 -2.4531,-2.5937 -0.9219,-1.625 -1.2188,-4.125 l -9.17185,0.8281 q 0.48437,3.125 1.84375,5.7343 1.375,2.625 3.8906,4.5157 2.5157,1.9062 6.2969,2.9531 3.7812,1.0625 9.1562,1.0625 9.9688,0 14.9844,-4.5781 5.0313,-4.5625 5.0313,-13.2032 l 0,-22.75 q 0,-3.9062 1.0312,-5.89058 1.0313,-1.96874 3.9063,-1.96874 0.7344,0 1.4687,0.09374 0.7344,0.09376 1.4063,0.25 l 0,-5.468745 q -1.6563,-0.390625 -3.2969,-0.578125 -1.625,-0.203125 -3.4844,-0.203125 -2.4843,0 -4.2656,0.65625 -1.7813,0.65625 -2.9063,2.000005 -1.125,1.34374 -1.7187,3.3125 -0.5781,1.98437 -0.7344,4.62502 l -0.2812,0 Q 37.5,7.5625 35.8125,5.51562 34.125,3.46875 31.875,2.03125 29.6406,0.59375 26.7812,-0.1875 23.9219,-0.984375 20.2188,-0.984375 m 2,6.593755 q 4.2031,0 7.3437,1.53124 3.1563,1.54688 5.2187,3.93748 2.0782,2.4063 3.1094,5.2344 1.0313,2.8281 1.0313,5.4219 l 0,4.3437 -9.625,-0.2031 Q 26.0781,25.8281 23.1719,25.4062 20.2656,25 18.0625,23.7812 15.875,22.5625 14.5781,20.3594 q -1.2969,-2.1875 -1.2969,-5.7656 0,-4.2969 2.3126,-6.64068 2.3281,-2.34374 6.625,-2.34374" />
      <path
         style="stroke-linecap:butt;stroke-linejoin:round"
         inkscape:connector-curvature="0"
         id="LiberationSans-72"
         d="m 6.9375,0 0,40.5312 q 0,1.6563 -0.03125,3.3907 -0.01563,1.7343 -0.07813,3.3437 -0.04687,1.6094 -0.09374,3.0156 -0.04688,1.4219 -0.09376,2.5469 l 8.29688,0 q 0.0469,-1.125 0.125,-2.5625 0.0781,-1.4375 0.1406,-2.9531 0.0781,-1.5156 0.0938,-2.9063 0.0312,-1.3906 0.0312,-2.3593 l 0.2031,0 q 0.9219,3.0156 1.9688,5.2343 1.0625,2.2344 2.4688,3.6719 1.4218,1.4375 3.375,2.1407 1.9531,0.7187 4.7343,0.7187 1.0781,0 2.0469,-0.1719 0.9844,-0.1718 1.5156,-0.3125 l 0,-8.0625 q -0.875,0.25 -2.0468,0.3594 -1.1719,0.125 -2.6407,0.125 -3.0312,0 -5.1562,-1.375 -2.125,-1.3594 -3.4688,-3.7812 Q 17,38.1875 16.3594,34.8438 15.7188,31.5 15.7188,27.5469 L 15.7188,0 z" />
    </defs>
    <defs
       id="defs516">
      <path
         d="m 9.125,0 0,10.6875 9.5312,0 0,-10.6875 z"
         id="LiberationSans-2e"
         inkscape:connector-curvature="0"
         style="stroke-linecap:butt;stroke-linejoin:round" />
    </defs>
    <defs
       id="defs627">
      <path
         d="m 51.2188,19 q 0,-4.7344 -1.5469,-8.4531 Q 48.1406,6.84375 45.1875,4.26562 42.2344,1.70312 37.8594,0.359375 33.5,-0.984375 27.875,-0.984375 q -6.3906,0 -10.7656,1.59375 Q 12.75,2.20312 9.90625,4.8125 7.07812,7.42188 5.65625,10.7656 4.25,14.1094 3.8125,17.6719 L 12.8906,18.5 q 0.3906,-2.7344 1.4375,-4.9844 1.0469,-2.2344 2.8594,-3.84372 1.8125,-1.60938 4.4375,-2.5 2.6406,-0.875 6.25,-0.875 6.6406,0 10.4219,3.26562 3.7969,3.2813 3.7969,9.7187 0,3.8126 -1.6876,6.125 -1.6874,2.3282 -4.2031,3.625 -2.5156,1.2969 -5.4687,1.7344 -2.9532,0.4375 -5.4375,0.4375 l -4.9844,0 0,7.6094 4.7813,0 q 2.5,0 5.1718,0.5156 2.6875,0.5157 4.9063,1.8594 2.2343,1.3437 3.6719,3.6406 1.4374,2.2969 1.4374,5.8594 0,5.5156 -3.25,8.7031 -3.2343,3.2032 -9.6406,3.2032 -5.8125,0 -9.4062,-2.9844 -3.5782,-2.9688 -4.1719,-8.3906 l -8.82812,0.6874 q 0.53124,4.5469 2.48437,7.9063 1.95313,3.375 4.95315,5.5937 3.0156,2.2188 6.8593,3.3126 3.8594,1.1093 8.2032,1.1093 5.7656,0 9.9062,-1.4531 4.1563,-1.4375 6.7969,-3.9062 2.6406,-2.4532 3.875,-5.7813 1.25,-3.3125 1.25,-7.0781 0,-3.0313 -0.8281,-5.6719 -0.8282,-2.625 -2.5938,-4.7344 -1.75,-2.0937 -4.4687,-3.6093 -2.7031,-1.5157 -6.5157,-2.2969 l 0,-0.1875 q 4.1563,-0.4375 7.2344,-1.8906 3.0782,-1.4376 5.0782,-3.5938 2,-2.1406 3,-4.875 1,-2.7344 1,-5.75"
         id="LiberationSans-33"
         inkscape:connector-curvature="0"
         style="stroke-linecap:butt;stroke-linejoin:round" />
    </defs>
    <defs
       id="defs35">
      <path
         d="M 50.5938,61.6719 Q 45.4062,53.7656 41.0625,46.4531 36.7188,39.1562 33.5938,31.75 30.4688,24.3594 28.7344,16.5781 27,8.79688 27,0 l -9.1719,0 q 0,8.25 1.9531,16.1875 1.9532,7.9375 5.2657,15.5781 3.3281,7.6406 7.7187,15.0156 4.3906,7.375 9.3282,14.5469 l -36.9688,0 0,7.4688 45.4688,0 z"
         id="LiberationSans-37"
         inkscape:connector-curvature="0"
         style="stroke-linecap:butt;stroke-linejoin:round" />
      <path
         d="m 50.875,35.7969 q 0,-9.1875 -1.7344,-16.0938 Q 47.4062,12.7969 44.1875,8.20312 40.9688,3.60938 36.3438,1.3125 31.7344,-0.984375 25.9844,-0.984375 q -3.9688,0 -7.1406,0.8125 -3.1719,0.8125 -5.6719,2.515625 -2.4844,1.70313 -4.25002,4.4375 -1.75,2.73437 -2.8125,6.59375 L 14.5,14.7031 q 1.375,-4.4531 4.2812,-6.53122 2.9063,-2.0625 7.3438,-2.0625 3.5625,0 6.5156,1.67187 2.9532,1.6875 5.0313,5.06255 2.0781,3.375 3.25,8.4531 1.1719,5.0781 1.2656,11.9062 -1.0313,-2.2969 -2.8125,-4.1093 -1.7812,-1.7969 -4.0469,-3.0469 -2.2656,-1.2344 -4.9062,-1.9063 -2.6407,-0.6562 -5.3281,-0.6562 -4.6876,0 -8.4688,1.6875 -3.7812,1.6875 -6.4219,4.7031 -2.6406,3.0312 -4.0781,7.2969 -1.4375,4.2812 -1.4375,9.5156 0,5.3125 1.53125,9.6094 1.54687,4.2969 4.46875,7.2969 2.9375,3.0156 7.2031,4.625 4.2813,1.6093 9.7032,1.6093 11.4687,0 17.375,-8.5 5.9062,-8.5 5.9062,-25.5312 m -9.5625,8.4843 q 0,3.8126 -0.9063,7.1719 -0.9062,3.375 -2.6874,5.8594 -1.7813,2.5 -4.3907,3.9375 -2.6093,1.4531 -6.0312,1.4531 -3.1719,0 -5.7188,-1.125 -2.5312,-1.125 -4.2969,-3.2031 -1.75,-2.0781 -2.7031,-5.0625 -0.9531,-2.9687 -0.9531,-6.625 0,-3.4687 0.8438,-6.4531 0.8593,-2.9844 2.5624,-5.1563 1.7188,-2.1719 4.25,-3.4219 2.5469,-1.2343 5.9219,-1.2343 2.4375,0 4.9531,0.8281 2.5157,0.8281 4.5313,2.5312 2.0313,1.7188 3.3281,4.3282 1.2969,2.6094 1.2969,6.1718"
         id="LiberationSans-39"
         inkscape:connector-curvature="0"
         style="stroke-linecap:butt;stroke-linejoin:round" />
      <path
         d="m 7.625,0 0,7.46875 17.5156,0 0,52.93745 -15.5156,-11.0937 0,8.3125 16.25,11.1719 8.1094,0 0,-61.32815 16.75,0 0,-7.46875 z"
         id="LiberationSans-31"
         inkscape:connector-curvature="0"
         style="stroke-linecap:butt;stroke-linejoin:round" />
      <path
         d="m 51.7031,34.4219 q 0,-9.9063 -1.875,-16.6719 -1.875,-6.7656 -5.125,-10.9375 -3.25,-4.17188 -7.6406,-5.984375 -4.3906,-1.8125 -9.375,-1.8125 -5.0313,0 -9.375,1.8125 Q 13.9688,2.64062 10.7656,6.78125 7.5625,10.9375 5.73438,17.7031 3.90625,24.4688 3.90625,34.4219 q 0,10.4062 1.82813,17.2187 1.82812,6.8125 5.04682,10.8594 3.2344,4.0469 7.625,5.6875 4.3907,1.6406 9.5782,1.6406 4.9218,0 9.2344,-1.6406 Q 41.5469,66.5469 44.7656,62.5 48,58.4531 49.8438,51.6406 51.7031,44.8281 51.7031,34.4219 m -8.9219,0 q 0,8.2031 -0.9843,13.6406 -0.9688,5.4531 -2.875,8.7031 -1.9063,3.25 -4.6719,4.5938 -2.75,1.3437 -6.2656,1.3437 -3.7188,0 -6.5469,-1.375 -2.8281,-1.3593 -4.7656,-4.6093 -1.9219,-3.25 -2.9063,-8.7032 -0.9687,-5.4375 -0.9687,-13.5937 0,-7.9063 1,-13.3281 1,-5.4219 2.9219,-8.7188 1.9374,-3.29688 4.7187,-4.73438 2.7813,-1.4375 6.3437,-1.4375 3.4688,0 6.25,1.4375 2.7813,1.4375 4.7032,4.73438 1.9375,3.2969 2.9844,8.7188 1.0624,5.4218 1.0624,13.3281"
         id="LiberationSans-30"
         inkscape:connector-curvature="0"
         style="stroke-linecap:butt;stroke-linejoin:round" />
    </defs>
    <defs
       id="defs22">
      <path
         d="M 0,0 0,0"
         id="m219da94a98"
         style="stroke:#262626;stroke-linecap:butt;stroke-linejoin:round"
         inkscape:connector-curvature="0" />
    </defs>
    <defs
       id="defs66">
      <path
         d="m 51.4219,22.4062 q 0,-5.1718 -1.5625,-9.4687 Q 48.2969,8.64062 45.2188,5.53125 42.1406,2.4375 37.5781,0.71875 33.0156,-0.984375 27,-0.984375 q -5.4219,0 -9.4531,1.265625 -4.0157,1.28125 -6.8125,3.5 Q 7.95312,6 6.3125,8.98438 4.6875,11.9688 4,15.375 l 8.8906,1.0312 q 0.5313,-1.9531 1.5,-3.7812 0.9844,-1.8281 2.6719,-3.28125 1.6875,-1.4375 4.1563,-2.29687 2.4687,-0.84376 5.9843,-0.84376 3.4063,0 6.1875,1.04688 2.7969,1.04688 4.7656,3.0938 1.9844,2.0624 3.0469,5.0312 1.0781,2.9844 1.0781,6.8438 0,3.1718 -1.0312,5.8281 -1.0156,2.6719 -2.9219,4.5937 -1.9062,1.9375 -4.6719,3 -2.75,1.0782 -6.2656,1.0782 -2.1875,0 -4.0468,-0.3907 -1.8594,-0.3906 -3.4532,-1.0781 -1.5781,-0.6719 -2.875,-1.5781 -1.2968,-0.9063 -2.4218,-1.8907 l -8.5938,0 2.29688,37.0157 39.10932,0 0,-7.4688 -31.0937,0 L 14.9844,39.5 q 2.3437,1.8125 5.8594,3.0938 3.5156,1.2968 8.3593,1.2968 5.125,0 9.2188,-1.5625 4.1093,-1.5625 6.9843,-4.4219 2.8907,-2.8437 4.4532,-6.7968 1.5625,-3.9532 1.5625,-8.7032"
         id="LiberationSans-35"
         inkscape:connector-curvature="0"
         style="stroke-linecap:butt;stroke-linejoin:round" />
    </defs>
    <defs
       id="defs94">
      <path
         d="m 51.2656,19.1875 q 0,-4.3906 -1.3906,-8.0781 -1.3906,-3.68752 -4.25,-6.37502 -2.8438,-2.6875 -7.2969,-4.20313 -4.4375,-1.515625 -10.5,-1.515625 -6.0469,0 -10.4687,1.515625 Q 12.9375,2.04688 10.0312,4.70312 7.125,7.375 5.73438,11.0625 4.34375,14.75 4.34375,19.0938 q 0,3.7656 1.14063,6.6874 1.15624,2.9376 3.07812,5.0469 1.9375,2.125 4.4063,3.4219 2.4687,1.2969 5.0937,1.7344 l 0,0.2031 q -2.875,0.6719 -5.1563,2.1875 -2.2656,1.5156 -3.81245,3.6406 -1.53125,2.125 -2.34375,4.7032 -0.79688,2.5937 -0.79688,5.4843 0,3.6094 1.39063,6.7969 1.39063,3.2031 4.12505,5.625 2.7343,2.4219 6.7812,3.8125 4.0625,1.3906 9.3906,1.3906 5.6094,0 9.7344,-1.4219 Q 41.5,67 44.2031,64.5781 q 2.7188,-2.4219 4.0313,-5.6406 1.3281,-3.2187 1.3281,-6.8437 0,-2.8282 -0.8125,-5.4219 -0.7969,-2.5781 -2.3438,-4.7031 -1.5312,-2.125 -3.8124,-3.625 -2.2657,-1.4844 -5.2344,-2.0626 l 0,-0.2031 q 2.9687,-0.4843 5.5,-1.7812 2.5468,-1.2813 4.4062,-3.4063 1.8594,-2.125 2.9219,-5.0625 1.0781,-2.9219 1.0781,-6.6406 M 40.4375,51.6094 q 0,2.5937 -0.6719,4.7344 -0.6562,2.1562 -2.1718,3.6874 -1.5157,1.5469 -3.9532,2.3907 -2.4375,0.8593 -6,0.8593 -3.4687,0 -5.8594,-0.8593 -2.3906,-0.8438 -3.9374,-2.3907 -1.5313,-1.5312 -2.2188,-3.6874 -0.6875,-2.1407 -0.6875,-4.7344 0,-2.0469 0.5313,-4.2032 0.5468,-2.1406 1.9531,-3.9062 1.4219,-1.75 3.9062,-2.875 2.5,-1.125 6.4063,-1.125 4.1562,0 6.6718,1.125 2.5157,1.125 3.8438,2.875 1.3438,1.7656 1.7656,3.9062 0.4219,2.1563 0.4219,4.2032 m 1.7031,-31.5938 q 0,2.5 -0.6875,4.8125 -0.6875,2.3281 -2.3437,4.1094 -1.6563,1.7813 -4.4688,2.875 -2.7968,1.0937 -7,1.0937 -3.8594,0 -6.5781,-1.0937 -2.7031,-1.0937 -4.3906,-2.9063 -1.6875,-1.8124 -2.4688,-4.1874 -0.7812,-2.3594 -0.7812,-4.8907 0,-3.1719 0.7812,-5.7969 0.7813,-2.6093 2.4844,-4.48432 1.7187,-1.875 4.5,-2.90626 2.7813,-1.03124 6.75,-1.03124 4,0 6.7344,1.03124 2.7343,1.03126 4.3906,2.90626 1.6563,1.87502 2.3594,4.53122 0.7187,2.6719 0.7187,5.9375"
         id="LiberationSans-38"
         inkscape:connector-curvature="0"
         style="stroke-linecap:butt;stroke-linejoin:round" />
    </defs>
    <defs
       id="defs197">
      <path
         d="m 5.03125,0 0,6.20312 q 2.48437,5.71878 6.07815,10.07808 3.5937,4.375 7.5468,7.9063 3.9532,3.5469 7.8282,6.5781 3.8906,3.0313 7.0156,6.0469 3.125,3.0313 5.0469,6.3437 1.9375,3.3282 1.9375,7.5313 0,2.9219 -0.8906,5.1406 -0.875,2.2344 -2.5313,3.7344 -1.6563,1.5156 -3.9844,2.2656 -2.3125,0.7657 -5.1406,0.7657 -2.6406,0 -4.9687,-0.7344 -2.3126,-0.7188 -4.125,-2.1875 -1.7969,-1.4688 -2.9532,-3.6407 -1.1406,-2.1718 -1.4844,-5.0468 l -8.98432,0.8281 q 0.4375,3.7031 2.04687,6.9687 1.60937,3.2813 4.43745,5.75 2.8438,2.4688 6.8126,3.875 3.9843,1.4219 9.2187,1.4219 5.125,0 9.125,-1.2187 4,-1.2188 6.75,-3.625 2.7656,-2.3906 4.2344,-5.9063 1.4687,-3.5156 1.4687,-8.0937 0,-3.4688 -1.25,-6.5938 -1.25,-3.125 -3.3281,-5.9687 -2.0625,-2.8281 -4.7969,-5.4688 -2.7344,-2.625 -5.7187,-5.1406 -2.9688,-2.5156 -6,-4.9844 -3.0313,-2.4687 -5.7031,-4.9687 -2.6563,-2.4844 -4.75,-5.0469 Q 15.875,10.25 14.7031,7.46875 l 35.8907,0 0,-7.46875 z"
         id="LiberationSans-32"
         inkscape:connector-curvature="0"
         style="stroke-linecap:butt;stroke-linejoin:round" />
    </defs>
    <defs
       id="defs341">
      <path
         d="m 43.0156,15.5781 0,-15.5781 -8.2968,0 0,15.5781 -32.42192,0 0,6.8281 31.50002,46.3907 9.2187,0 0,-46.2813 9.6719,0 0,-6.9375 z m -8.2968,43.3125 q -0.0938,-0.25 -0.4844,-0.9531 -0.3906,-0.7031 -0.8906,-1.5937 -0.4844,-0.875 -1,-1.7813 -0.5,-0.9063 -0.8907,-1.4844 L 13.8125,27.0938 q -0.2344,-0.3907 -0.7031,-1.0313 -0.4688,-0.625 -0.9532,-1.2813 -0.4843,-0.6562 -0.9843,-1.2968 -0.4844,-0.625 -0.7657,-0.9688 l 24.3126,0 z"
         id="LiberationSans-34"
         inkscape:connector-curvature="0"
         style="stroke-linecap:butt;stroke-linejoin:round" />
    </defs>
    <defs
       id="defs358">
      <path
         d="M 51.2188,22.5156 Q 51.2188,17.3281 49.7812,13 48.3438,8.6875 45.5312,5.57812 42.7188,2.48438 38.5625,0.75 34.4219,-0.984375 29,-0.984375 q -6,0 -10.5,2.296875 Q 14.0156,3.60938 11.0312,7.92188 8.0625,12.25 6.5625,18.5312 5.07812,24.8125 5.07812,32.8125 q 0,9.1875 1.6875,16.1094 1.6875,6.9375 4.85938,11.5781 3.1719,4.6406 7.7344,6.9844 4.5625,2.3437 10.3281,2.3437 3.5156,0 6.5937,-0.7343 3.0782,-0.7344 5.5938,-2.375 2.5156,-1.625 4.4062,-4.3126 1.9063,-2.6874 3.0313,-6.5937 l -8.3906,-1.5156 q -1.375,4.4375 -4.375,6.4219 -3,1.9843 -6.9531,1.9843 -3.6094,0 -6.5469,-1.7187 -2.9219,-1.7032 -4.9844,-5.1094 -2.0469,-3.3906 -3.1563,-8.5156 -1.0937,-5.125 -1.0937,-11.9532 2.4063,4.4376 6.75,6.75 4.3437,2.3282 9.9531,2.3282 4.6875,0 8.5,-1.5156 3.8125,-1.5157 6.5156,-4.375 2.7188,-2.8438 4.2032,-6.9219 1.4844,-4.0781 1.4844,-9.1563 M 42.2812,22.125 q 0,3.5625 -0.875,6.4375 -0.875,2.8906 -2.6406,4.9063 -1.75,2.0312 -4.3437,3.125 -2.5781,1.1093 -6,1.1093 -2.3907,0 -4.8438,-0.7187 -2.4375,-0.7032 -4.4219,-2.2969 -1.9687,-1.5781 -3.2187,-4.1719 -1.2344,-2.5781 -1.2344,-6.2968 0,-3.8126 0.9688,-7.1094 0.9843,-3.2969 2.8125,-5.7344 1.8281,-2.4375 4.4062,-3.85938 2.5938,-1.40624 5.8282,-1.40624 3.1718,0 5.6874,1.09374 2.5157,1.09376 4.2657,3.17188 1.7656,2.0781 2.6875,5.0469 0.9218,2.9843 0.9218,6.7031"
         id="LiberationSans-36"
         inkscape:connector-curvature="0"
         style="stroke-linecap:butt;stroke-linejoin:round" />
    </defs>
  </defs>
  <path
     d="M 0,405 585,405 585,0 0,0 z"
     style="fill:#ffffff;stroke-linecap:butt;stroke-linejoin:round"
     id="path10"
     inkscape:connector-curvature="0" />
  <use
     transform="matrix(0,-0.11,-0.11,0,48.775312,232.81273)"
     height="405"
     width="585"
     y="0"
     style="fill:#262626;stroke-linecap:butt;stroke-linejoin:round"
     id="use464"
     xlink:href="#LiberationSans-20"
     x="218.4668" />
  <g
     inkscape:groupmode="layer"
     id="layer2"
     inkscape:label="Layer"
     style="stroke-linecap:butt;stroke-linejoin:round;display:inline">
    <path
       inkscape:connector-curvature="0"
       id="path14"
       style="fill:#ffffff;stroke-linecap:butt;stroke-linejoin:round"
       d="m 73.125,364.5 453.375,0 0,-324 -453.375,0 z" />
    <path
       inkscape:connector-curvature="0"
       id="path19"
       style="fill:none;stroke:#cccccc;stroke-linecap:round;stroke-linejoin:round"
       d="m 73.125,364.5 0,-324"
       clip-path="url(#p6bb970f2e9)" />
    <use
       style="fill:#262626;stroke:#262626;stroke-linecap:butt;stroke-linejoin:round"
       x="73.125"
       xlink:href="#m219da94a98"
       y="364.5"
       id="use27"
       width="585"
       height="405" />
    <use
       style="fill:#262626;stroke:#262626;stroke-linecap:butt;stroke-linejoin:round"
       x="73.125"
       xlink:href="#m219da94a98"
       y="40.5"
       id="use32"
       width="585"
       height="405" />
    <use
       transform="matrix(0.1,0,0,-0.1,62.579687,378.74687)"
       xlink:href="#LiberationSans-31"
       id="use43"
       style="fill:#262626;stroke-linecap:butt;stroke-linejoin:round"
       x="0"
       y="0"
       width="585"
       height="405" />
    <use
       transform="matrix(0.1,0,0,-0.1,62.579687,378.74687)"
       x="55.615234"
       xlink:href="#LiberationSans-39"
       id="use45"
       style="fill:#262626;stroke-linecap:butt;stroke-linejoin:round"
       y="0"
       width="585"
       height="405" />
    <use
       transform="matrix(0.1,0,0,-0.1,62.579687,378.74687)"
       x="111.23047"
       xlink:href="#LiberationSans-37"
       id="use47"
       style="fill:#262626;stroke-linecap:butt;stroke-linejoin:round"
       y="0"
       width="585"
       height="405" />
    <use
       transform="matrix(0.1,0,0,-0.1,62.579687,378.74687)"
       x="166.8457"
       xlink:href="#LiberationSans-30"
       id="use49"
       style="fill:#262626;stroke-linecap:butt;stroke-linejoin:round"
       y="0"
       width="585"
       height="405" />
    <path
       inkscape:connector-curvature="0"
       id="path53"
       style="fill:none;stroke:#cccccc;stroke-linecap:round;stroke-linejoin:round"
       d="m 123.5,364.5 0,-324"
       clip-path="url(#p6bb970f2e9)" />
    <use
       style="fill:#262626;stroke:#262626;stroke-linecap:butt;stroke-linejoin:round"
       x="123.5"
       xlink:href="#m219da94a98"
       y="364.5"
       id="use58"
       width="585"
       height="405" />
    <use
       style="fill:#262626;stroke:#262626;stroke-linecap:butt;stroke-linejoin:round"
       x="123.5"
       xlink:href="#m219da94a98"
       y="40.5"
       id="use63"
       width="585"
       height="405" />
    <use
       transform="matrix(0.1,0,0,-0.1,112.96875,378.74687)"
       xlink:href="#LiberationSans-31"
       id="use71"
       style="fill:#262626;stroke-linecap:butt;stroke-linejoin:round"
       x="0"
       y="0"
       width="585"
       height="405" />
    <use
       transform="matrix(0.1,0,0,-0.1,112.96875,378.74687)"
       x="55.615234"
       xlink:href="#LiberationSans-39"
       id="use73"
       style="fill:#262626;stroke-linecap:butt;stroke-linejoin:round"
       y="0"
       width="585"
       height="405" />
    <use
       transform="matrix(0.1,0,0,-0.1,112.96875,378.74687)"
       x="111.23047"
       xlink:href="#LiberationSans-37"
       id="use75"
       style="fill:#262626;stroke-linecap:butt;stroke-linejoin:round"
       y="0"
       width="585"
       height="405" />
    <use
       transform="matrix(0.1,0,0,-0.1,112.96875,378.74687)"
       x="166.8457"
       xlink:href="#LiberationSans-35"
       id="use77"
       style="fill:#262626;stroke-linecap:butt;stroke-linejoin:round"
       y="0"
       width="585"
       height="405" />
    <path
       inkscape:connector-curvature="0"
       id="path81"
       style="fill:none;stroke:#cccccc;stroke-linecap:round;stroke-linejoin:round"
       d="m 173.875,364.5 0,-324"
       clip-path="url(#p6bb970f2e9)" />
    <use
       style="fill:#262626;stroke:#262626;stroke-linecap:butt;stroke-linejoin:round"
       x="173.875"
       xlink:href="#m219da94a98"
       y="364.5"
       id="use86"
       width="585"
       height="405" />
    <use
       style="fill:#262626;stroke:#262626;stroke-linecap:butt;stroke-linejoin:round"
       x="173.875"
       xlink:href="#m219da94a98"
       y="40.5"
       id="use91"
       width="585"
       height="405" />
    <use
       transform="matrix(0.1,0,0,-0.1,163.32969,378.74687)"
       xlink:href="#LiberationSans-31"
       id="use99"
       style="fill:#262626;stroke-linecap:butt;stroke-linejoin:round"
       x="0"
       y="0"
       width="585"
       height="405" />
    <use
       transform="matrix(0.1,0,0,-0.1,163.32969,378.74687)"
       x="55.615234"
       xlink:href="#LiberationSans-39"
       id="use101"
       style="fill:#262626;stroke-linecap:butt;stroke-linejoin:round"
       y="0"
       width="585"
       height="405" />
    <use
       transform="matrix(0.1,0,0,-0.1,163.32969,378.74687)"
       x="111.23047"
       xlink:href="#LiberationSans-38"
       id="use103"
       style="fill:#262626;stroke-linecap:butt;stroke-linejoin:round"
       y="0"
       width="585"
       height="405" />
    <use
       transform="matrix(0.1,0,0,-0.1,163.32969,378.74687)"
       x="166.8457"
       xlink:href="#LiberationSans-30"
       id="use105"
       style="fill:#262626;stroke-linecap:butt;stroke-linejoin:round"
       y="0"
       width="585"
       height="405" />
    <path
       inkscape:connector-curvature="0"
       id="path109"
       style="fill:none;stroke:#cccccc;stroke-linecap:round;stroke-linejoin:round"
       d="m 224.25,364.5 0,-324"
       clip-path="url(#p6bb970f2e9)" />
    <use
       style="fill:#262626;stroke:#262626;stroke-linecap:butt;stroke-linejoin:round"
       x="224.25"
       xlink:href="#m219da94a98"
       y="364.5"
       id="use114"
       width="585"
       height="405" />
    <use
       style="fill:#262626;stroke:#262626;stroke-linecap:butt;stroke-linejoin:round"
       x="224.25"
       xlink:href="#m219da94a98"
       y="40.5"
       id="use119"
       width="585"
       height="405" />
    <use
       transform="matrix(0.1,0,0,-0.1,213.71875,378.74687)"
       xlink:href="#LiberationSans-31"
       id="use124"
       style="fill:#262626;stroke-linecap:butt;stroke-linejoin:round"
       x="0"
       y="0"
       width="585"
       height="405" />
    <use
       transform="matrix(0.1,0,0,-0.1,213.71875,378.74687)"
       x="55.615234"
       xlink:href="#LiberationSans-39"
       id="use126"
       style="fill:#262626;stroke-linecap:butt;stroke-linejoin:round"
       y="0"
       width="585"
       height="405" />
    <use
       transform="matrix(0.1,0,0,-0.1,213.71875,378.74687)"
       x="111.23047"
       xlink:href="#LiberationSans-38"
       id="use128"
       style="fill:#262626;stroke-linecap:butt;stroke-linejoin:round"
       y="0"
       width="585"
       height="405" />
    <use
       transform="matrix(0.1,0,0,-0.1,213.71875,378.74687)"
       x="166.8457"
       xlink:href="#LiberationSans-35"
       id="use130"
       style="fill:#262626;stroke-linecap:butt;stroke-linejoin:round"
       y="0"
       width="585"
       height="405" />
    <path
       inkscape:connector-curvature="0"
       id="path134"
       style="fill:none;stroke:#cccccc;stroke-linecap:round;stroke-linejoin:round"
       d="m 274.625,364.5 0,-324"
       clip-path="url(#p6bb970f2e9)" />
    <use
       style="fill:#262626;stroke:#262626;stroke-linecap:butt;stroke-linejoin:round"
       x="274.625"
       xlink:href="#m219da94a98"
       y="364.5"
       id="use139"
       width="585"
       height="405" />
    <use
       style="fill:#262626;stroke:#262626;stroke-linecap:butt;stroke-linejoin:round"
       x="274.625"
       xlink:href="#m219da94a98"
       y="40.5"
       id="use144"
       width="585"
       height="405" />
    <use
       transform="matrix(0.1,0,0,-0.1,264.07969,378.74687)"
       xlink:href="#LiberationSans-31"
       id="use149"
       style="fill:#262626;stroke-linecap:butt;stroke-linejoin:round"
       x="0"
       y="0"
       width="585"
       height="405" />
    <use
       transform="matrix(0.1,0,0,-0.1,264.07969,378.74687)"
       x="55.615234"
       xlink:href="#LiberationSans-39"
       id="use151"
       style="fill:#262626;stroke-linecap:butt;stroke-linejoin:round"
       y="0"
       width="585"
       height="405" />
    <use
       transform="matrix(0.1,0,0,-0.1,264.07969,378.74687)"
       x="111.23047"
       xlink:href="#LiberationSans-39"
       id="use153"
       style="fill:#262626;stroke-linecap:butt;stroke-linejoin:round"
       y="0"
       width="585"
       height="405" />
    <use
       transform="matrix(0.1,0,0,-0.1,264.07969,378.74687)"
       x="166.8457"
       xlink:href="#LiberationSans-30"
       id="use155"
       style="fill:#262626;stroke-linecap:butt;stroke-linejoin:round"
       y="0"
       width="585"
       height="405" />
    <path
       inkscape:connector-curvature="0"
       id="path159"
       style="fill:none;stroke:#cccccc;stroke-linecap:round;stroke-linejoin:round"
       d="m 325,364.5 0,-324"
       clip-path="url(#p6bb970f2e9)" />
    <use
       style="fill:#262626;stroke:#262626;stroke-linecap:butt;stroke-linejoin:round"
       x="325"
       xlink:href="#m219da94a98"
       y="364.5"
       id="use164"
       width="585"
       height="405" />
    <use
       style="fill:#262626;stroke:#262626;stroke-linecap:butt;stroke-linejoin:round"
       x="325"
       xlink:href="#m219da94a98"
       y="40.5"
       id="use169"
       width="585"
       height="405" />
    <use
       transform="matrix(0.1,0,0,-0.1,314.46875,378.74687)"
       xlink:href="#LiberationSans-31"
       id="use174"
       style="fill:#262626;stroke-linecap:butt;stroke-linejoin:round"
       x="0"
       y="0"
       width="585"
       height="405" />
    <use
       transform="matrix(0.1,0,0,-0.1,314.46875,378.74687)"
       x="55.615234"
       xlink:href="#LiberationSans-39"
       id="use176"
       style="fill:#262626;stroke-linecap:butt;stroke-linejoin:round"
       y="0"
       width="585"
       height="405" />
    <use
       transform="matrix(0.1,0,0,-0.1,314.46875,378.74687)"
       x="111.23047"
       xlink:href="#LiberationSans-39"
       id="use178"
       style="fill:#262626;stroke-linecap:butt;stroke-linejoin:round"
       y="0"
       width="585"
       height="405" />
    <use
       transform="matrix(0.1,0,0,-0.1,314.46875,378.74687)"
       x="166.8457"
       xlink:href="#LiberationSans-35"
       id="use180"
       style="fill:#262626;stroke-linecap:butt;stroke-linejoin:round"
       y="0"
       width="585"
       height="405" />
    <path
       inkscape:connector-curvature="0"
       id="path184"
       style="fill:none;stroke:#cccccc;stroke-linecap:round;stroke-linejoin:round"
       d="m 375.375,364.5 0,-324"
       clip-path="url(#p6bb970f2e9)" />
    <use
       style="fill:#262626;stroke:#262626;stroke-linecap:butt;stroke-linejoin:round"
       x="375.375"
       xlink:href="#m219da94a98"
       y="364.5"
       id="use189"
       width="585"
       height="405" />
    <use
       style="fill:#262626;stroke:#262626;stroke-linecap:butt;stroke-linejoin:round"
       x="375.375"
       xlink:href="#m219da94a98"
       y="40.5"
       id="use194"
       width="585"
       height="405" />
    <use
       transform="matrix(0.1,0,0,-0.1,364.7,378.74687)"
       xlink:href="#LiberationSans-32"
       id="use202"
       style="fill:#262626;stroke-linecap:butt;stroke-linejoin:round"
       x="0"
       y="0"
       width="585"
       height="405" />
    <use
       transform="matrix(0.1,0,0,-0.1,364.7,378.74687)"
       x="55.615234"
       xlink:href="#LiberationSans-30"
       id="use204"
       style="fill:#262626;stroke-linecap:butt;stroke-linejoin:round"
       y="0"
       width="585"
       height="405" />
    <use
       transform="matrix(0.1,0,0,-0.1,364.7,378.74687)"
       x="111.23047"
       xlink:href="#LiberationSans-30"
       id="use206"
       style="fill:#262626;stroke-linecap:butt;stroke-linejoin:round"
       y="0"
       width="585"
       height="405" />
    <use
       transform="matrix(0.1,0,0,-0.1,364.7,378.74687)"
       x="166.8457"
       xlink:href="#LiberationSans-30"
       id="use208"
       style="fill:#262626;stroke-linecap:butt;stroke-linejoin:round"
       y="0"
       width="585"
       height="405" />
    <path
       inkscape:connector-curvature="0"
       id="path212"
       style="fill:none;stroke:#cccccc;stroke-linecap:round;stroke-linejoin:round"
       d="m 425.75,364.5 0,-324"
       clip-path="url(#p6bb970f2e9)" />
    <use
       style="fill:#262626;stroke:#262626;stroke-linecap:butt;stroke-linejoin:round"
       x="425.75"
       xlink:href="#m219da94a98"
       y="364.5"
       id="use217"
       width="585"
       height="405" />
    <use
       style="fill:#262626;stroke:#262626;stroke-linecap:butt;stroke-linejoin:round"
       x="425.75"
       xlink:href="#m219da94a98"
       y="40.5"
       id="use222"
       width="585"
       height="405" />
    <use
       transform="matrix(0.1,0,0,-0.1,415.08906,378.74687)"
       xlink:href="#LiberationSans-32"
       id="use227"
       style="fill:#262626;stroke-linecap:butt;stroke-linejoin:round"
       x="0"
       y="0"
       width="585"
       height="405" />
    <use
       transform="matrix(0.1,0,0,-0.1,415.08906,378.74687)"
       x="55.615234"
       xlink:href="#LiberationSans-30"
       id="use229"
       style="fill:#262626;stroke-linecap:butt;stroke-linejoin:round"
       y="0"
       width="585"
       height="405" />
    <use
       transform="matrix(0.1,0,0,-0.1,415.08906,378.74687)"
       x="111.23047"
       xlink:href="#LiberationSans-30"
       id="use231"
       style="fill:#262626;stroke-linecap:butt;stroke-linejoin:round"
       y="0"
       width="585"
       height="405" />
    <use
       transform="matrix(0.1,0,0,-0.1,415.08906,378.74687)"
       x="166.8457"
       xlink:href="#LiberationSans-35"
       id="use233"
       style="fill:#262626;stroke-linecap:butt;stroke-linejoin:round"
       y="0"
       width="585"
       height="405" />
    <path
       inkscape:connector-curvature="0"
       id="path237"
       style="fill:none;stroke:#cccccc;stroke-linecap:round;stroke-linejoin:round"
       d="m 476.125,364.5 0,-324"
       clip-path="url(#p6bb970f2e9)" />
    <use
       style="fill:#262626;stroke:#262626;stroke-linecap:butt;stroke-linejoin:round"
       x="476.125"
       xlink:href="#m219da94a98"
       y="364.5"
       id="use242"
       width="585"
       height="405" />
    <use
       style="fill:#262626;stroke:#262626;stroke-linecap:butt;stroke-linejoin:round"
       x="476.125"
       xlink:href="#m219da94a98"
       y="40.5"
       id="use247"
       width="585"
       height="405" />
    <use
       transform="matrix(0.1,0,0,-0.1,465.45,378.74687)"
       xlink:href="#LiberationSans-32"
       id="use252"
       style="fill:#262626;stroke-linecap:butt;stroke-linejoin:round"
       x="0"
       y="0"
       width="585"
       height="405" />
    <use
       transform="matrix(0.1,0,0,-0.1,465.45,378.74687)"
       x="55.615234"
       xlink:href="#LiberationSans-30"
       id="use254"
       style="fill:#262626;stroke-linecap:butt;stroke-linejoin:round"
       y="0"
       width="585"
       height="405" />
    <use
       transform="matrix(0.1,0,0,-0.1,465.45,378.74687)"
       x="111.23047"
       xlink:href="#LiberationSans-31"
       id="use256"
       style="fill:#262626;stroke-linecap:butt;stroke-linejoin:round"
       y="0"
       width="585"
       height="405" />
    <use
       transform="matrix(0.1,0,0,-0.1,465.45,378.74687)"
       x="166.8457"
       xlink:href="#LiberationSans-30"
       id="use258"
       style="fill:#262626;stroke-linecap:butt;stroke-linejoin:round"
       y="0"
       width="585"
       height="405" />
    <path
       inkscape:connector-curvature="0"
       id="path262"
       style="fill:none;stroke:#cccccc;stroke-linecap:round;stroke-linejoin:round"
       d="m 526.5,364.5 0,-324"
       clip-path="url(#p6bb970f2e9)" />
    <use
       style="fill:#262626;stroke:#262626;stroke-linecap:butt;stroke-linejoin:round"
       x="526.5"
       xlink:href="#m219da94a98"
       y="364.5"
       id="use267"
       width="585"
       height="405" />
    <use
       style="fill:#262626;stroke:#262626;stroke-linecap:butt;stroke-linejoin:round"
       x="526.5"
       xlink:href="#m219da94a98"
       y="40.5"
       id="use272"
       width="585"
       height="405" />
    <use
       transform="matrix(0.1,0,0,-0.1,515.83906,378.74687)"
       xlink:href="#LiberationSans-32"
       id="use277"
       style="fill:#262626;stroke-linecap:butt;stroke-linejoin:round"
       x="0"
       y="0"
       width="585"
       height="405" />
    <use
       transform="matrix(0.1,0,0,-0.1,515.83906,378.74687)"
       x="55.615234"
       xlink:href="#LiberationSans-30"
       id="use279"
       style="fill:#262626;stroke-linecap:butt;stroke-linejoin:round"
       y="0"
       width="585"
       height="405" />
    <use
       transform="matrix(0.1,0,0,-0.1,515.83906,378.74687)"
       x="111.23047"
       xlink:href="#LiberationSans-31"
       id="use281"
       style="fill:#262626;stroke-linecap:butt;stroke-linejoin:round"
       y="0"
       width="585"
       height="405" />
    <use
       transform="matrix(0.1,0,0,-0.1,515.83906,378.74687)"
       x="166.8457"
       xlink:href="#LiberationSans-35"
       id="use283"
       style="fill:#262626;stroke-linecap:butt;stroke-linejoin:round"
       y="0"
       width="585"
       height="405" />
    <use
       transform="matrix(0.11,0,0,-0.11,288.90961,393.79344)"
       height="405"
       width="585"
       y="0"
       x="0"
       style="fill:#262626;stroke-linecap:butt;stroke-linejoin:round"
       id="use294"
       xlink:href="#LiberationSans-59" />
    <use
       transform="matrix(0.11,0,0,-0.11,288.90961,393.79344)"
       height="405"
       width="585"
       y="0"
       style="fill:#262626;stroke-linecap:butt;stroke-linejoin:round"
       id="use296"
       xlink:href="#LiberationSans-65"
       x="57.574219" />
    <use
       transform="matrix(0.11,0,0,-0.11,288.90961,393.79344)"
       height="405"
       width="585"
       y="0"
       style="fill:#262626;stroke-linecap:butt;stroke-linejoin:round"
       id="use298"
       xlink:href="#LiberationSans-61"
       x="113.18945" />
    <use
       transform="matrix(0.11,0,0,-0.11,288.90961,393.79344)"
       height="405"
       width="585"
       y="0"
       style="fill:#262626;stroke-linecap:butt;stroke-linejoin:round"
       id="use300"
       xlink:href="#LiberationSans-72"
       x="168.80469" />
    <path
       inkscape:connector-curvature="0"
       id="path305"
       style="fill:none;stroke:#cccccc;stroke-linecap:round;stroke-linejoin:round"
       d="m 73.125,364.5 453.375,0"
       clip-path="url(#p6bb970f2e9)" />
    <use
       style="fill:#262626;stroke:#262626;stroke-linecap:butt;stroke-linejoin:round"
       x="73.125"
       xlink:href="#m219da94a98"
       y="364.5"
       id="use310"
       width="585"
       height="405" />
    <use
       transform="matrix(0.1,0,0,-0.1,61.345312,367.08594)"
       xlink:href="#LiberationSans-30"
       id="use315"
       style="fill:#262626;stroke-linecap:butt;stroke-linejoin:round"
       x="0"
       y="0"
       width="585"
       height="405" />
    <use
       style="fill:#262626;stroke:#262626;stroke-linecap:butt;stroke-linejoin:round"
       x="73.125"
       xlink:href="#m219da94a98"
       y="324"
       id="use324"
       width="585"
       height="405" />
    <use
       transform="matrix(0.1,0,0,-0.1,61.56875,326.58594)"
       xlink:href="#LiberationSans-32"
       id="use329"
       style="fill:#262626;stroke-linecap:butt;stroke-linejoin:round"
       x="0"
       y="0"
       width="585"
       height="405" />
    <use
       style="fill:#262626;stroke:#262626;stroke-linecap:butt;stroke-linejoin:round"
       x="73.125"
       xlink:href="#m219da94a98"
       y="283.5"
       id="use338"
       width="585"
       height="405" />
    <use
       transform="matrix(0.1,0,0,-0.1,61.085937,286.08594)"
       xlink:href="#LiberationSans-34"
       id="use346"
       style="fill:#262626;stroke-linecap:butt;stroke-linejoin:round"
       x="0"
       y="0"
       width="585"
       height="405" />
    <use
       style="fill:#262626;stroke:#262626;stroke-linecap:butt;stroke-linejoin:round"
       x="73.125"
       xlink:href="#m219da94a98"
       y="243"
       id="use355"
       width="585"
       height="405" />
    <use
       transform="matrix(0.1,0,0,-0.1,61.510937,245.58594)"
       xlink:href="#LiberationSans-36"
       id="use363"
       style="fill:#262626;stroke-linecap:butt;stroke-linejoin:round"
       x="0"
       y="0"
       width="585"
       height="405" />
    <path
       inkscape:connector-curvature="0"
       id="path367"
       style="fill:none;stroke:#cccccc;stroke-linecap:round;stroke-linejoin:round"
       d="m 73.125,202.5 453.375,0"
       clip-path="url(#p6bb970f2e9)" />
    <use
       style="fill:#262626;stroke:#262626;stroke-linecap:butt;stroke-linejoin:round"
       x="73.125"
       xlink:href="#m219da94a98"
       y="202.5"
       id="use372"
       width="585"
       height="405" />
    <use
       transform="matrix(0.1,0,0,-0.1,61.432812,205.08594)"
       xlink:href="#LiberationSans-38"
       id="use377"
       style="fill:#262626;stroke-linecap:butt;stroke-linejoin:round"
       x="0"
       y="0"
       width="585"
       height="405" />
    <use
       style="fill:#262626;stroke:#262626;stroke-linecap:butt;stroke-linejoin:round"
       x="73.125"
       xlink:href="#m219da94a98"
       y="162"
       id="use386"
       width="585"
       height="405" />
    <use
       transform="matrix(0.1,0,0,-0.1,56.15625,164.58594)"
       xlink:href="#LiberationSans-31"
       id="use391"
       style="fill:#262626;stroke-linecap:butt;stroke-linejoin:round"
       x="0"
       y="0"
       width="585"
       height="405" />
    <use
       transform="matrix(0.1,0,0,-0.1,56.15625,164.58594)"
       x="55.615234"
       xlink:href="#LiberationSans-30"
       id="use393"
       style="fill:#262626;stroke-linecap:butt;stroke-linejoin:round"
       y="0"
       width="585"
       height="405" />
    <use
       style="fill:#262626;stroke:#262626;stroke-linecap:butt;stroke-linejoin:round"
       x="73.125"
       xlink:href="#m219da94a98"
       y="121.5"
       id="use402"
       width="585"
       height="405" />
    <use
       transform="matrix(0.1,0,0,-0.1,56.267187,124.08594)"
       xlink:href="#LiberationSans-31"
       id="use407"
       style="fill:#262626;stroke-linecap:butt;stroke-linejoin:round"
       x="0"
       y="0"
       width="585"
       height="405" />
    <use
       transform="matrix(0.1,0,0,-0.1,56.267187,124.08594)"
       x="55.615234"
       xlink:href="#LiberationSans-32"
       id="use409"
       style="fill:#262626;stroke-linecap:butt;stroke-linejoin:round"
       y="0"
       width="585"
       height="405" />
    <use
       style="fill:#262626;stroke:#262626;stroke-linecap:butt;stroke-linejoin:round"
       x="73.125"
       xlink:href="#m219da94a98"
       y="81"
       id="use418"
       width="585"
       height="405" />
    <use
       transform="matrix(0.1,0,0,-0.1,56.057812,83.585936)"
       xlink:href="#LiberationSans-31"
       id="use423"
       style="fill:#262626;stroke-linecap:butt;stroke-linejoin:round"
       x="0"
       y="0"
       width="585"
       height="405" />
    <use
       transform="matrix(0.1,0,0,-0.1,56.057812,83.585936)"
       x="55.615234"
       xlink:href="#LiberationSans-34"
       id="use425"
       style="fill:#262626;stroke-linecap:butt;stroke-linejoin:round"
       y="0"
       width="585"
       height="405" />
    <path
       inkscape:connector-curvature="0"
       id="path429"
       style="fill:none;stroke:#cccccc;stroke-linecap:round;stroke-linejoin:round"
       d="m 73.125,40.5 453.375,0"
       clip-path="url(#p6bb970f2e9)" />
    <use
       style="fill:#262626;stroke:#262626;stroke-linecap:butt;stroke-linejoin:round"
       x="73.125"
       xlink:href="#m219da94a98"
       y="40.5"
       id="use434"
       width="585"
       height="405" />
    <use
       transform="matrix(0.1,0,0,-0.1,56.204687,43.085937)"
       xlink:href="#LiberationSans-31"
       id="use439"
       style="fill:#262626;stroke-linecap:butt;stroke-linejoin:round"
       x="0"
       y="0"
       width="585"
       height="405" />
    <use
       transform="matrix(0.1,0,0,-0.1,56.204687,43.085937)"
       x="55.615234"
       xlink:href="#LiberationSans-36"
       id="use441"
       style="fill:#262626;stroke-linecap:butt;stroke-linejoin:round"
       y="0"
       width="585"
       height="405" />
    <use
       transform="matrix(0,-0.11,-0.11,0,48.775312,232.81273)"
       height="405"
       width="585"
       y="0"
       x="0"
       style="fill:#262626;stroke-linecap:butt;stroke-linejoin:round"
       id="use456"
       xlink:href="#LiberationSans-54" />
    <use
       transform="matrix(0,-0.11,-0.11,0,48.775312,232.81273)"
       height="405"
       width="585"
       y="0"
       style="fill:#262626;stroke-linecap:butt;stroke-linejoin:round"
       id="use458"
       xlink:href="#LiberationSans-69"
       x="57.333984" />
    <use
       transform="matrix(0,-0.11,-0.11,0,48.775312,232.81273)"
       height="405"
       width="585"
       y="0"
       style="fill:#262626;stroke-linecap:butt;stroke-linejoin:round"
       id="use460"
       xlink:href="#LiberationSans-6d"
       x="79.550781" />
    <use
       transform="matrix(0,-0.11,-0.11,0,48.775312,232.81273)"
       height="405"
       width="585"
       y="0"
       style="fill:#262626;stroke-linecap:butt;stroke-linejoin:round"
       id="use462"
       xlink:href="#LiberationSans-65"
       x="162.85156" />
    <use
       transform="matrix(0,-0.11,-0.11,0,48.775312,232.81273)"
       height="405"
       width="585"
       y="0"
       style="fill:#262626;stroke-linecap:butt;stroke-linejoin:round"
       id="use466"
       xlink:href="#LiberationSans-28"
       x="246.25" />
    <use
       transform="matrix(0,-0.11,-0.11,0,48.775312,232.81273)"
       height="405"
       width="585"
       y="0"
       style="fill:#262626;stroke-linecap:butt;stroke-linejoin:round"
       id="use468"
       xlink:href="#LiberationSans-79"
       x="279.55078" />
    <use
       transform="matrix(0,-0.11,-0.11,0,48.775312,232.81273)"
       height="405"
       width="585"
       y="0"
       style="fill:#262626;stroke-linecap:butt;stroke-linejoin:round"
       id="use470"
       xlink:href="#LiberationSans-65"
       x="329.55078" />
    <use
       transform="matrix(0,-0.11,-0.11,0,48.775312,232.81273)"
       height="405"
       width="585"
       y="0"
       style="fill:#262626;stroke-linecap:butt;stroke-linejoin:round"
       id="use472"
       xlink:href="#LiberationSans-61"
       x="385.16602" />
    <use
       transform="matrix(0,-0.11,-0.11,0,48.775312,232.81273)"
       height="405"
       width="585"
       y="0"
       style="fill:#262626;stroke-linecap:butt;stroke-linejoin:round"
       id="use474"
       xlink:href="#LiberationSans-72"
       x="440.78125" />
    <use
       transform="matrix(0,-0.11,-0.11,0,48.775312,232.81273)"
       height="405"
       width="585"
       y="0"
       style="fill:#262626;stroke-linecap:butt;stroke-linejoin:round"
       id="use476"
       xlink:href="#LiberationSans-73"
       x="474.08203" />
    <use
       transform="matrix(0,-0.11,-0.11,0,48.775312,232.81273)"
       height="405"
       width="585"
       y="0"
       style="fill:#262626;stroke-linecap:butt;stroke-linejoin:round"
       id="use478"
       xlink:href="#LiberationSans-29"
       x="524.08203" />
    <path
       inkscape:connector-curvature="0"
       id="path493"
       style="fill:none;stroke:#cccccc;stroke-linecap:butt;stroke-linejoin:round"
       d="m 73.125,40.5 453.375,0" />
    <path
       inkscape:connector-curvature="0"
       id="path496"
       style="fill:none;stroke:#cccccc;stroke-linecap:butt;stroke-linejoin:round"
       d="m 526.5,364.5 0,-324" />
    <path
       inkscape:connector-curvature="0"
       id="path499"
       style="fill:none;stroke:#cccccc;stroke-linecap:butt;stroke-linejoin:round"
       d="m 73.125,364.5 453.375,0" />
    <path
       inkscape:connector-curvature="0"
       id="path502"
       style="fill:none;stroke:#cccccc;stroke-linecap:butt;stroke-linejoin:round"
       d="m 73.125,364.5 0,-324" />
    <path
       inkscape:connector-curvature="0"
       id="path565"
       style="fill:none;stroke:#cccccc;stroke-linecap:round;stroke-linejoin:round"
       d="m 73.125,202.5 453.375,0"
       clip-path="url(#p6bb970f2e9)" />
    <path
       inkscape:connector-curvature="0"
       id="path601"
       style="fill:none;stroke:#cccccc;stroke-linecap:round;stroke-linejoin:round"
       d="m 73.125,94.5 453.375,0"
       clip-path="url(#p6bb970f2e9)" />
    <use
       style="fill:#262626;stroke:#262626;stroke-linecap:butt;stroke-linejoin:round"
       x="526.5"
       xlink:href="#m219da94a98"
       y="94.5"
       id="use606"
       width="585"
       height="405" />
    <use
       xlink:href="#LiberationSans-32"
       id="use611"
       style="fill:#262626;stroke-linecap:butt;stroke-linejoin:round"
       x="0"
       y="0"
       width="585"
       height="405"
       transform="matrix(0.1,0,0,-0.1,533.5,97.085936)" />
    <use
       x="55.615234"
       xlink:href="#LiberationSans-2e"
       id="use613"
       style="fill:#262626;stroke-linecap:butt;stroke-linejoin:round"
       y="0"
       width="585"
       height="405"
       transform="matrix(0.1,0,0,-0.1,533.5,97.085936)" />
    <use
       x="83.398438"
       xlink:href="#LiberationSans-35"
       id="use615"
       style="fill:#262626;stroke-linecap:butt;stroke-linejoin:round"
       y="0"
       width="585"
       height="405"
       transform="matrix(0.1,0,0,-0.1,533.5,97.085936)" />
    <path
       inkscape:connector-curvature="0"
       id="path508"
       style="fill:none;stroke:#cccccc;stroke-linecap:round;stroke-linejoin:round"
       d="m 73.125,364.5 453.375,0"
       clip-path="url(#p6bb970f2e9)" />
    <use
       style="fill:#262626;stroke:#262626;stroke-linecap:butt;stroke-linejoin:round"
       x="526.5"
       xlink:href="#m219da94a98"
       y="364.5"
       id="use513"
       width="585"
       height="405" />
    <use
       transform="matrix(0.1,0,0,-0.1,533.5,367.08594)"
       xlink:href="#LiberationSans-30"
       id="use521"
       style="fill:#262626;stroke-linecap:butt;stroke-linejoin:round"
       x="0"
       y="0"
       width="585"
       height="405" />
    <use
       transform="matrix(0.1,0,0,-0.1,533.5,367.08594)"
       x="55.615234"
       xlink:href="#LiberationSans-2e"
       id="use523"
       style="fill:#262626;stroke-linecap:butt;stroke-linejoin:round"
       y="0"
       width="585"
       height="405" />
    <use
       transform="matrix(0.1,0,0,-0.1,533.5,367.08594)"
       x="83.398438"
       xlink:href="#LiberationSans-30"
       id="use525"
       style="fill:#262626;stroke-linecap:butt;stroke-linejoin:round"
       y="0"
       width="585"
       height="405" />
    <path
       inkscape:connector-curvature="0"
       id="path529"
       style="fill:none;stroke:#cccccc;stroke-linecap:round;stroke-linejoin:round"
       d="m 73.125,310.5 453.375,0"
       clip-path="url(#p6bb970f2e9)" />
    <use
       style="fill:#262626;stroke:#262626;stroke-linecap:butt;stroke-linejoin:round"
       x="526.5"
       xlink:href="#m219da94a98"
       y="310.5"
       id="use534"
       width="585"
       height="405" />
    <use
       transform="matrix(0.1,0,0,-0.1,533.5,313.08594)"
       xlink:href="#LiberationSans-30"
       id="use539"
       style="fill:#262626;stroke-linecap:butt;stroke-linejoin:round"
       x="0"
       y="0"
       width="585"
       height="405" />
    <use
       transform="matrix(0.1,0,0,-0.1,533.5,313.08594)"
       x="55.615234"
       xlink:href="#LiberationSans-2e"
       id="use541"
       style="fill:#262626;stroke-linecap:butt;stroke-linejoin:round"
       y="0"
       width="585"
       height="405" />
    <use
       transform="matrix(0.1,0,0,-0.1,533.5,313.08594)"
       x="83.398438"
       xlink:href="#LiberationSans-35"
       id="use543"
       style="fill:#262626;stroke-linecap:butt;stroke-linejoin:round"
       y="0"
       width="585"
       height="405" />
    <path
       inkscape:connector-curvature="0"
       id="path547"
       style="fill:none;stroke:#cccccc;stroke-linecap:round;stroke-linejoin:round"
       d="m 73.125,256.5 453.375,0"
       clip-path="url(#p6bb970f2e9)" />
    <use
       style="fill:#262626;stroke:#262626;stroke-linecap:butt;stroke-linejoin:round"
       x="526.5"
       xlink:href="#m219da94a98"
       y="256.5"
       id="use552"
       width="585"
       height="405" />
    <use
       transform="matrix(0.1,0,0,-0.1,533.5,259.08594)"
       xlink:href="#LiberationSans-31"
       id="use557"
       style="fill:#262626;stroke-linecap:butt;stroke-linejoin:round"
       x="0"
       y="0"
       width="585"
       height="405" />
    <use
       transform="matrix(0.1,0,0,-0.1,533.5,259.08594)"
       x="55.615234"
       xlink:href="#LiberationSans-2e"
       id="use559"
       style="fill:#262626;stroke-linecap:butt;stroke-linejoin:round"
       y="0"
       width="585"
       height="405" />
    <use
       transform="matrix(0.1,0,0,-0.1,533.5,259.08594)"
       x="83.398438"
       xlink:href="#LiberationSans-30"
       id="use561"
       style="fill:#262626;stroke-linecap:butt;stroke-linejoin:round"
       y="0"
       width="585"
       height="405" />
    <use
       style="fill:#262626;stroke:#262626;stroke-linecap:butt;stroke-linejoin:round"
       x="526.5"
       xlink:href="#m219da94a98"
       y="202.5"
       id="use570"
       width="585"
       height="405" />
    <use
       transform="matrix(0.1,0,0,-0.1,533.5,205.08594)"
       xlink:href="#LiberationSans-31"
       id="use575"
       style="fill:#262626;stroke-linecap:butt;stroke-linejoin:round"
       x="0"
       y="0"
       width="585"
       height="405" />
    <use
       transform="matrix(0.1,0,0,-0.1,533.5,205.08594)"
       x="55.615234"
       xlink:href="#LiberationSans-2e"
       id="use577"
       style="fill:#262626;stroke-linecap:butt;stroke-linejoin:round"
       y="0"
       width="585"
       height="405" />
    <use
       transform="matrix(0.1,0,0,-0.1,533.5,205.08594)"
       x="83.398438"
       xlink:href="#LiberationSans-35"
       id="use579"
       style="fill:#262626;stroke-linecap:butt;stroke-linejoin:round"
       y="0"
       width="585"
       height="405" />
    <path
       inkscape:connector-curvature="0"
       id="path583"
       style="fill:none;stroke:#cccccc;stroke-linecap:round;stroke-linejoin:round"
       d="m 73.125,148.5 453.375,0"
       clip-path="url(#p6bb970f2e9)" />
    <use
       style="fill:#262626;stroke:#262626;stroke-linecap:butt;stroke-linejoin:round"
       x="526.5"
       xlink:href="#m219da94a98"
       y="148.5"
       id="use588"
       width="585"
       height="405" />
    <use
       transform="matrix(0.1,0,0,-0.1,533.5,151.08594)"
       xlink:href="#LiberationSans-32"
       id="use593"
       style="fill:#262626;stroke-linecap:butt;stroke-linejoin:round"
       x="0"
       y="0"
       width="585"
       height="405" />
    <use
       transform="matrix(0.1,0,0,-0.1,533.5,151.08594)"
       x="55.615234"
       xlink:href="#LiberationSans-2e"
       id="use595"
       style="fill:#262626;stroke-linecap:butt;stroke-linejoin:round"
       y="0"
       width="585"
       height="405" />
    <use
       transform="matrix(0.1,0,0,-0.1,533.5,151.08594)"
       x="83.398438"
       xlink:href="#LiberationSans-30"
       id="use597"
       style="fill:#262626;stroke-linecap:butt;stroke-linejoin:round"
       y="0"
       width="585"
       height="405" />
    <path
       inkscape:connector-curvature="0"
       id="path619"
       style="fill:none;stroke:#cccccc;stroke-linecap:round;stroke-linejoin:round"
       d="m 73.125,40.5 453.375,0"
       clip-path="url(#p6bb970f2e9)" />
    <use
       style="fill:#262626;stroke:#262626;stroke-linecap:butt;stroke-linejoin:round"
       x="526.5"
       xlink:href="#m219da94a98"
       y="40.5"
       id="use624"
       width="585"
       height="405" />
    <use
       transform="matrix(0.1,0,0,-0.1,533.5,43.085937)"
       xlink:href="#LiberationSans-33"
       id="use632"
       style="fill:#262626;stroke-linecap:butt;stroke-linejoin:round"
       x="0"
       y="0"
       width="585"
       height="405" />
    <use
       transform="matrix(0.1,0,0,-0.1,533.5,43.085937)"
       x="55.615234"
       xlink:href="#LiberationSans-2e"
       id="use634"
       style="fill:#262626;stroke-linecap:butt;stroke-linejoin:round"
       y="0"
       width="585"
       height="405" />
    <use
       transform="matrix(0.1,0,0,-0.1,533.5,43.085937)"
       x="83.398438"
       xlink:href="#LiberationSans-30"
       id="use636"
       style="fill:#262626;stroke-linecap:butt;stroke-linejoin:round"
       y="0"
       width="585"
       height="405" />
    <use
       transform="matrix(0,-0.11,-0.11,0,559.76641,240.05812)"
       height="405"
       width="585"
       y="0"
       x="0"
       style="fill:#262626;stroke-linecap:butt;stroke-linejoin:round"
       id="use650"
       xlink:href="#LiberationSans-43" />
    <use
       transform="matrix(0,-0.11,-0.11,0,559.76641,240.05812)"
       height="405"
       width="585"
       y="0"
       style="fill:#262626;stroke-linecap:butt;stroke-linejoin:round"
       id="use652"
       xlink:href="#LiberationSans-6f"
       x="72.216797" />
    <use
       transform="matrix(0,-0.11,-0.11,0,559.76641,240.05812)"
       height="405"
       width="585"
       y="0"
       style="fill:#262626;stroke-linecap:butt;stroke-linejoin:round"
       id="use654"
       xlink:href="#LiberationSans-73"
       x="127.83203" />
    <use
       transform="matrix(0,-0.11,-0.11,0,559.76641,240.05812)"
       height="405"
       width="585"
       y="0"
       style="fill:#262626;stroke-linecap:butt;stroke-linejoin:round"
       id="use656"
       xlink:href="#LiberationSans-74"
       x="177.83203" />
    <use
       transform="matrix(0,-0.11,-0.11,0,559.76641,240.05812)"
       height="405"
       width="585"
       y="0"
       style="fill:#262626;stroke-linecap:butt;stroke-linejoin:round"
       id="use658"
       xlink:href="#LiberationSans-20"
       x="205.61523" />
    <use
       transform="matrix(0,-0.11,-0.11,0,559.76641,240.05812)"
       height="405"
       width="585"
       y="0"
       style="fill:#262626;stroke-linecap:butt;stroke-linejoin:round"
       id="use660"
       xlink:href="#LiberationSans-28"
       x="233.39844" />
    <use
       transform="matrix(0,-0.11,-0.11,0,559.76641,240.05812)"
       height="405"
       width="585"
       y="0"
       style="fill:#262626;stroke-linecap:butt;stroke-linejoin:round"
       id="use662"
       xlink:href="#LiberationSans-24"
       x="266.69922" />
    <use
       transform="matrix(0,-0.11,-0.11,0,559.76641,240.05812)"
       height="405"
       width="585"
       y="0"
       style="fill:#262626;stroke-linecap:butt;stroke-linejoin:round"
       id="use664"
       xlink:href="#LiberationSans-20"
       x="322.31445" />
    <use
       transform="matrix(0,-0.11,-0.11,0,559.76641,240.05812)"
       height="405"
       width="585"
       y="0"
       style="fill:#262626;stroke-linecap:butt;stroke-linejoin:round"
       id="use666"
       xlink:href="#LiberationSans-62"
       x="350.09766" />
    <use
       transform="matrix(0,-0.11,-0.11,0,559.76641,240.05812)"
       height="405"
       width="585"
       y="0"
       style="fill:#262626;stroke-linecap:butt;stroke-linejoin:round"
       id="use668"
       xlink:href="#LiberationSans-69"
       x="405.71289" />
    <use
       transform="matrix(0,-0.11,-0.11,0,559.76641,240.05812)"
       height="405"
       width="585"
       y="0"
       style="fill:#262626;stroke-linecap:butt;stroke-linejoin:round"
       id="use670"
       xlink:href="#LiberationSans-6c"
       x="427.92969" />
    <use
       transform="matrix(0,-0.11,-0.11,0,559.76641,240.05812)"
       height="405"
       width="585"
       y="0"
       style="fill:#262626;stroke-linecap:butt;stroke-linejoin:round"
       id="use672"
       xlink:href="#LiberationSans-6c"
       x="450.14648" />
    <use
       transform="matrix(0,-0.11,-0.11,0,559.76641,240.05812)"
       height="405"
       width="585"
       y="0"
       style="fill:#262626;stroke-linecap:butt;stroke-linejoin:round"
       id="use674"
       xlink:href="#LiberationSans-69"
       x="472.36328" />
    <use
       transform="matrix(0,-0.11,-0.11,0,559.76641,240.05812)"
       height="405"
       width="585"
       y="0"
       style="fill:#262626;stroke-linecap:butt;stroke-linejoin:round"
       id="use676"
       xlink:href="#LiberationSans-6f"
       x="494.58008" />
    <use
       transform="matrix(0,-0.11,-0.11,0,559.76641,240.05812)"
       height="405"
       width="585"
       y="0"
       style="fill:#262626;stroke-linecap:butt;stroke-linejoin:round"
       id="use678"
       xlink:href="#LiberationSans-6e"
       x="550.19531" />
    <use
       transform="matrix(0,-0.11,-0.11,0,559.76641,240.05812)"
       height="405"
       width="585"
       y="0"
       style="fill:#262626;stroke-linecap:butt;stroke-linejoin:round"
       id="use680"
       xlink:href="#LiberationSans-73"
       x="605.81055" />
    <use
       transform="matrix(0,-0.11,-0.11,0,559.76641,240.05812)"
       height="405"
       width="585"
       y="0"
       style="fill:#262626;stroke-linecap:butt;stroke-linejoin:round"
       id="use682"
       xlink:href="#LiberationSans-29"
       x="655.81055" />
    <path
       inkscape:connector-curvature="0"
       id="path685"
       style="fill:none;stroke:#4c72b0;stroke-width:1.75000000000000000;stroke-linecap:round;stroke-linejoin:round"
       d="M 73.125,343.008 173.875,319.896 405.6,278.1 l 10.075,-32.4 20.15,32.4 30.225,-97.2 10.075,-8.64 10.075,62.64 10.075,-10.8 10.075,-140.4 10.075,-32.4"
       clip-path="url(#p6bb970f2e9)" />
    <path
       clip-path="url(#p6bb970f2e9)"
       d="m 73.125,364.5 10.075,0 0,-121.5 -10.075,0 z"
       style="stroke-linecap:butt;stroke-linejoin:round;display:inline;fill:#4c72b0;stroke:#000000;stroke-width:1.02;stroke-opacity:0.98984772000000021;stroke-miterlimit:4;stroke-dasharray:none"
       id="path481"
       inkscape:connector-curvature="0" />
    <use
       style="fill:#55a868;stroke-linecap:butt;stroke-linejoin:round"
       x="73.125"
       xlink:href="#m599e0ba7cb"
       y="343.008"
       id="use695"
       width="585"
       height="405" />
    <use
       style="fill:#55a868;stroke-linecap:butt;stroke-linejoin:round"
       x="173.875"
       xlink:href="#m599e0ba7cb"
       y="319.896"
       id="use697"
       width="585"
       height="405" />
    <use
       style="fill:#55a868;stroke-linecap:butt;stroke-linejoin:round"
       x="405.60001"
       xlink:href="#m599e0ba7cb"
       y="278.10001"
       id="use699"
       width="585"
       height="405" />
    <use
       style="fill:#55a868;stroke-linecap:butt;stroke-linejoin:round"
       x="415.67499"
       xlink:href="#m599e0ba7cb"
       y="245.7"
       id="use701"
       width="585"
       height="405" />
    <path
       clip-path="url(#p6bb970f2e9)"
       d="m 435.825,364.5 10.075,0 0,-303.75 -10.075,0 z"
       style="stroke-linecap:butt;stroke-linejoin:round;display:inline;fill:#4c72b0;stroke:#000000;stroke-width:1.02;stroke-opacity:0.98984772000000021;stroke-miterlimit:4;stroke-dasharray:none"
       id="path487"
       inkscape:connector-curvature="0" />
    <use
       style="fill:#55a868;stroke-linecap:butt;stroke-linejoin:round"
       x="435.82501"
       xlink:href="#m599e0ba7cb"
       y="278.10001"
       id="use703"
       width="585"
       height="405" />
    <use
       style="fill:#55a868;stroke-linecap:butt;stroke-linejoin:round"
       x="466.04999"
       xlink:href="#m599e0ba7cb"
       y="180.89999"
       id="use705"
       width="585"
       height="405" />
    <path
       clip-path="url(#p6bb970f2e9)"
       d="m 476.125,364.5 10.075,0 0,-303.75 -10.075,0 z"
       style="stroke-linecap:butt;stroke-linejoin:round;display:inline;fill:#4c72b0;stroke:#000000;stroke-width:1.02;stroke-opacity:0.98984772000000021;stroke-miterlimit:4;stroke-dasharray:none"
       id="path490"
       inkscape:connector-curvature="0" />
    <use
       style="fill:#55a868;stroke-linecap:butt;stroke-linejoin:round"
       x="476.125"
       xlink:href="#m599e0ba7cb"
       y="172.25999"
       id="use707"
       width="585"
       height="405" />
    <use
       style="fill:#55a868;stroke-linecap:butt;stroke-linejoin:round"
       x="486.20001"
       xlink:href="#m599e0ba7cb"
       y="234.89999"
       id="use709"
       width="585"
       height="405" />
    <use
       style="fill:#55a868;stroke-linecap:butt;stroke-linejoin:round"
       x="496.27499"
       xlink:href="#m599e0ba7cb"
       y="224.10001"
       id="use711"
       width="585"
       height="405" />
    <use
       style="fill:#55a868;stroke-linecap:butt;stroke-linejoin:round"
       x="506.35001"
       xlink:href="#m599e0ba7cb"
       y="83.699997"
       id="use713"
       width="585"
       height="405" />
    <use
       style="fill:#55a868;stroke-linecap:butt;stroke-linejoin:round"
       x="516.42499"
       xlink:href="#m599e0ba7cb"
       y="51.299999"
       id="use715"
       width="585"
       height="405" />
    <path
       clip-path="url(#p6bb970f2e9)"
       d="m 375.375,364.5 10.075,0 0,-273.375 -10.075,0 z"
       style="stroke-linecap:butt;stroke-linejoin:round;display:inline;fill:#4c72b0;stroke:#000000;stroke-width:1.02;stroke-opacity:0.98984772000000021;stroke-miterlimit:4;stroke-dasharray:none"
       id="path484"
       inkscape:connector-curvature="0" />
    <path
       inkscape:connector-curvature="0"
       id="path688"
       style="fill:none;stroke:#55a868;stroke-width:3.5104;stroke-linecap:round;stroke-linejoin:round;stroke-miterlimit:4;stroke-dasharray:none"
       d="M 73.125,343.008 173.875,319.896 405.6,278.1 l 10.075,-32.4 20.15,32.4 30.225,-97.2 10.075,-8.64 10.075,62.64 10.075,-10.8 10.075,-140.4 10.075,-32.4"
       clip-path="url(#p6bb970f2e9)" />
  </g>
  <defs
     id="defs717">
    <clipPath
       id="p6bb970f2e9">
      <rect
         height="324.0"
         width="453.375"
         x="73.125"
         y="40.5"
         id="rect720" />
    </clipPath>
  </defs>
</svg>
