<?xml version="1.0" encoding="UTF-8" standalone="no"?>
<!-- Created with matplotlib (http://matplotlib.org/) -->

<svg
   xmlns:dc="http://purl.org/dc/elements/1.1/"
   xmlns:cc="http://creativecommons.org/ns#"
   xmlns:rdf="http://www.w3.org/1999/02/22-rdf-syntax-ns#"
   xmlns:svg="http://www.w3.org/2000/svg"
   xmlns="http://www.w3.org/2000/svg"
   xmlns:xlink="http://www.w3.org/1999/xlink"
   xmlns:sodipodi="http://sodipodi.sourceforge.net/DTD/sodipodi-0.dtd"
   xmlns:inkscape="http://www.inkscape.org/namespaces/inkscape"
   height="405pt"
   version="1.1"
   viewBox="0 0 585 405"
   width="585pt"
   id="svg2"
   inkscape:version="0.48.4 r9939"
   sodipodi:docname="pharmaccelera_speedup.svg">
  <metadata
     id="metadata430">
    <rdf:RDF>
      <cc:Work
         rdf:about="">
        <dc:format>image/svg+xml</dc:format>
        <dc:type
           rdf:resource="http://purl.org/dc/dcmitype/StillImage" />
      </cc:Work>
    </rdf:RDF>
  </metadata>
  <sodipodi:namedview
     pagecolor="#ffffff"
     bordercolor="#666666"
     borderopacity="1"
     objecttolerance="10"
     gridtolerance="10"
     guidetolerance="10"
     inkscape:pageopacity="0"
     inkscape:pageshadow="2"
     inkscape:window-width="1656"
     inkscape:window-height="925"
     id="namedview428"
     showgrid="false"
     inkscape:zoom="1.0675499"
     inkscape:cx="472.58486"
     inkscape:cy="205.50638"
     inkscape:window-x="0"
     inkscape:window-y="37"
     inkscape:window-maximized="0"
     inkscape:current-layer="matplotlib.axis_2" />
  <defs
     id="defs4">
    <style
       type="text/css"
       id="style6">
*{stroke-linecap:butt;stroke-linejoin:round;}
  </style>
  </defs>
  <g
     id="figure_1">
    <g
       id="patch_1">
      <path
         d=" M0 405 L585 405 L585 0 L0 0 z "
         style="fill:#ffffff;"
         id="path10" />
    </g>
    <g
       id="axes_1">
      <g
         id="patch_2">
        <path
           d=" M73.125 364.5 L526.5 364.5 L526.5 40.5 L73.125 40.5 z "
           style="fill:#ffffff;"
           id="path14" />
      </g>
      <g
         id="matplotlib.axis_1">
        <g
           id="xtick_1">
          <g
             id="line2d_1">
            <defs
               id="defs19">
              <path
                 d=" M0 0 L0 0"
                 id="m219da94a98"
                 style="stroke:#262626;" />
            </defs>
            <g
               id="g22">
              <use
                 style="fill:#262626;stroke:#262626;"
                 x="186.46875"
                 xlink:href="#m219da94a98"
                 y="364.5"
                 id="use24" />
            </g>
          </g>
          <g
             id="line2d_2">
            <g
               id="g27">
              <use
                 style="fill:#262626;stroke:#262626;"
                 x="186.46875"
                 xlink:href="#m219da94a98"
                 y="40.5"
                 id="use29" />
            </g>
          </g>
          <g
             id="text_1">
            <!-- Medium -->
            <defs
               id="defs32">
              <path
                 d=" M40.0938 8.5 Q37.6406 3.42188 33.6094 1.21875 Q29.5938 -0.984375 23.6406 -0.984375 Q13.625 -0.984375 8.90625 5.75 Q4.20312 12.5 4.20312 26.1719 Q4.20312 53.8125 23.6406 53.8125 Q29.6406 53.8125 33.6406 51.6094 Q37.6406 49.4219 40.0938 44.625 L40.1875 44.625 Q40.1875 45.125 40.1562 46.1719 Q40.1406 47.2188 40.1094 48.3594 Q40.0938 49.5156 40.0938 50.5312 Q40.0938 51.5625 40.0938 52 L40.0938 72.4688 L48.875 72.4688 L48.875 10.8906 Q48.875 8.98438 48.8906 7.21875 Q48.9219 5.46875 48.9688 4 Q49.0312 2.54688 49.0781 1.48438 Q49.125 0.4375 49.1719 0 L40.7656 0 Q40.6719 0.484375 40.5938 1.39062 Q40.5312 2.29688 40.4531 3.46875 Q40.375 4.64062 40.3281 5.9375 Q40.2812 7.23438 40.2812 8.5 z  M13.4219 26.4688 Q13.4219 21 14.1094 17.0938 Q14.7969 13.1875 16.3125 10.6719 Q17.8281 8.15625 20.1719 6.98438 Q22.5156 5.8125 25.875 5.8125 Q29.3438 5.8125 32 6.9375 Q34.6719 8.0625 36.4531 10.5781 Q38.2344 13.0938 39.1562 17.1406 Q40.0938 21.1875 40.0938 27.0469 Q40.0938 32.6719 39.1562 36.5469 Q38.2344 40.4375 36.4219 42.8281 Q34.625 45.2188 32 46.2656 Q29.3906 47.3125 25.9844 47.3125 Q22.75 47.3125 20.4062 46.1875 Q18.0625 45.0625 16.5 42.5781 Q14.9375 40.0938 14.1719 36.1094 Q13.4219 32.125 13.4219 26.4688"
                 id="LiberationSans-64" />
              <path
                 d=" M13.4844 24.5625 Q13.4844 20.4062 14.3281 16.9062 Q15.1875 13.4219 16.9688 10.9062 Q18.75 8.40625 21.5312 7 Q24.3125 5.60938 28.2188 5.60938 Q33.9375 5.60938 37.375 7.90625 Q40.8281 10.2031 42.0469 13.7188 L49.75 11.5312 Q48.9219 9.32812 47.4375 7.10938 Q45.9531 4.89062 43.4531 3.09375 Q40.9688 1.3125 37.2344 0.15625 Q33.5 -0.984375 28.2188 -0.984375 Q16.5 -0.984375 10.375 6 Q4.25 12.9844 4.25 26.7656 Q4.25 34.1875 6.09375 39.3281 Q7.95312 44.4844 11.1719 47.7031 Q14.4062 50.9219 18.7031 52.3594 Q23 53.8125 27.875 53.8125 Q34.5156 53.8125 38.9844 51.6562 Q43.4531 49.5156 46.1562 45.7188 Q48.875 41.9375 50.0156 36.8125 Q51.1719 31.6875 51.1719 25.7344 L51.1719 24.5625 z  M42.0938 31.2969 Q41.3594 39.6562 37.8438 43.4844 Q34.3281 47.3125 27.7344 47.3125 Q25.5312 47.3125 23.1094 46.6094 Q20.7031 45.9062 18.6562 44.0938 Q16.6094 42.2812 15.1875 39.1719 Q13.7656 36.0781 13.5781 31.2969 z "
                 id="LiberationSans-65" />
              <path
                 d=" M15.3281 52.8281 L15.3281 19.3438 Q15.3281 15.4844 15.8906 12.8906 Q16.4531 10.2969 17.7188 8.70312 Q19 7.125 21.0625 6.46875 Q23.1406 5.8125 26.2188 5.8125 Q29.3438 5.8125 31.8594 6.90625 Q34.375 8.01562 36.1562 10.0781 Q37.9375 12.1562 38.9062 15.2031 Q39.8906 18.2656 39.8906 22.2188 L39.8906 52.8281 L48.6875 52.8281 L48.6875 11.2812 Q48.6875 9.625 48.7031 7.78125 Q48.7344 5.95312 48.7812 4.3125 Q48.8281 2.6875 48.875 1.51562 Q48.9219 0.34375 48.9688 0 L40.6719 0 Q40.625 0.25 40.5781 1.3125 Q40.5312 2.39062 40.4531 3.78125 Q40.375 5.17188 40.3281 6.60938 Q40.2812 8.0625 40.2812 9.03125 L40.1406 9.03125 Q38.875 6.73438 37.3594 4.875 Q35.8438 3.03125 33.8438 1.73438 Q31.8438 0.4375 29.25 -0.265625 Q26.6562 -0.984375 23.25 -0.984375 Q18.8438 -0.984375 15.6719 0.09375 Q12.5 1.17188 10.4531 3.42188 Q8.40625 5.67188 7.45312 9.1875 Q6.5 12.7031 6.5 17.625 L6.5 52.8281 z "
                 id="LiberationSans-75" />
              <path
                 d=" M66.7031 0 L66.7031 45.9062 Q66.7031 48.3906 66.75 50.9688 Q66.7969 53.5625 66.8906 55.7188 Q67 58.2031 67.1406 60.5469 Q66.4531 58.0625 65.7188 55.6094 Q65.0938 53.5156 64.3281 51.1406 Q63.5781 48.7812 62.8438 46.875 L45.0625 0 L38.5312 0 L20.5156 46.875 Q20.2188 47.6094 19.8906 48.5781 Q19.5781 49.5625 19.2031 50.6562 Q18.8438 51.7656 18.4688 52.9062 Q18.1094 54.0469 17.7812 55.1719 Q16.9375 57.7656 16.1562 60.5469 Q16.2188 57.8125 16.3125 55.125 Q16.4062 52.8281 16.4531 50.3125 Q16.5 47.7969 16.5 45.9062 L16.5 0 L8.20312 0 L8.20312 68.7969 L20.4531 68.7969 L38.7656 21.0938 Q39.1094 20.125 39.5938 18.5781 Q40.0938 17.0469 40.5312 15.4219 Q40.9688 13.8125 41.3281 12.375 Q41.7031 10.9375 41.8438 10.1562 Q42 10.9375 42.3906 12.4062 Q42.7812 13.875 43.2812 15.4844 Q43.7969 17.0938 44.2812 18.6094 Q44.7812 20.125 45.1719 21.0938 L63.1406 68.7969 L75.0938 68.7969 L75.0938 0 z "
                 id="LiberationSans-4d" />
              <path
                 d=" M6.6875 64.0625 L6.6875 72.4688 L15.4844 72.4688 L15.4844 64.0625 z  M6.6875 0 L6.6875 52.8281 L15.4844 52.8281 L15.4844 0 z "
                 id="LiberationSans-69" />
              <path
                 d=" M37.5 0 L37.5 33.5 Q37.5 37.3594 37.0156 39.9375 Q36.5312 42.5312 35.375 44.1094 Q34.2344 45.7031 32.375 46.3594 Q30.5156 47.0156 27.8281 47.0156 Q25.0469 47.0156 22.7969 45.9219 Q20.5625 44.8281 18.9688 42.75 Q17.3906 40.6719 16.5312 37.625 Q15.6719 34.5781 15.6719 30.6094 L15.6719 0 L6.9375 0 L6.9375 41.5469 Q6.9375 43.2188 6.90625 45.0469 Q6.89062 46.875 6.82812 48.5 Q6.78125 50.1406 6.73438 51.3125 Q6.6875 52.4844 6.64062 52.8281 L14.9375 52.8281 Q14.9844 52.5938 15.0312 51.5156 Q15.0938 50.4375 15.1562 49.0469 Q15.2344 47.6562 15.2812 46.2188 Q15.3281 44.7812 15.3281 43.7969 L15.4844 43.7969 Q16.6562 46.0938 18.0156 47.9531 Q19.3906 49.8125 21.2188 51.0938 Q23.0469 52.3906 25.4062 53.0938 Q27.7812 53.8125 30.9062 53.8125 Q36.9219 53.8125 40.4062 51.4219 Q43.8906 49.0312 45.2656 43.7969 L45.4062 43.7969 Q46.5781 46.0938 48.0469 47.9531 Q49.5156 49.8125 51.4688 51.0938 Q53.4219 52.3906 55.8594 53.0938 Q58.2969 53.8125 61.4219 53.8125 Q65.4375 53.8125 68.3281 52.7344 Q71.2344 51.6562 73.0938 49.4062 Q74.9531 47.1719 75.8281 43.625 Q76.7031 40.0938 76.7031 35.2031 L76.7031 0 L68.0156 0 L68.0156 33.5 Q68.0156 37.3594 67.5312 39.9375 Q67.0469 42.5312 65.8906 44.1094 Q64.75 45.7031 62.8906 46.3594 Q61.0312 47.0156 58.3438 47.0156 Q55.5625 47.0156 53.3125 45.9688 Q51.0781 44.9219 49.4844 42.875 Q47.9062 40.8281 47.0469 37.75 Q46.1875 34.6719 46.1875 30.6094 L46.1875 0 z "
                 id="LiberationSans-6d" />
            </defs>
            <g
               style="fill:#262626;"
               transform="translate(169.4265625 378.746875)scale(0.1 -0.1)"
               id="g40">
              <use
                 xlink:href="#LiberationSans-4d"
                 id="use42" />
              <use
                 x="83.30078125"
                 xlink:href="#LiberationSans-65"
                 id="use44" />
              <use
                 x="138.916015625"
                 xlink:href="#LiberationSans-64"
                 id="use46" />
              <use
                 x="194.53125"
                 xlink:href="#LiberationSans-69"
                 id="use48" />
              <use
                 x="216.748046875"
                 xlink:href="#LiberationSans-75"
                 id="use50" />
              <use
                 x="272.36328125"
                 xlink:href="#LiberationSans-6d"
                 id="use52" />
            </g>
          </g>
        </g>
        <g
           id="xtick_2">
          <g
             id="line2d_3">
            <g
               id="g56">
              <use
                 style="fill:#262626;stroke:#262626;"
                 x="413.15625"
                 xlink:href="#m219da94a98"
                 y="364.5"
                 id="use58" />
            </g>
          </g>
          <g
             id="line2d_4">
            <g
               id="g61">
              <use
                 style="fill:#262626;stroke:#262626;"
                 x="413.15625"
                 xlink:href="#m219da94a98"
                 y="40.5"
                 id="use63" />
            </g>
          </g>
          <g
             id="text_2">
            <!-- Big -->
            <defs
               id="defs66">
              <path
                 d=" M26.7656 -20.75 Q22.2188 -20.75 18.7031 -19.8125 Q15.1875 -18.8906 12.6875 -17.1562 Q10.2031 -15.4375 8.64062 -13.0312 Q7.07812 -10.6406 6.39062 -7.71875 L15.2344 -6.45312 Q16.1094 -10.1094 19.1094 -12.0781 Q22.125 -14.0625 27 -14.0625 Q29.9844 -14.0625 32.4219 -13.2344 Q34.8594 -12.4062 36.5625 -10.5625 Q38.2812 -8.73438 39.2031 -5.79688 Q40.1406 -2.875 40.1406 1.3125 L40.1406 9.8125 L40.0469 9.8125 Q39.0625 7.8125 37.625 5.98438 Q36.1875 4.15625 34.1094 2.73438 Q32.0312 1.3125 29.2969 0.453125 Q26.5625 -0.390625 23.0469 -0.390625 Q18.0156 -0.390625 14.4219 1.29688 Q10.8438 2.98438 8.5625 6.34375 Q6.29688 9.71875 5.25 14.7188 Q4.20312 19.7344 4.20312 26.3125 Q4.20312 32.6719 5.25 37.75 Q6.29688 42.8281 8.65625 46.3594 Q11.0312 49.9062 14.8125 51.7812 Q18.6094 53.6562 24.0312 53.6562 Q29.6406 53.6562 33.7656 51.0938 Q37.8906 48.5312 40.1406 43.7969 L40.2344 43.7969 Q40.2344 45.0156 40.2969 46.5312 Q40.375 48.0469 40.4531 49.3906 Q40.5312 50.7344 40.625 51.7031 Q40.7188 52.6875 40.8281 52.8281 L49.1719 52.8281 Q49.125 52.3906 49.0781 51.3438 Q49.0312 50.2969 48.9688 48.8281 Q48.9219 47.3594 48.8906 45.5781 Q48.875 43.7969 48.875 41.8906 L48.875 1.51562 Q48.875 -9.57812 43.4219 -15.1562 Q37.9844 -20.75 26.7656 -20.75 M40.1406 26.4219 Q40.1406 31.9375 38.9375 35.8594 Q37.75 39.7969 35.7969 42.2812 Q33.8438 44.7812 31.3281 45.9531 Q28.8125 47.125 26.1719 47.125 Q22.7969 47.125 20.375 45.9531 Q17.9688 44.7812 16.375 42.2656 Q14.7969 39.75 14.0312 35.8125 Q13.2812 31.8906 13.2812 26.4219 Q13.2812 20.7031 14.0312 16.8125 Q14.7969 12.9375 16.3594 10.5469 Q17.9219 8.15625 20.3125 7.125 Q22.7031 6.10938 26.0312 6.10938 Q28.6562 6.10938 31.1719 7.21875 Q33.6875 8.34375 35.6875 10.7812 Q37.7031 13.2344 38.9219 17.0938 Q40.1406 20.9531 40.1406 26.4219"
                 id="LiberationSans-67" />
              <path
                 d=" M61.4219 19.3906 Q61.4219 14.1562 59.375 10.4688 Q57.3281 6.78125 53.8594 4.46875 Q50.3906 2.15625 45.7969 1.07812 Q41.2188 0 36.1406 0 L8.20312 0 L8.20312 68.7969 L33.2031 68.7969 Q38.9219 68.7969 43.4062 67.8438 Q47.9062 66.8906 51.0312 64.8438 Q54.1562 62.7969 55.7812 59.6406 Q57.4219 56.5 57.4219 52.0938 Q57.4219 49.2188 56.6094 46.6719 Q55.8125 44.1406 54.1719 42.0625 Q52.5469 39.9844 50.0781 38.5 Q47.6094 37.0156 44.3438 36.2812 Q48.4844 35.7969 51.6875 34.375 Q54.8906 32.9531 57.0312 30.75 Q59.1875 28.5625 60.2969 25.6562 Q61.4219 22.75 61.4219 19.3906 M48.0469 50.9844 Q48.0469 56.5469 44.2344 58.9375 Q40.4375 61.3281 33.2031 61.3281 L17.5312 61.3281 L17.5312 39.5469 L33.2031 39.5469 Q37.3125 39.5469 40.1406 40.3438 Q42.9688 41.1562 44.7188 42.6406 Q46.4844 44.1406 47.2656 46.2344 Q48.0469 48.3438 48.0469 50.9844 M52 20.125 Q52 23.3906 50.7969 25.6875 Q49.6094 27.9844 47.3594 29.4375 Q45.125 30.9062 41.9688 31.5938 Q38.8125 32.2812 34.9062 32.2812 L17.5312 32.2812 L17.5312 7.46875 L35.6406 7.46875 Q39.2031 7.46875 42.2031 8.04688 Q45.2188 8.64062 47.3906 10.1094 Q49.5625 11.5781 50.7812 14.0156 Q52 16.4531 52 20.125"
                 id="LiberationSans-42" />
            </defs>
            <g
               style="fill:#262626;"
               transform="translate(406.66171875 378.746875)scale(0.1 -0.1)"
               id="g70">
              <use
                 xlink:href="#LiberationSans-42"
                 id="use72" />
              <use
                 x="66.69921875"
                 xlink:href="#LiberationSans-69"
                 id="use74" />
              <use
                 x="88.916015625"
                 xlink:href="#LiberationSans-67"
                 id="use76" />
            </g>
          </g>
        </g>
        <g
           id="text_3">
          <!-- Size -->
          <defs
             id="defs79">
            <path
               d=" M2.39062 0 L2.39062 6.6875 L34.6719 46.0469 L4.34375 46.0469 L4.34375 52.8281 L44.5781 52.8281 L44.5781 46.1406 L12.25 6.78125 L46.3906 6.78125 L46.3906 0 z "
               id="LiberationSans-7a" />
            <path
               d=" M62.1094 19 Q62.1094 14.6562 60.4219 10.9844 Q58.7344 7.32812 55.2188 4.65625 Q51.7031 2 46.3594 0.5 Q41.0156 -0.984375 33.6875 -0.984375 Q20.8438 -0.984375 13.6719 3.51562 Q6.5 8.01562 4.54688 16.5 L13.5781 18.3125 Q14.2656 15.625 15.6719 13.4219 Q17.0938 11.2344 19.5 9.64062 Q21.9219 8.0625 25.4844 7.17188 Q29.0469 6.29688 34.0312 6.29688 Q38.1875 6.29688 41.6562 7 Q45.125 7.71875 47.6094 9.17188 Q50.0938 10.6406 51.4844 12.9531 Q52.875 15.2812 52.875 18.5 Q52.875 21.875 51.3438 23.9688 Q49.8125 26.0781 47.0156 27.4375 Q44.2344 28.8125 40.375 29.7344 Q36.5312 30.6719 31.8438 31.7344 Q28.9531 32.375 26.0469 33.125 Q23.1406 33.8906 20.4844 34.9375 Q17.8281 35.9844 15.4844 37.3906 Q13.1406 38.8125 11.4219 40.7969 Q9.71875 42.7812 8.73438 45.3906 Q7.76562 48 7.76562 51.4219 Q7.76562 56.2969 9.73438 59.7812 Q11.7188 63.2812 15.2344 65.5312 Q18.75 67.7812 23.5312 68.7969 Q28.3281 69.8281 33.8906 69.8281 Q40.2812 69.8281 44.8125 68.8281 Q49.3594 67.8281 52.4844 65.8125 Q55.6094 63.8125 57.4844 60.8594 Q59.375 57.9062 60.5 54 L51.3125 52.3906 Q50.6406 54.8906 49.3438 56.8438 Q48.0469 58.7969 45.9375 60.1094 Q43.8438 61.4219 40.8438 62.1094 Q37.8438 62.7969 33.7969 62.7969 Q29 62.7969 25.75 61.9375 Q22.5156 61.0781 20.5312 59.6094 Q18.5625 58.1562 17.7031 56.1719 Q16.8438 54.2031 16.8438 51.9062 Q16.8438 48.8281 18.375 46.8438 Q19.9219 44.875 22.5625 43.5469 Q25.2031 42.2344 28.6562 41.3594 Q32.125 40.4844 36.0312 39.5938 Q39.2031 38.875 42.3594 38.1094 Q45.5156 37.3594 48.3906 36.2969 Q51.2656 35.25 53.7812 33.8281 Q56.2969 32.4219 58.1562 30.375 Q60.0156 28.3281 61.0625 25.5312 Q62.1094 22.75 62.1094 19"
               id="LiberationSans-53" />
          </defs>
          <g
             style="fill:#262626;"
             transform="translate(289.607421875 393.7934375)scale(0.11 -0.11)"
             id="g83">
            <use
               xlink:href="#LiberationSans-53"
               id="use85" />
            <use
               x="66.69921875"
               xlink:href="#LiberationSans-69"
               id="use87" />
            <use
               x="88.916015625"
               xlink:href="#LiberationSans-7a"
               id="use89" />
            <use
               x="138.916015625"
               xlink:href="#LiberationSans-65"
               id="use91" />
          </g>
        </g>
      </g>
      <g
         id="matplotlib.axis_2">
        <g
           id="ytick_1">
          <g
             id="line2d_5">
            <path
               clip-path="url(#p6bb970f2e9)"
               d=" M73.125 364.5 L526.5 364.5"
               style="fill:none;stroke:#cccccc;stroke-linecap:round;"
               id="path96" />
          </g>
          <g
             id="line2d_6">
            <g
               id="g99">
              <use
                 style="fill:#262626;stroke:#262626;"
                 x="73.125"
                 xlink:href="#m219da94a98"
                 y="364.5"
                 id="use101" />
            </g>
          </g>
          <g
             id="line2d_7">
            <g
               id="g104">
              <use
                 style="fill:#262626;stroke:#262626;"
                 x="526.5"
                 xlink:href="#m219da94a98"
                 y="364.5"
                 id="use106" />
            </g>
          </g>
          <g
             id="text_4">
            <!-- 0 -->
            <defs
               id="defs109">
              <path
                 d=" M51.7031 34.4219 Q51.7031 24.5156 49.8281 17.75 Q47.9531 10.9844 44.7031 6.8125 Q41.4531 2.64062 37.0625 0.828125 Q32.6719 -0.984375 27.6875 -0.984375 Q22.6562 -0.984375 18.3125 0.828125 Q13.9688 2.64062 10.7656 6.78125 Q7.5625 10.9375 5.73438 17.7031 Q3.90625 24.4688 3.90625 34.4219 Q3.90625 44.8281 5.73438 51.6406 Q7.5625 58.4531 10.7812 62.5 Q14.0156 66.5469 18.4062 68.1875 Q22.7969 69.8281 27.9844 69.8281 Q32.9062 69.8281 37.2188 68.1875 Q41.5469 66.5469 44.7656 62.5 Q48 58.4531 49.8438 51.6406 Q51.7031 44.8281 51.7031 34.4219 M42.7812 34.4219 Q42.7812 42.625 41.7969 48.0625 Q40.8281 53.5156 38.9219 56.7656 Q37.0156 60.0156 34.25 61.3594 Q31.5 62.7031 27.9844 62.7031 Q24.2656 62.7031 21.4375 61.3281 Q18.6094 59.9688 16.6719 56.7188 Q14.75 53.4688 13.7656 48.0156 Q12.7969 42.5781 12.7969 34.4219 Q12.7969 26.5156 13.7969 21.0938 Q14.7969 15.6719 16.7188 12.375 Q18.6562 9.07812 21.4375 7.64062 Q24.2188 6.20312 27.7812 6.20312 Q31.25 6.20312 34.0312 7.64062 Q36.8125 9.07812 38.7344 12.375 Q40.6719 15.6719 41.7188 21.0938 Q42.7812 26.5156 42.7812 34.4219"
                 id="LiberationSans-30" />
            </defs>
            <g
               style="fill:#262626;"
               transform="translate(61.3453125 367.0859375)scale(0.1 -0.1)"
               id="g112">
              <use
                 xlink:href="#LiberationSans-30"
                 id="use114" />
            </g>
          </g>
        </g>
        <g
           id="ytick_2">
          <g
             id="line2d_8">
            <path
               clip-path="url(#p6bb970f2e9)"
               d=" M73.125 324 L526.5 324"
               style="fill:none;stroke:#cccccc;stroke-linecap:round;"
               id="path118" />
          </g>
          <g
             id="line2d_9">
            <g
               id="g121">
              <use
                 style="fill:#262626;stroke:#262626;"
                 x="73.125"
                 xlink:href="#m219da94a98"
                 y="324.0"
                 id="use123" />
            </g>
          </g>
          <g
             id="line2d_10">
            <g
               id="g126">
              <use
                 style="fill:#262626;stroke:#262626;"
                 x="526.5"
                 xlink:href="#m219da94a98"
                 y="324.0"
                 id="use128" />
            </g>
          </g>
          <g
             id="text_5">
            <!-- 2 -->
            <defs
               id="defs131">
              <path
                 d=" M5.03125 0 L5.03125 6.20312 Q7.51562 11.9219 11.1094 16.2812 Q14.7031 20.6562 18.6562 24.1875 Q22.6094 27.7344 26.4844 30.7656 Q30.375 33.7969 33.5 36.8125 Q36.625 39.8438 38.5469 43.1562 Q40.4844 46.4844 40.4844 50.6875 Q40.4844 53.6094 39.5938 55.8281 Q38.7188 58.0625 37.0625 59.5625 Q35.4062 61.0781 33.0781 61.8281 Q30.7656 62.5938 27.9375 62.5938 Q25.2969 62.5938 22.9688 61.8594 Q20.6562 61.1406 18.8438 59.6719 Q17.0469 58.2031 15.8906 56.0312 Q14.75 53.8594 14.4062 50.9844 L5.42188 51.8125 Q5.85938 55.5156 7.46875 58.7812 Q9.07812 62.0625 11.9062 64.5312 Q14.75 67 18.7188 68.4062 Q22.7031 69.8281 27.9375 69.8281 Q33.0625 69.8281 37.0625 68.6094 Q41.0625 67.3906 43.8125 64.9844 Q46.5781 62.5938 48.0469 59.0781 Q49.5156 55.5625 49.5156 50.9844 Q49.5156 47.5156 48.2656 44.3906 Q47.0156 41.2656 44.9375 38.4219 Q42.875 35.5938 40.1406 32.9531 Q37.4062 30.3281 34.4219 27.8125 Q31.4531 25.2969 28.4219 22.8281 Q25.3906 20.3594 22.7188 17.8594 Q20.0625 15.375 17.9688 12.8125 Q15.875 10.25 14.7031 7.46875 L50.5938 7.46875 L50.5938 0 z "
                 id="LiberationSans-32" />
            </defs>
            <g
               style="fill:#262626;"
               transform="translate(61.56875 326.5859375)scale(0.1 -0.1)"
               id="g134">
              <use
                 xlink:href="#LiberationSans-32"
                 id="use136" />
            </g>
          </g>
        </g>
        <g
           id="ytick_3">
          <g
             id="line2d_11">
            <path
               clip-path="url(#p6bb970f2e9)"
               d=" M73.125 283.5 L526.5 283.5"
               style="fill:none;stroke:#cccccc;stroke-linecap:round;"
               id="path140" />
          </g>
          <g
             id="line2d_12">
            <g
               id="g143">
              <use
                 style="fill:#262626;stroke:#262626;"
                 x="73.125"
                 xlink:href="#m219da94a98"
                 y="283.5"
                 id="use145" />
            </g>
          </g>
          <g
             id="line2d_13">
            <g
               id="g148">
              <use
                 style="fill:#262626;stroke:#262626;"
                 x="526.5"
                 xlink:href="#m219da94a98"
                 y="283.5"
                 id="use150" />
            </g>
          </g>
          <g
             id="text_6">
            <!-- 4 -->
            <defs
               id="defs153">
              <path
                 d=" M43.0156 15.5781 L43.0156 0 L34.7188 0 L34.7188 15.5781 L2.29688 15.5781 L2.29688 22.4062 L33.7969 68.7969 L43.0156 68.7969 L43.0156 22.5156 L52.6875 22.5156 L52.6875 15.5781 z  M34.7188 58.8906 Q34.625 58.6406 34.2344 57.9375 Q33.8438 57.2344 33.3438 56.3438 Q32.8594 55.4688 32.3438 54.5625 Q31.8438 53.6562 31.4531 53.0781 L13.8125 27.0938 Q13.5781 26.7031 13.1094 26.0625 Q12.6406 25.4375 12.1562 24.7812 Q11.6719 24.125 11.1719 23.4844 Q10.6875 22.8594 10.4062 22.5156 L34.7188 22.5156 z "
                 id="LiberationSans-34" />
            </defs>
            <g
               style="fill:#262626;"
               transform="translate(61.0859375 286.0859375)scale(0.1 -0.1)"
               id="g156">
              <use
                 xlink:href="#LiberationSans-34"
                 id="use158" />
            </g>
          </g>
        </g>
        <g
           id="ytick_4">
          <g
             id="line2d_14">
            <path
               clip-path="url(#p6bb970f2e9)"
               d=" M73.125 243 L526.5 243"
               style="fill:none;stroke:#cccccc;stroke-linecap:round;"
               id="path162" />
          </g>
          <g
             id="line2d_15">
            <g
               id="g165">
              <use
                 style="fill:#262626;stroke:#262626;"
                 x="73.125"
                 xlink:href="#m219da94a98"
                 y="243.0"
                 id="use167" />
            </g>
          </g>
          <g
             id="line2d_16">
            <g
               id="g170">
              <use
                 style="fill:#262626;stroke:#262626;"
                 x="526.5"
                 xlink:href="#m219da94a98"
                 y="243.0"
                 id="use172" />
            </g>
          </g>
          <g
             id="text_7">
            <!-- 6 -->
            <defs
               id="defs175">
              <path
                 d=" M51.2188 22.5156 Q51.2188 17.3281 49.7812 13 Q48.3438 8.6875 45.5312 5.57812 Q42.7188 2.48438 38.5625 0.75 Q34.4219 -0.984375 29 -0.984375 Q23 -0.984375 18.5 1.3125 Q14.0156 3.60938 11.0312 7.92188 Q8.0625 12.25 6.5625 18.5312 Q5.07812 24.8125 5.07812 32.8125 Q5.07812 42 6.76562 48.9219 Q8.45312 55.8594 11.625 60.5 Q14.7969 65.1406 19.3594 67.4844 Q23.9219 69.8281 29.6875 69.8281 Q33.2031 69.8281 36.2812 69.0938 Q39.3594 68.3594 41.875 66.7188 Q44.3906 65.0938 46.2812 62.4062 Q48.1875 59.7188 49.3125 55.8125 L40.9219 54.2969 Q39.5469 58.7344 36.5469 60.7188 Q33.5469 62.7031 29.5938 62.7031 Q25.9844 62.7031 23.0469 60.9844 Q20.125 59.2812 18.0625 55.875 Q16.0156 52.4844 14.9062 47.3594 Q13.8125 42.2344 13.8125 35.4062 Q16.2188 39.8438 20.5625 42.1562 Q24.9062 44.4844 30.5156 44.4844 Q35.2031 44.4844 39.0156 42.9688 Q42.8281 41.4531 45.5312 38.5938 Q48.25 35.75 49.7344 31.6719 Q51.2188 27.5938 51.2188 22.5156 M42.2812 22.125 Q42.2812 25.6875 41.4062 28.5625 Q40.5312 31.4531 38.7656 33.4688 Q37.0156 35.5 34.4219 36.5938 Q31.8438 37.7031 28.4219 37.7031 Q26.0312 37.7031 23.5781 36.9844 Q21.1406 36.2812 19.1562 34.6875 Q17.1875 33.1094 15.9375 30.5156 Q14.7031 27.9375 14.7031 24.2188 Q14.7031 20.4062 15.6719 17.1094 Q16.6562 13.8125 18.4844 11.375 Q20.3125 8.9375 22.8906 7.51562 Q25.4844 6.10938 28.7188 6.10938 Q31.8906 6.10938 34.4062 7.20312 Q36.9219 8.29688 38.6719 10.375 Q40.4375 12.4531 41.3594 15.4219 Q42.2812 18.4062 42.2812 22.125"
                 id="LiberationSans-36" />
            </defs>
            <g
               style="fill:#262626;"
               transform="translate(61.5109375 245.5859375)scale(0.1 -0.1)"
               id="g178">
              <use
                 xlink:href="#LiberationSans-36"
                 id="use180" />
            </g>
          </g>
        </g>
        <g
           id="ytick_5">
          <g
             id="line2d_17">
            <path
               clip-path="url(#p6bb970f2e9)"
               d=" M73.125 202.5 L526.5 202.5"
               style="fill:none;stroke:#cccccc;stroke-linecap:round;"
               id="path184" />
          </g>
          <g
             id="line2d_18">
            <g
               id="g187">
              <use
                 style="fill:#262626;stroke:#262626;"
                 x="73.125"
                 xlink:href="#m219da94a98"
                 y="202.5"
                 id="use189" />
            </g>
          </g>
          <g
             id="line2d_19">
            <g
               id="g192">
              <use
                 style="fill:#262626;stroke:#262626;"
                 x="526.5"
                 xlink:href="#m219da94a98"
                 y="202.5"
                 id="use194" />
            </g>
          </g>
          <g
             id="text_8">
            <!-- 8 -->
            <defs
               id="defs197">
              <path
                 d=" M51.2656 19.1875 Q51.2656 14.7969 49.875 11.1094 Q48.4844 7.42188 45.625 4.73438 Q42.7812 2.04688 38.3281 0.53125 Q33.8906 -0.984375 27.8281 -0.984375 Q21.7812 -0.984375 17.3594 0.53125 Q12.9375 2.04688 10.0312 4.70312 Q7.125 7.375 5.73438 11.0625 Q4.34375 14.75 4.34375 19.0938 Q4.34375 22.8594 5.48438 25.7812 Q6.64062 28.7188 8.5625 30.8281 Q10.5 32.9531 12.9688 34.25 Q15.4375 35.5469 18.0625 35.9844 L18.0625 36.1875 Q15.1875 36.8594 12.9062 38.375 Q10.6406 39.8906 9.09375 42.0156 Q7.5625 44.1406 6.75 46.7188 Q5.95312 49.3125 5.95312 52.2031 Q5.95312 55.8125 7.34375 59 Q8.73438 62.2031 11.4688 64.625 Q14.2031 67.0469 18.25 68.4375 Q22.3125 69.8281 27.6406 69.8281 Q33.25 69.8281 37.375 68.4062 Q41.5 67 44.2031 64.5781 Q46.9219 62.1562 48.2344 58.9375 Q49.5625 55.7188 49.5625 52.0938 Q49.5625 49.2656 48.75 46.6719 Q47.9531 44.0938 46.4062 41.9688 Q44.875 39.8438 42.5938 38.3438 Q40.3281 36.8594 37.3594 36.2812 L37.3594 36.0781 Q40.3281 35.5938 42.8594 34.2969 Q45.4062 33.0156 47.2656 30.8906 Q49.125 28.7656 50.1875 25.8281 Q51.2656 22.9062 51.2656 19.1875 M40.4375 51.6094 Q40.4375 54.2031 39.7656 56.3438 Q39.1094 58.5 37.5938 60.0312 Q36.0781 61.5781 33.6406 62.4219 Q31.2031 63.2812 27.6406 63.2812 Q24.1719 63.2812 21.7812 62.4219 Q19.3906 61.5781 17.8438 60.0312 Q16.3125 58.5 15.625 56.3438 Q14.9375 54.2031 14.9375 51.6094 Q14.9375 49.5625 15.4688 47.4062 Q16.0156 45.2656 17.4219 43.5 Q18.8438 41.75 21.3281 40.625 Q23.8281 39.5 27.7344 39.5 Q31.8906 39.5 34.4062 40.625 Q36.9219 41.75 38.25 43.5 Q39.5938 45.2656 40.0156 47.4062 Q40.4375 49.5625 40.4375 51.6094 M42.1406 20.0156 Q42.1406 22.5156 41.4531 24.8281 Q40.7656 27.1562 39.1094 28.9375 Q37.4531 30.7188 34.6406 31.8125 Q31.8438 32.9062 27.6406 32.9062 Q23.7812 32.9062 21.0625 31.8125 Q18.3594 30.7188 16.6719 28.9062 Q14.9844 27.0938 14.2031 24.7188 Q13.4219 22.3594 13.4219 19.8281 Q13.4219 16.6562 14.2031 14.0312 Q14.9844 11.4219 16.6875 9.54688 Q18.4062 7.67188 21.1875 6.64062 Q23.9688 5.60938 27.9375 5.60938 Q31.9375 5.60938 34.6719 6.64062 Q37.4062 7.67188 39.0625 9.54688 Q40.7188 11.4219 41.4219 14.0781 Q42.1406 16.75 42.1406 20.0156"
                 id="LiberationSans-38" />
            </defs>
            <g
               style="fill:#262626;"
               transform="translate(61.4328125 205.0859375)scale(0.1 -0.1)"
               id="g200">
              <use
                 xlink:href="#LiberationSans-38"
                 id="use202" />
            </g>
          </g>
        </g>
        <g
           id="ytick_6">
          <g
             id="line2d_20">
            <path
               clip-path="url(#p6bb970f2e9)"
               d=" M73.125 162 L526.5 162"
               style="fill:none;stroke:#cccccc;stroke-linecap:round;"
               id="path206" />
          </g>
          <g
             id="line2d_21">
            <g
               id="g209">
              <use
                 style="fill:#262626;stroke:#262626;"
                 x="73.125"
                 xlink:href="#m219da94a98"
                 y="162.0"
                 id="use211" />
            </g>
          </g>
          <g
             id="line2d_22">
            <g
               id="g214">
              <use
                 style="fill:#262626;stroke:#262626;"
                 x="526.5"
                 xlink:href="#m219da94a98"
                 y="162.0"
                 id="use216" />
            </g>
          </g>
          <g
             id="text_9">
            <!-- 10 -->
            <defs
               id="defs219">
              <path
                 d=" M7.625 0 L7.625 7.46875 L25.1406 7.46875 L25.1406 60.4062 L9.625 49.3125 L9.625 57.625 L25.875 68.7969 L33.9844 68.7969 L33.9844 7.46875 L50.7344 7.46875 L50.7344 0 z "
                 id="LiberationSans-31" />
            </defs>
            <g
               style="fill:#262626;"
               transform="translate(56.15625 164.5859375)scale(0.1 -0.1)"
               id="g222">
              <use
                 xlink:href="#LiberationSans-31"
                 id="use224" />
              <use
                 x="55.615234375"
                 xlink:href="#LiberationSans-30"
                 id="use226" />
            </g>
          </g>
        </g>
        <g
           id="ytick_7">
          <g
             id="line2d_23">
            <path
               clip-path="url(#p6bb970f2e9)"
               d=" M73.125 121.5 L526.5 121.5"
               style="fill:none;stroke:#cccccc;stroke-linecap:round;"
               id="path230" />
          </g>
          <g
             id="line2d_24">
            <g
               id="g233">
              <use
                 style="fill:#262626;stroke:#262626;"
                 x="73.125"
                 xlink:href="#m219da94a98"
                 y="121.5"
                 id="use235" />
            </g>
          </g>
          <g
             id="line2d_25">
            <g
               id="g238">
              <use
                 style="fill:#262626;stroke:#262626;"
                 x="526.5"
                 xlink:href="#m219da94a98"
                 y="121.5"
                 id="use240" />
            </g>
          </g>
          <g
             id="text_10">
            <!-- 12 -->
            <g
               style="fill:#262626;"
               transform="translate(56.2671875 124.0859375)scale(0.1 -0.1)"
               id="g243">
              <use
                 xlink:href="#LiberationSans-31"
                 id="use245" />
              <use
                 x="55.615234375"
                 xlink:href="#LiberationSans-32"
                 id="use247" />
            </g>
          </g>
        </g>
        <g
           id="ytick_8">
          <g
             id="line2d_26">
            <path
               clip-path="url(#p6bb970f2e9)"
               d=" M73.125 81 L526.5 81"
               style="fill:none;stroke:#cccccc;stroke-linecap:round;"
               id="path251" />
          </g>
          <g
             id="line2d_27">
            <g
               id="g254">
              <use
                 style="fill:#262626;stroke:#262626;"
                 x="73.125"
                 xlink:href="#m219da94a98"
                 y="81.0"
                 id="use256" />
            </g>
          </g>
          <g
             id="line2d_28">
            <g
               id="g259">
              <use
                 style="fill:#262626;stroke:#262626;"
                 x="526.5"
                 xlink:href="#m219da94a98"
                 y="81.0"
                 id="use261" />
            </g>
          </g>
          <g
             id="text_11">
            <!-- 14 -->
            <g
               style="fill:#262626;"
               transform="translate(56.0578125 83.5859375)scale(0.1 -0.1)"
               id="g264">
              <use
                 xlink:href="#LiberationSans-31"
                 id="use266" />
              <use
                 x="55.615234375"
                 xlink:href="#LiberationSans-34"
                 id="use268" />
            </g>
          </g>
        </g>
        <g
           id="ytick_9">
          <g
             id="line2d_29">
            <path
               clip-path="url(#p6bb970f2e9)"
               d=" M73.125 40.5 L526.5 40.5"
               style="fill:none;stroke:#cccccc;stroke-linecap:round;"
               id="path272" />
          </g>
          <g
             id="line2d_30">
            <g
               id="g275">
              <use
                 style="fill:#262626;stroke:#262626;"
                 x="73.125"
                 xlink:href="#m219da94a98"
                 y="40.5"
                 id="use277" />
            </g>
          </g>
          <g
             id="line2d_31">
            <g
               id="g280">
              <use
                 style="fill:#262626;stroke:#262626;"
                 x="526.5"
                 xlink:href="#m219da94a98"
                 y="40.5"
                 id="use282" />
            </g>
          </g>
          <g
             id="text_12">
            <!-- 16 -->
            <g
               style="fill:#262626;"
               transform="translate(56.2046875 43.0859375)scale(0.1 -0.1)"
               id="g285">
              <use
                 xlink:href="#LiberationSans-31"
                 id="use287" />
              <use
                 x="55.615234375"
                 xlink:href="#LiberationSans-36"
                 id="use289" />
            </g>
          </g>
        </g>
        <g
           id="text_13"
           transform="translate(0,12.8)"
           style="stroke-linecap:butt;stroke-linejoin:round">
          <!-- mean(Speedup) -->
          <defs
             id="defs292">
            <path
               d="m 6.20312,25.9844 q 0,6.7812 1.01563,12.9844 1.03125,6.2031 3.21875,11.9062 2.2031,5.7188 5.625,11.0781 3.4219,5.375 8.1563,10.5157 l 8.5,0 Q 28.125,67.3281 24.7812,61.9375 21.4375,56.5469 19.2812,50.7969 17.1406,45.0625 16.0938,38.8594 15.0469,32.6719 15.0469,25.875 q 0,-6.7812 1.0469,-12.9844 1.0468,-6.2031 3.1874,-11.968725 2.1563,-5.749995 5.5,-11.124975 3.3438,-5.375 7.9376,-10.5 l -8.5,0 q -4.7344,5.125 -8.1563,10.5 Q 12.6406,-4.82812 10.4375,0.875 8.25,6.59375 7.21875,12.7656 6.20312,18.9531 6.20312,25.7812 z"
               id="LiberationSans-28"
               inkscape:connector-curvature="0"
               style="stroke-linecap:butt;stroke-linejoin:round" />
            <path
               d="m 40.2812,0 0,33.5 q 0,3.8594 -0.5624,6.4375 -0.5626,2.5937 -1.8282,4.1719 -1.2656,1.5937 -3.3437,2.25 -2.0781,0.6562 -5.1563,0.6562 -3.125,0 -5.6406,-1.0937 -2.5156,-1.0938 -4.2969,-3.1719 -1.7812,-2.0781 -2.7656,-5.125 -0.9687,-3.0469 -0.9687,-7.0156 l 0,-30.6094 -8.7813,0 0,41.5469 q 0,1.6719 -0.03125,3.5 Q 6.89062,46.875 6.82812,48.5 6.78125,50.1406 6.73438,51.3125 6.6875,52.4844 6.64062,52.8281 l 8.29688,0 q 0.0469,-0.2343 0.0937,-1.3125 0.0626,-1.0781 0.125,-2.4687 0.0782,-1.3907 0.125,-2.8281 0.0469,-1.4376 0.0469,-2.4219 l 0.1563,0 q 1.2656,2.2969 2.7812,4.1562 1.5156,1.8594 3.5156,3.1407 2,1.2968 4.5782,2 2.5937,0.7187 6.0156,0.7187 4.3906,0 7.5625,-1.0781 3.1719,-1.0782 5.2187,-3.3282 2.0626,-2.2343 3.0157,-5.7812 0.9531,-3.5312 0.9531,-8.4219 L 49.125,0 z"
               id="LiberationSans-6e"
               inkscape:connector-curvature="0"
               style="stroke-linecap:butt;stroke-linejoin:round" />
            <path
               d="m 51.4219,26.6562 q 0,-6 -0.9844,-11.0781 -0.9687,-5.0781 -3.25,-8.74998 -2.2656,-3.65624 -6,-5.73437 -3.7344,-2.078125 -9.2031,-2.078125 -5.6719,0 -9.9219,2.156255 -4.2344,2.15624 -6.4844,7.03124 l -0.25,0 Q 15.375,8.10938 15.4062,7.32812 15.4375,6.54688 15.4531,5.375 15.4844,4.20312 15.5,2.75 15.5312,1.3125 15.5312,-0.09375 l 0,-20.65625 -8.79682,0 0,62.7969 q 0,1.9062 -0.03126,3.6562 Q 6.6875,47.4688 6.64062,48.9062 6.59375,50.3438 6.54688,51.3594 6.5,52.3906 6.45312,52.8281 l 8.48438,0 q 0.0469,-0.1406 0.125,-1.0312 0.0781,-0.875 0.1406,-2.125 0.0781,-1.2344 0.1563,-2.6563 0.0781,-1.4062 0.0781,-2.6718 l 0.1875,0 q 1.2188,2.5312 2.7812,4.3124 1.5626,1.7813 3.5626,2.9219 2,1.1563 4.4687,1.6719 2.4687,0.5156 5.5469,0.5156 5.4687,0 9.2031,-1.9531 3.7344,-1.9531 6,-5.5 2.2813,-3.5313 3.25,-8.5469 0.9844,-5 0.9844,-11.1094 m -9.2344,-0.1874 q 0,4.875 -0.5937,8.6874 -0.5782,3.8126 -2.0157,6.4376 -1.4375,2.6406 -3.8437,4 -2.3906,1.375 -6,1.375 -2.9219,0 -5.5156,-0.8282 Q 21.625,45.3125 19.7031,42.9688 17.7812,40.625 16.6562,36.5 q -1.125,-4.125 -1.125,-10.7188 0,-5.6093 0.9219,-9.5 0.9375,-3.875 2.7188,-6.2656 1.7812,-2.3906 4.4062,-3.4531 2.6407,-1.04688 6.0625,-1.04688 3.6563,0 6.0782,1.40626 2.4218,1.42187 3.8593,4.10932 1.4375,2.6876 2.0157,6.5626 0.5937,3.8906 0.5937,8.875"
               id="LiberationSans-70"
               inkscape:connector-curvature="0"
               style="stroke-linecap:butt;stroke-linejoin:round" />
            <path
               d="m 20.2188,-0.984375 q -7.9688,0 -11.9688,4.203125 -4,4.20313 -4,11.53125 0,5.2188 1.96875,8.5625 1.98437,3.3437 5.17185,5.25 3.2032,1.9063 7.2969,2.6406 4.1094,0.7344 8.3594,0.8281 l 11.875,0.2032 0,2.875 q 0,3.2656 -0.6875,5.5625 -0.6875,2.2969 -2.1094,3.7031 -1.4062,1.4219 -3.5312,2.0781 -2.125,0.6719 -5,0.6719 -2.5469,0 -4.5938,-0.375 -2.0469,-0.3594 -3.5625,-1.3125 -1.5156,-0.9531 -2.4531,-2.5937 -0.9219,-1.625 -1.2188,-4.125 l -9.17185,0.8281 q 0.48437,3.125 1.84375,5.7343 1.375,2.625 3.8906,4.5157 2.5157,1.9062 6.2969,2.9531 3.7812,1.0625 9.1562,1.0625 9.9688,0 14.9844,-4.5781 5.0313,-4.5625 5.0313,-13.2032 l 0,-22.75 q 0,-3.9062 1.0312,-5.89058 1.0313,-1.96874 3.9063,-1.96874 0.7344,0 1.4687,0.09374 0.7344,0.09376 1.4063,0.25 l 0,-5.468745 q -1.6563,-0.390625 -3.2969,-0.578125 -1.625,-0.203125 -3.4844,-0.203125 -2.4843,0 -4.2656,0.65625 -1.7813,0.65625 -2.9063,2.000005 -1.125,1.34374 -1.7187,3.3125 -0.5781,1.98437 -0.7344,4.62502 l -0.2812,0 Q 37.5,7.5625 35.8125,5.51562 34.125,3.46875 31.875,2.03125 29.6406,0.59375 26.7812,-0.1875 23.9219,-0.984375 20.2188,-0.984375 m 2,6.593755 q 4.2031,0 7.3437,1.53124 3.1563,1.54688 5.2187,3.93748 2.0782,2.4063 3.1094,5.2344 1.0313,2.8281 1.0313,5.4219 l 0,4.3437 -9.625,-0.2031 Q 26.0781,25.8281 23.1719,25.4062 20.2656,25 18.0625,23.7812 15.875,22.5625 14.5781,20.3594 q -1.2969,-2.1875 -1.2969,-5.7656 0,-4.2969 2.3126,-6.64068 2.3281,-2.34374 6.625,-2.34374"
               id="LiberationSans-61"
               inkscape:connector-curvature="0"
               style="stroke-linecap:butt;stroke-linejoin:round" />
            <path
               d="m 27.0938,25.7812 q 0,-6.8281 -1.0313,-13.0156 -1.0156,-6.17185 -3.2187,-11.8906 -2.1876,-5.70312 -5.6094,-11.0781 -3.4219,-5.375 -8.15628,-10.5 l -8.48437,0 q 4.57813,5.125 7.92187,10.5 Q 11.8594,-4.82812 14,0.921875 16.1562,6.6875 17.2031,12.8906 q 1.0625,6.2032 1.0625,12.9844 0,6.7969 -1.0625,12.9844 Q 16.1562,45.0625 14,50.7969 11.8594,56.5469 8.51562,61.9375 5.17188,67.3281 0.59375,72.4688 l 8.48437,0 q 4.73438,-5.1407 8.15628,-10.5157 3.4218,-5.3593 5.6094,-11.0781 2.2031,-5.7031 3.2187,-11.9062 1.0313,-6.2032 1.0313,-12.9844 z"
               id="LiberationSans-29"
               inkscape:connector-curvature="0"
               style="stroke-linecap:butt;stroke-linejoin:round" />
          </defs>
          <g
             style="fill:#262626;stroke-linecap:butt;stroke-linejoin:round"
             transform="matrix(0,-0.11,-0.11,0,48.775312,241.23289)"
             id="g299">
            <use
               x="283.44727"
               xlink:href="#LiberationSans-53"
               id="use311"
               style="stroke-linecap:butt;stroke-linejoin:round"
               y="0"
               width="585"
               height="405" />
            <use
               x="350.14648"
               xlink:href="#LiberationSans-70"
               id="use313"
               style="stroke-linecap:butt;stroke-linejoin:round"
               y="0"
               width="585"
               height="405" />
            <use
               x="405.76172"
               xlink:href="#LiberationSans-65"
               id="use315"
               style="stroke-linecap:butt;stroke-linejoin:round"
               y="0"
               width="585"
               height="405" />
            <use
               x="461.37695"
               xlink:href="#LiberationSans-65"
               id="use317"
               style="stroke-linecap:butt;stroke-linejoin:round"
               y="0"
               width="585"
               height="405" />
            <use
               x="516.99219"
               xlink:href="#LiberationSans-64"
               id="use319"
               style="stroke-linecap:butt;stroke-linejoin:round"
               y="0"
               width="585"
               height="405" />
            <use
               x="572.60742"
               xlink:href="#LiberationSans-75"
               id="use321"
               style="stroke-linecap:butt;stroke-linejoin:round"
               y="0"
               width="585"
               height="405" />
            <use
               x="628.22266"
               xlink:href="#LiberationSans-70"
               id="use323"
               style="stroke-linecap:butt;stroke-linejoin:round"
               y="0"
               width="585"
               height="405" />
          </g>
        </g>
      </g>
      <g
         id="patch_3">
        <path
           clip-path="url(#p6bb970f2e9)"
           d=" M95.7937 364.5 L156.244 364.5 L156.244 289.575 L95.7937 289.575 z "
           style="fill:#5875a4;stroke:#000000;stroke-width:0.3;"
           id="path328" />
      </g>
      <g
         id="patch_4">
        <path
           clip-path="url(#p6bb970f2e9)"
           d=" M322.481 364.5 L382.931 364.5 L382.931 281.475 L322.481 281.475 z "
           style="fill:#5875a4;stroke:#000000;stroke-width:0.3;"
           id="path331" />
      </g>
      <g
         id="patch_5">
        <path
           clip-path="url(#p6bb970f2e9)"
           d=" M156.244 364.5 L216.694 364.5 L216.694 68.85 L156.244 68.85 z "
           style="fill:#5f9e6e;stroke:#000000;stroke-width:0.3;"
           id="path334" />
      </g>
      <g
         id="patch_6">
        <path
           clip-path="url(#p6bb970f2e9)"
           d=" M382.931 364.5 L443.381 364.5 L443.381 89.1 L382.931 89.1 z "
           style="fill:#5f9e6e;stroke:#000000;stroke-width:0.3;"
           id="path337" />
      </g>
      <g
         id="patch_7">
        <path
           clip-path="url(#p6bb970f2e9)"
           d=" M216.694 364.5 L277.144 364.5 L277.144 48.6 L216.694 48.6 z "
           style="fill:#b55d60;stroke:#000000;stroke-width:0.3;"
           id="path340" />
      </g>
      <g
         id="patch_8">
        <path
           clip-path="url(#p6bb970f2e9)"
           d=" M443.381 364.5 L503.831 364.5 L503.831 70.875 L443.381 70.875 z "
           style="fill:#b55d60;stroke:#000000;stroke-width:0.3;"
           id="path343" />
      </g>
      <g
         id="line2d_32">
        <path
           clip-path="url(#p6bb970f2e9)"
           style="fill:none;stroke:#424242;stroke-linecap:round;stroke-width:3.15;"
           id="path346" />
      </g>
      <g
         id="line2d_33">
        <path
           clip-path="url(#p6bb970f2e9)"
           style="fill:none;stroke:#424242;stroke-linecap:round;stroke-width:3.15;"
           id="path349" />
      </g>
      <g
         id="line2d_34">
        <path
           clip-path="url(#p6bb970f2e9)"
           style="fill:none;stroke:#424242;stroke-linecap:round;stroke-width:3.15;"
           id="path352" />
      </g>
      <g
         id="line2d_35">
        <path
           clip-path="url(#p6bb970f2e9)"
           style="fill:none;stroke:#424242;stroke-linecap:round;stroke-width:3.15;"
           id="path355" />
      </g>
      <g
         id="line2d_36">
        <path
           clip-path="url(#p6bb970f2e9)"
           style="fill:none;stroke:#424242;stroke-linecap:round;stroke-width:3.15;"
           id="path358" />
      </g>
      <g
         id="line2d_37">
        <path
           clip-path="url(#p6bb970f2e9)"
           style="fill:none;stroke:#424242;stroke-linecap:round;stroke-width:3.15;"
           id="path361" />
      </g>
      <g
         id="patch_9">
        <path
           d=" M73.125 40.5 L526.5 40.5"
           style="fill:none;stroke:#cccccc;"
           id="path364" />
      </g>
      <g
         id="patch_10">
        <path
           d=" M526.5 364.5 L526.5 40.5"
           style="fill:none;stroke:#cccccc;"
           id="path367" />
      </g>
      <g
         id="patch_11">
        <path
           d=" M73.125 364.5 L526.5 364.5"
           style="fill:none;stroke:#cccccc;"
           id="path370" />
      </g>
      <g
         id="patch_12">
        <path
           d=" M73.125 364.5 L73.125 40.5"
           style="fill:none;stroke:#cccccc;"
           id="path373" />
      </g>
      <g
         id="legend_1">
        <g
           id="text_14">
          <!-- Method -->
          <defs
             id="defs377">
            <path
               d=" M51.4219 26.4688 Q51.4219 12.5938 45.3125 5.79688 Q39.2031 -0.984375 27.5938 -0.984375 Q22.0781 -0.984375 17.7188 0.671875 Q13.375 2.34375 10.375 5.76562 Q7.375 9.1875 5.78125 14.3281 Q4.20312 19.4844 4.20312 26.4688 Q4.20312 53.8125 27.875 53.8125 Q34.0312 53.8125 38.5 52.0938 Q42.9688 50.3906 45.8281 46.9688 Q48.6875 43.5625 50.0469 38.4219 Q51.4219 33.2969 51.4219 26.4688 M42.1875 26.4688 Q42.1875 32.625 41.2344 36.625 Q40.2812 40.625 38.4531 43.0156 Q36.625 45.4062 33.9844 46.3594 Q31.3438 47.3125 28.0312 47.3125 Q24.6562 47.3125 21.9375 46.3125 Q19.2344 45.3125 17.3281 42.8906 Q15.4375 40.4844 14.4219 36.4688 Q13.4219 32.4688 13.4219 26.4688 Q13.4219 20.3125 14.5 16.2812 Q15.5781 12.25 17.4531 9.85938 Q19.3438 7.46875 21.9062 6.48438 Q24.4688 5.51562 27.4844 5.51562 Q30.8594 5.51562 33.5938 6.46875 Q36.3281 7.42188 38.2344 9.8125 Q40.1406 12.2031 41.1562 16.25 Q42.1875 20.3125 42.1875 26.4688"
               id="LiberationSans-6f" />
            <path
               d=" M15.4844 43.7969 Q16.9375 46.4844 18.6406 48.3594 Q20.3594 50.25 22.4062 51.4688 Q24.4688 52.6875 26.9062 53.25 Q29.3438 53.8125 32.375 53.8125 Q37.4531 53.8125 40.7031 52.4375 Q43.9531 51.0781 45.8281 48.6094 Q47.7031 46.1406 48.4062 42.7188 Q49.125 39.3125 49.125 35.2031 L49.125 0 L40.2812 0 L40.2812 33.5 Q40.2812 36.8594 39.8594 39.3906 Q39.4531 41.9375 38.2812 43.625 Q37.1094 45.3125 34.9531 46.1562 Q32.8125 47.0156 29.3906 47.0156 Q26.2656 47.0156 23.75 45.8906 Q21.2344 44.7812 19.4531 42.7188 Q17.6719 40.6719 16.6875 37.7344 Q15.7188 34.8125 15.7188 31.1562 L15.7188 0 L6.9375 0 L6.9375 72.4688 L15.7188 72.4688 L15.7188 53.6094 Q15.7188 52 15.6719 50.3906 Q15.625 48.7812 15.5469 47.4062 Q15.4844 46.0469 15.4219 45.0938 Q15.375 44.1406 15.3281 43.7969 z "
               id="LiberationSans-68" />
            <path
               d=" M27.0469 0.390625 Q25.0469 -0.140625 22.9688 -0.453125 Q20.9062 -0.78125 18.1719 -0.78125 Q7.625 -0.78125 7.625 11.1875 L7.625 46.4375 L1.51562 46.4375 L1.51562 52.8281 L7.95312 52.8281 L10.5469 64.6562 L16.4062 64.6562 L16.4062 52.8281 L26.1719 52.8281 L26.1719 46.4375 L16.4062 46.4375 L16.4062 13.0938 Q16.4062 9.28125 17.6406 7.73438 Q18.8906 6.20312 21.9688 6.20312 Q23.25 6.20312 24.4375 6.39062 Q25.6406 6.59375 27.0469 6.89062 z "
               id="LiberationSans-74" />
          </defs>
          <g
             style="fill:#262626;"
             transform="translate(83.58790625 56.275828125)scale(0.0935 -0.0935)"
             id="g382">
            <use
               xlink:href="#LiberationSans-4d"
               id="use384" />
            <use
               x="83.30078125"
               xlink:href="#LiberationSans-65"
               id="use386" />
            <use
               x="138.916015625"
               xlink:href="#LiberationSans-74"
               id="use388" />
            <use
               x="166.69921875"
               xlink:href="#LiberationSans-68"
               id="use390" />
            <use
               x="222.314453125"
               xlink:href="#LiberationSans-6f"
               id="use392" />
            <use
               x="277.9296875"
               xlink:href="#LiberationSans-64"
               id="use394" />
          </g>
        </g>
        <g
           id="patch_13">
          <path
             d=" M82.125 70.4628 L102.125 70.4628 L102.125 63.4628 L82.125 63.4628 z "
             style="fill:#5875a4;stroke:#000000;stroke-width:0.3;"
             id="path397" />
        </g>
        <g
           id="text_15">
          <!-- 1 -->
          <g
             style="fill:#262626;"
             transform="translate(110.125 70.462828125)scale(0.1 -0.1)"
             id="g400">
            <use
               xlink:href="#LiberationSans-31"
               id="use402" />
          </g>
        </g>
        <g
           id="patch_14">
          <path
             d=" M82.125 84.7847 L102.125 84.7847 L102.125 77.7847 L82.125 77.7847 z "
             style="fill:#5f9e6e;stroke:#000000;stroke-width:0.3;"
             id="path405" />
        </g>
        <g
           id="text_16">
          <!-- 2 -->
          <g
             style="fill:#262626;"
             transform="translate(110.125 84.784703125)scale(0.1 -0.1)"
             id="g408">
            <use
               xlink:href="#LiberationSans-32"
               id="use410" />
          </g>
        </g>
        <g
           id="patch_15">
          <path
             d=" M82.125 99.1066 L102.125 99.1066 L102.125 92.1066 L82.125 92.1066 z "
             style="fill:#b55d60;stroke:#000000;stroke-width:0.3;"
             id="path413" />
        </g>
        <g
           id="text_17">
          <!-- 3 -->
          <defs
             id="defs416">
            <path
               d=" M51.2188 19 Q51.2188 14.2656 49.6719 10.5469 Q48.1406 6.84375 45.1875 4.26562 Q42.2344 1.70312 37.8594 0.359375 Q33.5 -0.984375 27.875 -0.984375 Q21.4844 -0.984375 17.1094 0.609375 Q12.75 2.20312 9.90625 4.8125 Q7.07812 7.42188 5.65625 10.7656 Q4.25 14.1094 3.8125 17.6719 L12.8906 18.5 Q13.2812 15.7656 14.3281 13.5156 Q15.375 11.2812 17.1875 9.67188 Q19 8.0625 21.625 7.17188 Q24.2656 6.29688 27.875 6.29688 Q34.5156 6.29688 38.2969 9.5625 Q42.0938 12.8438 42.0938 19.2812 Q42.0938 23.0938 40.4062 25.4062 Q38.7188 27.7344 36.2031 29.0312 Q33.6875 30.3281 30.7344 30.7656 Q27.7812 31.2031 25.2969 31.2031 L20.3125 31.2031 L20.3125 38.8125 L25.0938 38.8125 Q27.5938 38.8125 30.2656 39.3281 Q32.9531 39.8438 35.1719 41.1875 Q37.4062 42.5312 38.8438 44.8281 Q40.2812 47.125 40.2812 50.6875 Q40.2812 56.2031 37.0312 59.3906 Q33.7969 62.5938 27.3906 62.5938 Q21.5781 62.5938 17.9844 59.6094 Q14.4062 56.6406 13.8125 51.2188 L4.98438 51.9062 Q5.51562 56.4531 7.46875 59.8125 Q9.42188 63.1875 12.4219 65.4062 Q15.4375 67.625 19.2812 68.7188 Q23.1406 69.8281 27.4844 69.8281 Q33.25 69.8281 37.3906 68.375 Q41.5469 66.9375 44.1875 64.4688 Q46.8281 62.0156 48.0625 58.6875 Q49.3125 55.375 49.3125 51.6094 Q49.3125 48.5781 48.4844 45.9375 Q47.6562 43.3125 45.8906 41.2031 Q44.1406 39.1094 41.4219 37.5938 Q38.7188 36.0781 34.9062 35.2969 L34.9062 35.1094 Q39.0625 34.6719 42.1406 33.2188 Q45.2188 31.7812 47.2188 29.625 Q49.2188 27.4844 50.2188 24.75 Q51.2188 22.0156 51.2188 19"
               id="LiberationSans-33" />
          </defs>
          <g
             style="fill:#262626;"
             transform="translate(110.125 99.106578125)scale(0.1 -0.1)"
             id="g419">
            <use
               xlink:href="#LiberationSans-33"
               id="use421" />
          </g>
        </g>
      </g>
    </g>
  </g>
  <defs
     id="defs423">
    <clipPath
       id="p6bb970f2e9">
      <rect
         height="324.0"
         width="453.375"
         x="73.125"
         y="40.5"
         id="rect426" />
    </clipPath>
  </defs>
</svg>
