<?xml version="1.0" encoding="UTF-8" standalone="no"?>
<svg
   xmlns:dc="http://purl.org/dc/elements/1.1/"
   xmlns:cc="http://creativecommons.org/ns#"
   xmlns:rdf="http://www.w3.org/1999/02/22-rdf-syntax-ns#"
   xmlns:svg="http://www.w3.org/2000/svg"
   xmlns="http://www.w3.org/2000/svg"
   xmlns:sodipodi="http://sodipodi.sourceforge.net/DTD/sodipodi-0.dtd"
   xmlns:inkscape="http://www.inkscape.org/namespaces/inkscape"
   version="1.1"
   viewBox="0.0 0.0 427.6036745406824 259.0866141732283"
   fill="none"
   stroke="none"
   stroke-linecap="square"
   stroke-miterlimit="10"
   id="svg2"
   inkscape:version="0.48.4 r9939"
   width="100%"
   height="100%"
   sodipodi:docname="VectorialNotationANMIC.svg">
  <metadata
     id="metadata177">
    <rdf:RDF>
      <cc:Work
         rdf:about="">
        <dc:format>image/svg+xml</dc:format>
        <dc:type
           rdf:resource="http://purl.org/dc/dcmitype/StillImage" />
      </cc:Work>
    </rdf:RDF>
  </metadata>
  <defs
     id="defs175" />
  <sodipodi:namedview
     pagecolor="#ffffff"
     bordercolor="#666666"
     borderopacity="1"
     objecttolerance="10"
     gridtolerance="10"
     guidetolerance="10"
     inkscape:pageopacity="0"
     inkscape:pageshadow="2"
     inkscape:window-width="640"
     inkscape:window-height="480"
     id="namedview173"
     showgrid="false"
     inkscape:zoom="0.6454575"
     inkscape:cx="102.74845"
     inkscape:cy="129.54331"
     inkscape:window-x="0"
     inkscape:window-y="37"
     inkscape:window-maximized="0"
     inkscape:current-layer="svg2" />
  <clipPath
     id="p.0">
    <path
       d="m0 0l427.60367 0l0 259.0866l-427.60367 0l0 -259.0866z"
       clip-rule="nonzero"
       id="path5" />
  </clipPath>
  <path
     style="fill:#d9d2e9;fill-rule:nonzero"
     inkscape:connector-curvature="0"
     d="m 28.392418,25.996429 0,0 C 52.866898,1.0609788 108.31307,15.796809 152.23495,58.909819 l 0,0 c 43.92184,43.112981 59.68707,98.277141 35.21258,123.212591 l 0,0 c -24.47447,24.93543 -79.92065,10.19962 -123.842512,-32.91339 l 0,0 C 19.683158,106.09601 3.917948,50.931859 28.392418,25.996429 z"
     id="path357" />
  <path
     style="stroke:#000000;stroke-width:1;stroke-linecap:butt;stroke-linejoin:round"
     inkscape:connector-curvature="0"
     d="m 28.392418,25.996429 0,0 C 52.866898,1.0609788 108.31307,15.796809 152.23495,58.909819 l 0,0 c 43.92184,43.112981 59.68707,98.277141 35.21258,123.212591 l 0,0 c -24.47447,24.93543 -79.92065,10.19962 -123.842512,-32.91339 l 0,0 C 19.683158,106.09601 3.917948,50.931859 28.392418,25.996429 z"
     id="path359" />
  <path
     style="fill:#d9ead3;fill-rule:nonzero"
     inkscape:connector-curvature="0"
     d="m 243.79398,182.00169 0,0 c 24.55277,25.00501 80.16816,10.21982 124.2205,-33.02362 l 0,0 c 44.05231,-43.24348 59.85983,-98.569801 35.30707,-123.574811 l 0,0 C 378.76881,0.39821836 323.1534,15.183409 279.10108,58.426879 l 0,0 c -44.05232,43.243441 -59.85984,98.569771 -35.3071,123.574811 z"
     id="path361" />
  <path
     style="stroke:#000000;stroke-width:1;stroke-linecap:butt;stroke-linejoin:round"
     inkscape:connector-curvature="0"
     d="m 243.79398,182.00169 0,0 c 24.55277,25.00501 80.16816,10.21982 124.2205,-33.02362 l 0,0 c 44.05231,-43.24348 59.85983,-98.569801 35.30707,-123.574811 l 0,0 C 378.76881,0.39821836 323.1534,15.183409 279.10108,58.426879 l 0,0 c -44.05232,43.243441 -59.85984,98.569771 -35.3071,123.574811 z"
     id="path363" />
  <path
     style="fill:#000000;fill-opacity:0;fill-rule:nonzero"
     inkscape:connector-curvature="0"
     d="m 144.03821,173.59232 140.50394,0"
     id="path365" />
  <path
     style="stroke:#000000;stroke-width:2;stroke-linecap:butt;stroke-linejoin:round"
     inkscape:connector-curvature="0"
     d="m 151.61821,173.59232 125.34395,0"
     id="path367" />
  <path
     style="fill:#000000;fill-rule:nonzero;stroke:#000000;stroke-width:2;stroke-linecap:butt"
     inkscape:connector-curvature="0"
     d="m 145.03821,173.59232 c 0,-1.81702 1.47298,-3.29001 3.28999,-3.29001 1.81702,0 3.29001,1.47299 3.29001,3.29001 0,1.81702 -1.47299,3.28998 -3.29001,3.28998 -1.81701,0 -3.28999,-1.47296 -3.28999,-3.28998 z"
     id="path369" />
  <path
     style="fill:#000000;fill-rule:nonzero;stroke:#000000;stroke-width:2;stroke-linecap:butt"
     inkscape:connector-curvature="0"
     d="m 283.54215,173.59232 c 0,1.81702 -1.47299,3.28998 -3.29001,3.28998 -1.81702,0 -3.29001,-1.47296 -3.29001,-3.28998 0,-1.81702 1.47299,-3.29001 3.29001,-3.29001 1.81702,0 3.29001,1.47299 3.29001,3.29001 z"
     id="path371" />
  <path
     style="fill:#000000;fill-opacity:0;fill-rule:nonzero"
     inkscape:connector-curvature="0"
     d="m 146.65496,173.59227 65.44882,0"
     id="path373" />
  <path
     style="stroke:#000000;stroke-width:2;stroke-linecap:butt;stroke-linejoin:round;stroke-dasharray:8.00000016, 6.00000012"
     inkscape:connector-curvature="0"
     d="m 146.65496,173.59227 58.59467,0"
     id="path375" />
  <path
     style="fill:#000000;fill-rule:evenodd;stroke:#000000;stroke-width:2;stroke-linecap:butt"
     inkscape:connector-curvature="0"
     d="m 205.24961,173.59227 -2.24916,2.24918 6.17953,-2.24918 -6.17953,-2.24915 z"
     id="path377" />
  <path
     style="fill:#000000;fill-opacity:0;fill-rule:nonzero"
     inkscape:connector-curvature="0"
     d="m 340.70216,62.172369 41.88977,0 0,31.401579 -41.88977,0 z"
     id="path379" />
  <path
     style="fill:#000000;fill-rule:nonzero"
     inkscape:connector-curvature="0"
     d="m 355.96779,78.732969 q 0.6875,0 1.21875,0.10937 l -0.20313,1.4375 q -0.64062,-0.14062 -1.125,-0.14062 -1.23437,0 -2.10937,1 -0.875,1 -0.875,2.5 l 0,5.45312 -1.53125,0 0,-10.17187 1.26562,0 0.17188,1.89062 0.0781,0 q 0.5625,-1 1.35938,-1.53125 0.79687,-0.54687 1.75,-0.54687 z"
     id="path381" />
  <path
     d="m 361.45833,91.092348 -3.75,0 0,-0.562499 1.5,-1.51562 q 0.6875,-0.6875 0.90625,-0.98438 0.21875,-0.29687 0.32812,-0.57812 0.10938,-0.28125 0.10938,-0.60938 0,-0.45312 -0.28125,-0.71875 -0.26563,-0.26562 -0.76563,-0.26562 -0.34375,0 -0.67187,0.125 -0.3125,0.10937 -0.70313,0.40625 l -0.34375,-0.4375 q 0.78125,-0.65625 1.71875,-0.65625 0.79688,0 1.25,0.42187 0.46875,0.40625 0.46875,1.09375 0,0.54688 -0.3125,1.07813 -0.29687,0.53125 -1.14062,1.34375 l -1.25,1.21875 0,0.0312 2.9375,0 0,0.609369 z"
     id="path383"
     inkscape:connector-curvature="0"
     style="fill:#000000;fill-rule:nonzero" />
  <path
     style="fill:#000000;fill-opacity:0;fill-rule:nonzero"
     inkscape:connector-curvature="0"
     d="m 347.25072,59.671009 32.28348,0 0,22.58267 -32.28348,0 z"
     id="path385" />
  <path
     d="m 362.42259,75.491639 q 0,1.46875 -0.46875,2.20313 -0.45312,0.73437 -1.42187,0.73437 -0.92188,0 -1.40625,-0.75 -0.46875,-0.75 -0.46875,-2.1875 0,-1.5 0.45312,-2.21875 0.46875,-0.71875 1.42188,-0.71875 0.9375,0 1.40625,0.75 0.48437,0.75 0.48437,2.1875 z m -3.10937,0 q 0,1.23438 0.28125,1.8125 0.29687,0.5625 0.9375,0.5625 0.65625,0 0.9375,-0.57812 0.29687,-0.57813 0.29687,-1.79688 0,-1.23437 -0.29687,-1.79687 -0.28125,-0.57813 -0.9375,-0.57813 -0.64063,0 -0.9375,0.5625 -0.28125,0.5625 -0.28125,1.8125 z"
     id="path387"
     inkscape:connector-curvature="0"
     style="fill:#000000;fill-rule:nonzero" />
  <path
     style="fill:#cfe2f3;fill-rule:nonzero"
     inkscape:connector-curvature="0"
     d="m 332.88344,84.461149 0,0 6.80045,6.800449 6.80047,-6.800449 0,0 -6.80047,6.800449 6.80047,6.80044 0,0 -6.80047,-6.80044 -6.80045,6.80044 0,0 6.80045,-6.80044 z"
     id="path389" />
  <path
     style="stroke:#000000;stroke-width:1;stroke-linecap:butt;stroke-linejoin:round"
     inkscape:connector-curvature="0"
     d="m 332.88344,84.461149 0,0 6.80045,6.800449 6.80047,-6.800449 0,0 -6.80047,6.800449 6.80047,6.80044 0,0 -6.80047,-6.80044 -6.80045,6.80044 0,0 6.80045,-6.80044 z"
     id="path391" />
  <path
     style="fill:#000000;fill-opacity:0;fill-rule:nonzero"
     inkscape:connector-curvature="0"
     d="m 79.458158,61.228789 41.889762,0 0,31.401579 -41.889762,0 z"
     id="path393" />
  <path
     style="fill:#000000;fill-rule:nonzero"
     inkscape:connector-curvature="0"
     d="m 94.723778,77.789409 q 0.6875,0 1.21875,0.10938 l -0.20313,1.4375 q -0.64062,-0.14063 -1.125,-0.14063 -1.23437,0 -2.10937,1 -0.875,1 -0.875,2.5 l 0,5.45313 -1.53125,0 0,-10.17188 1.26562,0 0.17188,1.89063 0.0781,0 q 0.5625,-1 1.35938,-1.53125 0.79687,-0.54688 1.75,-0.54688 z"
     id="path395" />
  <path
     d="m 98.870568,90.148779 -0.64062,0 0,-4.07812 q 0,-0.5 0.0312,-0.95313 -0.0781,0.0781 -0.1875,0.17188 -0.0937,0.0937 -0.92188,0.76562 l -0.34375,-0.45312 1.51563,-1.17188 0.54687,0 0,5.71875 z"
     id="path397"
     inkscape:connector-curvature="0"
     style="fill:#000000;fill-rule:nonzero" />
  <path
     style="fill:#000000;fill-opacity:0;fill-rule:nonzero"
     inkscape:connector-curvature="0"
     d="m 86.006708,58.727449 32.283472,0 0,22.58267 -32.283472,0 z"
     id="path399" />
  <path
     d="m 101.17859,76.548069 q 0,1.46875 -0.46875,2.20313 -0.45313,0.73437 -1.421882,0.73437 -0.92187,0 -1.40625,-0.75 -0.46875,-0.75 -0.46875,-2.1875 0,-1.5 0.45313,-2.21875 0.46875,-0.71875 1.42187,-0.71875 0.937502,0 1.406252,0.75 0.48438,0.75 0.48438,2.1875 z m -3.109382,0 q 0,1.23438 0.28125,1.8125 0.29688,0.5625 0.9375,0.5625 0.65625,0 0.937502,-0.57812 0.29688,-0.57813 0.29688,-1.79688 0,-1.23437 -0.29688,-1.79687 -0.281252,-0.57813 -0.937502,-0.57813 -0.64062,0 -0.9375,0.5625 -0.28125,0.5625 -0.28125,1.8125 z"
     id="path401"
     inkscape:connector-curvature="0"
     style="fill:#000000;fill-rule:nonzero" />
  <path
     style="fill:#cfe2f3;fill-rule:nonzero"
     inkscape:connector-curvature="0"
     d="m 103.50284,85.404709 0,0 6.80046,6.800479 6.80046,-6.800479 0,0 -6.80046,6.800479 6.80046,6.80044 0,0 -6.80046,-6.80044 -6.80046,6.80044 0,0 6.80046,-6.80044 z"
     id="path403" />
  <path
     style="stroke:#000000;stroke-width:1;stroke-linecap:butt;stroke-linejoin:round"
     inkscape:connector-curvature="0"
     d="m 103.50284,85.404709 0,0 6.80046,6.800479 6.80046,-6.800479 0,0 -6.80046,6.800479 6.80046,6.80044 0,0 -6.80046,-6.80044 -6.80046,6.80044 0,0 6.80046,-6.80044 z"
     id="path405" />
  <path
     style="fill:#000000;fill-opacity:0;fill-rule:nonzero"
     inkscape:connector-curvature="0"
     d="m 20.707498,64.671049 41.88976,0 0,31.401579 -41.88976,0 z"
     id="path407" />
  <path
     style="fill:#000000;fill-rule:nonzero"
     inkscape:connector-curvature="0"
     d="m 35.973128,81.231659 q 0.6875,0 1.21875,0.10938 l -0.20313,1.4375 q -0.64062,-0.14063 -1.125,-0.14063 -1.23437,0 -2.10937,1 -0.875,1 -0.875,2.5 l 0,5.453129 -1.53125,0 0,-10.171879 1.26562,0 0.17188,1.89063 0.0781,0 q 0.5625,-1 1.35937,-1.53125 0.79688,-0.54688 1.75,-0.54688 z"
     id="path409" />
  <path
     d="m 40.119918,93.591038 -0.64063,0 0,-4.078119 q 0,-0.5 0.0312,-0.95313 -0.0781,0.0781 -0.1875,0.17188 -0.0937,0.0937 -0.92187,0.76562 l -0.34375,-0.45312 1.51562,-1.17188 0.54688,0 0,5.718749 z"
     id="path411"
     inkscape:connector-curvature="0"
     style="fill:#000000;fill-rule:nonzero" />
  <path
     style="fill:#000000;fill-rule:nonzero"
     inkscape:connector-curvature="0"
     d="m 44.838728,87.778569 0,0 c 0,-2.65271 2.15045,-4.80316 4.80316,-4.80316 l 0,0 c 1.27387,0 2.49557,0.50604 3.39634,1.40683 0.90076,0.90076 1.4068,2.12247 1.4068,3.39633 l 0,0 c 0,2.65271 -2.15044,4.803129 -4.80314,4.803129 l 0,0 c -2.65271,0 -4.80316,-2.150419 -4.80316,-4.803129 z"
     id="path413" />
  <path
     style="stroke:#000000;stroke-width:1;stroke-linecap:butt;stroke-linejoin:round"
     inkscape:connector-curvature="0"
     d="m 44.838728,87.778569 0,0 c 0,-2.65271 2.15045,-4.80316 4.80316,-4.80316 l 0,0 c 1.27387,0 2.49557,0.50604 3.39634,1.40683 0.90076,0.90076 1.4068,2.12247 1.4068,3.39633 l 0,0 c 0,2.65271 -2.15044,4.803129 -4.80314,4.803129 l 0,0 c -2.65271,0 -4.80316,-2.150419 -4.80316,-4.803129 z"
     id="path415" />
  <path
     style="fill:#000000;fill-rule:nonzero"
     inkscape:connector-curvature="0"
     d="m 311.45691,47.633109 0,0 c 0,-2.65271 2.15042,-4.80316 4.80313,-4.80316 l 0,0 c 1.2739,0 2.49558,0.50604 3.39636,1.4068 0.90077,0.90079 1.40681,2.12246 1.40681,3.39636 l 0,0 c 0,2.65271 -2.15046,4.80313 -4.80317,4.80313 l 0,0 c -2.65271,0 -4.80313,-2.15042 -4.80313,-4.80313 z"
     id="path417" />
  <path
     style="stroke:#000000;stroke-width:1;stroke-linecap:butt;stroke-linejoin:round"
     inkscape:connector-curvature="0"
     d="m 311.45691,47.633109 0,0 c 0,-2.65271 2.15042,-4.80316 4.80313,-4.80316 l 0,0 c 1.2739,0 2.49558,0.50604 3.39636,1.4068 0.90077,0.90079 1.40681,2.12246 1.40681,3.39636 l 0,0 c 0,2.65271 -2.15046,4.80313 -4.80317,4.80313 l 0,0 c -2.65271,0 -4.80313,-2.15042 -4.80313,-4.80313 z"
     id="path419" />
  <path
     style="fill:#000000;fill-opacity:0;fill-rule:nonzero"
     inkscape:connector-curvature="0"
     d="m 288.19843,24.671049 24.12598,0 0,31.40158 -24.12598,0 z"
     id="path421" />
  <path
     style="fill:#000000;fill-rule:nonzero"
     inkscape:connector-curvature="0"
     d="m 303.46405,41.231659 q 0.6875,0 1.21875,0.10938 l -0.20313,1.4375 q -0.64062,-0.14063 -1.125,-0.14063 -1.23437,0 -2.10937,1 -0.875,1 -0.875,2.5 l 0,5.45313 -1.53125,0 0,-10.17188 1.26562,0 0.17188,1.89063 0.0781,0 q 0.5625,-1 1.35938,-1.53125 0.79687,-0.54688 1.75,-0.54688 z"
     id="path423" />
  <path
     d="m 307.33905,53.351049 -3.75,0 0,-0.5625 1.5,-1.51563 q 0.6875,-0.6875 0.90625,-0.98437 0.21875,-0.29688 0.32813,-0.57813 0.10937,-0.28125 0.10937,-0.60937 0,-0.45313 -0.28125,-0.71875 -0.26562,-0.26563 -0.76562,-0.26563 -0.34375,0 -0.67188,0.125 -0.3125,0.10938 -0.70312,0.40625 l -0.34375,-0.4375 q 0.78125,-0.65625 1.71875,-0.65625 0.79687,0 1.25,0.42188 0.46875,0.40625 0.46875,1.09375 0,0.54687 -0.3125,1.07812 -0.29688,0.53125 -1.14063,1.34375 l -1.25,1.21875 0,0.0312 2.9375,0 0,0.60938 z"
     id="path425"
     inkscape:connector-curvature="0"
     style="fill:#000000;fill-rule:nonzero" />
  <path
     style="fill:#000000;fill-opacity:0;fill-rule:nonzero"
     inkscape:connector-curvature="0"
     d="M 146.65496,173.59227 274.93842,136.93086"
     id="path427" />
  <path
     style="stroke:#000000;stroke-width:1;stroke-linecap:butt;stroke-linejoin:round;stroke-dasharray:4.00000008, 3.00000006"
     inkscape:connector-curvature="0"
     d="m 146.65496,173.59227 124.9883,-35.7197"
     id="path429" />
  <path
     style="fill:#000000;fill-rule:evenodd;stroke:#000000;stroke-width:1;stroke-linecap:butt"
     inkscape:connector-curvature="0"
     d="m 271.64325,137.87257 -0.77228,1.39032 2.66184,-1.93033 -3.27985,-0.23227 z"
     id="path431" />
  <path
     style="fill:#000000;fill-rule:nonzero"
     inkscape:connector-curvature="0"
     d="m 274.22055,135.63312 0,0 c 0,-2.65271 2.15045,-4.80316 4.80316,-4.80316 l 0,0 c 1.27387,0 2.49558,0.50604 3.39633,1.4068 0.90076,0.90079 1.4068,2.12246 1.4068,3.39636 l 0,0 c 0,2.65271 -2.15042,4.80313 -4.80313,4.80313 l 0,0 c -2.65271,0 -4.80316,-2.15042 -4.80316,-4.80313 z"
     id="path433" />
  <path
     style="stroke:#000000;stroke-width:1;stroke-linecap:butt;stroke-linejoin:round"
     inkscape:connector-curvature="0"
     d="m 274.22055,135.63312 0,0 c 0,-2.65271 2.15045,-4.80316 4.80316,-4.80316 l 0,0 c 1.27387,0 2.49558,0.50604 3.39633,1.4068 0.90076,0.90079 1.4068,2.12246 1.4068,3.39636 l 0,0 c 0,2.65271 -2.15042,4.80313 -4.80313,4.80313 l 0,0 c -2.65271,0 -4.80316,-2.15042 -4.80316,-4.80313 z"
     id="path435" />
  <path
     style="fill:#000000;fill-opacity:0;fill-rule:nonzero"
     inkscape:connector-curvature="0"
     d="m 252.44635,102.92561 24.12598,0 0,31.40156 -24.12598,0 z"
     id="path437" />
  <path
     style="fill:#000000;fill-rule:nonzero"
     inkscape:connector-curvature="0"
     d="m 267.71198,119.48622 q 0.6875,0 1.21875,0.10938 l -0.20312,1.4375 q -0.64063,-0.14063 -1.125,-0.14063 -1.23438,0 -2.10938,1 -0.875,1 -0.875,2.5 l 0,5.45313 -1.53125,0 0,-10.17188 1.26563,0 0.17187,1.89063 0.0781,0 q 0.5625,-1 1.35937,-1.53125 0.79688,-0.54688 1.75,-0.54688 z"
     id="path439" />
  <path
     d="m 270.7901,131.6056 -0.65625,0 0,-4.28125 0.65625,0 0,4.28125 z m -0.70313,-5.4375 q 0,-0.23438 0.10938,-0.32813 0.10937,-0.10937 0.26562,-0.10937 0.15625,0 0.26563,0.10937 0.125,0.10938 0.125,0.32813 0,0.21875 -0.125,0.32812 -0.10938,0.0937 -0.26563,0.0937 -0.15625,0 -0.26562,-0.0937 -0.10938,-0.10937 -0.10938,-0.32812 z"
     id="path441"
     inkscape:connector-curvature="0"
     style="fill:#000000;fill-rule:nonzero" />
  <path
     style="fill:#000000;fill-opacity:0;fill-rule:nonzero"
     inkscape:connector-curvature="0"
     d="m 119.31762,148.30617 24.12598,0 0,31.40158 -24.12598,0 z"
     id="path443" />
  <path
     style="fill:#000000;fill-rule:nonzero"
     inkscape:connector-curvature="0"
     d="m 134.58324,164.8668 q 0.6875,0 1.21875,0.10938 l -0.20313,1.4375 q -0.64062,-0.14063 -1.125,-0.14063 -1.23437,0 -2.10937,1 -0.875,1 -0.875,2.5 l 0,5.45313 -1.53125,0 0,-10.17188 1.26562,0 0.17188,1.89063 0.0781,0 q 0.5625,-1 1.35938,-1.53125 0.79687,-0.54688 1.75,-0.54688 z"
     id="path445" />
  <path
     d="m 136.53637,173.53306 q -0.40625,0.95312 -0.89062,1.82812 -0.0312,0.0469 -0.0937,0.14063 -0.0625,0.0937 -0.10938,0.1875 -0.0469,0.0781 -0.0625,0.14062 -0.0156,0.0312 -0.0156,0.0937 0,0.23438 0.0781,0.40625 0.0937,0.15625 0.25,0.15625 0.1875,0 0.29688,-0.0937 0.125,-0.0937 0.21875,-0.42187 l 0.1875,0.0781 q -0.0469,0.20313 -0.14063,0.42188 -0.0781,0.21875 -0.26562,0.42187 -0.17188,0.1875 -0.39063,0.1875 -0.45312,0 -0.45312,-0.78125 0,-0.0781 0.0156,-0.20312 l -0.0156,0 q -0.26563,0.40625 -0.70313,0.70312 -0.4375,0.28125 -0.90625,0.28125 -0.54687,0 -0.84375,-0.34375 -0.29687,-0.35937 -0.29687,-0.92187 0,-0.84375 0.64062,-1.59375 0.64063,-0.76563 1.46875,-0.76563 0.25,0 0.42188,0.10938 0.1875,0.10937 0.26562,0.29687 0.0937,0.17188 0.14063,0.375 0.0469,0.1875 0.0469,0.39063 0,0.0781 0,0.14062 l 0.0156,0 0.48437,-1.23437 0.65625,0 z m -1.39062,1.04687 q 0,-0.9375 -0.67188,-0.9375 -0.40625,0 -0.75,0.45313 -0.34375,0.4375 -0.5,0.96875 -0.15625,0.53125 -0.15625,0.9375 0,0.375 0.125,0.64062 0.14063,0.25 0.45313,0.25 0.4375,0 0.79687,-0.42187 0.35938,-0.4375 0.53125,-0.95313 0.17188,-0.51562 0.17188,-0.9375 z"
     id="path447"
     inkscape:connector-curvature="0"
     style="fill:#000000;fill-rule:nonzero" />
  <path
     style="fill:#000000;fill-opacity:0;fill-rule:nonzero"
     inkscape:connector-curvature="0"
     d="m 155.24489,159.06982 24.12599,0 0,31.40158 -24.12599,0 z"
     id="path449" />
  <path
     style="fill:#000000;fill-rule:nonzero"
     inkscape:connector-curvature="0"
     d="m 170.16677,186.17732 q -2.25,0 -3.5625,-1.375 -1.29688,-1.375 -1.29688,-3.8125 0,-2.45312 1.20313,-3.90625 1.21875,-1.45312 3.26562,-1.45312 1.90625,0 3.01563,1.26562 1.125,1.25 1.125,3.3125 l 0,0.96875 -7.01563,0 q 0.0469,1.79688 0.90625,2.73438 0.85938,0.92187 2.42188,0.92187 1.64062,0 3.25,-0.6875 l 0,1.375 q -0.8125,0.34375 -1.54688,0.5 -0.73437,0.15625 -1.76562,0.15625 z m -0.40625,-9.25 q -1.23438,0 -1.96875,0.79688 -0.71875,0.79687 -0.84375,2.20312 l 5.3125,0 q 0,-1.45312 -0.65625,-2.21875 -0.64063,-0.78125 -1.84375,-0.78125 z"
     id="path451" />
  <path
     d="m 178.46364,184.29667 q -0.40625,0.95313 -0.89062,1.82813 -0.0312,0.0469 -0.0937,0.14062 -0.0625,0.0937 -0.10938,0.1875 -0.0469,0.0781 -0.0625,0.14063 -0.0156,0.0312 -0.0156,0.0937 0,0.23437 0.0781,0.40625 0.0937,0.15625 0.25,0.15625 0.1875,0 0.29688,-0.0937 0.125,-0.0937 0.21875,-0.42188 l 0.1875,0.0781 q -0.0469,0.20312 -0.14063,0.42187 -0.0781,0.21875 -0.26562,0.42188 -0.17188,0.1875 -0.39063,0.1875 -0.45312,0 -0.45312,-0.78125 0,-0.0781 0.0156,-0.20313 l -0.0156,0 q -0.26563,0.40625 -0.70313,0.70313 -0.4375,0.28125 -0.90625,0.28125 -0.54687,0 -0.84375,-0.34375 -0.29687,-0.35938 -0.29687,-0.92188 0,-0.84375 0.64062,-1.59375 0.64063,-0.76562 1.46875,-0.76562 0.25,0 0.42188,0.10937 0.1875,0.10938 0.26562,0.29688 0.0937,0.17187 0.14063,0.375 0.0469,0.1875 0.0469,0.39062 0,0.0781 0,0.14063 l 0.0156,0 0.48437,-1.23438 0.65625,0 z m -1.39062,1.04688 q 0,-0.9375 -0.67188,-0.9375 -0.40625,0 -0.75,0.45312 -0.34375,0.4375 -0.5,0.96875 -0.15625,0.53125 -0.15625,0.9375 0,0.375 0.125,0.64063 0.14063,0.25 0.45313,0.25 0.4375,0 0.79687,-0.42188 0.35938,-0.4375 0.53125,-0.95312 0.17188,-0.51563 0.17188,-0.9375 z"
     id="path453"
     inkscape:connector-curvature="0"
     style="fill:#000000;fill-rule:nonzero" />
  <path
     style="fill:#000000;fill-opacity:0;fill-rule:nonzero"
     inkscape:connector-curvature="0"
     d="m 191.31594,124.30622 34.4567,0 0,31.40158 -34.4567,0 z"
     id="path455" />
  <path
     style="fill:#000000;fill-rule:nonzero"
     inkscape:connector-curvature="0"
     d="m 206.58156,140.86686 q 0.6875,0 1.21875,0.10937 l -0.20312,1.4375 q -0.64063,-0.14062 -1.125,-0.14062 -1.23438,0 -2.10938,1 -0.875,1 -0.875,2.5 l 0,5.45312 -1.53125,0 0,-10.17187 1.26563,0 0.17187,1.89062 0.0781,0 q 0.5625,-1 1.35937,-1.53125 0.79688,-0.54687 1.75,-0.54687 z"
     id="path457" />
  <path
     d="m 207.27523,153.22624 -0.65625,0 0,-4.28125 0.65625,0 0,4.28125 z m -0.70313,-5.4375 q 0,-0.23437 0.10938,-0.32812 0.10937,-0.10938 0.26562,-0.10938 0.15625,0 0.26563,0.10938 0.125,0.10937 0.125,0.32812 0,0.21875 -0.125,0.32813 -0.10938,0.0937 -0.26563,0.0937 -0.15625,0 -0.26562,-0.0937 -0.10938,-0.10938 -0.10938,-0.32813 z"
     id="path459"
     inkscape:connector-curvature="0"
     style="fill:#000000;fill-rule:nonzero" />
  <path
     d="m 212.17366,149.77312 q -0.40625,0.95313 -0.89063,1.82813 -0.0312,0.0469 -0.0937,0.14062 -0.0625,0.0937 -0.10937,0.1875 -0.0469,0.0781 -0.0625,0.14063 -0.0156,0.0312 -0.0156,0.0937 0,0.23437 0.0781,0.40625 0.0937,0.15625 0.25,0.15625 0.1875,0 0.29687,-0.0937 0.125,-0.0937 0.21875,-0.42188 l 0.1875,0.0781 q -0.0469,0.20312 -0.14062,0.42187 -0.0781,0.21875 -0.26563,0.42188 -0.17187,0.1875 -0.39062,0.1875 -0.45313,0 -0.45313,-0.78125 0,-0.0781 0.0156,-0.20313 l -0.0156,0 q -0.26562,0.40625 -0.70312,0.70313 -0.4375,0.28125 -0.90625,0.28125 -0.54688,0 -0.84375,-0.34375 -0.29688,-0.35938 -0.29688,-0.92188 0,-0.84375 0.64063,-1.59375 0.64062,-0.76562 1.46875,-0.76562 0.25,0 0.42187,0.10937 0.1875,0.10938 0.26563,0.29688 0.0937,0.17187 0.14062,0.375 0.0469,0.1875 0.0469,0.39062 0,0.0781 0,0.14063 l 0.0156,0 0.48438,-1.23438 0.65625,0 z m -1.39063,1.04688 q 0,-0.9375 -0.67187,-0.9375 -0.40625,0 -0.75,0.45312 -0.34375,0.4375 -0.5,0.96875 -0.15625,0.53125 -0.15625,0.9375 0,0.375 0.125,0.64063 0.14062,0.25 0.45312,0.25 0.4375,0 0.79688,-0.42188 0.35937,-0.4375 0.53125,-0.95312 0.17187,-0.51563 0.17187,-0.9375 z"
     id="path461"
     inkscape:connector-curvature="0"
     style="fill:#000000;fill-rule:nonzero" />
  <path
     style="fill:#000000;fill-opacity:0;fill-rule:nonzero"
     inkscape:connector-curvature="0"
     d="m 278.87995,135.71652 0,0 c 14.93927,-0.83087 28.85821,12.56467 35.86957,34.52066 7.01133,21.95599 5.89024,48.63693 -2.8891,68.7576 l -31.67261,-38.22803 z"
     id="path463" />
  <path
     style="fill:#000000;fill-opacity:0;fill-rule:nonzero"
     inkscape:connector-curvature="0"
     d="m 278.87995,135.71652 0,0 c 14.93927,-0.83087 28.85821,12.56467 35.86957,34.52066 7.01133,21.95599 5.89024,48.63693 -2.8891,68.7576"
     id="path465" />
  <path
     style="stroke:#000000;stroke-width:2;stroke-linecap:butt;stroke-linejoin:round;stroke-dasharray:2.00000004, 6.00000012"
     inkscape:connector-curvature="0"
     d="m 278.87995,135.71652 0,0 c 14.93927,-0.83087 28.85821,12.56467 35.86954,34.52066 3.50567,10.978 4.97824,23.13724 4.47696,35.06705 -0.25061,5.9649 -0.99472,11.8725 -2.22486,17.54638 -0.61508,2.83686 -1.35165,5.61542 -2.20883,8.31348 -0.21429,0.6745 -0.43613,1.344 -0.66547,2.00806 -0.11468,0.33209 -0.23123,0.66278 -0.34967,0.99212 l -0.0865,0.23572"
     id="path467" />
  <path
     style="fill:#000000;fill-rule:evenodd;stroke:#000000;stroke-width:2;stroke-linecap:butt"
     inkscape:connector-curvature="0"
     d="m 313.69114,234.40002 -0.64673,-1.50342 -0.10181,3.38208 2.25196,-2.52539 z"
     id="path469" />
  <path
     style="fill:#000000;fill-opacity:0;fill-rule:nonzero"
     inkscape:connector-curvature="0"
     d="m 278.87995,135.71652 37.03937,13.19684"
     id="path471" />
  <path
     style="stroke:#000000;stroke-width:1;stroke-linecap:butt;stroke-linejoin:round"
     inkscape:connector-curvature="0"
     d="m 278.87995,135.71652 31.38742,11.18311"
     id="path473" />
  <path
     style="fill:#000000;fill-rule:evenodd;stroke:#000000;stroke-width:1;stroke-linecap:butt"
     inkscape:connector-curvature="0"
     d="m 309.71298,148.45555 4.82922,-0.0328 -3.72049,-3.07904 z"
     id="path475" />
  <path
     style="fill:#000000;fill-opacity:0;fill-rule:nonzero"
     inkscape:connector-curvature="0"
     d="m 220.28231,159.07002 0,0 c 11.19963,0 20.41759,7.71088 20.92351,17.50266 0.50592,9.79177 -7.87926,18.19931 -19.03318,19.08395 l -1.89033,-18.25592 z"
     id="path477" />
  <path
     style="fill:#000000;fill-opacity:0;fill-rule:nonzero"
     inkscape:connector-curvature="0"
     d="m 220.28231,159.07002 0,0 c 11.19963,0 20.41759,7.71088 20.92351,17.50266 0.50592,9.79177 -7.87926,18.19931 -19.03318,19.08395"
     id="path479" />
  <path
     style="stroke:#000000;stroke-width:2;stroke-linecap:butt;stroke-linejoin:round"
     inkscape:connector-curvature="0"
     d="m 220.28231,159.07002 0,0 c 11.19963,0 20.41759,7.71088 20.92348,17.50266 0.25299,4.89587 -1.71683,9.44574 -5.14412,12.88217 -1.71364,1.71817 -3.79166,3.15805 -6.13838,4.22366 -0.58669,0.26642 -1.19017,0.5094 -1.80895,0.72754 -0.30937,0.10904 -0.62259,0.21191 -0.93944,0.30832 l -0.13905,0.0407"
     id="path481" />
  <path
     style="fill:#000000;fill-rule:evenodd;stroke:#000000;stroke-width:2;stroke-linecap:butt"
     inkscape:connector-curvature="0"
     d="m 227.03586,194.75505 0.92693,-1.34882 -2.91533,1.71744 3.33722,0.55829 z"
     id="path483" />
  <path
     style="fill:#000000;fill-opacity:0;fill-rule:nonzero"
     inkscape:connector-curvature="0"
     d="m 213.71013,187.84692 34.39369,0 0,36.66144 -34.39369,0 z"
     id="path485" />
  <path
     style="fill:#000000;fill-rule:nonzero"
     inkscape:connector-curvature="0"
     d="m 226.16326,207.66382 q 0.98437,0 1.42187,-0.51563 0.45313,-0.51562 0.46875,-1.76562 l 0,-0.20313 q 0,-1.35937 -0.45312,-1.9375 -0.45313,-0.59375 -1.4375,-0.59375 -0.85938,0 -1.3125,0.67188 -0.45313,0.65625 -0.45313,1.85937 0,1.21875 0.4375,1.85938 0.45313,0.625 1.32813,0.625 z m -0.14063,0.82812 q -1.25,0 -1.95312,-0.875 -0.6875,-0.875 -0.6875,-2.4375 0,-1.57812 0.70312,-2.46875 0.70313,-0.89062 1.95313,-0.89062 1.32812,0 2.03125,1 l 0.0625,0 0.14062,-0.875 0.76563,0 0,9.3125 -0.98438,0 0,-2.75 q 0,-0.59375 0.0781,-1 l -0.0781,0 q -0.67187,0.98437 -2.03125,0.98437 z"
     id="path487" />
  <path
     d="m 234.2824,206.91382 q -0.40625,0.95313 -0.89063,1.82813 -0.0312,0.0469 -0.0937,0.14062 -0.0625,0.0937 -0.10937,0.1875 -0.0469,0.0781 -0.0625,0.14063 -0.0156,0.0312 -0.0156,0.0937 0,0.23437 0.0781,0.40625 0.0937,0.15625 0.25,0.15625 0.1875,0 0.29687,-0.0937 0.125,-0.0937 0.21875,-0.42188 l 0.1875,0.0781 q -0.0469,0.20312 -0.14062,0.42187 -0.0781,0.21875 -0.26563,0.42188 -0.17187,0.1875 -0.39062,0.1875 -0.45313,0 -0.45313,-0.78125 0,-0.0781 0.0156,-0.20313 l -0.0156,0 q -0.26562,0.40625 -0.70312,0.70313 -0.4375,0.28125 -0.90625,0.28125 -0.54688,0 -0.84375,-0.34375 -0.29688,-0.35938 -0.29688,-0.92188 0,-0.84375 0.64063,-1.59375 0.64062,-0.76562 1.46875,-0.76562 0.25,0 0.42187,0.10937 0.1875,0.10938 0.26563,0.29688 0.0937,0.17187 0.14062,0.375 0.0469,0.1875 0.0469,0.39062 0,0.0781 0,0.14063 l 0.0156,0 0.48438,-1.23438 0.65625,0 z m -1.39063,1.04688 q 0,-0.9375 -0.67187,-0.9375 -0.40625,0 -0.75,0.45312 -0.34375,0.4375 -0.5,0.96875 -0.15625,0.53125 -0.15625,0.9375 0,0.375 0.125,0.64063 0.14062,0.25 0.45312,0.25 0.4375,0 0.79688,-0.42188 0.35937,-0.4375 0.53125,-0.95312 0.17187,-0.51563 0.17187,-0.9375 z"
     id="path489"
     inkscape:connector-curvature="0"
     style="fill:#000000;fill-rule:nonzero" />
  <path
     style="fill:#000000;fill-opacity:0;fill-rule:nonzero"
     inkscape:connector-curvature="0"
     d="m 306.37079,232.3421 140.50395,0 0,31.40161 -140.50395,0 z"
     id="path491" />
  <path
     style="fill:#000000;fill-rule:nonzero"
     inkscape:connector-curvature="0"
     d="m 323.18571,239.60702 q 0.6875,0 1.21875,0.10938 l -0.20313,1.4375 q -0.64062,-0.14063 -1.125,-0.14063 -1.23437,0 -2.10937,1 -0.87501,1 -0.87501,2.5 l 0,5.45313 -1.53125,0 0,-10.17188 1.26562,0 0.17188,1.89063 0.0781,0 q 0.56251,-1 1.35939,-1.53125 0.79687,-0.54688 1.75,-0.54688 z"
     id="path493" />
  <path
     style="fill:#000000;fill-rule:nonzero"
     inkscape:connector-curvature="0"
     d="m 325.87939,249.96642 -0.65625,0 0,-4.28125 0.65625,0 0,4.28125 z m -0.70312,-5.4375 q 0,-0.23438 0.10937,-0.32813 0.10938,-0.10937 0.26563,-0.10937 0.15625,0 0.26562,0.10937 0.125,0.10938 0.125,0.32813 0,0.21875 -0.125,0.32812 -0.10937,0.0937 -0.26562,0.0937 -0.15625,0 -0.26563,-0.0937 -0.10937,-0.10937 -0.10937,-0.32812 z"
     id="path495" />
  <path
     style="fill:#000000;fill-rule:nonzero"
     inkscape:connector-curvature="0"
     d="m 304.97385,244.74072 0,0 c 0,-2.65265 2.15045,-4.8031 4.80313,-4.8031 l 0,0 c 1.2739,0 2.49558,0.50604 3.39636,1.4068 0.90076,0.90076 1.4068,2.12244 1.4068,3.3963 l 0,0 c 0,2.65271 -2.15045,4.80316 -4.80316,4.80316 l 0,0 c -2.65268,0 -4.80313,-2.15045 -4.80313,-4.80316 z"
     id="path497" />
  <path
     style="stroke:#000000;stroke-width:1;stroke-linecap:butt;stroke-linejoin:round"
     inkscape:connector-curvature="0"
     d="m 304.97385,244.74072 0,0 c 0,-2.65265 2.15045,-4.8031 4.80313,-4.8031 l 0,0 c 1.2739,0 2.49558,0.50604 3.39636,1.4068 0.90076,0.90076 1.4068,2.12244 1.4068,3.3963 l 0,0 c 0,2.65271 -2.15045,4.80316 -4.80316,4.80316 l 0,0 c -2.65268,0 -4.80313,-2.15045 -4.80313,-4.80316 z"
     id="path499" />
  <path
     style="fill:#000000;fill-opacity:0;fill-rule:nonzero"
     inkscape:connector-curvature="0"
     d="m 291.86468,102.10523 41.88975,0 0,50.61418 -41.88975,0 z"
     id="path501" />
  <path
     d="m 312.19068,118.07835 q 0.42187,0 0.76562,0.0781 l -0.14062,0.90625 q -0.39063,-0.0937 -0.70313,-0.0937 -0.78125,0 -1.34375,0.64062 -0.54687,0.625 -0.54687,1.5625 l 0,3.45313 -0.96875,0 0,-6.42188 0.79687,0 0.125,1.1875 0.0469,0 q 0.34375,-0.625 0.84375,-0.96875 0.51562,-0.34375 1.125,-0.34375 z"
     id="path505"
     inkscape:connector-curvature="0"
     style="fill:#000000;fill-rule:nonzero" />
  <path
     d="m 313.1624,125.74092 0.62259,0 0,-4.16862 -0.62259,0 0,4.16862 z m 0.67673,-5.30551 q 0,-0.21655 -0.0947,-0.31129 -0.10827,-0.10828 -0.27069,-0.10828 -0.14888,0 -0.25716,0.10828 -0.1218,0.0947 -0.1218,0.31129 0,0.21656 0.1218,0.32483 0.10828,0.0947 0.25716,0.0947 0.16242,0 0.27069,-0.0947 0.0947,-0.10827 0.0947,-0.32483 z"
     id="path507"
     inkscape:connector-curvature="0"
     style="fill:#000000;fill-rule:nonzero" />
  <path
     d="m 301.58312,139.40312 q -0.74338,0 -1.25962,-0.26844 -0.51623,-0.26844 -0.74338,-0.66078 -0.20649,-0.41299 -0.28909,-0.72273 -0.0826,-0.33039 -0.0826,-0.57819 0,-2.00299 1.13571,-3.30391 1.13572,-1.32156 2.51923,-1.32156 0.55754,0 0.84663,0.1239 l 0.0206,-0.0206 q -0.0619,-0.1239 -0.45429,-0.64014 -0.39234,-0.51623 -0.66078,-1.03247 -0.24779,-0.53688 -0.24779,-1.07377 0,-1.40416 2.23014,-1.40416 0.70208,0 1.17701,0.47494 0.49559,0.47493 0.72274,1.21831 l -0.3304,0.1652 q -0.20649,-0.64013 -0.61948,-1.05312 -0.39234,-0.43364 -0.99117,-0.43364 -0.37169,0 -0.61948,0.20649 -0.22715,0.2065 -0.22715,0.66079 0,0.39234 0.33039,1.03247 0.35104,0.61948 0.76403,1.19766 0.41299,0.55754 0.74338,1.36287 0.35104,0.78468 0.35104,1.48676 0,1.85845 -1.25961,3.22131 -1.23897,1.36286 -3.05612,1.36286 z m 2.95287,-5.05911 -0.24779,-0.61948 q -0.2891,-0.80533 -1.30092,-0.80533 -0.68143,0 -1.28026,0.74338 -0.57819,0.72273 -0.88793,1.7139 -0.28909,0.99117 -0.28909,1.89975 0,0.94987 0.35104,1.36286 0.35104,0.41299 0.78468,0.41299 1.21831,0 2.08559,-1.09442 0.88793,-1.09442 0.88793,-2.37468 0,-0.0413 0,-0.18585 0.0206,-0.16519 0.0206,-0.24779 0,-0.47494 -0.1239,-0.80533 z"
     id="path509"
     inkscape:connector-curvature="0"
     style="fill:#000000;fill-rule:nonzero" />
  <path
     d="m 310.55788,136.46966 q 0.98437,0 1.42187,-0.56394 0.45313,-0.56394 0.46875,-1.93106 l 0,-0.22216 q 0,-1.48675 -0.45312,-2.11904 -0.45313,-0.64939 -1.4375,-0.64939 -0.85938,0 -1.3125,0.73483 -0.45313,0.71774 -0.45313,2.0336 0,1.33295 0.4375,2.0336 0.45313,0.68356 1.32813,0.68356 z m -0.14063,0.90572 q -1.25,0 -1.95312,-0.95698 -0.6875,-0.95699 -0.6875,-2.6659 0,-1.726 0.70312,-2.70007 0.70313,-0.97408 1.95313,-0.97408 1.32812,0 2.03125,1.0937 l 0.0625,0 0.14062,-0.95699 0.76563,0 0,10.18509 -0.98438,0 0,-3.00768 q 0,-0.64938 0.0781,-1.0937 l -0.0781,0 q -0.67187,1.07661 -2.03125,1.07661 z"
     id="path511"
     inkscape:connector-curvature="0"
     style="fill:#000000;fill-rule:nonzero" />
  <path
     d="m 319.20826,136.7346 q -0.45313,1.07813 -1,2.04688 -0.0312,0.0625 -0.10938,0.17187 -0.0781,0.10938 -0.125,0.20313 -0.0469,0.0937 -0.0781,0.17187 -0.0156,0.0312 -0.0156,0.10938 0,0.26562 0.0937,0.45312 0.10938,0.17188 0.28125,0.17188 0.20313,0 0.32813,-0.10938 0.14062,-0.10937 0.26562,-0.46875 l 0.1875,0.0781 q -0.0469,0.25 -0.14062,0.5 -0.0937,0.23437 -0.29688,0.45312 -0.20312,0.20313 -0.4375,0.20313 -0.51562,0 -0.51562,-0.85938 0,-0.0937 0,-0.25 l -0.0156,0 q -0.28125,0.46875 -0.78125,0.79688 -0.5,0.3125 -1.01562,0.3125 -0.625,0 -0.96875,-0.39063 -0.32813,-0.39062 -0.32813,-1.01562 0,-0.95313 0.71875,-1.79688 0.73438,-0.85937 1.67188,-0.85937 0.28125,0 0.46875,0.125 0.20312,0.125 0.29687,0.32812 0.10938,0.1875 0.15625,0.40625 0.0469,0.21875 0.0469,0.46875 0,0.0625 0,0.14063 l 0.0156,0 0.5625,-1.39063 0.73438,0 z m -1.57813,1.1875 q 0,-1.0625 -0.73437,-1.0625 -0.46875,0 -0.85938,0.5 -0.375,0.5 -0.5625,1.10938 -0.17187,0.59375 -0.17187,1.04687 0,0.42188 0.14062,0.71875 0.15625,0.28125 0.51563,0.28125 0.48437,0 0.89062,-0.48437 0.40625,-0.48438 0.59375,-1.0625 0.1875,-0.57813 0.1875,-1.04688 z"
     id="path513"
     inkscape:connector-curvature="0"
     style="fill:#000000;fill-rule:nonzero" />
  <path
     style="fill:#000000;fill-opacity:0;fill-rule:nonzero"
     inkscape:connector-curvature="0"
     d="m 301.02468,127.13532 19.24409,0"
     id="path515" />
  <path
     style="stroke:#000000;stroke-width:1;stroke-linecap:butt;stroke-linejoin:round"
     inkscape:connector-curvature="0"
     d="m 301.02468,127.13532 19.24409,0"
     id="path517" />
  <path
     d="m 301.36652,125.5604 q -0.74338,0 -1.25962,-0.26844 -0.51623,-0.26844 -0.74338,-0.66078 -0.20649,-0.41299 -0.28909,-0.72273 -0.0826,-0.33039 -0.0826,-0.57819 0,-2.00299 1.13571,-3.30391 1.13572,-1.32156 2.51923,-1.32156 0.55754,0 0.84663,0.1239 l 0.0206,-0.0206 q -0.0619,-0.1239 -0.45429,-0.64014 -0.39234,-0.51623 -0.66078,-1.03247 -0.24779,-0.53688 -0.24779,-1.07377 0,-1.40416 2.23014,-1.40416 0.70208,0 1.17701,0.47494 0.49559,0.47493 0.72274,1.21831 l -0.3304,0.1652 q -0.20649,-0.64013 -0.61948,-1.05312 -0.39234,-0.43364 -0.99117,-0.43364 -0.37169,0 -0.61948,0.20649 -0.22715,0.2065 -0.22715,0.66079 0,0.39234 0.33039,1.03247 0.35104,0.61948 0.76403,1.19766 0.41299,0.55754 0.74338,1.36287 0.35104,0.78468 0.35104,1.48676 0,1.85845 -1.25961,3.22131 -1.23897,1.36286 -3.05612,1.36286 z m 2.95287,-5.05911 -0.24779,-0.61948 q -0.2891,-0.80533 -1.30092,-0.80533 -0.68143,0 -1.28026,0.74338 -0.57819,0.72273 -0.88793,1.7139 -0.28909,0.99117 -0.28909,1.89975 0,0.94987 0.35104,1.36286 0.35104,0.41299 0.78468,0.41299 1.21831,0 2.08559,-1.09442 0.88793,-1.09442 0.88793,-2.37468 0,-0.0413 0,-0.18585 0.0206,-0.16519 0.0206,-0.24779 0,-0.47494 -0.1239,-0.80533 z"
     id="path509-3"
     inkscape:connector-curvature="0"
     style="fill:#000000;fill-rule:nonzero" />
</svg>
