<?xml version="1.0" encoding="utf-8" standalone="no"?>
<!DOCTYPE svg PUBLIC "-//W3C//DTD SVG 1.1//EN"
  "http://www.w3.org/Graphics/SVG/1.1/DTD/svg11.dtd">
<!-- Created with matplotlib (http://matplotlib.org/) -->
<svg height="405pt" version="1.1" viewBox="0 0 585 405" width="585pt" xmlns="http://www.w3.org/2000/svg" xmlns:xlink="http://www.w3.org/1999/xlink">
 <defs>
  <style type="text/css">
*{stroke-linecap:butt;stroke-linejoin:round;}
  </style>
 </defs>
 <g id="figure_1">
  <g id="patch_1">
   <path d="
M0 405
L585 405
L585 0
L0 0
z
" style="fill:#ffffff;"/>
  </g>
  <g id="axes_1">
   <g id="patch_2">
    <path d="
M73.125 364.5
L526.5 364.5
L526.5 40.5
L73.125 40.5
z
" style="fill:#ffffff;"/>
   </g>
   <g id="matplotlib.axis_1">
    <g id="xtick_1">
     <g id="line2d_1">
      <path clip-path="url(#p6bb970f2e9)" d="
M73.125 364.5
L73.125 40.5" style="fill:none;stroke:#cccccc;stroke-linecap:round;"/>
     </g>
     <g id="line2d_2">
      <defs>
       <path d="
M0 0
L0 0" id="m219da94a98" style="stroke:#262626;"/>
      </defs>
      <g>
       <use style="fill:#262626;stroke:#262626;" x="73.125" xlink:href="#m219da94a98" y="364.5"/>
      </g>
     </g>
     <g id="line2d_3">
      <g>
       <use style="fill:#262626;stroke:#262626;" x="73.125" xlink:href="#m219da94a98" y="40.5"/>
      </g>
     </g>
     <g id="text_1">
      <!-- 5 -->
      <defs>
       <path d="
M51.4219 22.4062
Q51.4219 17.2344 49.8594 12.9375
Q48.2969 8.64062 45.2188 5.53125
Q42.1406 2.4375 37.5781 0.71875
Q33.0156 -0.984375 27 -0.984375
Q21.5781 -0.984375 17.5469 0.28125
Q13.5312 1.5625 10.7344 3.78125
Q7.95312 6 6.3125 8.98438
Q4.6875 11.9688 4 15.375
L12.8906 16.4062
Q13.4219 14.4531 14.3906 12.625
Q15.375 10.7969 17.0625 9.34375
Q18.75 7.90625 21.2188 7.04688
Q23.6875 6.20312 27.2031 6.20312
Q30.6094 6.20312 33.3906 7.25
Q36.1875 8.29688 38.1562 10.3438
Q40.1406 12.4062 41.2031 15.375
Q42.2812 18.3594 42.2812 22.2188
Q42.2812 25.3906 41.25 28.0469
Q40.2344 30.7188 38.3281 32.6406
Q36.4219 34.5781 33.6562 35.6406
Q30.9062 36.7188 27.3906 36.7188
Q25.2031 36.7188 23.3438 36.3281
Q21.4844 35.9375 19.8906 35.25
Q18.3125 34.5781 17.0156 33.6719
Q15.7188 32.7656 14.5938 31.7812
L6 31.7812
L8.29688 68.7969
L47.4062 68.7969
L47.4062 61.3281
L16.3125 61.3281
L14.9844 39.5
Q17.3281 41.3125 20.8438 42.5938
Q24.3594 43.8906 29.2031 43.8906
Q34.3281 43.8906 38.4219 42.3281
Q42.5312 40.7656 45.4062 37.9062
Q48.2969 35.0625 49.8594 31.1094
Q51.4219 27.1562 51.4219 22.4062" id="LiberationSans-35"/>
      </defs>
      <g style="fill:#262626;" transform="translate(70.75390625 378.746875)scale(0.1 -0.1)">
       <use xlink:href="#LiberationSans-35"/>
      </g>
     </g>
    </g>
    <g id="xtick_2">
     <g id="line2d_4">
      <path clip-path="url(#p6bb970f2e9)" d="
M148.688 364.5
L148.688 40.5" style="fill:none;stroke:#cccccc;stroke-linecap:round;"/>
     </g>
     <g id="line2d_5">
      <g>
       <use style="fill:#262626;stroke:#262626;" x="148.6875" xlink:href="#m219da94a98" y="364.5"/>
      </g>
     </g>
     <g id="line2d_6">
      <g>
       <use style="fill:#262626;stroke:#262626;" x="148.6875" xlink:href="#m219da94a98" y="40.5"/>
      </g>
     </g>
     <g id="text_2">
      <!-- 10 -->
      <defs>
       <path d="
M7.625 0
L7.625 7.46875
L25.1406 7.46875
L25.1406 60.4062
L9.625 49.3125
L9.625 57.625
L25.875 68.7969
L33.9844 68.7969
L33.9844 7.46875
L50.7344 7.46875
L50.7344 0
z
" id="LiberationSans-31"/>
       <path d="
M51.7031 34.4219
Q51.7031 24.5156 49.8281 17.75
Q47.9531 10.9844 44.7031 6.8125
Q41.4531 2.64062 37.0625 0.828125
Q32.6719 -0.984375 27.6875 -0.984375
Q22.6562 -0.984375 18.3125 0.828125
Q13.9688 2.64062 10.7656 6.78125
Q7.5625 10.9375 5.73438 17.7031
Q3.90625 24.4688 3.90625 34.4219
Q3.90625 44.8281 5.73438 51.6406
Q7.5625 58.4531 10.7812 62.5
Q14.0156 66.5469 18.4062 68.1875
Q22.7969 69.8281 27.9844 69.8281
Q32.9062 69.8281 37.2188 68.1875
Q41.5469 66.5469 44.7656 62.5
Q48 58.4531 49.8438 51.6406
Q51.7031 44.8281 51.7031 34.4219
M42.7812 34.4219
Q42.7812 42.625 41.7969 48.0625
Q40.8281 53.5156 38.9219 56.7656
Q37.0156 60.0156 34.25 61.3594
Q31.5 62.7031 27.9844 62.7031
Q24.2656 62.7031 21.4375 61.3281
Q18.6094 59.9688 16.6719 56.7188
Q14.75 53.4688 13.7656 48.0156
Q12.7969 42.5781 12.7969 34.4219
Q12.7969 26.5156 13.7969 21.0938
Q14.7969 15.6719 16.7188 12.375
Q18.6562 9.07812 21.4375 7.64062
Q24.2188 6.20312 27.7812 6.20312
Q31.25 6.20312 34.0312 7.64062
Q36.8125 9.07812 38.7344 12.375
Q40.6719 15.6719 41.7188 21.0938
Q42.7812 26.5156 42.7812 34.4219" id="LiberationSans-30"/>
      </defs>
      <g style="fill:#262626;" transform="translate(143.703125 378.746875)scale(0.1 -0.1)">
       <use xlink:href="#LiberationSans-31"/>
       <use x="55.615234375" xlink:href="#LiberationSans-30"/>
      </g>
     </g>
    </g>
    <g id="xtick_3">
     <g id="line2d_7">
      <path clip-path="url(#p6bb970f2e9)" d="
M224.25 364.5
L224.25 40.5" style="fill:none;stroke:#cccccc;stroke-linecap:round;"/>
     </g>
     <g id="line2d_8">
      <g>
       <use style="fill:#262626;stroke:#262626;" x="224.25" xlink:href="#m219da94a98" y="364.5"/>
      </g>
     </g>
     <g id="line2d_9">
      <g>
       <use style="fill:#262626;stroke:#262626;" x="224.25" xlink:href="#m219da94a98" y="40.5"/>
      </g>
     </g>
     <g id="text_3">
      <!-- 15 -->
      <g style="fill:#262626;" transform="translate(219.2796875 378.746875)scale(0.1 -0.1)">
       <use xlink:href="#LiberationSans-31"/>
       <use x="55.615234375" xlink:href="#LiberationSans-35"/>
      </g>
     </g>
    </g>
    <g id="xtick_4">
     <g id="line2d_10">
      <path clip-path="url(#p6bb970f2e9)" d="
M299.812 364.5
L299.812 40.5" style="fill:none;stroke:#cccccc;stroke-linecap:round;"/>
     </g>
     <g id="line2d_11">
      <g>
       <use style="fill:#262626;stroke:#262626;" x="299.8125" xlink:href="#m219da94a98" y="364.5"/>
      </g>
     </g>
     <g id="line2d_12">
      <g>
       <use style="fill:#262626;stroke:#262626;" x="299.8125" xlink:href="#m219da94a98" y="40.5"/>
      </g>
     </g>
     <g id="text_4">
      <!-- 20 -->
      <defs>
       <path d="
M5.03125 0
L5.03125 6.20312
Q7.51562 11.9219 11.1094 16.2812
Q14.7031 20.6562 18.6562 24.1875
Q22.6094 27.7344 26.4844 30.7656
Q30.375 33.7969 33.5 36.8125
Q36.625 39.8438 38.5469 43.1562
Q40.4844 46.4844 40.4844 50.6875
Q40.4844 53.6094 39.5938 55.8281
Q38.7188 58.0625 37.0625 59.5625
Q35.4062 61.0781 33.0781 61.8281
Q30.7656 62.5938 27.9375 62.5938
Q25.2969 62.5938 22.9688 61.8594
Q20.6562 61.1406 18.8438 59.6719
Q17.0469 58.2031 15.8906 56.0312
Q14.75 53.8594 14.4062 50.9844
L5.42188 51.8125
Q5.85938 55.5156 7.46875 58.7812
Q9.07812 62.0625 11.9062 64.5312
Q14.75 67 18.7188 68.4062
Q22.7031 69.8281 27.9375 69.8281
Q33.0625 69.8281 37.0625 68.6094
Q41.0625 67.3906 43.8125 64.9844
Q46.5781 62.5938 48.0469 59.0781
Q49.5156 55.5625 49.5156 50.9844
Q49.5156 47.5156 48.2656 44.3906
Q47.0156 41.2656 44.9375 38.4219
Q42.875 35.5938 40.1406 32.9531
Q37.4062 30.3281 34.4219 27.8125
Q31.4531 25.2969 28.4219 22.8281
Q25.3906 20.3594 22.7188 17.8594
Q20.0625 15.375 17.9688 12.8125
Q15.875 10.25 14.7031 7.46875
L50.5938 7.46875
L50.5938 0
z
" id="LiberationSans-32"/>
      </defs>
      <g style="fill:#262626;" transform="translate(294.6984375 378.746875)scale(0.1 -0.1)">
       <use xlink:href="#LiberationSans-32"/>
       <use x="55.615234375" xlink:href="#LiberationSans-30"/>
      </g>
     </g>
    </g>
    <g id="xtick_5">
     <g id="line2d_13">
      <path clip-path="url(#p6bb970f2e9)" d="
M375.375 364.5
L375.375 40.5" style="fill:none;stroke:#cccccc;stroke-linecap:round;"/>
     </g>
     <g id="line2d_14">
      <g>
       <use style="fill:#262626;stroke:#262626;" x="375.375" xlink:href="#m219da94a98" y="364.5"/>
      </g>
     </g>
     <g id="line2d_15">
      <g>
       <use style="fill:#262626;stroke:#262626;" x="375.375" xlink:href="#m219da94a98" y="40.5"/>
      </g>
     </g>
     <g id="text_5">
      <!-- 25 -->
      <g style="fill:#262626;" transform="translate(370.275 378.746875)scale(0.1 -0.1)">
       <use xlink:href="#LiberationSans-32"/>
       <use x="55.615234375" xlink:href="#LiberationSans-35"/>
      </g>
     </g>
    </g>
    <g id="xtick_6">
     <g id="line2d_16">
      <path clip-path="url(#p6bb970f2e9)" d="
M450.937 364.5
L450.937 40.5" style="fill:none;stroke:#cccccc;stroke-linecap:round;"/>
     </g>
     <g id="line2d_17">
      <g>
       <use style="fill:#262626;stroke:#262626;" x="450.9375" xlink:href="#m219da94a98" y="364.5"/>
      </g>
     </g>
     <g id="line2d_18">
      <g>
       <use style="fill:#262626;stroke:#262626;" x="450.9375" xlink:href="#m219da94a98" y="40.5"/>
      </g>
     </g>
     <g id="text_6">
      <!-- 30 -->
      <defs>
       <path d="
M51.2188 19
Q51.2188 14.2656 49.6719 10.5469
Q48.1406 6.84375 45.1875 4.26562
Q42.2344 1.70312 37.8594 0.359375
Q33.5 -0.984375 27.875 -0.984375
Q21.4844 -0.984375 17.1094 0.609375
Q12.75 2.20312 9.90625 4.8125
Q7.07812 7.42188 5.65625 10.7656
Q4.25 14.1094 3.8125 17.6719
L12.8906 18.5
Q13.2812 15.7656 14.3281 13.5156
Q15.375 11.2812 17.1875 9.67188
Q19 8.0625 21.625 7.17188
Q24.2656 6.29688 27.875 6.29688
Q34.5156 6.29688 38.2969 9.5625
Q42.0938 12.8438 42.0938 19.2812
Q42.0938 23.0938 40.4062 25.4062
Q38.7188 27.7344 36.2031 29.0312
Q33.6875 30.3281 30.7344 30.7656
Q27.7812 31.2031 25.2969 31.2031
L20.3125 31.2031
L20.3125 38.8125
L25.0938 38.8125
Q27.5938 38.8125 30.2656 39.3281
Q32.9531 39.8438 35.1719 41.1875
Q37.4062 42.5312 38.8438 44.8281
Q40.2812 47.125 40.2812 50.6875
Q40.2812 56.2031 37.0312 59.3906
Q33.7969 62.5938 27.3906 62.5938
Q21.5781 62.5938 17.9844 59.6094
Q14.4062 56.6406 13.8125 51.2188
L4.98438 51.9062
Q5.51562 56.4531 7.46875 59.8125
Q9.42188 63.1875 12.4219 65.4062
Q15.4375 67.625 19.2812 68.7188
Q23.1406 69.8281 27.4844 69.8281
Q33.25 69.8281 37.3906 68.375
Q41.5469 66.9375 44.1875 64.4688
Q46.8281 62.0156 48.0625 58.6875
Q49.3125 55.375 49.3125 51.6094
Q49.3125 48.5781 48.4844 45.9375
Q47.6562 43.3125 45.8906 41.2031
Q44.1406 39.1094 41.4219 37.5938
Q38.7188 36.0781 34.9062 35.2969
L34.9062 35.1094
Q39.0625 34.6719 42.1406 33.2188
Q45.2188 31.7812 47.2188 29.625
Q49.2188 27.4844 50.2188 24.75
Q51.2188 22.0156 51.2188 19" id="LiberationSans-33"/>
      </defs>
      <g style="fill:#262626;" transform="translate(445.7625 378.746875)scale(0.1 -0.1)">
       <use xlink:href="#LiberationSans-33"/>
       <use x="55.615234375" xlink:href="#LiberationSans-30"/>
      </g>
     </g>
    </g>
    <g id="xtick_7">
     <g id="line2d_19">
      <path clip-path="url(#p6bb970f2e9)" d="
M526.5 364.5
L526.5 40.5" style="fill:none;stroke:#cccccc;stroke-linecap:round;"/>
     </g>
     <g id="line2d_20">
      <g>
       <use style="fill:#262626;stroke:#262626;" x="526.5" xlink:href="#m219da94a98" y="364.5"/>
      </g>
     </g>
     <g id="line2d_21">
      <g>
       <use style="fill:#262626;stroke:#262626;" x="526.5" xlink:href="#m219da94a98" y="40.5"/>
      </g>
     </g>
     <g id="text_7">
      <!-- 35 -->
      <g style="fill:#262626;" transform="translate(521.3390625 378.746875)scale(0.1 -0.1)">
       <use xlink:href="#LiberationSans-33"/>
       <use x="55.615234375" xlink:href="#LiberationSans-35"/>
      </g>
     </g>
    </g>
    <g id="text_8">
     <!-- Num. Conformations -->
     <defs>
      <path d="
M46.3906 14.5938
Q46.3906 10.8906 44.9375 7.98438
Q43.5 5.07812 40.7656 3.09375
Q38.0312 1.125 34.0469 0.0625
Q30.0781 -0.984375 24.9531 -0.984375
Q20.3594 -0.984375 16.6719 -0.265625
Q12.9844 0.4375 10.2031 2
Q7.42188 3.5625 5.53125 6.125
Q3.65625 8.6875 2.78125 12.4062
L10.5469 13.9219
Q11.6719 9.67188 15.1875 7.6875
Q18.7031 5.71875 24.9531 5.71875
Q27.7812 5.71875 30.1406 6.10938
Q32.5156 6.5 34.2188 7.45312
Q35.9375 8.40625 36.8906 9.98438
Q37.8438 11.5781 37.8438 13.9219
Q37.8438 16.3125 36.7188 17.8438
Q35.5938 19.3906 33.5938 20.4062
Q31.5938 21.4375 28.7344 22.1875
Q25.875 22.9531 22.4688 23.875
Q19.2812 24.7031 16.1562 25.7344
Q13.0312 26.7656 10.5156 28.4375
Q8.01562 30.125 6.45312 32.6094
Q4.89062 35.1094 4.89062 38.875
Q4.89062 46.0938 10.0312 49.875
Q15.1875 53.6562 25.0469 53.6562
Q33.7969 53.6562 38.9375 50.5781
Q44.0938 47.5156 45.4531 40.7188
L37.5469 39.75
Q37.1094 41.7969 35.9375 43.1875
Q34.7656 44.5781 33.1094 45.4375
Q31.4531 46.2969 29.375 46.6562
Q27.2969 47.0156 25.0469 47.0156
Q19.0938 47.0156 16.25 45.2031
Q13.4219 43.4062 13.4219 39.75
Q13.4219 37.5938 14.4688 36.2031
Q15.5312 34.8125 17.4062 33.8594
Q19.2812 32.9062 21.9219 32.2031
Q24.5625 31.5 27.7344 30.7188
Q29.8281 30.1719 32.0312 29.5625
Q34.2344 28.9531 36.2969 28.0938
Q38.375 27.25 40.2031 26.0938
Q42.0469 24.9531 43.4062 23.3438
Q44.7812 21.7344 45.5781 19.5781
Q46.3906 17.4375 46.3906 14.5938" id="LiberationSans-73"/>
      <path d="
M6.9375 0
L6.9375 40.5312
Q6.9375 42.1875 6.90625 43.9219
Q6.89062 45.6562 6.82812 47.2656
Q6.78125 48.875 6.73438 50.2812
Q6.6875 51.7031 6.64062 52.8281
L14.9375 52.8281
Q14.9844 51.7031 15.0625 50.2656
Q15.1406 48.8281 15.2031 47.3125
Q15.2812 45.7969 15.2969 44.4062
Q15.3281 43.0156 15.3281 42.0469
L15.5312 42.0469
Q16.4531 45.0625 17.5 47.2812
Q18.5625 49.5156 19.9688 50.9531
Q21.3906 52.3906 23.3438 53.0938
Q25.2969 53.8125 28.0781 53.8125
Q29.1562 53.8125 30.125 53.6406
Q31.1094 53.4688 31.6406 53.3281
L31.6406 45.2656
Q30.7656 45.5156 29.5938 45.625
Q28.4219 45.75 26.9531 45.75
Q23.9219 45.75 21.7969 44.375
Q19.6719 43.0156 18.3281 40.5938
Q17 38.1875 16.3594 34.8438
Q15.7188 31.5 15.7188 27.5469
L15.7188 0
z
" id="LiberationSans-72"/>
      <path d="
M17.625 46.4375
L17.625 0
L8.84375 0
L8.84375 46.4375
L1.42188 46.4375
L1.42188 52.8281
L8.84375 52.8281
L8.84375 58.7969
Q8.84375 61.6719 9.375 64.1406
Q9.90625 66.6094 11.3438 68.4375
Q12.7969 70.2656 15.2812 71.3125
Q17.7812 72.3594 21.7344 72.3594
Q23.2969 72.3594 24.9688 72.2188
Q26.6562 72.0781 27.9375 71.7812
L27.9375 65.0938
Q27.0938 65.2344 26 65.3594
Q24.9062 65.4844 24.0312 65.4844
Q22.0781 65.4844 20.8281 64.9375
Q19.5781 64.4062 18.875 63.4062
Q18.1719 62.4062 17.8906 60.9375
Q17.625 59.4688 17.625 57.5625
L17.625 52.8281
L27.9375 52.8281
L27.9375 46.4375
z
" id="LiberationSans-66"/>
      <path d="
M20.2188 -0.984375
Q12.25 -0.984375 8.25 3.21875
Q4.25 7.42188 4.25 14.75
Q4.25 19.9688 6.21875 23.3125
Q8.20312 26.6562 11.3906 28.5625
Q14.5938 30.4688 18.6875 31.2031
Q22.7969 31.9375 27.0469 32.0312
L38.9219 32.2344
L38.9219 35.1094
Q38.9219 38.375 38.2344 40.6719
Q37.5469 42.9688 36.125 44.375
Q34.7188 45.7969 32.5938 46.4531
Q30.4688 47.125 27.5938 47.125
Q25.0469 47.125 23 46.75
Q20.9531 46.3906 19.4375 45.4375
Q17.9219 44.4844 16.9844 42.8438
Q16.0625 41.2188 15.7656 38.7188
L6.59375 39.5469
Q7.07812 42.6719 8.4375 45.2812
Q9.8125 47.9062 12.3281 49.7969
Q14.8438 51.7031 18.625 52.75
Q22.4062 53.8125 27.7812 53.8125
Q37.75 53.8125 42.7656 49.2344
Q47.7969 44.6719 47.7969 36.0312
L47.7969 13.2812
Q47.7969 9.375 48.8281 7.39062
Q49.8594 5.42188 52.7344 5.42188
Q53.4688 5.42188 54.2031 5.51562
Q54.9375 5.60938 55.6094 5.76562
L55.6094 0.296875
Q53.9531 -0.09375 52.3125 -0.28125
Q50.6875 -0.484375 48.8281 -0.484375
Q46.3438 -0.484375 44.5625 0.171875
Q42.7812 0.828125 41.6562 2.17188
Q40.5312 3.51562 39.9375 5.48438
Q39.3594 7.46875 39.2031 10.1094
L38.9219 10.1094
Q37.5 7.5625 35.8125 5.51562
Q34.125 3.46875 31.875 2.03125
Q29.6406 0.59375 26.7812 -0.1875
Q23.9219 -0.984375 20.2188 -0.984375
M22.2188 5.60938
Q26.4219 5.60938 29.5625 7.14062
Q32.7188 8.6875 34.7812 11.0781
Q36.8594 13.4844 37.8906 16.3125
Q38.9219 19.1406 38.9219 21.7344
L38.9219 26.0781
L29.2969 25.875
Q26.0781 25.8281 23.1719 25.4062
Q20.2656 25 18.0625 23.7812
Q15.875 22.5625 14.5781 20.3594
Q13.2812 18.1719 13.2812 14.5938
Q13.2812 10.2969 15.5938 7.95312
Q17.9219 5.60938 22.2188 5.60938" id="LiberationSans-61"/>
      <path d="
M15.3281 52.8281
L15.3281 19.3438
Q15.3281 15.4844 15.8906 12.8906
Q16.4531 10.2969 17.7188 8.70312
Q19 7.125 21.0625 6.46875
Q23.1406 5.8125 26.2188 5.8125
Q29.3438 5.8125 31.8594 6.90625
Q34.375 8.01562 36.1562 10.0781
Q37.9375 12.1562 38.9062 15.2031
Q39.8906 18.2656 39.8906 22.2188
L39.8906 52.8281
L48.6875 52.8281
L48.6875 11.2812
Q48.6875 9.625 48.7031 7.78125
Q48.7344 5.95312 48.7812 4.3125
Q48.8281 2.6875 48.875 1.51562
Q48.9219 0.34375 48.9688 0
L40.6719 0
Q40.625 0.25 40.5781 1.3125
Q40.5312 2.39062 40.4531 3.78125
Q40.375 5.17188 40.3281 6.60938
Q40.2812 8.0625 40.2812 9.03125
L40.1406 9.03125
Q38.875 6.73438 37.3594 4.875
Q35.8438 3.03125 33.8438 1.73438
Q31.8438 0.4375 29.25 -0.265625
Q26.6562 -0.984375 23.25 -0.984375
Q18.8438 -0.984375 15.6719 0.09375
Q12.5 1.17188 10.4531 3.42188
Q8.40625 5.67188 7.45312 9.1875
Q6.5 12.7031 6.5 17.625
L6.5 52.8281
z
" id="LiberationSans-75"/>
      <path d="
M27.0469 0.390625
Q25.0469 -0.140625 22.9688 -0.453125
Q20.9062 -0.78125 18.1719 -0.78125
Q7.625 -0.78125 7.625 11.1875
L7.625 46.4375
L1.51562 46.4375
L1.51562 52.8281
L7.95312 52.8281
L10.5469 64.6562
L16.4062 64.6562
L16.4062 52.8281
L26.1719 52.8281
L26.1719 46.4375
L16.4062 46.4375
L16.4062 13.0938
Q16.4062 9.28125 17.6406 7.73438
Q18.8906 6.20312 21.9688 6.20312
Q23.25 6.20312 24.4375 6.39062
Q25.6406 6.59375 27.0469 6.89062
z
" id="LiberationSans-74"/>
      <path d="
M52.8281 0
L16.0156 58.5938
Q16.1094 56.2031 16.2656 53.8594
Q16.3594 51.8594 16.4219 49.625
Q16.5 47.4062 16.5 45.7031
L16.5 0
L8.20312 0
L8.20312 68.7969
L19.0469 68.7969
L56.25 9.8125
Q56.1094 12.2031 55.9531 14.5938
Q55.8594 16.6562 55.7656 19.0625
Q55.6719 21.4844 55.6719 23.6875
L55.6719 68.7969
L64.0625 68.7969
L64.0625 0
z
" id="LiberationSans-4e"/>
      <path d="
M9.125 0
L9.125 10.6875
L18.6562 10.6875
L18.6562 0
z
" id="LiberationSans-2e"/>
      <path d="
M6.6875 64.0625
L6.6875 72.4688
L15.4844 72.4688
L15.4844 64.0625
z

M6.6875 0
L6.6875 52.8281
L15.4844 52.8281
L15.4844 0
z
" id="LiberationSans-69"/>
      <path d="
M37.5 0
L37.5 33.5
Q37.5 37.3594 37.0156 39.9375
Q36.5312 42.5312 35.375 44.1094
Q34.2344 45.7031 32.375 46.3594
Q30.5156 47.0156 27.8281 47.0156
Q25.0469 47.0156 22.7969 45.9219
Q20.5625 44.8281 18.9688 42.75
Q17.3906 40.6719 16.5312 37.625
Q15.6719 34.5781 15.6719 30.6094
L15.6719 0
L6.9375 0
L6.9375 41.5469
Q6.9375 43.2188 6.90625 45.0469
Q6.89062 46.875 6.82812 48.5
Q6.78125 50.1406 6.73438 51.3125
Q6.6875 52.4844 6.64062 52.8281
L14.9375 52.8281
Q14.9844 52.5938 15.0312 51.5156
Q15.0938 50.4375 15.1562 49.0469
Q15.2344 47.6562 15.2812 46.2188
Q15.3281 44.7812 15.3281 43.7969
L15.4844 43.7969
Q16.6562 46.0938 18.0156 47.9531
Q19.3906 49.8125 21.2188 51.0938
Q23.0469 52.3906 25.4062 53.0938
Q27.7812 53.8125 30.9062 53.8125
Q36.9219 53.8125 40.4062 51.4219
Q43.8906 49.0312 45.2656 43.7969
L45.4062 43.7969
Q46.5781 46.0938 48.0469 47.9531
Q49.5156 49.8125 51.4688 51.0938
Q53.4219 52.3906 55.8594 53.0938
Q58.2969 53.8125 61.4219 53.8125
Q65.4375 53.8125 68.3281 52.7344
Q71.2344 51.6562 73.0938 49.4062
Q74.9531 47.1719 75.8281 43.625
Q76.7031 40.0938 76.7031 35.2031
L76.7031 0
L68.0156 0
L68.0156 33.5
Q68.0156 37.3594 67.5312 39.9375
Q67.0469 42.5312 65.8906 44.1094
Q64.75 45.7031 62.8906 46.3594
Q61.0312 47.0156 58.3438 47.0156
Q55.5625 47.0156 53.3125 45.9688
Q51.0781 44.9219 49.4844 42.875
Q47.9062 40.8281 47.0469 37.75
Q46.1875 34.6719 46.1875 30.6094
L46.1875 0
z
" id="LiberationSans-6d"/>
      <path d="
M40.2812 0
L40.2812 33.5
Q40.2812 37.3594 39.7188 39.9375
Q39.1562 42.5312 37.8906 44.1094
Q36.625 45.7031 34.5469 46.3594
Q32.4688 47.0156 29.3906 47.0156
Q26.2656 47.0156 23.75 45.9219
Q21.2344 44.8281 19.4531 42.75
Q17.6719 40.6719 16.6875 37.625
Q15.7188 34.5781 15.7188 30.6094
L15.7188 0
L6.9375 0
L6.9375 41.5469
Q6.9375 43.2188 6.90625 45.0469
Q6.89062 46.875 6.82812 48.5
Q6.78125 50.1406 6.73438 51.3125
Q6.6875 52.4844 6.64062 52.8281
L14.9375 52.8281
Q14.9844 52.5938 15.0312 51.5156
Q15.0938 50.4375 15.1562 49.0469
Q15.2344 47.6562 15.2812 46.2188
Q15.3281 44.7812 15.3281 43.7969
L15.4844 43.7969
Q16.75 46.0938 18.2656 47.9531
Q19.7812 49.8125 21.7812 51.0938
Q23.7812 52.3906 26.3594 53.0938
Q28.9531 53.8125 32.375 53.8125
Q36.7656 53.8125 39.9375 52.7344
Q43.1094 51.6562 45.1562 49.4062
Q47.2188 47.1719 48.1719 43.625
Q49.125 40.0938 49.125 35.2031
L49.125 0
z
" id="LiberationSans-6e"/>
      <path d="
M51.4219 26.4688
Q51.4219 12.5938 45.3125 5.79688
Q39.2031 -0.984375 27.5938 -0.984375
Q22.0781 -0.984375 17.7188 0.671875
Q13.375 2.34375 10.375 5.76562
Q7.375 9.1875 5.78125 14.3281
Q4.20312 19.4844 4.20312 26.4688
Q4.20312 53.8125 27.875 53.8125
Q34.0312 53.8125 38.5 52.0938
Q42.9688 50.3906 45.8281 46.9688
Q48.6875 43.5625 50.0469 38.4219
Q51.4219 33.2969 51.4219 26.4688
M42.1875 26.4688
Q42.1875 32.625 41.2344 36.625
Q40.2812 40.625 38.4531 43.0156
Q36.625 45.4062 33.9844 46.3594
Q31.3438 47.3125 28.0312 47.3125
Q24.6562 47.3125 21.9375 46.3125
Q19.2344 45.3125 17.3281 42.8906
Q15.4375 40.4844 14.4219 36.4688
Q13.4219 32.4688 13.4219 26.4688
Q13.4219 20.3125 14.5 16.2812
Q15.5781 12.25 17.4531 9.85938
Q19.3438 7.46875 21.9062 6.48438
Q24.4688 5.51562 27.4844 5.51562
Q30.8594 5.51562 33.5938 6.46875
Q36.3281 7.42188 38.2344 9.8125
Q40.1406 12.2031 41.1562 16.25
Q42.1875 20.3125 42.1875 26.4688" id="LiberationSans-6f"/>
      <path id="LiberationSans-20"/>
      <path d="
M38.6719 62.2031
Q32.8125 62.2031 28.2969 60.25
Q23.7812 58.2969 20.7188 54.6875
Q17.6719 51.0781 16.1094 46
Q14.5469 40.9219 14.5469 34.7188
Q14.5469 28.5156 16.2344 23.3594
Q17.9219 18.2188 21.0625 14.5
Q24.2188 10.7969 28.7812 8.73438
Q33.3438 6.6875 39.0625 6.6875
Q43.0625 6.6875 46.3594 7.73438
Q49.6562 8.79688 52.3125 10.6875
Q54.9844 12.5938 57.0781 15.2031
Q59.1875 17.8281 60.7969 21
L68.4062 17.1875
Q66.5469 13.3281 63.8125 10
Q61.0781 6.6875 57.3906 4.25
Q53.7188 1.8125 49.0469 0.40625
Q44.3906 -0.984375 38.625 -0.984375
Q30.2812 -0.984375 24 1.67188
Q17.7188 4.34375 13.5 9.10938
Q9.28125 13.875 7.17188 20.4062
Q5.07812 26.9531 5.07812 34.7188
Q5.07812 42.7812 7.29688 49.2656
Q9.51562 55.7656 13.7812 60.3281
Q18.0625 64.8906 24.3125 67.3594
Q30.5625 69.8281 38.5781 69.8281
Q49.5625 69.8281 56.9375 65.5312
Q64.3125 61.2344 67.7812 52.7812
L58.9375 49.8594
Q57.9531 52.2969 56.2969 54.5156
Q54.6406 56.7344 52.1406 58.4375
Q49.6562 60.1562 46.3125 61.1719
Q42.9688 62.2031 38.6719 62.2031" id="LiberationSans-43"/>
     </defs>
     <g style="fill:#262626;" transform="translate(249.579453125 393.7934375)scale(0.11 -0.11)">
      <use xlink:href="#LiberationSans-4e"/>
      <use x="72.216796875" xlink:href="#LiberationSans-75"/>
      <use x="127.83203125" xlink:href="#LiberationSans-6d"/>
      <use x="211.1328125" xlink:href="#LiberationSans-2e"/>
      <use x="238.916015625" xlink:href="#LiberationSans-20"/>
      <use x="266.69921875" xlink:href="#LiberationSans-43"/>
      <use x="338.916015625" xlink:href="#LiberationSans-6f"/>
      <use x="394.53125" xlink:href="#LiberationSans-6e"/>
      <use x="450.146484375" xlink:href="#LiberationSans-66"/>
      <use x="477.9296875" xlink:href="#LiberationSans-6f"/>
      <use x="533.544921875" xlink:href="#LiberationSans-72"/>
      <use x="566.845703125" xlink:href="#LiberationSans-6d"/>
      <use x="650.146484375" xlink:href="#LiberationSans-61"/>
      <use x="705.76171875" xlink:href="#LiberationSans-74"/>
      <use x="733.544921875" xlink:href="#LiberationSans-69"/>
      <use x="755.76171875" xlink:href="#LiberationSans-6f"/>
      <use x="811.376953125" xlink:href="#LiberationSans-6e"/>
      <use x="866.9921875" xlink:href="#LiberationSans-73"/>
     </g>
    </g>
   </g>
   <g id="matplotlib.axis_2">
    <g id="ytick_1">
     <g id="line2d_22">
      <path clip-path="url(#p6bb970f2e9)" d="
M73.125 364.5
L526.5 364.5" style="fill:none;stroke:#cccccc;stroke-linecap:round;"/>
     </g>
     <g id="line2d_23">
      <g>
       <use style="fill:#262626;stroke:#262626;" x="73.125" xlink:href="#m219da94a98" y="364.5"/>
      </g>
     </g>
     <g id="line2d_24">
      <g>
       <use style="fill:#262626;stroke:#262626;" x="526.5" xlink:href="#m219da94a98" y="364.5"/>
      </g>
     </g>
     <g id="text_9">
      <!-- 0 -->
      <g style="fill:#262626;" transform="translate(61.3453125 367.0859375)scale(0.1 -0.1)">
       <use xlink:href="#LiberationSans-30"/>
      </g>
     </g>
    </g>
    <g id="ytick_2">
     <g id="line2d_25">
      <path clip-path="url(#p6bb970f2e9)" d="
M73.125 299.7
L526.5 299.7" style="fill:none;stroke:#cccccc;stroke-linecap:round;"/>
     </g>
     <g id="line2d_26">
      <g>
       <use style="fill:#262626;stroke:#262626;" x="73.125" xlink:href="#m219da94a98" y="299.7"/>
      </g>
     </g>
     <g id="line2d_27">
      <g>
       <use style="fill:#262626;stroke:#262626;" x="526.5" xlink:href="#m219da94a98" y="299.7"/>
      </g>
     </g>
     <g id="text_10">
      <!-- 100 -->
      <g style="fill:#262626;" transform="translate(50.5953125 302.2859375)scale(0.1 -0.1)">
       <use xlink:href="#LiberationSans-31"/>
       <use x="55.615234375" xlink:href="#LiberationSans-30"/>
       <use x="111.23046875" xlink:href="#LiberationSans-30"/>
      </g>
     </g>
    </g>
    <g id="ytick_3">
     <g id="line2d_28">
      <path clip-path="url(#p6bb970f2e9)" d="
M73.125 234.9
L526.5 234.9" style="fill:none;stroke:#cccccc;stroke-linecap:round;"/>
     </g>
     <g id="line2d_29">
      <g>
       <use style="fill:#262626;stroke:#262626;" x="73.125" xlink:href="#m219da94a98" y="234.9"/>
      </g>
     </g>
     <g id="line2d_30">
      <g>
       <use style="fill:#262626;stroke:#262626;" x="526.5" xlink:href="#m219da94a98" y="234.9"/>
      </g>
     </g>
     <g id="text_11">
      <!-- 200 -->
      <g style="fill:#262626;" transform="translate(50.3359375 237.4859375)scale(0.1 -0.1)">
       <use xlink:href="#LiberationSans-32"/>
       <use x="55.615234375" xlink:href="#LiberationSans-30"/>
       <use x="111.23046875" xlink:href="#LiberationSans-30"/>
      </g>
     </g>
    </g>
    <g id="ytick_4">
     <g id="line2d_31">
      <path clip-path="url(#p6bb970f2e9)" d="
M73.125 170.1
L526.5 170.1" style="fill:none;stroke:#cccccc;stroke-linecap:round;"/>
     </g>
     <g id="line2d_32">
      <g>
       <use style="fill:#262626;stroke:#262626;" x="73.125" xlink:href="#m219da94a98" y="170.1"/>
      </g>
     </g>
     <g id="line2d_33">
      <g>
       <use style="fill:#262626;stroke:#262626;" x="526.5" xlink:href="#m219da94a98" y="170.1"/>
      </g>
     </g>
     <g id="text_12">
      <!-- 300 -->
      <g style="fill:#262626;" transform="translate(50.2140625 172.6859375)scale(0.1 -0.1)">
       <use xlink:href="#LiberationSans-33"/>
       <use x="55.615234375" xlink:href="#LiberationSans-30"/>
       <use x="111.23046875" xlink:href="#LiberationSans-30"/>
      </g>
     </g>
    </g>
    <g id="ytick_5">
     <g id="line2d_34">
      <path clip-path="url(#p6bb970f2e9)" d="
M73.125 105.3
L526.5 105.3" style="fill:none;stroke:#cccccc;stroke-linecap:round;"/>
     </g>
     <g id="line2d_35">
      <g>
       <use style="fill:#262626;stroke:#262626;" x="73.125" xlink:href="#m219da94a98" y="105.3"/>
      </g>
     </g>
     <g id="line2d_36">
      <g>
       <use style="fill:#262626;stroke:#262626;" x="526.5" xlink:href="#m219da94a98" y="105.3"/>
      </g>
     </g>
     <g id="text_13">
      <!-- 400 -->
      <defs>
       <path d="
M43.0156 15.5781
L43.0156 0
L34.7188 0
L34.7188 15.5781
L2.29688 15.5781
L2.29688 22.4062
L33.7969 68.7969
L43.0156 68.7969
L43.0156 22.5156
L52.6875 22.5156
L52.6875 15.5781
z

M34.7188 58.8906
Q34.625 58.6406 34.2344 57.9375
Q33.8438 57.2344 33.3438 56.3438
Q32.8594 55.4688 32.3438 54.5625
Q31.8438 53.6562 31.4531 53.0781
L13.8125 27.0938
Q13.5781 26.7031 13.1094 26.0625
Q12.6406 25.4375 12.1562 24.7812
Q11.6719 24.125 11.1719 23.4844
Q10.6875 22.8594 10.4062 22.5156
L34.7188 22.5156
z
" id="LiberationSans-34"/>
      </defs>
      <g style="fill:#262626;" transform="translate(50.0625 107.8859375)scale(0.1 -0.1)">
       <use xlink:href="#LiberationSans-34"/>
       <use x="55.615234375" xlink:href="#LiberationSans-30"/>
       <use x="111.23046875" xlink:href="#LiberationSans-30"/>
      </g>
     </g>
    </g>
    <g id="ytick_6">
     <g id="line2d_37">
      <path clip-path="url(#p6bb970f2e9)" d="
M73.125 40.5
L526.5 40.5" style="fill:none;stroke:#cccccc;stroke-linecap:round;"/>
     </g>
     <g id="line2d_38">
      <g>
       <use style="fill:#262626;stroke:#262626;" x="73.125" xlink:href="#m219da94a98" y="40.5"/>
      </g>
     </g>
     <g id="line2d_39">
      <g>
       <use style="fill:#262626;stroke:#262626;" x="526.5" xlink:href="#m219da94a98" y="40.5"/>
      </g>
     </g>
     <g id="text_14">
      <!-- 500 -->
      <g style="fill:#262626;" transform="translate(50.2328125 43.0859375)scale(0.1 -0.1)">
       <use xlink:href="#LiberationSans-35"/>
       <use x="55.615234375" xlink:href="#LiberationSans-30"/>
       <use x="111.23046875" xlink:href="#LiberationSans-30"/>
      </g>
     </g>
    </g>
    <g id="text_15">
     <!-- Time (s) -->
     <defs>
      <path d="
M6.20312 25.9844
Q6.20312 32.7656 7.21875 38.9688
Q8.25 45.1719 10.4375 50.875
Q12.6406 56.5938 16.0625 61.9531
Q19.4844 67.3281 24.2188 72.4688
L32.7188 72.4688
Q28.125 67.3281 24.7812 61.9375
Q21.4375 56.5469 19.2812 50.7969
Q17.1406 45.0625 16.0938 38.8594
Q15.0469 32.6719 15.0469 25.875
Q15.0469 19.0938 16.0938 12.8906
Q17.1406 6.6875 19.2812 0.921875
Q21.4375 -4.82812 24.7812 -10.2031
Q28.125 -15.5781 32.7188 -20.7031
L24.2188 -20.7031
Q19.4844 -15.5781 16.0625 -10.2031
Q12.6406 -4.82812 10.4375 0.875
Q8.25 6.59375 7.21875 12.7656
Q6.20312 18.9531 6.20312 25.7812
z
" id="LiberationSans-28"/>
      <path d="
M35.1562 61.1875
L35.1562 0
L25.875 0
L25.875 61.1875
L2.25 61.1875
L2.25 68.7969
L58.7969 68.7969
L58.7969 61.1875
z
" id="LiberationSans-54"/>
      <path d="
M27.0938 25.7812
Q27.0938 18.9531 26.0625 12.7656
Q25.0469 6.59375 22.8438 0.875
Q20.6562 -4.82812 17.2344 -10.2031
Q13.8125 -15.5781 9.07812 -20.7031
L0.59375 -20.7031
Q5.17188 -15.5781 8.51562 -10.2031
Q11.8594 -4.82812 14 0.921875
Q16.1562 6.6875 17.2031 12.8906
Q18.2656 19.0938 18.2656 25.875
Q18.2656 32.6719 17.2031 38.8594
Q16.1562 45.0625 14 50.7969
Q11.8594 56.5469 8.51562 61.9375
Q5.17188 67.3281 0.59375 72.4688
L9.07812 72.4688
Q13.8125 67.3281 17.2344 61.9531
Q20.6562 56.5938 22.8438 50.875
Q25.0469 45.1719 26.0625 38.9688
Q27.0938 32.7656 27.0938 25.9844
z
" id="LiberationSans-29"/>
      <path d="
M13.4844 24.5625
Q13.4844 20.4062 14.3281 16.9062
Q15.1875 13.4219 16.9688 10.9062
Q18.75 8.40625 21.5312 7
Q24.3125 5.60938 28.2188 5.60938
Q33.9375 5.60938 37.375 7.90625
Q40.8281 10.2031 42.0469 13.7188
L49.75 11.5312
Q48.9219 9.32812 47.4375 7.10938
Q45.9531 4.89062 43.4531 3.09375
Q40.9688 1.3125 37.2344 0.15625
Q33.5 -0.984375 28.2188 -0.984375
Q16.5 -0.984375 10.375 6
Q4.25 12.9844 4.25 26.7656
Q4.25 34.1875 6.09375 39.3281
Q7.95312 44.4844 11.1719 47.7031
Q14.4062 50.9219 18.7031 52.3594
Q23 53.8125 27.875 53.8125
Q34.5156 53.8125 38.9844 51.6562
Q43.4531 49.5156 46.1562 45.7188
Q48.875 41.9375 50.0156 36.8125
Q51.1719 31.6875 51.1719 25.7344
L51.1719 24.5625
z

M42.0938 31.2969
Q41.3594 39.6562 37.8438 43.4844
Q34.3281 47.3125 27.7344 47.3125
Q25.5312 47.3125 23.1094 46.6094
Q20.7031 45.9062 18.6562 44.0938
Q16.6094 42.2812 15.1875 39.1719
Q13.7656 36.0781 13.5781 31.2969
z
" id="LiberationSans-65"/>
     </defs>
     <g style="fill:#262626;" transform="translate(42.78 222.114375)rotate(-90.0)scale(0.11 -0.11)">
      <use xlink:href="#LiberationSans-54"/>
      <use x="57.333984375" xlink:href="#LiberationSans-69"/>
      <use x="79.55078125" xlink:href="#LiberationSans-6d"/>
      <use x="162.8515625" xlink:href="#LiberationSans-65"/>
      <use x="218.466796875" xlink:href="#LiberationSans-20"/>
      <use x="246.25" xlink:href="#LiberationSans-28"/>
      <use x="279.55078125" xlink:href="#LiberationSans-73"/>
      <use x="329.55078125" xlink:href="#LiberationSans-29"/>
     </g>
    </g>
   </g>
   <g id="line2d_40">
    <path clip-path="url(#p6bb970f2e9)" d="
M73.125 363.315
L148.688 359.802
L224.25 353.778
L299.812 345.021
L375.375 333.291
L450.937 319.527
L526.5 301.765" style="fill:none;stroke:#4c72b0;stroke-linecap:round;stroke-width:1.75;"/>
    <defs>
     <path d="
M0 3.5
C0.928211 3.5 1.81853 3.13122 2.47487 2.47487
C3.13122 1.81853 3.5 0.928211 3.5 0
C3.5 -0.928211 3.13122 -1.81853 2.47487 -2.47487
C1.81853 -3.13122 0.928211 -3.5 0 -3.5
C-0.928211 -3.5 -1.81853 -3.13122 -2.47487 -2.47487
C-3.13122 -1.81853 -3.5 -0.928211 -3.5 0
C-3.5 0.928211 -3.13122 1.81853 -2.47487 2.47487
C-1.81853 3.13122 -0.928211 3.5 0 3.5
z
" id="m706eb55eae"/>
    </defs>
    <g clip-path="url(#p6bb970f2e9)">
     <use style="fill:#4c72b0;" x="73.125" xlink:href="#m706eb55eae" y="363.314839798"/>
     <use style="fill:#4c72b0;" x="148.6875" xlink:href="#m706eb55eae" y="359.801508968"/>
     <use style="fill:#4c72b0;" x="224.25" xlink:href="#m706eb55eae" y="353.777935203"/>
     <use style="fill:#4c72b0;" x="299.8125" xlink:href="#m706eb55eae" y="345.021059676"/>
     <use style="fill:#4c72b0;" x="375.375" xlink:href="#m706eb55eae" y="333.291384615"/>
     <use style="fill:#4c72b0;" x="450.9375" xlink:href="#m706eb55eae" y="319.526525706"/>
     <use style="fill:#4c72b0;" x="526.5" xlink:href="#m706eb55eae" y="301.764951635"/>
    </g>
   </g>
   <g id="line2d_41">
    <path clip-path="url(#p6bb970f2e9)" d="
M73.125 363.824
L148.688 361.907
L224.25 358.745
L299.812 354.177
L375.375 348.384
L450.937 341.337
L526.5 332.954" style="fill:none;stroke:#55a868;stroke-linecap:round;stroke-width:1.75;"/>
    <defs>
     <path d="
M0 3.5
C0.928211 3.5 1.81853 3.13122 2.47487 2.47487
C3.13122 1.81853 3.5 0.928211 3.5 0
C3.5 -0.928211 3.13122 -1.81853 2.47487 -2.47487
C1.81853 -3.13122 0.928211 -3.5 0 -3.5
C-0.928211 -3.5 -1.81853 -3.13122 -2.47487 -2.47487
C-3.13122 -1.81853 -3.5 -0.928211 -3.5 0
C-3.5 0.928211 -3.13122 1.81853 -2.47487 2.47487
C-1.81853 3.13122 -0.928211 3.5 0 3.5
z
" id="m599e0ba7cb"/>
    </defs>
    <g clip-path="url(#p6bb970f2e9)">
     <use style="fill:#55a868;" x="73.125" xlink:href="#m599e0ba7cb" y="363.824019468"/>
     <use style="fill:#55a868;" x="148.6875" xlink:href="#m599e0ba7cb" y="361.906539387"/>
     <use style="fill:#55a868;" x="224.25" xlink:href="#m599e0ba7cb" y="358.744586751"/>
     <use style="fill:#55a868;" x="299.8125" xlink:href="#m599e0ba7cb" y="354.17745912"/>
     <use style="fill:#55a868;" x="375.375" xlink:href="#m599e0ba7cb" y="348.383794162"/>
     <use style="fill:#55a868;" x="450.9375" xlink:href="#m599e0ba7cb" y="341.337029721"/>
     <use style="fill:#55a868;" x="526.5" xlink:href="#m599e0ba7cb" y="332.954373536"/>
    </g>
   </g>
   <g id="line2d_42">
    <path clip-path="url(#p6bb970f2e9)" d="
M73.125 358.445
L148.688 339.485
L224.25 306.693
L299.812 261.012
L375.375 202.475
L450.937 130.473
L526.5 45.4516" style="fill:none;stroke:#c44e52;stroke-linecap:round;stroke-width:1.75;"/>
    <defs>
     <path d="
M0 3.5
C0.928211 3.5 1.81853 3.13122 2.47487 2.47487
C3.13122 1.81853 3.5 0.928211 3.5 0
C3.5 -0.928211 3.13122 -1.81853 2.47487 -2.47487
C1.81853 -3.13122 0.928211 -3.5 0 -3.5
C-0.928211 -3.5 -1.81853 -3.13122 -2.47487 -2.47487
C-3.13122 -1.81853 -3.5 -0.928211 -3.5 0
C-3.5 0.928211 -3.13122 1.81853 -2.47487 2.47487
C-1.81853 3.13122 -0.928211 3.5 0 3.5
z
" id="mcd9a32f25a"/>
    </defs>
    <g clip-path="url(#p6bb970f2e9)">
     <use style="fill:#c44e52;" x="73.125" xlink:href="#mcd9a32f25a" y="358.444863391"/>
     <use style="fill:#c44e52;" x="148.6875" xlink:href="#mcd9a32f25a" y="339.485181211"/>
     <use style="fill:#c44e52;" x="224.25" xlink:href="#mcd9a32f25a" y="306.692838388"/>
     <use style="fill:#c44e52;" x="299.8125" xlink:href="#mcd9a32f25a" y="261.011832181"/>
     <use style="fill:#c44e52;" x="375.375" xlink:href="#mcd9a32f25a" y="202.475073252"/>
     <use style="fill:#c44e52;" x="450.9375" xlink:href="#mcd9a32f25a" y="130.472620412"/>
     <use style="fill:#c44e52;" x="526.5" xlink:href="#mcd9a32f25a" y="45.4516458553"/>
    </g>
   </g>
   <g id="patch_3">
    <path d="
M73.125 40.5
L526.5 40.5" style="fill:none;stroke:#cccccc;"/>
   </g>
   <g id="patch_4">
    <path d="
M526.5 364.5
L526.5 40.5" style="fill:none;stroke:#cccccc;"/>
   </g>
   <g id="patch_5">
    <path d="
M73.125 364.5
L526.5 364.5" style="fill:none;stroke:#cccccc;"/>
   </g>
   <g id="patch_6">
    <path d="
M73.125 364.5
L73.125 40.5" style="fill:none;stroke:#cccccc;"/>
   </g>
   <g id="text_16">
    <!-- QCP Calculator Performance -->
    <defs>
     <path d="
M13.4219 26.6562
Q13.4219 22.125 14.0781 18.3125
Q14.75 14.5 16.3125 11.7344
Q17.875 8.98438 20.4375 7.46875
Q23 5.95312 26.7656 5.95312
Q31.4531 5.95312 34.5938 8.48438
Q37.75 11.0312 38.4844 16.3125
L47.3594 15.7188
Q46.9219 12.4531 45.4531 9.42188
Q44 6.39062 41.4844 4.09375
Q38.9688 1.8125 35.3438 0.40625
Q31.7344 -0.984375 27 -0.984375
Q20.7969 -0.984375 16.4531 1.10938
Q12.1094 3.21875 9.39062 6.90625
Q6.6875 10.5938 5.46875 15.5938
Q4.25 20.6094 4.25 26.4688
Q4.25 31.7812 5.125 35.8594
Q6 39.9375 7.59375 42.9844
Q9.1875 46.0469 11.3281 48.125
Q13.4844 50.2031 15.9844 51.4375
Q18.5 52.6875 21.2812 53.25
Q24.0781 53.8125 26.9062 53.8125
Q31.3438 53.8125 34.8125 52.5938
Q38.2812 51.375 40.7969 49.25
Q43.3125 47.125 44.875 44.2344
Q46.4375 41.3594 47.0781 38.0312
L38.0312 37.3594
Q37.3594 41.75 34.5625 44.3281
Q31.7812 46.9219 26.6562 46.9219
Q22.9062 46.9219 20.3906 45.6719
Q17.875 44.4375 16.3125 41.9219
Q14.75 39.4062 14.0781 35.5938
Q13.4219 31.7812 13.4219 26.6562" id="LiberationSans-63"/>
     <path d="
M73 34.7188
Q73 27.4375 71.1094 21.4062
Q69.2344 15.375 65.6875 10.8281
Q62.1562 6.29688 57 3.4375
Q51.8594 0.59375 45.3125 -0.296875
Q46.3438 -3.42188 47.625 -5.60938
Q48.9219 -7.8125 50.5781 -9.20312
Q52.25 -10.5938 54.2656 -11.25
Q56.2969 -11.9219 58.7969 -11.9219
Q60.1562 -11.9219 61.7188 -11.7188
Q63.2812 -11.5312 64.4062 -11.2812
L64.4062 -17.8281
Q62.5469 -18.2656 60.3281 -18.5781
Q58.1094 -18.8906 55.7188 -18.8906
Q51.5156 -18.8906 48.3906 -17.6406
Q45.2656 -16.4062 42.8906 -14.0781
Q40.5312 -11.7656 38.8125 -8.39062
Q37.1094 -5.03125 35.7969 -0.78125
Q28.0781 -0.390625 22.2344 2.40625
Q16.4062 5.21875 12.5156 9.9375
Q8.64062 14.6562 6.6875 20.9688
Q4.73438 27.2969 4.73438 34.7188
Q4.73438 42.7812 6.98438 49.2656
Q9.23438 55.7656 13.5781 60.3281
Q17.9219 64.8906 24.2969 67.3594
Q30.6719 69.8281 38.9219 69.8281
Q47.125 69.8281 53.4844 67.3281
Q59.8594 64.8438 64.1719 60.25
Q68.5 55.6719 70.75 49.1719
Q73 42.6719 73 34.7188
M63.4844 34.7188
Q63.4844 40.9219 61.8906 46
Q60.2969 51.0781 57.2031 54.6875
Q54.1094 58.2969 49.5156 60.25
Q44.9219 62.2031 38.9219 62.2031
Q32.7656 62.2031 28.125 60.25
Q23.4844 58.2969 20.375 54.6875
Q17.2812 51.0781 15.7344 46
Q14.2031 40.9219 14.2031 34.7188
Q14.2031 28.5156 15.7969 23.3594
Q17.3906 18.2188 20.4844 14.4844
Q23.5781 10.75 28.1875 8.67188
Q32.8125 6.59375 38.8125 6.59375
Q45.2656 6.59375 49.9219 8.6875
Q54.5938 10.7969 57.5938 14.5312
Q60.5938 18.2656 62.0312 23.4375
Q63.4844 28.6094 63.4844 34.7188" id="LiberationSans-51"/>
     <path d="
M61.4219 48.0938
Q61.4219 43.6094 59.9375 39.7188
Q58.4531 35.8438 55.5 32.9844
Q52.5469 30.125 48.0938 28.4688
Q43.6562 26.8125 37.75 26.8125
L17.5312 26.8125
L17.5312 0
L8.20312 0
L8.20312 68.7969
L37.1562 68.7969
Q43.2656 68.7969 47.7969 67.3125
Q52.3438 65.8281 55.375 63.1094
Q58.4062 60.4062 59.9062 56.5625
Q61.4219 52.7344 61.4219 48.0938
M52.0469 48
Q52.0469 54.5469 48.0469 57.9375
Q44.0469 61.3281 36.0312 61.3281
L17.5312 61.3281
L17.5312 34.1875
L36.4219 34.1875
Q44.4844 34.1875 48.2656 37.75
Q52.0469 41.3125 52.0469 48" id="LiberationSans-50"/>
     <path d="
M6.73438 0
L6.73438 72.4688
L15.5312 72.4688
L15.5312 0
z
" id="LiberationSans-6c"/>
    </defs>
    <g style="fill:#262626;" transform="translate(222.4921875 35.5)scale(0.12 -0.12)">
     <use xlink:href="#LiberationSans-51"/>
     <use x="77.783203125" xlink:href="#LiberationSans-43"/>
     <use x="150.0" xlink:href="#LiberationSans-50"/>
     <use x="214.94921875" xlink:href="#LiberationSans-20"/>
     <use x="242.732421875" xlink:href="#LiberationSans-43"/>
     <use x="314.94921875" xlink:href="#LiberationSans-61"/>
     <use x="370.564453125" xlink:href="#LiberationSans-6c"/>
     <use x="392.78125" xlink:href="#LiberationSans-63"/>
     <use x="442.78125" xlink:href="#LiberationSans-75"/>
     <use x="498.396484375" xlink:href="#LiberationSans-6c"/>
     <use x="520.61328125" xlink:href="#LiberationSans-61"/>
     <use x="576.228515625" xlink:href="#LiberationSans-74"/>
     <use x="604.01171875" xlink:href="#LiberationSans-6f"/>
     <use x="659.626953125" xlink:href="#LiberationSans-72"/>
     <use x="692.927734375" xlink:href="#LiberationSans-20"/>
     <use x="720.7109375" xlink:href="#LiberationSans-50"/>
     <use x="787.41015625" xlink:href="#LiberationSans-65"/>
     <use x="843.025390625" xlink:href="#LiberationSans-72"/>
     <use x="876.326171875" xlink:href="#LiberationSans-66"/>
     <use x="904.109375" xlink:href="#LiberationSans-6f"/>
     <use x="959.724609375" xlink:href="#LiberationSans-72"/>
     <use x="993.025390625" xlink:href="#LiberationSans-6d"/>
     <use x="1076.32617188" xlink:href="#LiberationSans-61"/>
     <use x="1131.94140625" xlink:href="#LiberationSans-6e"/>
     <use x="1187.55664062" xlink:href="#LiberationSans-63"/>
     <use x="1237.55664062" xlink:href="#LiberationSans-65"/>
    </g>
   </g>
   <g id="legend_1">
    <g id="line2d_43">
     <path d="
M82.125 53.2469
L102.125 53.2469" style="fill:none;stroke:#4c72b0;stroke-linecap:round;stroke-width:1.75;"/>
    </g>
    <g id="line2d_44">
     <g>
      <use style="fill:#4c72b0;" x="92.125" xlink:href="#m706eb55eae" y="53.246875"/>
     </g>
    </g>
    <g id="text_17">
     <!-- OpenMP -->
     <defs>
      <path d="
M73 34.7188
Q73 26.6562 70.6719 20.0625
Q68.3594 13.4844 63.9688 8.79688
Q59.5781 4.10938 53.2188 1.5625
Q46.875 -0.984375 38.8125 -0.984375
Q30.3281 -0.984375 23.9219 1.67188
Q17.5312 4.34375 13.2812 9.10938
Q9.03125 13.875 6.875 20.4062
Q4.73438 26.9531 4.73438 34.7188
Q4.73438 42.7812 6.98438 49.2656
Q9.23438 55.7656 13.5781 60.3281
Q17.9219 64.8906 24.2969 67.3594
Q30.6719 69.8281 38.9219 69.8281
Q47.125 69.8281 53.4844 67.3281
Q59.8594 64.8438 64.1719 60.25
Q68.5 55.6719 70.75 49.1719
Q73 42.6719 73 34.7188
M63.4844 34.7188
Q63.4844 40.9219 61.8906 46
Q60.2969 51.0781 57.2031 54.6875
Q54.1094 58.2969 49.5156 60.25
Q44.9219 62.2031 38.9219 62.2031
Q32.7656 62.2031 28.125 60.25
Q23.4844 58.2969 20.375 54.6875
Q17.2812 51.0781 15.7344 46
Q14.2031 40.9219 14.2031 34.7188
Q14.2031 28.5156 15.7969 23.3594
Q17.3906 18.2188 20.4844 14.4844
Q23.5781 10.75 28.1875 8.67188
Q32.8125 6.59375 38.8125 6.59375
Q45.2656 6.59375 49.9219 8.6875
Q54.5938 10.7969 57.5938 14.5312
Q60.5938 18.2656 62.0312 23.4375
Q63.4844 28.6094 63.4844 34.7188" id="LiberationSans-4f"/>
      <path d="
M66.7031 0
L66.7031 45.9062
Q66.7031 48.3906 66.75 50.9688
Q66.7969 53.5625 66.8906 55.7188
Q67 58.2031 67.1406 60.5469
Q66.4531 58.0625 65.7188 55.6094
Q65.0938 53.5156 64.3281 51.1406
Q63.5781 48.7812 62.8438 46.875
L45.0625 0
L38.5312 0
L20.5156 46.875
Q20.2188 47.6094 19.8906 48.5781
Q19.5781 49.5625 19.2031 50.6562
Q18.8438 51.7656 18.4688 52.9062
Q18.1094 54.0469 17.7812 55.1719
Q16.9375 57.7656 16.1562 60.5469
Q16.2188 57.8125 16.3125 55.125
Q16.4062 52.8281 16.4531 50.3125
Q16.5 47.7969 16.5 45.9062
L16.5 0
L8.20312 0
L8.20312 68.7969
L20.4531 68.7969
L38.7656 21.0938
Q39.1094 20.125 39.5938 18.5781
Q40.0938 17.0469 40.5312 15.4219
Q40.9688 13.8125 41.3281 12.375
Q41.7031 10.9375 41.8438 10.1562
Q42 10.9375 42.3906 12.4062
Q42.7812 13.875 43.2812 15.4844
Q43.7969 17.0938 44.2812 18.6094
Q44.7812 20.125 45.1719 21.0938
L63.1406 68.7969
L75.0938 68.7969
L75.0938 0
z
" id="LiberationSans-4d"/>
      <path d="
M51.4219 26.6562
Q51.4219 20.6562 50.4375 15.5781
Q49.4688 10.5 47.1875 6.82812
Q44.9219 3.17188 41.1875 1.09375
Q37.4531 -0.984375 31.9844 -0.984375
Q26.3125 -0.984375 22.0625 1.17188
Q17.8281 3.32812 15.5781 8.20312
L15.3281 8.20312
Q15.375 8.10938 15.4062 7.32812
Q15.4375 6.54688 15.4531 5.375
Q15.4844 4.20312 15.5 2.75
Q15.5312 1.3125 15.5312 -0.09375
L15.5312 -20.75
L6.73438 -20.75
L6.73438 42.0469
Q6.73438 43.9531 6.70312 45.7031
Q6.6875 47.4688 6.64062 48.9062
Q6.59375 50.3438 6.54688 51.3594
Q6.5 52.3906 6.45312 52.8281
L14.9375 52.8281
Q14.9844 52.6875 15.0625 51.7969
Q15.1406 50.9219 15.2031 49.6719
Q15.2812 48.4375 15.3594 47.0156
Q15.4375 45.6094 15.4375 44.3438
L15.625 44.3438
Q16.8438 46.875 18.4062 48.6562
Q19.9688 50.4375 21.9688 51.5781
Q23.9688 52.7344 26.4375 53.25
Q28.9062 53.7656 31.9844 53.7656
Q37.4531 53.7656 41.1875 51.8125
Q44.9219 49.8594 47.1875 46.3125
Q49.4688 42.7812 50.4375 37.7656
Q51.4219 32.7656 51.4219 26.6562
M42.1875 26.4688
Q42.1875 31.3438 41.5938 35.1562
Q41.0156 38.9688 39.5781 41.5938
Q38.1406 44.2344 35.7344 45.5938
Q33.3438 46.9688 29.7344 46.9688
Q26.8125 46.9688 24.2188 46.1406
Q21.625 45.3125 19.7031 42.9688
Q17.7812 40.625 16.6562 36.5
Q15.5312 32.375 15.5312 25.7812
Q15.5312 20.1719 16.4531 16.2812
Q17.3906 12.4062 19.1719 10.0156
Q20.9531 7.625 23.5781 6.5625
Q26.2188 5.51562 29.6406 5.51562
Q33.2969 5.51562 35.7188 6.92188
Q38.1406 8.34375 39.5781 11.0312
Q41.0156 13.7188 41.5938 17.5938
Q42.1875 21.4844 42.1875 26.4688" id="LiberationSans-70"/>
     </defs>
     <g style="fill:#262626;" transform="translate(110.125 56.746875)scale(0.1 -0.1)">
      <use xlink:href="#LiberationSans-4f"/>
      <use x="77.783203125" xlink:href="#LiberationSans-70"/>
      <use x="133.3984375" xlink:href="#LiberationSans-65"/>
      <use x="189.013671875" xlink:href="#LiberationSans-6e"/>
      <use x="244.62890625" xlink:href="#LiberationSans-4d"/>
      <use x="327.9296875" xlink:href="#LiberationSans-50"/>
     </g>
    </g>
    <g id="line2d_45">
     <path d="
M82.125 67.5687
L102.125 67.5687" style="fill:none;stroke:#55a868;stroke-linecap:round;stroke-width:1.75;"/>
    </g>
    <g id="line2d_46">
     <g>
      <use style="fill:#55a868;" x="92.125" xlink:href="#m599e0ba7cb" y="67.56875"/>
     </g>
    </g>
    <g id="text_18">
     <!-- Cuda -->
     <defs>
      <path d="
M40.0938 8.5
Q37.6406 3.42188 33.6094 1.21875
Q29.5938 -0.984375 23.6406 -0.984375
Q13.625 -0.984375 8.90625 5.75
Q4.20312 12.5 4.20312 26.1719
Q4.20312 53.8125 23.6406 53.8125
Q29.6406 53.8125 33.6406 51.6094
Q37.6406 49.4219 40.0938 44.625
L40.1875 44.625
Q40.1875 45.125 40.1562 46.1719
Q40.1406 47.2188 40.1094 48.3594
Q40.0938 49.5156 40.0938 50.5312
Q40.0938 51.5625 40.0938 52
L40.0938 72.4688
L48.875 72.4688
L48.875 10.8906
Q48.875 8.98438 48.8906 7.21875
Q48.9219 5.46875 48.9688 4
Q49.0312 2.54688 49.0781 1.48438
Q49.125 0.4375 49.1719 0
L40.7656 0
Q40.6719 0.484375 40.5938 1.39062
Q40.5312 2.29688 40.4531 3.46875
Q40.375 4.64062 40.3281 5.9375
Q40.2812 7.23438 40.2812 8.5
z

M13.4219 26.4688
Q13.4219 21 14.1094 17.0938
Q14.7969 13.1875 16.3125 10.6719
Q17.8281 8.15625 20.1719 6.98438
Q22.5156 5.8125 25.875 5.8125
Q29.3438 5.8125 32 6.9375
Q34.6719 8.0625 36.4531 10.5781
Q38.2344 13.0938 39.1562 17.1406
Q40.0938 21.1875 40.0938 27.0469
Q40.0938 32.6719 39.1562 36.5469
Q38.2344 40.4375 36.4219 42.8281
Q34.625 45.2188 32 46.2656
Q29.3906 47.3125 25.9844 47.3125
Q22.75 47.3125 20.4062 46.1875
Q18.0625 45.0625 16.5 42.5781
Q14.9375 40.0938 14.1719 36.1094
Q13.4219 32.125 13.4219 26.4688" id="LiberationSans-64"/>
     </defs>
     <g style="fill:#262626;" transform="translate(110.125 71.06875)scale(0.1 -0.1)">
      <use xlink:href="#LiberationSans-43"/>
      <use x="72.216796875" xlink:href="#LiberationSans-75"/>
      <use x="127.83203125" xlink:href="#LiberationSans-64"/>
      <use x="183.447265625" xlink:href="#LiberationSans-61"/>
     </g>
    </g>
    <g id="line2d_47">
     <path d="
M82.125 81.8906
L102.125 81.8906" style="fill:none;stroke:#c44e52;stroke-linecap:round;stroke-width:1.75;"/>
    </g>
    <g id="line2d_48">
     <g>
      <use style="fill:#c44e52;" x="92.125" xlink:href="#mcd9a32f25a" y="81.890625"/>
     </g>
    </g>
    <g id="text_19">
     <!-- Serial -->
     <defs>
      <path d="
M62.1094 19
Q62.1094 14.6562 60.4219 10.9844
Q58.7344 7.32812 55.2188 4.65625
Q51.7031 2 46.3594 0.5
Q41.0156 -0.984375 33.6875 -0.984375
Q20.8438 -0.984375 13.6719 3.51562
Q6.5 8.01562 4.54688 16.5
L13.5781 18.3125
Q14.2656 15.625 15.6719 13.4219
Q17.0938 11.2344 19.5 9.64062
Q21.9219 8.0625 25.4844 7.17188
Q29.0469 6.29688 34.0312 6.29688
Q38.1875 6.29688 41.6562 7
Q45.125 7.71875 47.6094 9.17188
Q50.0938 10.6406 51.4844 12.9531
Q52.875 15.2812 52.875 18.5
Q52.875 21.875 51.3438 23.9688
Q49.8125 26.0781 47.0156 27.4375
Q44.2344 28.8125 40.375 29.7344
Q36.5312 30.6719 31.8438 31.7344
Q28.9531 32.375 26.0469 33.125
Q23.1406 33.8906 20.4844 34.9375
Q17.8281 35.9844 15.4844 37.3906
Q13.1406 38.8125 11.4219 40.7969
Q9.71875 42.7812 8.73438 45.3906
Q7.76562 48 7.76562 51.4219
Q7.76562 56.2969 9.73438 59.7812
Q11.7188 63.2812 15.2344 65.5312
Q18.75 67.7812 23.5312 68.7969
Q28.3281 69.8281 33.8906 69.8281
Q40.2812 69.8281 44.8125 68.8281
Q49.3594 67.8281 52.4844 65.8125
Q55.6094 63.8125 57.4844 60.8594
Q59.375 57.9062 60.5 54
L51.3125 52.3906
Q50.6406 54.8906 49.3438 56.8438
Q48.0469 58.7969 45.9375 60.1094
Q43.8438 61.4219 40.8438 62.1094
Q37.8438 62.7969 33.7969 62.7969
Q29 62.7969 25.75 61.9375
Q22.5156 61.0781 20.5312 59.6094
Q18.5625 58.1562 17.7031 56.1719
Q16.8438 54.2031 16.8438 51.9062
Q16.8438 48.8281 18.375 46.8438
Q19.9219 44.875 22.5625 43.5469
Q25.2031 42.2344 28.6562 41.3594
Q32.125 40.4844 36.0312 39.5938
Q39.2031 38.875 42.3594 38.1094
Q45.5156 37.3594 48.3906 36.2969
Q51.2656 35.25 53.7812 33.8281
Q56.2969 32.4219 58.1562 30.375
Q60.0156 28.3281 61.0625 25.5312
Q62.1094 22.75 62.1094 19" id="LiberationSans-53"/>
     </defs>
     <g style="fill:#262626;" transform="translate(110.125 85.390625)scale(0.1 -0.1)">
      <use xlink:href="#LiberationSans-53"/>
      <use x="66.69921875" xlink:href="#LiberationSans-65"/>
      <use x="122.314453125" xlink:href="#LiberationSans-72"/>
      <use x="155.615234375" xlink:href="#LiberationSans-69"/>
      <use x="177.83203125" xlink:href="#LiberationSans-61"/>
      <use x="233.447265625" xlink:href="#LiberationSans-6c"/>
     </g>
    </g>
   </g>
  </g>
 </g>
 <defs>
  <clipPath id="p6bb970f2e9">
   <rect height="324.0" width="453.375" x="73.125" y="40.5"/>
  </clipPath>
 </defs>
</svg>
